<?xml version="1.0" encoding="utf-8" standalone="no"?>
<!DOCTYPE svg PUBLIC "-//W3C//DTD SVG 1.1//EN"
  "http://www.w3.org/Graphics/SVG/1.1/DTD/svg11.dtd">
<!-- Created with matplotlib (http://matplotlib.org/) -->
<svg height="360pt" version="1.1" viewBox="0 0 864 360" width="864pt" xmlns="http://www.w3.org/2000/svg" xmlns:xlink="http://www.w3.org/1999/xlink">
 <defs>
  <style type="text/css">
*{stroke-linecap:butt;stroke-linejoin:round;}
  </style>
 </defs>
 <g id="figure_1">
  <g id="patch_1">
   <path d="M 0 360 
L 864 360 
L 864 0 
L 0 0 
z
" style="fill:#ffffff;"/>
  </g>
  <g id="axes_1">
   <g id="patch_2">
    <path d="M 108 320.4 
L 399.130435 320.4 
L 399.130435 72 
L 108 72 
z
" style="fill:#e5e5e5;"/>
   </g>
   <g id="matplotlib.axis_1">
    <g id="xtick_1">
     <g id="line2d_1">
      <path clip-path="url(#p5f16fcdd1d)" d="M 121.233202 320.4 
L 121.233202 72 
" style="fill:none;stroke:#ffffff;stroke-linecap:square;stroke-width:0.8;"/>
     </g>
     <g id="line2d_2">
      <defs>
       <path d="M 0 0 
L 0 3.5 
" id="m487a9f6482" style="stroke:#555555;stroke-width:0.8;"/>
      </defs>
      <g>
       <use style="fill:#555555;stroke:#555555;stroke-width:0.8;" x="121.233202" xlink:href="#m487a9f6482" y="320.4"/>
      </g>
     </g>
     <g id="text_1">
      <!-- 0 -->
      <defs>
       <path d="M 31.78125 66.40625 
Q 24.171875 66.40625 20.328125 58.90625 
Q 16.5 51.421875 16.5 36.375 
Q 16.5 21.390625 20.328125 13.890625 
Q 24.171875 6.390625 31.78125 6.390625 
Q 39.453125 6.390625 43.28125 13.890625 
Q 47.125 21.390625 47.125 36.375 
Q 47.125 51.421875 43.28125 58.90625 
Q 39.453125 66.40625 31.78125 66.40625 
z
M 31.78125 74.21875 
Q 44.046875 74.21875 50.515625 64.515625 
Q 56.984375 54.828125 56.984375 36.375 
Q 56.984375 17.96875 50.515625 8.265625 
Q 44.046875 -1.421875 31.78125 -1.421875 
Q 19.53125 -1.421875 13.0625 8.265625 
Q 6.59375 17.96875 6.59375 36.375 
Q 6.59375 54.828125 13.0625 64.515625 
Q 19.53125 74.21875 31.78125 74.21875 
z
" id="DejaVuSans-30"/>
      </defs>
      <g style="fill:#555555;" transform="translate(118.051952 334.998438)scale(0.1 -0.1)">
       <use xlink:href="#DejaVuSans-30"/>
      </g>
     </g>
    </g>
    <g id="xtick_2">
     <g id="line2d_3">
      <path clip-path="url(#p5f16fcdd1d)" d="M 174.166008 320.4 
L 174.166008 72 
" style="fill:none;stroke:#ffffff;stroke-linecap:square;stroke-width:0.8;"/>
     </g>
     <g id="line2d_4">
      <g>
       <use style="fill:#555555;stroke:#555555;stroke-width:0.8;" x="174.166008" xlink:href="#m487a9f6482" y="320.4"/>
      </g>
     </g>
     <g id="text_2">
      <!-- 1 -->
      <defs>
       <path d="M 12.40625 8.296875 
L 28.515625 8.296875 
L 28.515625 63.921875 
L 10.984375 60.40625 
L 10.984375 69.390625 
L 28.421875 72.90625 
L 38.28125 72.90625 
L 38.28125 8.296875 
L 54.390625 8.296875 
L 54.390625 0 
L 12.40625 0 
z
" id="DejaVuSans-31"/>
      </defs>
      <g style="fill:#555555;" transform="translate(170.984758 334.998438)scale(0.1 -0.1)">
       <use xlink:href="#DejaVuSans-31"/>
      </g>
     </g>
    </g>
    <g id="xtick_3">
     <g id="line2d_5">
      <path clip-path="url(#p5f16fcdd1d)" d="M 227.098814 320.4 
L 227.098814 72 
" style="fill:none;stroke:#ffffff;stroke-linecap:square;stroke-width:0.8;"/>
     </g>
     <g id="line2d_6">
      <g>
       <use style="fill:#555555;stroke:#555555;stroke-width:0.8;" x="227.098814" xlink:href="#m487a9f6482" y="320.4"/>
      </g>
     </g>
     <g id="text_3">
      <!-- 2 -->
      <defs>
       <path d="M 19.1875 8.296875 
L 53.609375 8.296875 
L 53.609375 0 
L 7.328125 0 
L 7.328125 8.296875 
Q 12.9375 14.109375 22.625 23.890625 
Q 32.328125 33.6875 34.8125 36.53125 
Q 39.546875 41.84375 41.421875 45.53125 
Q 43.3125 49.21875 43.3125 52.78125 
Q 43.3125 58.59375 39.234375 62.25 
Q 35.15625 65.921875 28.609375 65.921875 
Q 23.96875 65.921875 18.8125 64.3125 
Q 13.671875 62.703125 7.8125 59.421875 
L 7.8125 69.390625 
Q 13.765625 71.78125 18.9375 73 
Q 24.125 74.21875 28.421875 74.21875 
Q 39.75 74.21875 46.484375 68.546875 
Q 53.21875 62.890625 53.21875 53.421875 
Q 53.21875 48.921875 51.53125 44.890625 
Q 49.859375 40.875 45.40625 35.40625 
Q 44.1875 33.984375 37.640625 27.21875 
Q 31.109375 20.453125 19.1875 8.296875 
z
" id="DejaVuSans-32"/>
      </defs>
      <g style="fill:#555555;" transform="translate(223.917564 334.998438)scale(0.1 -0.1)">
       <use xlink:href="#DejaVuSans-32"/>
      </g>
     </g>
    </g>
    <g id="xtick_4">
     <g id="line2d_7">
      <path clip-path="url(#p5f16fcdd1d)" d="M 280.031621 320.4 
L 280.031621 72 
" style="fill:none;stroke:#ffffff;stroke-linecap:square;stroke-width:0.8;"/>
     </g>
     <g id="line2d_8">
      <g>
       <use style="fill:#555555;stroke:#555555;stroke-width:0.8;" x="280.031621" xlink:href="#m487a9f6482" y="320.4"/>
      </g>
     </g>
     <g id="text_4">
      <!-- 3 -->
      <defs>
       <path d="M 40.578125 39.3125 
Q 47.65625 37.796875 51.625 33 
Q 55.609375 28.21875 55.609375 21.1875 
Q 55.609375 10.40625 48.1875 4.484375 
Q 40.765625 -1.421875 27.09375 -1.421875 
Q 22.515625 -1.421875 17.65625 -0.515625 
Q 12.796875 0.390625 7.625 2.203125 
L 7.625 11.71875 
Q 11.71875 9.328125 16.59375 8.109375 
Q 21.484375 6.890625 26.8125 6.890625 
Q 36.078125 6.890625 40.9375 10.546875 
Q 45.796875 14.203125 45.796875 21.1875 
Q 45.796875 27.640625 41.28125 31.265625 
Q 36.765625 34.90625 28.71875 34.90625 
L 20.21875 34.90625 
L 20.21875 43.015625 
L 29.109375 43.015625 
Q 36.375 43.015625 40.234375 45.921875 
Q 44.09375 48.828125 44.09375 54.296875 
Q 44.09375 59.90625 40.109375 62.90625 
Q 36.140625 65.921875 28.71875 65.921875 
Q 24.65625 65.921875 20.015625 65.03125 
Q 15.375 64.15625 9.8125 62.3125 
L 9.8125 71.09375 
Q 15.4375 72.65625 20.34375 73.4375 
Q 25.25 74.21875 29.59375 74.21875 
Q 40.828125 74.21875 47.359375 69.109375 
Q 53.90625 64.015625 53.90625 55.328125 
Q 53.90625 49.265625 50.4375 45.09375 
Q 46.96875 40.921875 40.578125 39.3125 
z
" id="DejaVuSans-33"/>
      </defs>
      <g style="fill:#555555;" transform="translate(276.850371 334.998438)scale(0.1 -0.1)">
       <use xlink:href="#DejaVuSans-33"/>
      </g>
     </g>
    </g>
    <g id="xtick_5">
     <g id="line2d_9">
      <path clip-path="url(#p5f16fcdd1d)" d="M 332.964427 320.4 
L 332.964427 72 
" style="fill:none;stroke:#ffffff;stroke-linecap:square;stroke-width:0.8;"/>
     </g>
     <g id="line2d_10">
      <g>
       <use style="fill:#555555;stroke:#555555;stroke-width:0.8;" x="332.964427" xlink:href="#m487a9f6482" y="320.4"/>
      </g>
     </g>
     <g id="text_5">
      <!-- 4 -->
      <defs>
       <path d="M 37.796875 64.3125 
L 12.890625 25.390625 
L 37.796875 25.390625 
z
M 35.203125 72.90625 
L 47.609375 72.90625 
L 47.609375 25.390625 
L 58.015625 25.390625 
L 58.015625 17.1875 
L 47.609375 17.1875 
L 47.609375 0 
L 37.796875 0 
L 37.796875 17.1875 
L 4.890625 17.1875 
L 4.890625 26.703125 
z
" id="DejaVuSans-34"/>
      </defs>
      <g style="fill:#555555;" transform="translate(329.783177 334.998438)scale(0.1 -0.1)">
       <use xlink:href="#DejaVuSans-34"/>
      </g>
     </g>
    </g>
    <g id="xtick_6">
     <g id="line2d_11">
      <path clip-path="url(#p5f16fcdd1d)" d="M 385.897233 320.4 
L 385.897233 72 
" style="fill:none;stroke:#ffffff;stroke-linecap:square;stroke-width:0.8;"/>
     </g>
     <g id="line2d_12">
      <g>
       <use style="fill:#555555;stroke:#555555;stroke-width:0.8;" x="385.897233" xlink:href="#m487a9f6482" y="320.4"/>
      </g>
     </g>
     <g id="text_6">
      <!-- 5 -->
      <defs>
       <path d="M 10.796875 72.90625 
L 49.515625 72.90625 
L 49.515625 64.59375 
L 19.828125 64.59375 
L 19.828125 46.734375 
Q 21.96875 47.46875 24.109375 47.828125 
Q 26.265625 48.1875 28.421875 48.1875 
Q 40.625 48.1875 47.75 41.5 
Q 54.890625 34.8125 54.890625 23.390625 
Q 54.890625 11.625 47.5625 5.09375 
Q 40.234375 -1.421875 26.90625 -1.421875 
Q 22.3125 -1.421875 17.546875 -0.640625 
Q 12.796875 0.140625 7.71875 1.703125 
L 7.71875 11.625 
Q 12.109375 9.234375 16.796875 8.0625 
Q 21.484375 6.890625 26.703125 6.890625 
Q 35.15625 6.890625 40.078125 11.328125 
Q 45.015625 15.765625 45.015625 23.390625 
Q 45.015625 31 40.078125 35.4375 
Q 35.15625 39.890625 26.703125 39.890625 
Q 22.75 39.890625 18.8125 39.015625 
Q 14.890625 38.140625 10.796875 36.28125 
z
" id="DejaVuSans-35"/>
      </defs>
      <g style="fill:#555555;" transform="translate(382.715983 334.998438)scale(0.1 -0.1)">
       <use xlink:href="#DejaVuSans-35"/>
      </g>
     </g>
    </g>
    <g id="text_7">
     <!-- time interval -->
     <defs>
      <path d="M 18.3125 70.21875 
L 18.3125 54.6875 
L 36.8125 54.6875 
L 36.8125 47.703125 
L 18.3125 47.703125 
L 18.3125 18.015625 
Q 18.3125 11.328125 20.140625 9.421875 
Q 21.96875 7.515625 27.59375 7.515625 
L 36.8125 7.515625 
L 36.8125 0 
L 27.59375 0 
Q 17.1875 0 13.234375 3.875 
Q 9.28125 7.765625 9.28125 18.015625 
L 9.28125 47.703125 
L 2.6875 47.703125 
L 2.6875 54.6875 
L 9.28125 54.6875 
L 9.28125 70.21875 
z
" id="DejaVuSans-74"/>
      <path d="M 9.421875 54.6875 
L 18.40625 54.6875 
L 18.40625 0 
L 9.421875 0 
z
M 9.421875 75.984375 
L 18.40625 75.984375 
L 18.40625 64.59375 
L 9.421875 64.59375 
z
" id="DejaVuSans-69"/>
      <path d="M 52 44.1875 
Q 55.375 50.25 60.0625 53.125 
Q 64.75 56 71.09375 56 
Q 79.640625 56 84.28125 50.015625 
Q 88.921875 44.046875 88.921875 33.015625 
L 88.921875 0 
L 79.890625 0 
L 79.890625 32.71875 
Q 79.890625 40.578125 77.09375 44.375 
Q 74.3125 48.1875 68.609375 48.1875 
Q 61.625 48.1875 57.5625 43.546875 
Q 53.515625 38.921875 53.515625 30.90625 
L 53.515625 0 
L 44.484375 0 
L 44.484375 32.71875 
Q 44.484375 40.625 41.703125 44.40625 
Q 38.921875 48.1875 33.109375 48.1875 
Q 26.21875 48.1875 22.15625 43.53125 
Q 18.109375 38.875 18.109375 30.90625 
L 18.109375 0 
L 9.078125 0 
L 9.078125 54.6875 
L 18.109375 54.6875 
L 18.109375 46.1875 
Q 21.1875 51.21875 25.484375 53.609375 
Q 29.78125 56 35.6875 56 
Q 41.65625 56 45.828125 52.96875 
Q 50 49.953125 52 44.1875 
z
" id="DejaVuSans-6d"/>
      <path d="M 56.203125 29.59375 
L 56.203125 25.203125 
L 14.890625 25.203125 
Q 15.484375 15.921875 20.484375 11.0625 
Q 25.484375 6.203125 34.421875 6.203125 
Q 39.59375 6.203125 44.453125 7.46875 
Q 49.3125 8.734375 54.109375 11.28125 
L 54.109375 2.78125 
Q 49.265625 0.734375 44.1875 -0.34375 
Q 39.109375 -1.421875 33.890625 -1.421875 
Q 20.796875 -1.421875 13.15625 6.1875 
Q 5.515625 13.8125 5.515625 26.8125 
Q 5.515625 40.234375 12.765625 48.109375 
Q 20.015625 56 32.328125 56 
Q 43.359375 56 49.78125 48.890625 
Q 56.203125 41.796875 56.203125 29.59375 
z
M 47.21875 32.234375 
Q 47.125 39.59375 43.09375 43.984375 
Q 39.0625 48.390625 32.421875 48.390625 
Q 24.90625 48.390625 20.390625 44.140625 
Q 15.875 39.890625 15.1875 32.171875 
z
" id="DejaVuSans-65"/>
      <path id="DejaVuSans-20"/>
      <path d="M 54.890625 33.015625 
L 54.890625 0 
L 45.90625 0 
L 45.90625 32.71875 
Q 45.90625 40.484375 42.875 44.328125 
Q 39.84375 48.1875 33.796875 48.1875 
Q 26.515625 48.1875 22.3125 43.546875 
Q 18.109375 38.921875 18.109375 30.90625 
L 18.109375 0 
L 9.078125 0 
L 9.078125 54.6875 
L 18.109375 54.6875 
L 18.109375 46.1875 
Q 21.34375 51.125 25.703125 53.5625 
Q 30.078125 56 35.796875 56 
Q 45.21875 56 50.046875 50.171875 
Q 54.890625 44.34375 54.890625 33.015625 
z
" id="DejaVuSans-6e"/>
      <path d="M 41.109375 46.296875 
Q 39.59375 47.171875 37.8125 47.578125 
Q 36.03125 48 33.890625 48 
Q 26.265625 48 22.1875 43.046875 
Q 18.109375 38.09375 18.109375 28.8125 
L 18.109375 0 
L 9.078125 0 
L 9.078125 54.6875 
L 18.109375 54.6875 
L 18.109375 46.1875 
Q 20.953125 51.171875 25.484375 53.578125 
Q 30.03125 56 36.53125 56 
Q 37.453125 56 38.578125 55.875 
Q 39.703125 55.765625 41.0625 55.515625 
z
" id="DejaVuSans-72"/>
      <path d="M 2.984375 54.6875 
L 12.5 54.6875 
L 29.59375 8.796875 
L 46.6875 54.6875 
L 56.203125 54.6875 
L 35.6875 0 
L 23.484375 0 
z
" id="DejaVuSans-76"/>
      <path d="M 34.28125 27.484375 
Q 23.390625 27.484375 19.1875 25 
Q 14.984375 22.515625 14.984375 16.5 
Q 14.984375 11.71875 18.140625 8.90625 
Q 21.296875 6.109375 26.703125 6.109375 
Q 34.1875 6.109375 38.703125 11.40625 
Q 43.21875 16.703125 43.21875 25.484375 
L 43.21875 27.484375 
z
M 52.203125 31.203125 
L 52.203125 0 
L 43.21875 0 
L 43.21875 8.296875 
Q 40.140625 3.328125 35.546875 0.953125 
Q 30.953125 -1.421875 24.3125 -1.421875 
Q 15.921875 -1.421875 10.953125 3.296875 
Q 6 8.015625 6 15.921875 
Q 6 25.140625 12.171875 29.828125 
Q 18.359375 34.515625 30.609375 34.515625 
L 43.21875 34.515625 
L 43.21875 35.40625 
Q 43.21875 41.609375 39.140625 45 
Q 35.0625 48.390625 27.6875 48.390625 
Q 23 48.390625 18.546875 47.265625 
Q 14.109375 46.140625 10.015625 43.890625 
L 10.015625 52.203125 
Q 14.9375 54.109375 19.578125 55.046875 
Q 24.21875 56 28.609375 56 
Q 40.484375 56 46.34375 49.84375 
Q 52.203125 43.703125 52.203125 31.203125 
z
" id="DejaVuSans-61"/>
      <path d="M 9.421875 75.984375 
L 18.40625 75.984375 
L 18.40625 0 
L 9.421875 0 
z
" id="DejaVuSans-6c"/>
     </defs>
     <g style="fill:#555555;" transform="translate(221.617561 348.676562)scale(0.1 -0.1)">
      <use xlink:href="#DejaVuSans-74"/>
      <use x="39.208984" xlink:href="#DejaVuSans-69"/>
      <use x="66.992188" xlink:href="#DejaVuSans-6d"/>
      <use x="164.404297" xlink:href="#DejaVuSans-65"/>
      <use x="225.927734" xlink:href="#DejaVuSans-20"/>
      <use x="257.714844" xlink:href="#DejaVuSans-69"/>
      <use x="285.498047" xlink:href="#DejaVuSans-6e"/>
      <use x="348.876953" xlink:href="#DejaVuSans-74"/>
      <use x="388.085938" xlink:href="#DejaVuSans-65"/>
      <use x="449.609375" xlink:href="#DejaVuSans-72"/>
      <use x="490.722656" xlink:href="#DejaVuSans-76"/>
      <use x="549.902344" xlink:href="#DejaVuSans-61"/>
      <use x="611.181641" xlink:href="#DejaVuSans-6c"/>
     </g>
    </g>
   </g>
   <g id="matplotlib.axis_2">
    <g id="ytick_1">
     <g id="line2d_13">
      <path clip-path="url(#p5f16fcdd1d)" d="M 108 309.108721 
L 399.130435 309.108721 
" style="fill:none;stroke:#ffffff;stroke-linecap:square;stroke-width:0.8;"/>
     </g>
     <g id="line2d_14">
      <defs>
       <path d="M 0 0 
L -3.5 0 
" id="m5422491f03" style="stroke:#555555;stroke-width:0.8;"/>
      </defs>
      <g>
       <use style="fill:#555555;stroke:#555555;stroke-width:0.8;" x="108" xlink:href="#m5422491f03" y="309.108721"/>
      </g>
     </g>
     <g id="text_8">
      <!-- 0.00 -->
      <defs>
       <path d="M 10.6875 12.40625 
L 21 12.40625 
L 21 0 
L 10.6875 0 
z
" id="DejaVuSans-2e"/>
      </defs>
      <g style="fill:#555555;" transform="translate(78.734375 312.90794)scale(0.1 -0.1)">
       <use xlink:href="#DejaVuSans-30"/>
       <use x="63.623047" xlink:href="#DejaVuSans-2e"/>
       <use x="95.410156" xlink:href="#DejaVuSans-30"/>
       <use x="159.033203" xlink:href="#DejaVuSans-30"/>
      </g>
     </g>
    </g>
    <g id="ytick_2">
     <g id="line2d_15">
      <path clip-path="url(#p5f16fcdd1d)" d="M 108 280.806656 
L 399.130435 280.806656 
" style="fill:none;stroke:#ffffff;stroke-linecap:square;stroke-width:0.8;"/>
     </g>
     <g id="line2d_16">
      <g>
       <use style="fill:#555555;stroke:#555555;stroke-width:0.8;" x="108" xlink:href="#m5422491f03" y="280.806656"/>
      </g>
     </g>
     <g id="text_9">
      <!-- 0.25 -->
      <g style="fill:#555555;" transform="translate(78.734375 284.605874)scale(0.1 -0.1)">
       <use xlink:href="#DejaVuSans-30"/>
       <use x="63.623047" xlink:href="#DejaVuSans-2e"/>
       <use x="95.410156" xlink:href="#DejaVuSans-32"/>
       <use x="159.033203" xlink:href="#DejaVuSans-35"/>
      </g>
     </g>
    </g>
    <g id="ytick_3">
     <g id="line2d_17">
      <path clip-path="url(#p5f16fcdd1d)" d="M 108 252.50459 
L 399.130435 252.50459 
" style="fill:none;stroke:#ffffff;stroke-linecap:square;stroke-width:0.8;"/>
     </g>
     <g id="line2d_18">
      <g>
       <use style="fill:#555555;stroke:#555555;stroke-width:0.8;" x="108" xlink:href="#m5422491f03" y="252.50459"/>
      </g>
     </g>
     <g id="text_10">
      <!-- 0.50 -->
      <g style="fill:#555555;" transform="translate(78.734375 256.303809)scale(0.1 -0.1)">
       <use xlink:href="#DejaVuSans-30"/>
       <use x="63.623047" xlink:href="#DejaVuSans-2e"/>
       <use x="95.410156" xlink:href="#DejaVuSans-35"/>
       <use x="159.033203" xlink:href="#DejaVuSans-30"/>
      </g>
     </g>
    </g>
    <g id="ytick_4">
     <g id="line2d_19">
      <path clip-path="url(#p5f16fcdd1d)" d="M 108 224.202524 
L 399.130435 224.202524 
" style="fill:none;stroke:#ffffff;stroke-linecap:square;stroke-width:0.8;"/>
     </g>
     <g id="line2d_20">
      <g>
       <use style="fill:#555555;stroke:#555555;stroke-width:0.8;" x="108" xlink:href="#m5422491f03" y="224.202524"/>
      </g>
     </g>
     <g id="text_11">
      <!-- 0.75 -->
      <defs>
       <path d="M 8.203125 72.90625 
L 55.078125 72.90625 
L 55.078125 68.703125 
L 28.609375 0 
L 18.3125 0 
L 43.21875 64.59375 
L 8.203125 64.59375 
z
" id="DejaVuSans-37"/>
      </defs>
      <g style="fill:#555555;" transform="translate(78.734375 228.001743)scale(0.1 -0.1)">
       <use xlink:href="#DejaVuSans-30"/>
       <use x="63.623047" xlink:href="#DejaVuSans-2e"/>
       <use x="95.410156" xlink:href="#DejaVuSans-37"/>
       <use x="159.033203" xlink:href="#DejaVuSans-35"/>
      </g>
     </g>
    </g>
    <g id="ytick_5">
     <g id="line2d_21">
      <path clip-path="url(#p5f16fcdd1d)" d="M 108 195.900459 
L 399.130435 195.900459 
" style="fill:none;stroke:#ffffff;stroke-linecap:square;stroke-width:0.8;"/>
     </g>
     <g id="line2d_22">
      <g>
       <use style="fill:#555555;stroke:#555555;stroke-width:0.8;" x="108" xlink:href="#m5422491f03" y="195.900459"/>
      </g>
     </g>
     <g id="text_12">
      <!-- 1.00 -->
      <g style="fill:#555555;" transform="translate(78.734375 199.699677)scale(0.1 -0.1)">
       <use xlink:href="#DejaVuSans-31"/>
       <use x="63.623047" xlink:href="#DejaVuSans-2e"/>
       <use x="95.410156" xlink:href="#DejaVuSans-30"/>
       <use x="159.033203" xlink:href="#DejaVuSans-30"/>
      </g>
     </g>
    </g>
    <g id="ytick_6">
     <g id="line2d_23">
      <path clip-path="url(#p5f16fcdd1d)" d="M 108 167.598393 
L 399.130435 167.598393 
" style="fill:none;stroke:#ffffff;stroke-linecap:square;stroke-width:0.8;"/>
     </g>
     <g id="line2d_24">
      <g>
       <use style="fill:#555555;stroke:#555555;stroke-width:0.8;" x="108" xlink:href="#m5422491f03" y="167.598393"/>
      </g>
     </g>
     <g id="text_13">
      <!-- 1.25 -->
      <g style="fill:#555555;" transform="translate(78.734375 171.397612)scale(0.1 -0.1)">
       <use xlink:href="#DejaVuSans-31"/>
       <use x="63.623047" xlink:href="#DejaVuSans-2e"/>
       <use x="95.410156" xlink:href="#DejaVuSans-32"/>
       <use x="159.033203" xlink:href="#DejaVuSans-35"/>
      </g>
     </g>
    </g>
    <g id="ytick_7">
     <g id="line2d_25">
      <path clip-path="url(#p5f16fcdd1d)" d="M 108 139.296327 
L 399.130435 139.296327 
" style="fill:none;stroke:#ffffff;stroke-linecap:square;stroke-width:0.8;"/>
     </g>
     <g id="line2d_26">
      <g>
       <use style="fill:#555555;stroke:#555555;stroke-width:0.8;" x="108" xlink:href="#m5422491f03" y="139.296327"/>
      </g>
     </g>
     <g id="text_14">
      <!-- 1.50 -->
      <g style="fill:#555555;" transform="translate(78.734375 143.095546)scale(0.1 -0.1)">
       <use xlink:href="#DejaVuSans-31"/>
       <use x="63.623047" xlink:href="#DejaVuSans-2e"/>
       <use x="95.410156" xlink:href="#DejaVuSans-35"/>
       <use x="159.033203" xlink:href="#DejaVuSans-30"/>
      </g>
     </g>
    </g>
    <g id="ytick_8">
     <g id="line2d_27">
      <path clip-path="url(#p5f16fcdd1d)" d="M 108 110.994262 
L 399.130435 110.994262 
" style="fill:none;stroke:#ffffff;stroke-linecap:square;stroke-width:0.8;"/>
     </g>
     <g id="line2d_28">
      <g>
       <use style="fill:#555555;stroke:#555555;stroke-width:0.8;" x="108" xlink:href="#m5422491f03" y="110.994262"/>
      </g>
     </g>
     <g id="text_15">
      <!-- 1.75 -->
      <g style="fill:#555555;" transform="translate(78.734375 114.793481)scale(0.1 -0.1)">
       <use xlink:href="#DejaVuSans-31"/>
       <use x="63.623047" xlink:href="#DejaVuSans-2e"/>
       <use x="95.410156" xlink:href="#DejaVuSans-37"/>
       <use x="159.033203" xlink:href="#DejaVuSans-35"/>
      </g>
     </g>
    </g>
    <g id="ytick_9">
     <g id="line2d_29">
      <path clip-path="url(#p5f16fcdd1d)" d="M 108 82.692196 
L 399.130435 82.692196 
" style="fill:none;stroke:#ffffff;stroke-linecap:square;stroke-width:0.8;"/>
     </g>
     <g id="line2d_30">
      <g>
       <use style="fill:#555555;stroke:#555555;stroke-width:0.8;" x="108" xlink:href="#m5422491f03" y="82.692196"/>
      </g>
     </g>
     <g id="text_16">
      <!-- 2.00 -->
      <g style="fill:#555555;" transform="translate(78.734375 86.491415)scale(0.1 -0.1)">
       <use xlink:href="#DejaVuSans-32"/>
       <use x="63.623047" xlink:href="#DejaVuSans-2e"/>
       <use x="95.410156" xlink:href="#DejaVuSans-30"/>
       <use x="159.033203" xlink:href="#DejaVuSans-30"/>
      </g>
     </g>
    </g>
    <g id="text_17">
     <!-- probability -->
     <defs>
      <path d="M 18.109375 8.203125 
L 18.109375 -20.796875 
L 9.078125 -20.796875 
L 9.078125 54.6875 
L 18.109375 54.6875 
L 18.109375 46.390625 
Q 20.953125 51.265625 25.265625 53.625 
Q 29.59375 56 35.59375 56 
Q 45.5625 56 51.78125 48.09375 
Q 58.015625 40.1875 58.015625 27.296875 
Q 58.015625 14.40625 51.78125 6.484375 
Q 45.5625 -1.421875 35.59375 -1.421875 
Q 29.59375 -1.421875 25.265625 0.953125 
Q 20.953125 3.328125 18.109375 8.203125 
z
M 48.6875 27.296875 
Q 48.6875 37.203125 44.609375 42.84375 
Q 40.53125 48.484375 33.40625 48.484375 
Q 26.265625 48.484375 22.1875 42.84375 
Q 18.109375 37.203125 18.109375 27.296875 
Q 18.109375 17.390625 22.1875 11.75 
Q 26.265625 6.109375 33.40625 6.109375 
Q 40.53125 6.109375 44.609375 11.75 
Q 48.6875 17.390625 48.6875 27.296875 
z
" id="DejaVuSans-70"/>
      <path d="M 30.609375 48.390625 
Q 23.390625 48.390625 19.1875 42.75 
Q 14.984375 37.109375 14.984375 27.296875 
Q 14.984375 17.484375 19.15625 11.84375 
Q 23.34375 6.203125 30.609375 6.203125 
Q 37.796875 6.203125 41.984375 11.859375 
Q 46.1875 17.53125 46.1875 27.296875 
Q 46.1875 37.015625 41.984375 42.703125 
Q 37.796875 48.390625 30.609375 48.390625 
z
M 30.609375 56 
Q 42.328125 56 49.015625 48.375 
Q 55.71875 40.765625 55.71875 27.296875 
Q 55.71875 13.875 49.015625 6.21875 
Q 42.328125 -1.421875 30.609375 -1.421875 
Q 18.84375 -1.421875 12.171875 6.21875 
Q 5.515625 13.875 5.515625 27.296875 
Q 5.515625 40.765625 12.171875 48.375 
Q 18.84375 56 30.609375 56 
z
" id="DejaVuSans-6f"/>
      <path d="M 48.6875 27.296875 
Q 48.6875 37.203125 44.609375 42.84375 
Q 40.53125 48.484375 33.40625 48.484375 
Q 26.265625 48.484375 22.1875 42.84375 
Q 18.109375 37.203125 18.109375 27.296875 
Q 18.109375 17.390625 22.1875 11.75 
Q 26.265625 6.109375 33.40625 6.109375 
Q 40.53125 6.109375 44.609375 11.75 
Q 48.6875 17.390625 48.6875 27.296875 
z
M 18.109375 46.390625 
Q 20.953125 51.265625 25.265625 53.625 
Q 29.59375 56 35.59375 56 
Q 45.5625 56 51.78125 48.09375 
Q 58.015625 40.1875 58.015625 27.296875 
Q 58.015625 14.40625 51.78125 6.484375 
Q 45.5625 -1.421875 35.59375 -1.421875 
Q 29.59375 -1.421875 25.265625 0.953125 
Q 20.953125 3.328125 18.109375 8.203125 
L 18.109375 0 
L 9.078125 0 
L 9.078125 75.984375 
L 18.109375 75.984375 
z
" id="DejaVuSans-62"/>
      <path d="M 32.171875 -5.078125 
Q 28.375 -14.84375 24.75 -17.8125 
Q 21.140625 -20.796875 15.09375 -20.796875 
L 7.90625 -20.796875 
L 7.90625 -13.28125 
L 13.1875 -13.28125 
Q 16.890625 -13.28125 18.9375 -11.515625 
Q 21 -9.765625 23.484375 -3.21875 
L 25.09375 0.875 
L 2.984375 54.6875 
L 12.5 54.6875 
L 29.59375 11.921875 
L 46.6875 54.6875 
L 56.203125 54.6875 
z
" id="DejaVuSans-79"/>
     </defs>
     <g style="fill:#555555;" transform="translate(72.654687 222.986719)rotate(-90)scale(0.1 -0.1)">
      <use xlink:href="#DejaVuSans-70"/>
      <use x="63.476562" xlink:href="#DejaVuSans-72"/>
      <use x="104.558594" xlink:href="#DejaVuSans-6f"/>
      <use x="165.740234" xlink:href="#DejaVuSans-62"/>
      <use x="229.216797" xlink:href="#DejaVuSans-61"/>
      <use x="290.496094" xlink:href="#DejaVuSans-62"/>
      <use x="353.972656" xlink:href="#DejaVuSans-69"/>
      <use x="381.755859" xlink:href="#DejaVuSans-6c"/>
      <use x="409.539062" xlink:href="#DejaVuSans-69"/>
      <use x="437.322266" xlink:href="#DejaVuSans-74"/>
      <use x="476.53125" xlink:href="#DejaVuSans-79"/>
     </g>
    </g>
   </g>
   <g id="line2d_31">
    <path clip-path="url(#p5f16fcdd1d)" d="M 121.233202 197.664996 
L 122.293979 198.875129 
L 123.354757 200.439881 
L 124.415535 202.359251 
L 125.476312 204.633238 
L 127.067479 208.709127 
L 128.658645 213.582907 
L 134.492923 233.784563 
L 138.736033 248.914481 
L 141.918366 260.275415 
L 144.039922 266.863509 
L 146.161477 272.645124 
L 148.283032 277.887889 
L 150.404588 282.632517 
L 152.526143 286.88314 
L 154.647699 290.643468 
L 156.769254 293.903428 
L 158.36042 295.98584 
L 159.951587 297.752496 
L 161.542753 299.218395 
L 164.194698 301.348848 
L 166.846642 303.164153 
L 168.968197 304.302358 
L 171.089753 305.122373 
L 175.863252 306.416659 
L 178.515196 306.997776 
L 180.636752 307.180724 
L 182.758307 307.102641 
L 185.410251 306.787809 
L 188.592584 306.159771 
L 191.774917 305.310789 
L 194.426862 304.392975 
L 196.548417 303.391125 
L 198.669972 302.13904 
L 200.791528 300.609439 
L 202.913083 298.793605 
L 205.034638 296.691349 
L 207.156194 294.302313 
L 209.277749 291.62351 
L 211.399305 288.616057 
L 213.52086 285.267953 
L 215.642415 281.549486 
L 217.763971 277.40676 
L 219.885526 272.826743 
L 222.007081 267.662125 
L 224.128637 261.869001 
L 226.250192 255.462617 
L 228.902136 246.629888 
L 232.614858 233.128229 
L 236.32758 219.505918 
L 237.918747 214.817976 
L 238.979524 212.2585 
L 240.040302 210.151679 
L 241.10108 208.568825 
L 241.631468 208.043767 
L 242.161857 207.699709 
L 242.692246 207.536651 
L 243.222635 207.554592 
L 243.753024 207.753532 
L 244.283413 208.133472 
L 244.813802 208.694412 
L 245.874579 210.355606 
L 246.935357 212.646415 
L 247.996135 215.527797 
L 249.056912 218.999754 
L 250.11769 223.062284 
L 251.708856 230.160179 
L 253.830412 240.530502 
L 256.482356 254.70502 
L 258.603911 265.651238 
L 260.725467 275.254294 
L 262.316633 281.570624 
L 263.9078 287.100893 
L 265.498966 291.840936 
L 267.090133 295.793397 
L 268.681299 299.060504 
L 270.272466 301.694729 
L 271.333244 303.099276 
L 272.92441 304.723393 
L 274.515577 306.003955 
L 276.106743 306.978043 
L 277.69791 307.649173 
L 279.819465 308.271797 
L 281.94102 308.672678 
L 285.123353 308.955184 
L 288.836075 309.06486 
L 304.217352 309.107268 
L 385.897233 309.108721 
L 385.897233 309.108721 
" style="fill:none;stroke:#e24a33;stroke-linecap:square;stroke-width:1.5;"/>
   </g>
   <g id="line2d_32">
    <path clip-path="url(#p5f16fcdd1d)" d="M 121.233202 178.795587 
L 122.293979 180.44084 
L 123.354757 182.427249 
L 124.945923 186.046532 
L 126.53709 190.433418 
L 128.128257 195.587907 
L 130.249812 203.550311 
L 132.901756 214.406194 
L 140.857589 248.141595 
L 143.509533 258.12888 
L 146.161477 267.217315 
L 148.283032 273.651361 
L 150.404588 279.297973 
L 152.526143 284.242841 
L 154.647699 288.562893 
L 156.769254 292.266674 
L 158.36042 294.669089 
L 159.951587 296.753949 
L 161.542753 298.52938 
L 163.664309 300.54665 
L 165.785864 302.195998 
L 167.90742 303.508299 
L 170.028975 304.548877 
L 172.15053 305.32374 
L 174.802475 306.009703 
L 176.92403 306.354075 
L 179.045585 306.51659 
L 181.167141 306.497108 
L 183.819085 306.233604 
L 186.471029 305.761114 
L 188.592584 305.219976 
L 190.71414 304.455111 
L 192.835695 303.456645 
L 194.95725 302.221983 
L 197.078806 300.749121 
L 199.200361 299.036052 
L 201.321917 297.073664 
L 203.443472 294.860575 
L 205.565027 292.346475 
L 207.686583 289.493908 
L 210.338527 285.474164 
L 212.990471 281.018953 
L 217.233582 273.286362 
L 223.067859 262.681835 
L 225.719803 258.285758 
L 227.841359 255.279356 
L 229.432525 253.356668 
L 231.023692 251.741323 
L 232.614858 250.479559 
L 234.206025 249.572733 
L 235.266802 249.167163 
L 236.32758 248.972953 
L 237.388358 249.013977 
L 238.449135 249.290236 
L 239.509913 249.801729 
L 240.570691 250.546216 
L 242.161857 251.977877 
L 243.753024 253.739591 
L 245.34419 255.831359 
L 247.465746 259.050243 
L 249.587301 262.635775 
L 252.239245 267.573469 
L 260.725467 283.574883 
L 263.377411 287.91861 
L 266.029355 291.812537 
L 268.150911 294.591005 
L 270.272466 297.030092 
L 272.394021 299.126729 
L 274.515577 300.907069 
L 276.637132 302.386569 
L 279.289076 303.876895 
L 281.94102 305.13561 
L 284.592965 306.165005 
L 287.244909 306.944692 
L 290.427242 307.603133 
L 294.139964 308.140181 
L 298.383074 308.518443 
L 304.217352 308.771089 
L 311.642795 308.853519 
L 318.007462 308.692008 
L 323.841739 308.320915 
L 329.145627 307.755938 
L 333.919127 307.051264 
L 338.692626 306.116408 
L 343.466126 304.960261 
L 348.770014 303.384746 
L 357.786625 300.800832 
L 360.438569 300.274698 
L 363.090513 299.998465 
L 366.272846 299.915184 
L 369.985568 300.09927 
L 373.167901 300.43869 
L 374.228679 300.73101 
L 375.289456 301.196026 
L 376.350234 301.833739 
L 379.002178 303.667441 
L 379.532567 303.609951 
L 380.062956 303.329652 
L 380.593345 302.826544 
L 381.123734 302.100626 
L 382.184511 299.980365 
L 383.245289 296.968866 
L 384.306067 293.066132 
L 385.366844 288.272162 
L 385.897233 285.540963 
L 385.897233 285.540963 
" style="fill:none;stroke:#348abd;stroke-linecap:square;stroke-width:1.5;"/>
   </g>
   <g id="line2d_33">
    <path clip-path="url(#p5f16fcdd1d)" d="M 121.233202 309.108721 
L 211.929693 309.016311 
L 215.112026 308.819777 
L 217.233582 308.521011 
L 218.824748 308.133676 
L 220.415915 307.527056 
L 221.476693 306.952239 
L 222.53747 306.197774 
L 223.598248 305.218451 
L 224.659026 303.961389 
L 225.719803 302.365899 
L 226.780581 300.363753 
L 227.841359 297.879959 
L 228.902136 294.834167 
L 229.962914 291.142767 
L 231.023692 286.721764 
L 232.084469 281.490423 
L 233.145247 275.375656 
L 234.206025 268.317025 
L 235.797191 255.873058 
L 237.388358 241.178669 
L 238.979524 224.35679 
L 241.10108 199.191392 
L 247.465746 120.48983 
L 249.056912 105.035566 
L 250.11769 96.707183 
L 251.178468 90.238593 
L 251.708856 87.762401 
L 252.239245 85.817123 
L 252.769634 84.41718 
L 253.300023 83.573005 
L 253.830412 83.290909 
L 254.360801 83.573005 
L 254.891189 84.41718 
L 255.421578 85.817123 
L 255.951967 87.762401 
L 257.012745 93.227461 
L 258.073523 100.652608 
L 259.1343 109.825201 
L 260.725467 126.293023 
L 262.847022 151.757791 
L 268.150911 218.325132 
L 269.742077 235.796411 
L 271.333244 251.222549 
L 272.92441 264.41967 
L 274.515577 275.375656 
L 275.576354 281.490423 
L 276.637132 286.721764 
L 277.69791 291.142767 
L 278.758687 294.834167 
L 279.819465 297.879959 
L 280.880243 300.363753 
L 281.94102 302.365899 
L 283.001798 303.961389 
L 284.062576 305.218451 
L 285.123353 306.197774 
L 286.184131 306.952239 
L 287.775298 307.759229 
L 289.366464 308.283019 
L 291.48802 308.694569 
L 294.139964 308.943467 
L 298.383074 309.075357 
L 310.051629 309.108542 
L 385.897233 309.108721 
L 385.897233 309.108721 
" style="fill:none;stroke:#988ed5;stroke-linecap:square;stroke-width:1.5;"/>
   </g>
   <g id="patch_3">
    <path d="M 108 320.4 
L 108 72 
" style="fill:none;stroke:#ffffff;stroke-linecap:square;stroke-linejoin:miter;"/>
   </g>
   <g id="patch_4">
    <path d="M 399.130435 320.4 
L 399.130435 72 
" style="fill:none;stroke:#ffffff;stroke-linecap:square;stroke-linejoin:miter;"/>
   </g>
   <g id="patch_5">
    <path d="M 108 320.4 
L 399.130435 320.4 
" style="fill:none;stroke:#ffffff;stroke-linecap:square;stroke-linejoin:miter;"/>
   </g>
   <g id="patch_6">
    <path d="M 108 72 
L 399.130435 72 
" style="fill:none;stroke:#ffffff;stroke-linecap:square;stroke-linejoin:miter;"/>
   </g>
   <g id="text_18">
    <!-- PDF -->
    <defs>
     <path d="M 19.671875 64.796875 
L 19.671875 37.40625 
L 32.078125 37.40625 
Q 38.96875 37.40625 42.71875 40.96875 
Q 46.484375 44.53125 46.484375 51.125 
Q 46.484375 57.671875 42.71875 61.234375 
Q 38.96875 64.796875 32.078125 64.796875 
z
M 9.8125 72.90625 
L 32.078125 72.90625 
Q 44.34375 72.90625 50.609375 67.359375 
Q 56.890625 61.8125 56.890625 51.125 
Q 56.890625 40.328125 50.609375 34.8125 
Q 44.34375 29.296875 32.078125 29.296875 
L 19.671875 29.296875 
L 19.671875 0 
L 9.8125 0 
z
" id="DejaVuSans-50"/>
     <path d="M 19.671875 64.796875 
L 19.671875 8.109375 
L 31.59375 8.109375 
Q 46.6875 8.109375 53.6875 14.9375 
Q 60.6875 21.78125 60.6875 36.53125 
Q 60.6875 51.171875 53.6875 57.984375 
Q 46.6875 64.796875 31.59375 64.796875 
z
M 9.8125 72.90625 
L 30.078125 72.90625 
Q 51.265625 72.90625 61.171875 64.09375 
Q 71.09375 55.28125 71.09375 36.53125 
Q 71.09375 17.671875 61.125 8.828125 
Q 51.171875 0 30.078125 0 
L 9.8125 0 
z
" id="DejaVuSans-44"/>
     <path d="M 9.8125 72.90625 
L 51.703125 72.90625 
L 51.703125 64.59375 
L 19.671875 64.59375 
L 19.671875 43.109375 
L 48.578125 43.109375 
L 48.578125 34.8125 
L 19.671875 34.8125 
L 19.671875 0 
L 9.8125 0 
z
" id="DejaVuSans-46"/>
    </defs>
    <g transform="translate(243.824592 66)scale(0.1 -0.1)">
     <use xlink:href="#DejaVuSans-50"/>
     <use x="60.302734" xlink:href="#DejaVuSans-44"/>
     <use x="137.304688" xlink:href="#DejaVuSans-46"/>
    </g>
   </g>
  </g>
  <g id="axes_2">
   <g id="patch_7">
    <path d="M 486.469565 320.4 
L 777.6 320.4 
L 777.6 72 
L 486.469565 72 
z
" style="fill:#e5e5e5;"/>
   </g>
   <g id="matplotlib.axis_3">
    <g id="xtick_7">
     <g id="line2d_34">
      <path clip-path="url(#p464f67279d)" d="M 499.702767 320.4 
L 499.702767 72 
" style="fill:none;stroke:#ffffff;stroke-linecap:square;stroke-width:0.8;"/>
     </g>
     <g id="line2d_35">
      <g>
       <use style="fill:#555555;stroke:#555555;stroke-width:0.8;" x="499.702767" xlink:href="#m487a9f6482" y="320.4"/>
      </g>
     </g>
     <g id="text_19">
      <!-- 0 -->
      <g style="fill:#555555;" transform="translate(496.521517 334.998438)scale(0.1 -0.1)">
       <use xlink:href="#DejaVuSans-30"/>
      </g>
     </g>
    </g>
    <g id="xtick_8">
     <g id="line2d_36">
      <path clip-path="url(#p464f67279d)" d="M 552.635573 320.4 
L 552.635573 72 
" style="fill:none;stroke:#ffffff;stroke-linecap:square;stroke-width:0.8;"/>
     </g>
     <g id="line2d_37">
      <g>
       <use style="fill:#555555;stroke:#555555;stroke-width:0.8;" x="552.635573" xlink:href="#m487a9f6482" y="320.4"/>
      </g>
     </g>
     <g id="text_20">
      <!-- 1 -->
      <g style="fill:#555555;" transform="translate(549.454323 334.998438)scale(0.1 -0.1)">
       <use xlink:href="#DejaVuSans-31"/>
      </g>
     </g>
    </g>
    <g id="xtick_9">
     <g id="line2d_38">
      <path clip-path="url(#p464f67279d)" d="M 605.568379 320.4 
L 605.568379 72 
" style="fill:none;stroke:#ffffff;stroke-linecap:square;stroke-width:0.8;"/>
     </g>
     <g id="line2d_39">
      <g>
       <use style="fill:#555555;stroke:#555555;stroke-width:0.8;" x="605.568379" xlink:href="#m487a9f6482" y="320.4"/>
      </g>
     </g>
     <g id="text_21">
      <!-- 2 -->
      <g style="fill:#555555;" transform="translate(602.387129 334.998438)scale(0.1 -0.1)">
       <use xlink:href="#DejaVuSans-32"/>
      </g>
     </g>
    </g>
    <g id="xtick_10">
     <g id="line2d_40">
      <path clip-path="url(#p464f67279d)" d="M 658.501186 320.4 
L 658.501186 72 
" style="fill:none;stroke:#ffffff;stroke-linecap:square;stroke-width:0.8;"/>
     </g>
     <g id="line2d_41">
      <g>
       <use style="fill:#555555;stroke:#555555;stroke-width:0.8;" x="658.501186" xlink:href="#m487a9f6482" y="320.4"/>
      </g>
     </g>
     <g id="text_22">
      <!-- 3 -->
      <g style="fill:#555555;" transform="translate(655.319936 334.998438)scale(0.1 -0.1)">
       <use xlink:href="#DejaVuSans-33"/>
      </g>
     </g>
    </g>
    <g id="xtick_11">
     <g id="line2d_42">
      <path clip-path="url(#p464f67279d)" d="M 711.433992 320.4 
L 711.433992 72 
" style="fill:none;stroke:#ffffff;stroke-linecap:square;stroke-width:0.8;"/>
     </g>
     <g id="line2d_43">
      <g>
       <use style="fill:#555555;stroke:#555555;stroke-width:0.8;" x="711.433992" xlink:href="#m487a9f6482" y="320.4"/>
      </g>
     </g>
     <g id="text_23">
      <!-- 4 -->
      <g style="fill:#555555;" transform="translate(708.252742 334.998438)scale(0.1 -0.1)">
       <use xlink:href="#DejaVuSans-34"/>
      </g>
     </g>
    </g>
    <g id="xtick_12">
     <g id="line2d_44">
      <path clip-path="url(#p464f67279d)" d="M 764.366798 320.4 
L 764.366798 72 
" style="fill:none;stroke:#ffffff;stroke-linecap:square;stroke-width:0.8;"/>
     </g>
     <g id="line2d_45">
      <g>
       <use style="fill:#555555;stroke:#555555;stroke-width:0.8;" x="764.366798" xlink:href="#m487a9f6482" y="320.4"/>
      </g>
     </g>
     <g id="text_24">
      <!-- 5 -->
      <g style="fill:#555555;" transform="translate(761.185548 334.998438)scale(0.1 -0.1)">
       <use xlink:href="#DejaVuSans-35"/>
      </g>
     </g>
    </g>
    <g id="text_25">
     <!-- time interval -->
     <g style="fill:#555555;" transform="translate(600.087126 348.676562)scale(0.1 -0.1)">
      <use xlink:href="#DejaVuSans-74"/>
      <use x="39.208984" xlink:href="#DejaVuSans-69"/>
      <use x="66.992188" xlink:href="#DejaVuSans-6d"/>
      <use x="164.404297" xlink:href="#DejaVuSans-65"/>
      <use x="225.927734" xlink:href="#DejaVuSans-20"/>
      <use x="257.714844" xlink:href="#DejaVuSans-69"/>
      <use x="285.498047" xlink:href="#DejaVuSans-6e"/>
      <use x="348.876953" xlink:href="#DejaVuSans-74"/>
      <use x="388.085938" xlink:href="#DejaVuSans-65"/>
      <use x="449.609375" xlink:href="#DejaVuSans-72"/>
      <use x="490.722656" xlink:href="#DejaVuSans-76"/>
      <use x="549.902344" xlink:href="#DejaVuSans-61"/>
      <use x="611.181641" xlink:href="#DejaVuSans-6c"/>
     </g>
    </g>
   </g>
   <g id="matplotlib.axis_4">
    <g id="ytick_10">
     <g id="line2d_46">
      <path clip-path="url(#p464f67279d)" d="M 486.469565 309.109031 
L 777.6 309.109031 
" style="fill:none;stroke:#ffffff;stroke-linecap:square;stroke-width:0.8;"/>
     </g>
     <g id="line2d_47">
      <g>
       <use style="fill:#555555;stroke:#555555;stroke-width:0.8;" x="486.469565" xlink:href="#m5422491f03" y="309.109031"/>
      </g>
     </g>
     <g id="text_26">
      <!-- 0.0 -->
      <g style="fill:#555555;" transform="translate(463.56644 312.90825)scale(0.1 -0.1)">
       <use xlink:href="#DejaVuSans-30"/>
       <use x="63.623047" xlink:href="#DejaVuSans-2e"/>
       <use x="95.410156" xlink:href="#DejaVuSans-30"/>
      </g>
     </g>
    </g>
    <g id="ytick_11">
     <g id="line2d_48">
      <path clip-path="url(#p464f67279d)" d="M 486.469565 263.945406 
L 777.6 263.945406 
" style="fill:none;stroke:#ffffff;stroke-linecap:square;stroke-width:0.8;"/>
     </g>
     <g id="line2d_49">
      <g>
       <use style="fill:#555555;stroke:#555555;stroke-width:0.8;" x="486.469565" xlink:href="#m5422491f03" y="263.945406"/>
      </g>
     </g>
     <g id="text_27">
      <!-- 0.2 -->
      <g style="fill:#555555;" transform="translate(463.56644 267.744625)scale(0.1 -0.1)">
       <use xlink:href="#DejaVuSans-30"/>
       <use x="63.623047" xlink:href="#DejaVuSans-2e"/>
       <use x="95.410156" xlink:href="#DejaVuSans-32"/>
      </g>
     </g>
    </g>
    <g id="ytick_12">
     <g id="line2d_50">
      <path clip-path="url(#p464f67279d)" d="M 486.469565 218.781782 
L 777.6 218.781782 
" style="fill:none;stroke:#ffffff;stroke-linecap:square;stroke-width:0.8;"/>
     </g>
     <g id="line2d_51">
      <g>
       <use style="fill:#555555;stroke:#555555;stroke-width:0.8;" x="486.469565" xlink:href="#m5422491f03" y="218.781782"/>
      </g>
     </g>
     <g id="text_28">
      <!-- 0.4 -->
      <g style="fill:#555555;" transform="translate(463.56644 222.581001)scale(0.1 -0.1)">
       <use xlink:href="#DejaVuSans-30"/>
       <use x="63.623047" xlink:href="#DejaVuSans-2e"/>
       <use x="95.410156" xlink:href="#DejaVuSans-34"/>
      </g>
     </g>
    </g>
    <g id="ytick_13">
     <g id="line2d_52">
      <path clip-path="url(#p464f67279d)" d="M 486.469565 173.618158 
L 777.6 173.618158 
" style="fill:none;stroke:#ffffff;stroke-linecap:square;stroke-width:0.8;"/>
     </g>
     <g id="line2d_53">
      <g>
       <use style="fill:#555555;stroke:#555555;stroke-width:0.8;" x="486.469565" xlink:href="#m5422491f03" y="173.618158"/>
      </g>
     </g>
     <g id="text_29">
      <!-- 0.6 -->
      <defs>
       <path d="M 33.015625 40.375 
Q 26.375 40.375 22.484375 35.828125 
Q 18.609375 31.296875 18.609375 23.390625 
Q 18.609375 15.53125 22.484375 10.953125 
Q 26.375 6.390625 33.015625 6.390625 
Q 39.65625 6.390625 43.53125 10.953125 
Q 47.40625 15.53125 47.40625 23.390625 
Q 47.40625 31.296875 43.53125 35.828125 
Q 39.65625 40.375 33.015625 40.375 
z
M 52.59375 71.296875 
L 52.59375 62.3125 
Q 48.875 64.0625 45.09375 64.984375 
Q 41.3125 65.921875 37.59375 65.921875 
Q 27.828125 65.921875 22.671875 59.328125 
Q 17.53125 52.734375 16.796875 39.40625 
Q 19.671875 43.65625 24.015625 45.921875 
Q 28.375 48.1875 33.59375 48.1875 
Q 44.578125 48.1875 50.953125 41.515625 
Q 57.328125 34.859375 57.328125 23.390625 
Q 57.328125 12.15625 50.6875 5.359375 
Q 44.046875 -1.421875 33.015625 -1.421875 
Q 20.359375 -1.421875 13.671875 8.265625 
Q 6.984375 17.96875 6.984375 36.375 
Q 6.984375 53.65625 15.1875 63.9375 
Q 23.390625 74.21875 37.203125 74.21875 
Q 40.921875 74.21875 44.703125 73.484375 
Q 48.484375 72.75 52.59375 71.296875 
z
" id="DejaVuSans-36"/>
      </defs>
      <g style="fill:#555555;" transform="translate(463.56644 177.417377)scale(0.1 -0.1)">
       <use xlink:href="#DejaVuSans-30"/>
       <use x="63.623047" xlink:href="#DejaVuSans-2e"/>
       <use x="95.410156" xlink:href="#DejaVuSans-36"/>
      </g>
     </g>
    </g>
    <g id="ytick_14">
     <g id="line2d_54">
      <path clip-path="url(#p464f67279d)" d="M 486.469565 128.454533 
L 777.6 128.454533 
" style="fill:none;stroke:#ffffff;stroke-linecap:square;stroke-width:0.8;"/>
     </g>
     <g id="line2d_55">
      <g>
       <use style="fill:#555555;stroke:#555555;stroke-width:0.8;" x="486.469565" xlink:href="#m5422491f03" y="128.454533"/>
      </g>
     </g>
     <g id="text_30">
      <!-- 0.8 -->
      <defs>
       <path d="M 31.78125 34.625 
Q 24.75 34.625 20.71875 30.859375 
Q 16.703125 27.09375 16.703125 20.515625 
Q 16.703125 13.921875 20.71875 10.15625 
Q 24.75 6.390625 31.78125 6.390625 
Q 38.8125 6.390625 42.859375 10.171875 
Q 46.921875 13.96875 46.921875 20.515625 
Q 46.921875 27.09375 42.890625 30.859375 
Q 38.875 34.625 31.78125 34.625 
z
M 21.921875 38.8125 
Q 15.578125 40.375 12.03125 44.71875 
Q 8.5 49.078125 8.5 55.328125 
Q 8.5 64.0625 14.71875 69.140625 
Q 20.953125 74.21875 31.78125 74.21875 
Q 42.671875 74.21875 48.875 69.140625 
Q 55.078125 64.0625 55.078125 55.328125 
Q 55.078125 49.078125 51.53125 44.71875 
Q 48 40.375 41.703125 38.8125 
Q 48.828125 37.15625 52.796875 32.3125 
Q 56.78125 27.484375 56.78125 20.515625 
Q 56.78125 9.90625 50.3125 4.234375 
Q 43.84375 -1.421875 31.78125 -1.421875 
Q 19.734375 -1.421875 13.25 4.234375 
Q 6.78125 9.90625 6.78125 20.515625 
Q 6.78125 27.484375 10.78125 32.3125 
Q 14.796875 37.15625 21.921875 38.8125 
z
M 18.3125 54.390625 
Q 18.3125 48.734375 21.84375 45.5625 
Q 25.390625 42.390625 31.78125 42.390625 
Q 38.140625 42.390625 41.71875 45.5625 
Q 45.3125 48.734375 45.3125 54.390625 
Q 45.3125 60.0625 41.71875 63.234375 
Q 38.140625 66.40625 31.78125 66.40625 
Q 25.390625 66.40625 21.84375 63.234375 
Q 18.3125 60.0625 18.3125 54.390625 
z
" id="DejaVuSans-38"/>
      </defs>
      <g style="fill:#555555;" transform="translate(463.56644 132.253752)scale(0.1 -0.1)">
       <use xlink:href="#DejaVuSans-30"/>
       <use x="63.623047" xlink:href="#DejaVuSans-2e"/>
       <use x="95.410156" xlink:href="#DejaVuSans-38"/>
      </g>
     </g>
    </g>
    <g id="ytick_15">
     <g id="line2d_56">
      <path clip-path="url(#p464f67279d)" d="M 486.469565 83.290909 
L 777.6 83.290909 
" style="fill:none;stroke:#ffffff;stroke-linecap:square;stroke-width:0.8;"/>
     </g>
     <g id="line2d_57">
      <g>
       <use style="fill:#555555;stroke:#555555;stroke-width:0.8;" x="486.469565" xlink:href="#m5422491f03" y="83.290909"/>
      </g>
     </g>
     <g id="text_31">
      <!-- 1.0 -->
      <g style="fill:#555555;" transform="translate(463.56644 87.090128)scale(0.1 -0.1)">
       <use xlink:href="#DejaVuSans-31"/>
       <use x="63.623047" xlink:href="#DejaVuSans-2e"/>
       <use x="95.410156" xlink:href="#DejaVuSans-30"/>
      </g>
     </g>
    </g>
    <g id="text_32">
     <!-- probability -->
     <g style="fill:#555555;" transform="translate(457.486753 222.986719)rotate(-90)scale(0.1 -0.1)">
      <use xlink:href="#DejaVuSans-70"/>
      <use x="63.476562" xlink:href="#DejaVuSans-72"/>
      <use x="104.558594" xlink:href="#DejaVuSans-6f"/>
      <use x="165.740234" xlink:href="#DejaVuSans-62"/>
      <use x="229.216797" xlink:href="#DejaVuSans-61"/>
      <use x="290.496094" xlink:href="#DejaVuSans-62"/>
      <use x="353.972656" xlink:href="#DejaVuSans-69"/>
      <use x="381.755859" xlink:href="#DejaVuSans-6c"/>
      <use x="409.539062" xlink:href="#DejaVuSans-69"/>
      <use x="437.322266" xlink:href="#DejaVuSans-74"/>
      <use x="476.53125" xlink:href="#DejaVuSans-79"/>
     </g>
    </g>
   </g>
   <g id="line2d_58">
    <path clip-path="url(#p464f67279d)" d="M 499.702767 83.290909 
L 503.945878 100.441303 
L 507.658599 114.616559 
L 510.310544 124.016303 
L 512.962488 132.525318 
L 515.614432 140.151678 
L 517.735987 145.622843 
L 519.857543 150.521522 
L 521.979098 154.818798 
L 524.100653 158.519581 
L 526.222209 161.737837 
L 528.343764 164.516759 
L 530.46532 166.885029 
L 532.586875 168.906511 
L 534.70843 170.587282 
L 536.829986 171.993006 
L 538.951541 173.147737 
L 541.603485 174.295766 
L 544.255429 175.216356 
L 547.437762 176.055618 
L 550.620096 176.657795 
L 555.393595 177.303089 
L 560.167095 177.730807 
L 569.183705 178.426604 
L 573.957205 179.013283 
L 578.200315 179.763055 
L 581.382648 180.560276 
L 584.034593 181.426198 
L 586.686537 182.531001 
L 588.808092 183.606362 
L 590.929647 184.889016 
L 593.051203 186.383425 
L 595.172758 188.136567 
L 597.294314 190.162688 
L 599.415869 192.490558 
L 601.537424 195.17147 
L 603.65898 198.21366 
L 605.780535 201.704178 
L 607.90209 205.668521 
L 610.023646 210.147274 
L 612.145201 215.210327 
L 614.266756 220.86067 
L 616.388312 227.118598 
L 618.509867 233.989851 
L 622.222589 247.041748 
L 629.648033 273.722688 
L 631.769588 280.489723 
L 633.891144 286.522909 
L 636.012699 291.789437 
L 637.603865 295.157056 
L 639.195032 298.018149 
L 640.786198 300.391439 
L 642.377365 302.384905 
L 643.968532 304.01583 
L 645.559698 305.286745 
L 647.150865 306.2955 
L 648.742031 307.092314 
L 650.333198 307.677186 
L 652.985142 308.320939 
L 655.637086 308.709766 
L 659.880197 308.991147 
L 665.714474 309.092951 
L 692.764305 309.109022 
L 764.366798 309.109031 
L 764.366798 309.109031 
" style="fill:none;stroke:#e24a33;stroke-linecap:square;stroke-width:1.5;"/>
   </g>
   <g id="line2d_59">
    <path clip-path="url(#p464f67279d)" d="M 499.702767 83.290909 
L 503.415489 100.601102 
L 507.128211 116.957182 
L 509.780155 127.904078 
L 512.432099 137.905435 
L 514.553654 145.191401 
L 516.67521 151.772998 
L 518.796765 157.649657 
L 520.91832 162.863116 
L 523.039876 167.429464 
L 525.161431 171.379759 
L 527.282987 174.784336 
L 528.874153 176.981466 
L 530.995708 179.513482 
L 533.117264 181.649826 
L 535.238819 183.40708 
L 537.360375 184.872832 
L 539.48193 186.059937 
L 542.133874 187.239273 
L 544.785818 188.148263 
L 547.968151 188.963896 
L 551.150484 189.552643 
L 555.393595 190.119079 
L 563.879817 190.927482 
L 570.244483 191.659994 
L 573.957205 192.280065 
L 577.139538 193.011409 
L 579.791482 193.813491 
L 582.443426 194.816619 
L 585.09537 196.071574 
L 587.747314 197.6018 
L 589.86887 199.071593 
L 591.990425 200.778668 
L 594.11198 202.741086 
L 596.233536 204.991608 
L 598.355091 207.531407 
L 600.476647 210.366589 
L 603.128591 214.328367 
L 605.780535 218.727564 
L 608.432479 223.54375 
L 612.145201 230.826455 
L 616.918701 240.813468 
L 623.813756 255.268842 
L 626.996089 261.436189 
L 630.178422 267.078759 
L 632.830366 271.301747 
L 635.48231 275.055338 
L 637.603865 277.710151 
L 639.725421 280.052028 
L 641.846976 282.099074 
L 643.968532 283.87936 
L 646.090087 285.397277 
L 648.211642 286.692799 
L 650.333198 287.776093 
L 652.985142 288.873651 
L 655.637086 289.739506 
L 658.819419 290.528156 
L 662.001752 291.112234 
L 665.714474 291.589623 
L 670.487974 291.964736 
L 676.85264 292.229412 
L 687.990805 292.411181 
L 706.554415 292.690025 
L 713.979859 293.047467 
L 719.814136 293.541969 
L 725.118024 294.217665 
L 729.891524 295.061684 
L 734.665023 296.147037 
L 739.438523 297.463967 
L 746.333578 299.653076 
L 755.880577 302.658744 
L 760.654077 303.904392 
L 764.366798 304.698011 
L 764.366798 304.698011 
" style="fill:none;stroke:#348abd;stroke-linecap:square;stroke-width:1.5;"/>
   </g>
   <g id="line2d_60">
    <path clip-path="url(#p464f67279d)" d="M 499.702767 83.290909 
L 597.294314 83.390618 
L 601.007035 83.621386 
L 603.65898 84.016307 
L 605.780535 84.59627 
L 607.371702 85.271017 
L 608.962868 86.233961 
L 610.023646 87.081057 
L 611.084423 88.128578 
L 612.145201 89.411063 
L 613.205979 90.965602 
L 614.266756 92.83117 
L 615.327534 95.047733 
L 616.388312 97.65514 
L 617.449089 100.691809 
L 619.040256 106.128147 
L 620.631423 112.708165 
L 622.222589 120.495559 
L 623.813756 129.507161 
L 625.404922 139.703786 
L 627.526477 154.960127 
L 630.178422 176.097758 
L 638.134254 241.414949 
L 640.25581 256.221784 
L 641.846976 266.03148 
L 643.438143 274.636449 
L 645.029309 282.016982 
L 646.620476 288.206699 
L 648.211642 293.282428 
L 649.802809 297.352207 
L 650.863586 299.56877 
L 651.924364 301.434337 
L 652.985142 302.988877 
L 654.04592 304.271362 
L 655.637086 305.765439 
L 657.228253 306.844187 
L 658.819419 307.605759 
L 660.410586 308.131471 
L 662.532141 308.57568 
L 665.184085 308.871609 
L 668.896807 309.039705 
L 676.85264 309.105673 
L 764.366798 309.109031 
L 764.366798 309.109031 
" style="fill:none;stroke:#988ed5;stroke-linecap:square;stroke-width:1.5;"/>
   </g>
   <g id="patch_8">
    <path d="M 486.469565 320.4 
L 486.469565 72 
" style="fill:none;stroke:#ffffff;stroke-linecap:square;stroke-linejoin:miter;"/>
   </g>
   <g id="patch_9">
    <path d="M 777.6 320.4 
L 777.6 72 
" style="fill:none;stroke:#ffffff;stroke-linecap:square;stroke-linejoin:miter;"/>
   </g>
   <g id="patch_10">
    <path d="M 486.469565 320.4 
L 777.6 320.4 
" style="fill:none;stroke:#ffffff;stroke-linecap:square;stroke-linejoin:miter;"/>
   </g>
   <g id="patch_11">
    <path d="M 486.469565 72 
L 777.6 72 
" style="fill:none;stroke:#ffffff;stroke-linecap:square;stroke-linejoin:miter;"/>
   </g>
   <g id="text_33">
    <!-- SF -->
    <defs>
     <path d="M 53.515625 70.515625 
L 53.515625 60.890625 
Q 47.90625 63.578125 42.921875 64.890625 
Q 37.9375 66.21875 33.296875 66.21875 
Q 25.25 66.21875 20.875 63.09375 
Q 16.5 59.96875 16.5 54.203125 
Q 16.5 49.359375 19.40625 46.890625 
Q 22.3125 44.4375 30.421875 42.921875 
L 36.375 41.703125 
Q 47.40625 39.59375 52.65625 34.296875 
Q 57.90625 29 57.90625 20.125 
Q 57.90625 9.515625 50.796875 4.046875 
Q 43.703125 -1.421875 29.984375 -1.421875 
Q 24.8125 -1.421875 18.96875 -0.25 
Q 13.140625 0.921875 6.890625 3.21875 
L 6.890625 13.375 
Q 12.890625 10.015625 18.65625 8.296875 
Q 24.421875 6.59375 29.984375 6.59375 
Q 38.421875 6.59375 43.015625 9.90625 
Q 47.609375 13.234375 47.609375 19.390625 
Q 47.609375 24.75 44.3125 27.78125 
Q 41.015625 30.8125 33.5 32.328125 
L 27.484375 33.5 
Q 16.453125 35.6875 11.515625 40.375 
Q 6.59375 45.0625 6.59375 53.421875 
Q 6.59375 63.09375 13.40625 68.65625 
Q 20.21875 74.21875 32.171875 74.21875 
Q 37.3125 74.21875 42.625 73.28125 
Q 47.953125 72.359375 53.515625 70.515625 
z
" id="DejaVuSans-53"/>
    </defs>
    <g transform="translate(625.984783 66)scale(0.1 -0.1)">
     <use xlink:href="#DejaVuSans-53"/>
     <use x="63.476562" xlink:href="#DejaVuSans-46"/>
    </g>
   </g>
  </g>
 </g>
 <defs>
  <clipPath id="p5f16fcdd1d">
   <rect height="248.4" width="291.130435" x="108" y="72"/>
  </clipPath>
  <clipPath id="p464f67279d">
   <rect height="248.4" width="291.130435" x="486.469565" y="72"/>
  </clipPath>
 </defs>
</svg>
