<?xml version="1.0" encoding="utf-8" standalone="no"?>
<!DOCTYPE svg PUBLIC "-//W3C//DTD SVG 1.1//EN"
  "http://www.w3.org/Graphics/SVG/1.1/DTD/svg11.dtd">
<!-- Created with matplotlib (http://matplotlib.org/) -->
<svg height="360pt" version="1.1" viewBox="0 0 864 360" width="864pt" xmlns="http://www.w3.org/2000/svg" xmlns:xlink="http://www.w3.org/1999/xlink">
 <defs>
  <style type="text/css">
*{stroke-linecap:butt;stroke-linejoin:round;}
  </style>
 </defs>
 <g id="figure_1">
  <g id="patch_1">
   <path d="M 0 360 
L 864 360 
L 864 0 
L 0 0 
z
" style="fill:#ffffff;"/>
  </g>
  <g id="axes_1">
   <g id="patch_2">
    <path d="M 108 320.4 
L 399.130435 320.4 
L 399.130435 72 
L 108 72 
z
" style="fill:#e5e5e5;"/>
   </g>
   <g id="matplotlib.axis_1">
    <g id="xtick_1">
     <g id="line2d_1">
      <path clip-path="url(#p97073bb9d8)" d="M 121.233202 320.4 
L 121.233202 72 
" style="fill:none;stroke:#ffffff;stroke-linecap:square;stroke-width:0.8;"/>
     </g>
     <g id="line2d_2">
      <defs>
       <path d="M 0 0 
L 0 3.5 
" id="m08e73abf7f" style="stroke:#555555;stroke-width:0.8;"/>
      </defs>
      <g>
       <use style="fill:#555555;stroke:#555555;stroke-width:0.8;" x="121.233202" xlink:href="#m08e73abf7f" y="320.4"/>
      </g>
     </g>
     <g id="text_1">
      <!-- 0 -->
      <defs>
       <path d="M 31.78125 66.40625 
Q 24.171875 66.40625 20.328125 58.90625 
Q 16.5 51.421875 16.5 36.375 
Q 16.5 21.390625 20.328125 13.890625 
Q 24.171875 6.390625 31.78125 6.390625 
Q 39.453125 6.390625 43.28125 13.890625 
Q 47.125 21.390625 47.125 36.375 
Q 47.125 51.421875 43.28125 58.90625 
Q 39.453125 66.40625 31.78125 66.40625 
z
M 31.78125 74.21875 
Q 44.046875 74.21875 50.515625 64.515625 
Q 56.984375 54.828125 56.984375 36.375 
Q 56.984375 17.96875 50.515625 8.265625 
Q 44.046875 -1.421875 31.78125 -1.421875 
Q 19.53125 -1.421875 13.0625 8.265625 
Q 6.59375 17.96875 6.59375 36.375 
Q 6.59375 54.828125 13.0625 64.515625 
Q 19.53125 74.21875 31.78125 74.21875 
z
" id="DejaVuSans-30"/>
      </defs>
      <g style="fill:#555555;" transform="translate(118.051952 334.998438)scale(0.1 -0.1)">
       <use xlink:href="#DejaVuSans-30"/>
      </g>
     </g>
    </g>
    <g id="xtick_2">
     <g id="line2d_3">
      <path clip-path="url(#p97073bb9d8)" d="M 174.166008 320.4 
L 174.166008 72 
" style="fill:none;stroke:#ffffff;stroke-linecap:square;stroke-width:0.8;"/>
     </g>
     <g id="line2d_4">
      <g>
       <use style="fill:#555555;stroke:#555555;stroke-width:0.8;" x="174.166008" xlink:href="#m08e73abf7f" y="320.4"/>
      </g>
     </g>
     <g id="text_2">
      <!-- 1 -->
      <defs>
       <path d="M 12.40625 8.296875 
L 28.515625 8.296875 
L 28.515625 63.921875 
L 10.984375 60.40625 
L 10.984375 69.390625 
L 28.421875 72.90625 
L 38.28125 72.90625 
L 38.28125 8.296875 
L 54.390625 8.296875 
L 54.390625 0 
L 12.40625 0 
z
" id="DejaVuSans-31"/>
      </defs>
      <g style="fill:#555555;" transform="translate(170.984758 334.998438)scale(0.1 -0.1)">
       <use xlink:href="#DejaVuSans-31"/>
      </g>
     </g>
    </g>
    <g id="xtick_3">
     <g id="line2d_5">
      <path clip-path="url(#p97073bb9d8)" d="M 227.098814 320.4 
L 227.098814 72 
" style="fill:none;stroke:#ffffff;stroke-linecap:square;stroke-width:0.8;"/>
     </g>
     <g id="line2d_6">
      <g>
       <use style="fill:#555555;stroke:#555555;stroke-width:0.8;" x="227.098814" xlink:href="#m08e73abf7f" y="320.4"/>
      </g>
     </g>
     <g id="text_3">
      <!-- 2 -->
      <defs>
       <path d="M 19.1875 8.296875 
L 53.609375 8.296875 
L 53.609375 0 
L 7.328125 0 
L 7.328125 8.296875 
Q 12.9375 14.109375 22.625 23.890625 
Q 32.328125 33.6875 34.8125 36.53125 
Q 39.546875 41.84375 41.421875 45.53125 
Q 43.3125 49.21875 43.3125 52.78125 
Q 43.3125 58.59375 39.234375 62.25 
Q 35.15625 65.921875 28.609375 65.921875 
Q 23.96875 65.921875 18.8125 64.3125 
Q 13.671875 62.703125 7.8125 59.421875 
L 7.8125 69.390625 
Q 13.765625 71.78125 18.9375 73 
Q 24.125 74.21875 28.421875 74.21875 
Q 39.75 74.21875 46.484375 68.546875 
Q 53.21875 62.890625 53.21875 53.421875 
Q 53.21875 48.921875 51.53125 44.890625 
Q 49.859375 40.875 45.40625 35.40625 
Q 44.1875 33.984375 37.640625 27.21875 
Q 31.109375 20.453125 19.1875 8.296875 
z
" id="DejaVuSans-32"/>
      </defs>
      <g style="fill:#555555;" transform="translate(223.917564 334.998438)scale(0.1 -0.1)">
       <use xlink:href="#DejaVuSans-32"/>
      </g>
     </g>
    </g>
    <g id="xtick_4">
     <g id="line2d_7">
      <path clip-path="url(#p97073bb9d8)" d="M 280.031621 320.4 
L 280.031621 72 
" style="fill:none;stroke:#ffffff;stroke-linecap:square;stroke-width:0.8;"/>
     </g>
     <g id="line2d_8">
      <g>
       <use style="fill:#555555;stroke:#555555;stroke-width:0.8;" x="280.031621" xlink:href="#m08e73abf7f" y="320.4"/>
      </g>
     </g>
     <g id="text_4">
      <!-- 3 -->
      <defs>
       <path d="M 40.578125 39.3125 
Q 47.65625 37.796875 51.625 33 
Q 55.609375 28.21875 55.609375 21.1875 
Q 55.609375 10.40625 48.1875 4.484375 
Q 40.765625 -1.421875 27.09375 -1.421875 
Q 22.515625 -1.421875 17.65625 -0.515625 
Q 12.796875 0.390625 7.625 2.203125 
L 7.625 11.71875 
Q 11.71875 9.328125 16.59375 8.109375 
Q 21.484375 6.890625 26.8125 6.890625 
Q 36.078125 6.890625 40.9375 10.546875 
Q 45.796875 14.203125 45.796875 21.1875 
Q 45.796875 27.640625 41.28125 31.265625 
Q 36.765625 34.90625 28.71875 34.90625 
L 20.21875 34.90625 
L 20.21875 43.015625 
L 29.109375 43.015625 
Q 36.375 43.015625 40.234375 45.921875 
Q 44.09375 48.828125 44.09375 54.296875 
Q 44.09375 59.90625 40.109375 62.90625 
Q 36.140625 65.921875 28.71875 65.921875 
Q 24.65625 65.921875 20.015625 65.03125 
Q 15.375 64.15625 9.8125 62.3125 
L 9.8125 71.09375 
Q 15.4375 72.65625 20.34375 73.4375 
Q 25.25 74.21875 29.59375 74.21875 
Q 40.828125 74.21875 47.359375 69.109375 
Q 53.90625 64.015625 53.90625 55.328125 
Q 53.90625 49.265625 50.4375 45.09375 
Q 46.96875 40.921875 40.578125 39.3125 
z
" id="DejaVuSans-33"/>
      </defs>
      <g style="fill:#555555;" transform="translate(276.850371 334.998438)scale(0.1 -0.1)">
       <use xlink:href="#DejaVuSans-33"/>
      </g>
     </g>
    </g>
    <g id="xtick_5">
     <g id="line2d_9">
      <path clip-path="url(#p97073bb9d8)" d="M 332.964427 320.4 
L 332.964427 72 
" style="fill:none;stroke:#ffffff;stroke-linecap:square;stroke-width:0.8;"/>
     </g>
     <g id="line2d_10">
      <g>
       <use style="fill:#555555;stroke:#555555;stroke-width:0.8;" x="332.964427" xlink:href="#m08e73abf7f" y="320.4"/>
      </g>
     </g>
     <g id="text_5">
      <!-- 4 -->
      <defs>
       <path d="M 37.796875 64.3125 
L 12.890625 25.390625 
L 37.796875 25.390625 
z
M 35.203125 72.90625 
L 47.609375 72.90625 
L 47.609375 25.390625 
L 58.015625 25.390625 
L 58.015625 17.1875 
L 47.609375 17.1875 
L 47.609375 0 
L 37.796875 0 
L 37.796875 17.1875 
L 4.890625 17.1875 
L 4.890625 26.703125 
z
" id="DejaVuSans-34"/>
      </defs>
      <g style="fill:#555555;" transform="translate(329.783177 334.998438)scale(0.1 -0.1)">
       <use xlink:href="#DejaVuSans-34"/>
      </g>
     </g>
    </g>
    <g id="xtick_6">
     <g id="line2d_11">
      <path clip-path="url(#p97073bb9d8)" d="M 385.897233 320.4 
L 385.897233 72 
" style="fill:none;stroke:#ffffff;stroke-linecap:square;stroke-width:0.8;"/>
     </g>
     <g id="line2d_12">
      <g>
       <use style="fill:#555555;stroke:#555555;stroke-width:0.8;" x="385.897233" xlink:href="#m08e73abf7f" y="320.4"/>
      </g>
     </g>
     <g id="text_6">
      <!-- 5 -->
      <defs>
       <path d="M 10.796875 72.90625 
L 49.515625 72.90625 
L 49.515625 64.59375 
L 19.828125 64.59375 
L 19.828125 46.734375 
Q 21.96875 47.46875 24.109375 47.828125 
Q 26.265625 48.1875 28.421875 48.1875 
Q 40.625 48.1875 47.75 41.5 
Q 54.890625 34.8125 54.890625 23.390625 
Q 54.890625 11.625 47.5625 5.09375 
Q 40.234375 -1.421875 26.90625 -1.421875 
Q 22.3125 -1.421875 17.546875 -0.640625 
Q 12.796875 0.140625 7.71875 1.703125 
L 7.71875 11.625 
Q 12.109375 9.234375 16.796875 8.0625 
Q 21.484375 6.890625 26.703125 6.890625 
Q 35.15625 6.890625 40.078125 11.328125 
Q 45.015625 15.765625 45.015625 23.390625 
Q 45.015625 31 40.078125 35.4375 
Q 35.15625 39.890625 26.703125 39.890625 
Q 22.75 39.890625 18.8125 39.015625 
Q 14.890625 38.140625 10.796875 36.28125 
z
" id="DejaVuSans-35"/>
      </defs>
      <g style="fill:#555555;" transform="translate(382.715983 334.998438)scale(0.1 -0.1)">
       <use xlink:href="#DejaVuSans-35"/>
      </g>
     </g>
    </g>
    <g id="text_7">
     <!-- time interval -->
     <defs>
      <path d="M 18.3125 70.21875 
L 18.3125 54.6875 
L 36.8125 54.6875 
L 36.8125 47.703125 
L 18.3125 47.703125 
L 18.3125 18.015625 
Q 18.3125 11.328125 20.140625 9.421875 
Q 21.96875 7.515625 27.59375 7.515625 
L 36.8125 7.515625 
L 36.8125 0 
L 27.59375 0 
Q 17.1875 0 13.234375 3.875 
Q 9.28125 7.765625 9.28125 18.015625 
L 9.28125 47.703125 
L 2.6875 47.703125 
L 2.6875 54.6875 
L 9.28125 54.6875 
L 9.28125 70.21875 
z
" id="DejaVuSans-74"/>
      <path d="M 9.421875 54.6875 
L 18.40625 54.6875 
L 18.40625 0 
L 9.421875 0 
z
M 9.421875 75.984375 
L 18.40625 75.984375 
L 18.40625 64.59375 
L 9.421875 64.59375 
z
" id="DejaVuSans-69"/>
      <path d="M 52 44.1875 
Q 55.375 50.25 60.0625 53.125 
Q 64.75 56 71.09375 56 
Q 79.640625 56 84.28125 50.015625 
Q 88.921875 44.046875 88.921875 33.015625 
L 88.921875 0 
L 79.890625 0 
L 79.890625 32.71875 
Q 79.890625 40.578125 77.09375 44.375 
Q 74.3125 48.1875 68.609375 48.1875 
Q 61.625 48.1875 57.5625 43.546875 
Q 53.515625 38.921875 53.515625 30.90625 
L 53.515625 0 
L 44.484375 0 
L 44.484375 32.71875 
Q 44.484375 40.625 41.703125 44.40625 
Q 38.921875 48.1875 33.109375 48.1875 
Q 26.21875 48.1875 22.15625 43.53125 
Q 18.109375 38.875 18.109375 30.90625 
L 18.109375 0 
L 9.078125 0 
L 9.078125 54.6875 
L 18.109375 54.6875 
L 18.109375 46.1875 
Q 21.1875 51.21875 25.484375 53.609375 
Q 29.78125 56 35.6875 56 
Q 41.65625 56 45.828125 52.96875 
Q 50 49.953125 52 44.1875 
z
" id="DejaVuSans-6d"/>
      <path d="M 56.203125 29.59375 
L 56.203125 25.203125 
L 14.890625 25.203125 
Q 15.484375 15.921875 20.484375 11.0625 
Q 25.484375 6.203125 34.421875 6.203125 
Q 39.59375 6.203125 44.453125 7.46875 
Q 49.3125 8.734375 54.109375 11.28125 
L 54.109375 2.78125 
Q 49.265625 0.734375 44.1875 -0.34375 
Q 39.109375 -1.421875 33.890625 -1.421875 
Q 20.796875 -1.421875 13.15625 6.1875 
Q 5.515625 13.8125 5.515625 26.8125 
Q 5.515625 40.234375 12.765625 48.109375 
Q 20.015625 56 32.328125 56 
Q 43.359375 56 49.78125 48.890625 
Q 56.203125 41.796875 56.203125 29.59375 
z
M 47.21875 32.234375 
Q 47.125 39.59375 43.09375 43.984375 
Q 39.0625 48.390625 32.421875 48.390625 
Q 24.90625 48.390625 20.390625 44.140625 
Q 15.875 39.890625 15.1875 32.171875 
z
" id="DejaVuSans-65"/>
      <path id="DejaVuSans-20"/>
      <path d="M 54.890625 33.015625 
L 54.890625 0 
L 45.90625 0 
L 45.90625 32.71875 
Q 45.90625 40.484375 42.875 44.328125 
Q 39.84375 48.1875 33.796875 48.1875 
Q 26.515625 48.1875 22.3125 43.546875 
Q 18.109375 38.921875 18.109375 30.90625 
L 18.109375 0 
L 9.078125 0 
L 9.078125 54.6875 
L 18.109375 54.6875 
L 18.109375 46.1875 
Q 21.34375 51.125 25.703125 53.5625 
Q 30.078125 56 35.796875 56 
Q 45.21875 56 50.046875 50.171875 
Q 54.890625 44.34375 54.890625 33.015625 
z
" id="DejaVuSans-6e"/>
      <path d="M 41.109375 46.296875 
Q 39.59375 47.171875 37.8125 47.578125 
Q 36.03125 48 33.890625 48 
Q 26.265625 48 22.1875 43.046875 
Q 18.109375 38.09375 18.109375 28.8125 
L 18.109375 0 
L 9.078125 0 
L 9.078125 54.6875 
L 18.109375 54.6875 
L 18.109375 46.1875 
Q 20.953125 51.171875 25.484375 53.578125 
Q 30.03125 56 36.53125 56 
Q 37.453125 56 38.578125 55.875 
Q 39.703125 55.765625 41.0625 55.515625 
z
" id="DejaVuSans-72"/>
      <path d="M 2.984375 54.6875 
L 12.5 54.6875 
L 29.59375 8.796875 
L 46.6875 54.6875 
L 56.203125 54.6875 
L 35.6875 0 
L 23.484375 0 
z
" id="DejaVuSans-76"/>
      <path d="M 34.28125 27.484375 
Q 23.390625 27.484375 19.1875 25 
Q 14.984375 22.515625 14.984375 16.5 
Q 14.984375 11.71875 18.140625 8.90625 
Q 21.296875 6.109375 26.703125 6.109375 
Q 34.1875 6.109375 38.703125 11.40625 
Q 43.21875 16.703125 43.21875 25.484375 
L 43.21875 27.484375 
z
M 52.203125 31.203125 
L 52.203125 0 
L 43.21875 0 
L 43.21875 8.296875 
Q 40.140625 3.328125 35.546875 0.953125 
Q 30.953125 -1.421875 24.3125 -1.421875 
Q 15.921875 -1.421875 10.953125 3.296875 
Q 6 8.015625 6 15.921875 
Q 6 25.140625 12.171875 29.828125 
Q 18.359375 34.515625 30.609375 34.515625 
L 43.21875 34.515625 
L 43.21875 35.40625 
Q 43.21875 41.609375 39.140625 45 
Q 35.0625 48.390625 27.6875 48.390625 
Q 23 48.390625 18.546875 47.265625 
Q 14.109375 46.140625 10.015625 43.890625 
L 10.015625 52.203125 
Q 14.9375 54.109375 19.578125 55.046875 
Q 24.21875 56 28.609375 56 
Q 40.484375 56 46.34375 49.84375 
Q 52.203125 43.703125 52.203125 31.203125 
z
" id="DejaVuSans-61"/>
      <path d="M 9.421875 75.984375 
L 18.40625 75.984375 
L 18.40625 0 
L 9.421875 0 
z
" id="DejaVuSans-6c"/>
     </defs>
     <g style="fill:#555555;" transform="translate(221.617561 348.676562)scale(0.1 -0.1)">
      <use xlink:href="#DejaVuSans-74"/>
      <use x="39.208984" xlink:href="#DejaVuSans-69"/>
      <use x="66.992188" xlink:href="#DejaVuSans-6d"/>
      <use x="164.404297" xlink:href="#DejaVuSans-65"/>
      <use x="225.927734" xlink:href="#DejaVuSans-20"/>
      <use x="257.714844" xlink:href="#DejaVuSans-69"/>
      <use x="285.498047" xlink:href="#DejaVuSans-6e"/>
      <use x="348.876953" xlink:href="#DejaVuSans-74"/>
      <use x="388.085938" xlink:href="#DejaVuSans-65"/>
      <use x="449.609375" xlink:href="#DejaVuSans-72"/>
      <use x="490.722656" xlink:href="#DejaVuSans-76"/>
      <use x="549.902344" xlink:href="#DejaVuSans-61"/>
      <use x="611.181641" xlink:href="#DejaVuSans-6c"/>
     </g>
    </g>
   </g>
   <g id="matplotlib.axis_2">
    <g id="ytick_1">
     <g id="line2d_13">
      <path clip-path="url(#p97073bb9d8)" d="M 108 309.106316 
L 399.130435 309.106316 
" style="fill:none;stroke:#ffffff;stroke-linecap:square;stroke-width:0.8;"/>
     </g>
     <g id="line2d_14">
      <defs>
       <path d="M 0 0 
L -3.5 0 
" id="m2e2722625d" style="stroke:#555555;stroke-width:0.8;"/>
      </defs>
      <g>
       <use style="fill:#555555;stroke:#555555;stroke-width:0.8;" x="108" xlink:href="#m2e2722625d" y="309.106316"/>
      </g>
     </g>
     <g id="text_8">
      <!-- 0.00 -->
      <defs>
       <path d="M 10.6875 12.40625 
L 21 12.40625 
L 21 0 
L 10.6875 0 
z
" id="DejaVuSans-2e"/>
      </defs>
      <g style="fill:#555555;" transform="translate(78.734375 312.905534)scale(0.1 -0.1)">
       <use xlink:href="#DejaVuSans-30"/>
       <use x="63.623047" xlink:href="#DejaVuSans-2e"/>
       <use x="95.410156" xlink:href="#DejaVuSans-30"/>
       <use x="159.033203" xlink:href="#DejaVuSans-30"/>
      </g>
     </g>
    </g>
    <g id="ytick_2">
     <g id="line2d_15">
      <path clip-path="url(#p97073bb9d8)" d="M 108 280.804552 
L 399.130435 280.804552 
" style="fill:none;stroke:#ffffff;stroke-linecap:square;stroke-width:0.8;"/>
     </g>
     <g id="line2d_16">
      <g>
       <use style="fill:#555555;stroke:#555555;stroke-width:0.8;" x="108" xlink:href="#m2e2722625d" y="280.804552"/>
      </g>
     </g>
     <g id="text_9">
      <!-- 0.25 -->
      <g style="fill:#555555;" transform="translate(78.734375 284.60377)scale(0.1 -0.1)">
       <use xlink:href="#DejaVuSans-30"/>
       <use x="63.623047" xlink:href="#DejaVuSans-2e"/>
       <use x="95.410156" xlink:href="#DejaVuSans-32"/>
       <use x="159.033203" xlink:href="#DejaVuSans-35"/>
      </g>
     </g>
    </g>
    <g id="ytick_3">
     <g id="line2d_17">
      <path clip-path="url(#p97073bb9d8)" d="M 108 252.502787 
L 399.130435 252.502787 
" style="fill:none;stroke:#ffffff;stroke-linecap:square;stroke-width:0.8;"/>
     </g>
     <g id="line2d_18">
      <g>
       <use style="fill:#555555;stroke:#555555;stroke-width:0.8;" x="108" xlink:href="#m2e2722625d" y="252.502787"/>
      </g>
     </g>
     <g id="text_10">
      <!-- 0.50 -->
      <g style="fill:#555555;" transform="translate(78.734375 256.302006)scale(0.1 -0.1)">
       <use xlink:href="#DejaVuSans-30"/>
       <use x="63.623047" xlink:href="#DejaVuSans-2e"/>
       <use x="95.410156" xlink:href="#DejaVuSans-35"/>
       <use x="159.033203" xlink:href="#DejaVuSans-30"/>
      </g>
     </g>
    </g>
    <g id="ytick_4">
     <g id="line2d_19">
      <path clip-path="url(#p97073bb9d8)" d="M 108 224.201023 
L 399.130435 224.201023 
" style="fill:none;stroke:#ffffff;stroke-linecap:square;stroke-width:0.8;"/>
     </g>
     <g id="line2d_20">
      <g>
       <use style="fill:#555555;stroke:#555555;stroke-width:0.8;" x="108" xlink:href="#m2e2722625d" y="224.201023"/>
      </g>
     </g>
     <g id="text_11">
      <!-- 0.75 -->
      <defs>
       <path d="M 8.203125 72.90625 
L 55.078125 72.90625 
L 55.078125 68.703125 
L 28.609375 0 
L 18.3125 0 
L 43.21875 64.59375 
L 8.203125 64.59375 
z
" id="DejaVuSans-37"/>
      </defs>
      <g style="fill:#555555;" transform="translate(78.734375 228.000242)scale(0.1 -0.1)">
       <use xlink:href="#DejaVuSans-30"/>
       <use x="63.623047" xlink:href="#DejaVuSans-2e"/>
       <use x="95.410156" xlink:href="#DejaVuSans-37"/>
       <use x="159.033203" xlink:href="#DejaVuSans-35"/>
      </g>
     </g>
    </g>
    <g id="ytick_5">
     <g id="line2d_21">
      <path clip-path="url(#p97073bb9d8)" d="M 108 195.899259 
L 399.130435 195.899259 
" style="fill:none;stroke:#ffffff;stroke-linecap:square;stroke-width:0.8;"/>
     </g>
     <g id="line2d_22">
      <g>
       <use style="fill:#555555;stroke:#555555;stroke-width:0.8;" x="108" xlink:href="#m2e2722625d" y="195.899259"/>
      </g>
     </g>
     <g id="text_12">
      <!-- 1.00 -->
      <g style="fill:#555555;" transform="translate(78.734375 199.698478)scale(0.1 -0.1)">
       <use xlink:href="#DejaVuSans-31"/>
       <use x="63.623047" xlink:href="#DejaVuSans-2e"/>
       <use x="95.410156" xlink:href="#DejaVuSans-30"/>
       <use x="159.033203" xlink:href="#DejaVuSans-30"/>
      </g>
     </g>
    </g>
    <g id="ytick_6">
     <g id="line2d_23">
      <path clip-path="url(#p97073bb9d8)" d="M 108 167.597495 
L 399.130435 167.597495 
" style="fill:none;stroke:#ffffff;stroke-linecap:square;stroke-width:0.8;"/>
     </g>
     <g id="line2d_24">
      <g>
       <use style="fill:#555555;stroke:#555555;stroke-width:0.8;" x="108" xlink:href="#m2e2722625d" y="167.597495"/>
      </g>
     </g>
     <g id="text_13">
      <!-- 1.25 -->
      <g style="fill:#555555;" transform="translate(78.734375 171.396714)scale(0.1 -0.1)">
       <use xlink:href="#DejaVuSans-31"/>
       <use x="63.623047" xlink:href="#DejaVuSans-2e"/>
       <use x="95.410156" xlink:href="#DejaVuSans-32"/>
       <use x="159.033203" xlink:href="#DejaVuSans-35"/>
      </g>
     </g>
    </g>
    <g id="ytick_7">
     <g id="line2d_25">
      <path clip-path="url(#p97073bb9d8)" d="M 108 139.295731 
L 399.130435 139.295731 
" style="fill:none;stroke:#ffffff;stroke-linecap:square;stroke-width:0.8;"/>
     </g>
     <g id="line2d_26">
      <g>
       <use style="fill:#555555;stroke:#555555;stroke-width:0.8;" x="108" xlink:href="#m2e2722625d" y="139.295731"/>
      </g>
     </g>
     <g id="text_14">
      <!-- 1.50 -->
      <g style="fill:#555555;" transform="translate(78.734375 143.09495)scale(0.1 -0.1)">
       <use xlink:href="#DejaVuSans-31"/>
       <use x="63.623047" xlink:href="#DejaVuSans-2e"/>
       <use x="95.410156" xlink:href="#DejaVuSans-35"/>
       <use x="159.033203" xlink:href="#DejaVuSans-30"/>
      </g>
     </g>
    </g>
    <g id="ytick_8">
     <g id="line2d_27">
      <path clip-path="url(#p97073bb9d8)" d="M 108 110.993967 
L 399.130435 110.993967 
" style="fill:none;stroke:#ffffff;stroke-linecap:square;stroke-width:0.8;"/>
     </g>
     <g id="line2d_28">
      <g>
       <use style="fill:#555555;stroke:#555555;stroke-width:0.8;" x="108" xlink:href="#m2e2722625d" y="110.993967"/>
      </g>
     </g>
     <g id="text_15">
      <!-- 1.75 -->
      <g style="fill:#555555;" transform="translate(78.734375 114.793185)scale(0.1 -0.1)">
       <use xlink:href="#DejaVuSans-31"/>
       <use x="63.623047" xlink:href="#DejaVuSans-2e"/>
       <use x="95.410156" xlink:href="#DejaVuSans-37"/>
       <use x="159.033203" xlink:href="#DejaVuSans-35"/>
      </g>
     </g>
    </g>
    <g id="ytick_9">
     <g id="line2d_29">
      <path clip-path="url(#p97073bb9d8)" d="M 108 82.692202 
L 399.130435 82.692202 
" style="fill:none;stroke:#ffffff;stroke-linecap:square;stroke-width:0.8;"/>
     </g>
     <g id="line2d_30">
      <g>
       <use style="fill:#555555;stroke:#555555;stroke-width:0.8;" x="108" xlink:href="#m2e2722625d" y="82.692202"/>
      </g>
     </g>
     <g id="text_16">
      <!-- 2.00 -->
      <g style="fill:#555555;" transform="translate(78.734375 86.491421)scale(0.1 -0.1)">
       <use xlink:href="#DejaVuSans-32"/>
       <use x="63.623047" xlink:href="#DejaVuSans-2e"/>
       <use x="95.410156" xlink:href="#DejaVuSans-30"/>
       <use x="159.033203" xlink:href="#DejaVuSans-30"/>
      </g>
     </g>
    </g>
    <g id="text_17">
     <!-- probability -->
     <defs>
      <path d="M 18.109375 8.203125 
L 18.109375 -20.796875 
L 9.078125 -20.796875 
L 9.078125 54.6875 
L 18.109375 54.6875 
L 18.109375 46.390625 
Q 20.953125 51.265625 25.265625 53.625 
Q 29.59375 56 35.59375 56 
Q 45.5625 56 51.78125 48.09375 
Q 58.015625 40.1875 58.015625 27.296875 
Q 58.015625 14.40625 51.78125 6.484375 
Q 45.5625 -1.421875 35.59375 -1.421875 
Q 29.59375 -1.421875 25.265625 0.953125 
Q 20.953125 3.328125 18.109375 8.203125 
z
M 48.6875 27.296875 
Q 48.6875 37.203125 44.609375 42.84375 
Q 40.53125 48.484375 33.40625 48.484375 
Q 26.265625 48.484375 22.1875 42.84375 
Q 18.109375 37.203125 18.109375 27.296875 
Q 18.109375 17.390625 22.1875 11.75 
Q 26.265625 6.109375 33.40625 6.109375 
Q 40.53125 6.109375 44.609375 11.75 
Q 48.6875 17.390625 48.6875 27.296875 
z
" id="DejaVuSans-70"/>
      <path d="M 30.609375 48.390625 
Q 23.390625 48.390625 19.1875 42.75 
Q 14.984375 37.109375 14.984375 27.296875 
Q 14.984375 17.484375 19.15625 11.84375 
Q 23.34375 6.203125 30.609375 6.203125 
Q 37.796875 6.203125 41.984375 11.859375 
Q 46.1875 17.53125 46.1875 27.296875 
Q 46.1875 37.015625 41.984375 42.703125 
Q 37.796875 48.390625 30.609375 48.390625 
z
M 30.609375 56 
Q 42.328125 56 49.015625 48.375 
Q 55.71875 40.765625 55.71875 27.296875 
Q 55.71875 13.875 49.015625 6.21875 
Q 42.328125 -1.421875 30.609375 -1.421875 
Q 18.84375 -1.421875 12.171875 6.21875 
Q 5.515625 13.875 5.515625 27.296875 
Q 5.515625 40.765625 12.171875 48.375 
Q 18.84375 56 30.609375 56 
z
" id="DejaVuSans-6f"/>
      <path d="M 48.6875 27.296875 
Q 48.6875 37.203125 44.609375 42.84375 
Q 40.53125 48.484375 33.40625 48.484375 
Q 26.265625 48.484375 22.1875 42.84375 
Q 18.109375 37.203125 18.109375 27.296875 
Q 18.109375 17.390625 22.1875 11.75 
Q 26.265625 6.109375 33.40625 6.109375 
Q 40.53125 6.109375 44.609375 11.75 
Q 48.6875 17.390625 48.6875 27.296875 
z
M 18.109375 46.390625 
Q 20.953125 51.265625 25.265625 53.625 
Q 29.59375 56 35.59375 56 
Q 45.5625 56 51.78125 48.09375 
Q 58.015625 40.1875 58.015625 27.296875 
Q 58.015625 14.40625 51.78125 6.484375 
Q 45.5625 -1.421875 35.59375 -1.421875 
Q 29.59375 -1.421875 25.265625 0.953125 
Q 20.953125 3.328125 18.109375 8.203125 
L 18.109375 0 
L 9.078125 0 
L 9.078125 75.984375 
L 18.109375 75.984375 
z
" id="DejaVuSans-62"/>
      <path d="M 32.171875 -5.078125 
Q 28.375 -14.84375 24.75 -17.8125 
Q 21.140625 -20.796875 15.09375 -20.796875 
L 7.90625 -20.796875 
L 7.90625 -13.28125 
L 13.1875 -13.28125 
Q 16.890625 -13.28125 18.9375 -11.515625 
Q 21 -9.765625 23.484375 -3.21875 
L 25.09375 0.875 
L 2.984375 54.6875 
L 12.5 54.6875 
L 29.59375 11.921875 
L 46.6875 54.6875 
L 56.203125 54.6875 
z
" id="DejaVuSans-79"/>
     </defs>
     <g style="fill:#555555;" transform="translate(72.654687 222.986719)rotate(-90)scale(0.1 -0.1)">
      <use xlink:href="#DejaVuSans-70"/>
      <use x="63.476562" xlink:href="#DejaVuSans-72"/>
      <use x="104.558594" xlink:href="#DejaVuSans-6f"/>
      <use x="165.740234" xlink:href="#DejaVuSans-62"/>
      <use x="229.216797" xlink:href="#DejaVuSans-61"/>
      <use x="290.496094" xlink:href="#DejaVuSans-62"/>
      <use x="353.972656" xlink:href="#DejaVuSans-69"/>
      <use x="381.755859" xlink:href="#DejaVuSans-6c"/>
      <use x="409.539062" xlink:href="#DejaVuSans-69"/>
      <use x="437.322266" xlink:href="#DejaVuSans-74"/>
      <use x="476.53125" xlink:href="#DejaVuSans-79"/>
     </g>
    </g>
   </g>
   <g id="line2d_31">
    <path clip-path="url(#p97073bb9d8)" d="M 121.233202 201.090543 
L 121.76359 201.314827 
L 122.293979 201.68717 
L 123.354757 202.876037 
L 124.415535 204.657143 
L 125.476312 207.030489 
L 126.53709 209.996074 
L 127.597868 213.553899 
L 128.658645 217.703963 
L 130.249812 224.409016 
L 131.31059 228.185333 
L 132.371367 231.329899 
L 133.432145 233.842714 
L 134.492923 235.724156 
L 135.5537 237.607116 
L 136.614478 240.065272 
L 137.675256 243.098624 
L 138.736033 246.707173 
L 143.509533 264.562649 
L 145.100699 269.277735 
L 147.222255 274.863136 
L 149.34381 279.930338 
L 151.465366 284.470819 
L 153.586921 288.438679 
L 155.708476 291.827235 
L 158.36042 295.493049 
L 161.012365 298.719144 
L 162.073142 299.797627 
L 163.13392 300.650817 
L 164.194698 301.278714 
L 165.255475 301.681317 
L 166.846642 301.924491 
L 168.437808 302.321061 
L 170.028975 303.021957 
L 171.620141 304.025888 
L 173.211308 304.972969 
L 174.802475 305.580944 
L 176.393641 305.849814 
L 182.227918 306.116249 
L 185.410251 306.24668 
L 188.062196 306.136506 
L 189.653362 305.786933 
L 191.244529 305.144825 
L 192.835695 304.212156 
L 194.95725 303.002345 
L 196.548417 302.321983 
L 199.200361 301.406177 
L 200.261139 300.739244 
L 201.321917 299.831955 
L 202.382694 298.684309 
L 206.095416 294.213503 
L 207.686583 292.864459 
L 209.808138 291.354828 
L 210.868916 290.268836 
L 211.929693 288.910961 
L 212.990471 287.281202 
L 214.581638 284.38161 
L 218.824748 276.087615 
L 220.415915 272.636929 
L 222.007081 268.452602 
L 223.598248 263.519674 
L 227.31097 251.199051 
L 228.902136 246.760093 
L 231.023692 241.118199 
L 232.084469 237.587379 
L 233.675636 231.245075 
L 236.857969 216.872047 
L 237.918747 213.401739 
L 238.979524 210.786165 
L 240.040302 209.025323 
L 241.10108 208.022722 
L 242.161857 207.521585 
L 242.692246 207.453859 
L 243.222635 207.508029 
L 243.753024 207.684094 
L 244.813802 208.401909 
L 245.874579 209.61464 
L 246.935357 211.502877 
L 247.996135 214.144353 
L 249.056912 217.539071 
L 250.11769 221.687028 
L 251.708856 229.164881 
L 254.360801 242.843831 
L 259.1343 268.341482 
L 260.725467 275.473082 
L 262.316633 281.780103 
L 263.9078 287.264773 
L 265.498966 291.927448 
L 267.090133 295.77277 
L 268.681299 298.980147 
L 270.272466 301.641663 
L 271.863632 303.757318 
L 273.454799 305.388199 
L 275.045965 306.63799 
L 276.637132 307.5084 
L 278.228298 308.036185 
L 280.349854 308.518313 
L 282.471409 308.791247 
L 286.71452 308.997535 
L 294.670353 309.068458 
L 321.189795 309.106312 
L 385.897233 309.106316 
L 385.897233 309.106316 
" style="fill:none;stroke:#e24a33;stroke-linecap:square;stroke-width:1.5;"/>
   </g>
   <g id="line2d_32">
    <path clip-path="url(#p97073bb9d8)" d="M 121.233202 186.877159 
L 122.293979 188.399155 
L 123.354757 190.214201 
L 124.945923 193.486241 
L 126.53709 197.417645 
L 128.128257 202.008413 
L 129.719423 207.243085 
L 131.840978 214.915691 
L 133.962534 223.294166 
L 138.205644 240.527 
L 141.387978 252.459617 
L 143.509533 259.638754 
L 146.161477 267.72498 
L 149.34381 276.675937 
L 151.465366 282.158292 
L 153.056532 285.666029 
L 154.647699 288.605823 
L 156.238865 291.007615 
L 158.890809 294.549785 
L 161.542753 297.679111 
L 163.13392 299.274844 
L 164.725087 300.620605 
L 166.316253 301.716586 
L 168.437808 302.904971 
L 170.559364 303.863119 
L 172.680919 304.599108 
L 175.332863 305.264221 
L 177.984808 305.656702 
L 180.636752 305.798699 
L 183.288696 305.69512 
L 185.94064 305.348144 
L 188.592584 304.753981 
L 191.244529 303.881344 
L 193.366084 302.976433 
L 195.487639 301.862723 
L 197.609195 300.532162 
L 199.73075 298.982488 
L 202.382694 296.731174 
L 204.50425 294.65658 
L 206.625805 292.237956 
L 208.74736 289.463887 
L 211.399305 285.59711 
L 214.051249 281.354045 
L 217.233582 275.776969 
L 224.659026 262.230751 
L 227.31097 257.98993 
L 229.962914 254.137512 
L 231.55408 252.244553 
L 232.614858 251.265324 
L 233.675636 250.51229 
L 234.736414 249.98545 
L 235.797191 249.667467 
L 236.857969 249.5106 
L 237.918747 249.512097 
L 238.979524 249.671956 
L 240.040302 249.990178 
L 241.10108 250.474725 
L 242.161857 251.146784 
L 243.222635 252.007503 
L 244.813802 253.652316 
L 246.404968 255.70825 
L 247.996135 258.091836 
L 250.11769 261.757116 
L 257.012745 274.620729 
L 261.255856 281.891937 
L 264.438189 286.981244 
L 267.620522 291.646489 
L 269.742077 294.388998 
L 271.863632 296.782719 
L 273.985188 298.85123 
L 276.106743 300.629811 
L 278.228298 302.125542 
L 280.880243 303.688577 
L 283.532187 304.937291 
L 286.184131 305.939217 
L 288.836075 306.720327 
L 292.018408 307.446356 
L 295.200741 307.961229 
L 298.383074 308.244848 
L 308.460462 308.652607 
L 316.416295 308.460901 
L 323.31135 308.178093 
L 328.08485 307.579301 
L 333.388738 306.809761 
L 337.631849 305.880014 
L 343.996515 304.407521 
L 346.648459 303.393908 
L 350.89157 301.759725 
L 354.073903 300.750441 
L 357.256236 300.016646 
L 365.212068 298.496112 
L 367.333624 298.466651 
L 371.576734 298.765481 
L 373.167901 298.960686 
L 374.228679 299.292627 
L 375.289456 299.843173 
L 376.350234 300.612324 
L 377.411012 301.600081 
L 378.471789 302.651396 
L 379.002178 302.85208 
L 379.532567 302.777841 
L 380.062956 302.428679 
L 380.593345 301.804593 
L 381.123734 300.905585 
L 381.654122 299.731654 
L 382.7149 296.559022 
L 383.775678 292.286698 
L 384.836456 286.914681 
L 385.897233 280.442972 
L 385.897233 280.442972 
" style="fill:none;stroke:#348abd;stroke-linecap:square;stroke-width:1.5;"/>
   </g>
   <g id="line2d_33">
    <path clip-path="url(#p97073bb9d8)" d="M 121.233202 309.106316 
L 211.929693 309.013907 
L 215.112026 308.817375 
L 217.233582 308.518612 
L 218.824748 308.131281 
L 220.415915 307.524667 
L 221.476693 306.949856 
L 222.53747 306.1954 
L 223.598248 305.216087 
L 224.659026 303.959038 
L 225.719803 302.363566 
L 226.780581 300.36144 
L 227.841359 297.877673 
L 228.902136 294.831913 
L 229.962914 291.140553 
L 231.023692 286.719597 
L 232.084469 281.488312 
L 233.145247 275.373609 
L 234.206025 268.315054 
L 235.797191 255.87122 
L 237.388358 241.176987 
L 238.979524 224.355287 
L 241.10108 199.190157 
L 247.465746 120.489433 
L 249.056912 105.035334 
L 250.11769 96.70704 
L 251.178468 90.238519 
L 251.708856 87.762354 
L 252.239245 85.817096 
L 252.769634 84.417168 
L 253.300023 83.573002 
L 253.830412 83.290909 
L 254.360801 83.573002 
L 254.891189 84.417168 
L 255.421578 85.817096 
L 255.951967 87.762354 
L 257.012745 93.227356 
L 258.073523 100.652423 
L 259.1343 109.824919 
L 260.725467 126.292565 
L 262.847022 151.757062 
L 268.150911 218.323694 
L 269.742077 235.794787 
L 271.333244 251.22076 
L 272.92441 264.417741 
L 274.515577 275.373609 
L 275.576354 281.488312 
L 276.637132 286.719597 
L 277.69791 291.140553 
L 278.758687 294.831913 
L 279.819465 297.877673 
L 280.880243 300.36144 
L 281.94102 302.363566 
L 283.001798 303.959038 
L 284.062576 305.216087 
L 285.123353 306.1954 
L 286.184131 306.949856 
L 287.775298 307.756838 
L 289.366464 308.280623 
L 291.48802 308.692168 
L 294.139964 308.941063 
L 298.383074 309.072952 
L 310.051629 309.106136 
L 385.897233 309.106316 
L 385.897233 309.106316 
" style="fill:none;stroke:#988ed5;stroke-linecap:square;stroke-width:1.5;"/>
   </g>
   <g id="patch_3">
    <path d="M 108 320.4 
L 108 72 
" style="fill:none;stroke:#ffffff;stroke-linecap:square;stroke-linejoin:miter;"/>
   </g>
   <g id="patch_4">
    <path d="M 399.130435 320.4 
L 399.130435 72 
" style="fill:none;stroke:#ffffff;stroke-linecap:square;stroke-linejoin:miter;"/>
   </g>
   <g id="patch_5">
    <path d="M 108 320.4 
L 399.130435 320.4 
" style="fill:none;stroke:#ffffff;stroke-linecap:square;stroke-linejoin:miter;"/>
   </g>
   <g id="patch_6">
    <path d="M 108 72 
L 399.130435 72 
" style="fill:none;stroke:#ffffff;stroke-linecap:square;stroke-linejoin:miter;"/>
   </g>
   <g id="text_18">
    <!-- PDF -->
    <defs>
     <path d="M 19.671875 64.796875 
L 19.671875 37.40625 
L 32.078125 37.40625 
Q 38.96875 37.40625 42.71875 40.96875 
Q 46.484375 44.53125 46.484375 51.125 
Q 46.484375 57.671875 42.71875 61.234375 
Q 38.96875 64.796875 32.078125 64.796875 
z
M 9.8125 72.90625 
L 32.078125 72.90625 
Q 44.34375 72.90625 50.609375 67.359375 
Q 56.890625 61.8125 56.890625 51.125 
Q 56.890625 40.328125 50.609375 34.8125 
Q 44.34375 29.296875 32.078125 29.296875 
L 19.671875 29.296875 
L 19.671875 0 
L 9.8125 0 
z
" id="DejaVuSans-50"/>
     <path d="M 19.671875 64.796875 
L 19.671875 8.109375 
L 31.59375 8.109375 
Q 46.6875 8.109375 53.6875 14.9375 
Q 60.6875 21.78125 60.6875 36.53125 
Q 60.6875 51.171875 53.6875 57.984375 
Q 46.6875 64.796875 31.59375 64.796875 
z
M 9.8125 72.90625 
L 30.078125 72.90625 
Q 51.265625 72.90625 61.171875 64.09375 
Q 71.09375 55.28125 71.09375 36.53125 
Q 71.09375 17.671875 61.125 8.828125 
Q 51.171875 0 30.078125 0 
L 9.8125 0 
z
" id="DejaVuSans-44"/>
     <path d="M 9.8125 72.90625 
L 51.703125 72.90625 
L 51.703125 64.59375 
L 19.671875 64.59375 
L 19.671875 43.109375 
L 48.578125 43.109375 
L 48.578125 34.8125 
L 19.671875 34.8125 
L 19.671875 0 
L 9.8125 0 
z
" id="DejaVuSans-46"/>
    </defs>
    <g transform="translate(243.824592 66)scale(0.1 -0.1)">
     <use xlink:href="#DejaVuSans-50"/>
     <use x="60.302734" xlink:href="#DejaVuSans-44"/>
     <use x="137.304688" xlink:href="#DejaVuSans-46"/>
    </g>
   </g>
  </g>
  <g id="axes_2">
   <g id="patch_7">
    <path d="M 486.469565 320.4 
L 777.6 320.4 
L 777.6 72 
L 486.469565 72 
z
" style="fill:#e5e5e5;"/>
   </g>
   <g id="matplotlib.axis_3">
    <g id="xtick_7">
     <g id="line2d_34">
      <path clip-path="url(#pf09509912b)" d="M 499.702767 320.4 
L 499.702767 72 
" style="fill:none;stroke:#ffffff;stroke-linecap:square;stroke-width:0.8;"/>
     </g>
     <g id="line2d_35">
      <g>
       <use style="fill:#555555;stroke:#555555;stroke-width:0.8;" x="499.702767" xlink:href="#m08e73abf7f" y="320.4"/>
      </g>
     </g>
     <g id="text_19">
      <!-- 0 -->
      <g style="fill:#555555;" transform="translate(496.521517 334.998438)scale(0.1 -0.1)">
       <use xlink:href="#DejaVuSans-30"/>
      </g>
     </g>
    </g>
    <g id="xtick_8">
     <g id="line2d_36">
      <path clip-path="url(#pf09509912b)" d="M 552.635573 320.4 
L 552.635573 72 
" style="fill:none;stroke:#ffffff;stroke-linecap:square;stroke-width:0.8;"/>
     </g>
     <g id="line2d_37">
      <g>
       <use style="fill:#555555;stroke:#555555;stroke-width:0.8;" x="552.635573" xlink:href="#m08e73abf7f" y="320.4"/>
      </g>
     </g>
     <g id="text_20">
      <!-- 1 -->
      <g style="fill:#555555;" transform="translate(549.454323 334.998438)scale(0.1 -0.1)">
       <use xlink:href="#DejaVuSans-31"/>
      </g>
     </g>
    </g>
    <g id="xtick_9">
     <g id="line2d_38">
      <path clip-path="url(#pf09509912b)" d="M 605.568379 320.4 
L 605.568379 72 
" style="fill:none;stroke:#ffffff;stroke-linecap:square;stroke-width:0.8;"/>
     </g>
     <g id="line2d_39">
      <g>
       <use style="fill:#555555;stroke:#555555;stroke-width:0.8;" x="605.568379" xlink:href="#m08e73abf7f" y="320.4"/>
      </g>
     </g>
     <g id="text_21">
      <!-- 2 -->
      <g style="fill:#555555;" transform="translate(602.387129 334.998438)scale(0.1 -0.1)">
       <use xlink:href="#DejaVuSans-32"/>
      </g>
     </g>
    </g>
    <g id="xtick_10">
     <g id="line2d_40">
      <path clip-path="url(#pf09509912b)" d="M 658.501186 320.4 
L 658.501186 72 
" style="fill:none;stroke:#ffffff;stroke-linecap:square;stroke-width:0.8;"/>
     </g>
     <g id="line2d_41">
      <g>
       <use style="fill:#555555;stroke:#555555;stroke-width:0.8;" x="658.501186" xlink:href="#m08e73abf7f" y="320.4"/>
      </g>
     </g>
     <g id="text_22">
      <!-- 3 -->
      <g style="fill:#555555;" transform="translate(655.319936 334.998438)scale(0.1 -0.1)">
       <use xlink:href="#DejaVuSans-33"/>
      </g>
     </g>
    </g>
    <g id="xtick_11">
     <g id="line2d_42">
      <path clip-path="url(#pf09509912b)" d="M 711.433992 320.4 
L 711.433992 72 
" style="fill:none;stroke:#ffffff;stroke-linecap:square;stroke-width:0.8;"/>
     </g>
     <g id="line2d_43">
      <g>
       <use style="fill:#555555;stroke:#555555;stroke-width:0.8;" x="711.433992" xlink:href="#m08e73abf7f" y="320.4"/>
      </g>
     </g>
     <g id="text_23">
      <!-- 4 -->
      <g style="fill:#555555;" transform="translate(708.252742 334.998438)scale(0.1 -0.1)">
       <use xlink:href="#DejaVuSans-34"/>
      </g>
     </g>
    </g>
    <g id="xtick_12">
     <g id="line2d_44">
      <path clip-path="url(#pf09509912b)" d="M 764.366798 320.4 
L 764.366798 72 
" style="fill:none;stroke:#ffffff;stroke-linecap:square;stroke-width:0.8;"/>
     </g>
     <g id="line2d_45">
      <g>
       <use style="fill:#555555;stroke:#555555;stroke-width:0.8;" x="764.366798" xlink:href="#m08e73abf7f" y="320.4"/>
      </g>
     </g>
     <g id="text_24">
      <!-- 5 -->
      <g style="fill:#555555;" transform="translate(761.185548 334.998438)scale(0.1 -0.1)">
       <use xlink:href="#DejaVuSans-35"/>
      </g>
     </g>
    </g>
    <g id="text_25">
     <!-- time interval -->
     <g style="fill:#555555;" transform="translate(600.087126 348.676562)scale(0.1 -0.1)">
      <use xlink:href="#DejaVuSans-74"/>
      <use x="39.208984" xlink:href="#DejaVuSans-69"/>
      <use x="66.992188" xlink:href="#DejaVuSans-6d"/>
      <use x="164.404297" xlink:href="#DejaVuSans-65"/>
      <use x="225.927734" xlink:href="#DejaVuSans-20"/>
      <use x="257.714844" xlink:href="#DejaVuSans-69"/>
      <use x="285.498047" xlink:href="#DejaVuSans-6e"/>
      <use x="348.876953" xlink:href="#DejaVuSans-74"/>
      <use x="388.085938" xlink:href="#DejaVuSans-65"/>
      <use x="449.609375" xlink:href="#DejaVuSans-72"/>
      <use x="490.722656" xlink:href="#DejaVuSans-76"/>
      <use x="549.902344" xlink:href="#DejaVuSans-61"/>
      <use x="611.181641" xlink:href="#DejaVuSans-6c"/>
     </g>
    </g>
   </g>
   <g id="matplotlib.axis_4">
    <g id="ytick_10">
     <g id="line2d_46">
      <path clip-path="url(#pf09509912b)" d="M 486.469565 309.108639 
L 777.6 309.108639 
" style="fill:none;stroke:#ffffff;stroke-linecap:square;stroke-width:0.8;"/>
     </g>
     <g id="line2d_47">
      <g>
       <use style="fill:#555555;stroke:#555555;stroke-width:0.8;" x="486.469565" xlink:href="#m2e2722625d" y="309.108639"/>
      </g>
     </g>
     <g id="text_26">
      <!-- 0.0 -->
      <g style="fill:#555555;" transform="translate(463.56644 312.907858)scale(0.1 -0.1)">
       <use xlink:href="#DejaVuSans-30"/>
       <use x="63.623047" xlink:href="#DejaVuSans-2e"/>
       <use x="95.410156" xlink:href="#DejaVuSans-30"/>
      </g>
     </g>
    </g>
    <g id="ytick_11">
     <g id="line2d_48">
      <path clip-path="url(#pf09509912b)" d="M 486.469565 263.945093 
L 777.6 263.945093 
" style="fill:none;stroke:#ffffff;stroke-linecap:square;stroke-width:0.8;"/>
     </g>
     <g id="line2d_49">
      <g>
       <use style="fill:#555555;stroke:#555555;stroke-width:0.8;" x="486.469565" xlink:href="#m2e2722625d" y="263.945093"/>
      </g>
     </g>
     <g id="text_27">
      <!-- 0.2 -->
      <g style="fill:#555555;" transform="translate(463.56644 267.744312)scale(0.1 -0.1)">
       <use xlink:href="#DejaVuSans-30"/>
       <use x="63.623047" xlink:href="#DejaVuSans-2e"/>
       <use x="95.410156" xlink:href="#DejaVuSans-32"/>
      </g>
     </g>
    </g>
    <g id="ytick_12">
     <g id="line2d_50">
      <path clip-path="url(#pf09509912b)" d="M 486.469565 218.781547 
L 777.6 218.781547 
" style="fill:none;stroke:#ffffff;stroke-linecap:square;stroke-width:0.8;"/>
     </g>
     <g id="line2d_51">
      <g>
       <use style="fill:#555555;stroke:#555555;stroke-width:0.8;" x="486.469565" xlink:href="#m2e2722625d" y="218.781547"/>
      </g>
     </g>
     <g id="text_28">
      <!-- 0.4 -->
      <g style="fill:#555555;" transform="translate(463.56644 222.580766)scale(0.1 -0.1)">
       <use xlink:href="#DejaVuSans-30"/>
       <use x="63.623047" xlink:href="#DejaVuSans-2e"/>
       <use x="95.410156" xlink:href="#DejaVuSans-34"/>
      </g>
     </g>
    </g>
    <g id="ytick_13">
     <g id="line2d_52">
      <path clip-path="url(#pf09509912b)" d="M 486.469565 173.618001 
L 777.6 173.618001 
" style="fill:none;stroke:#ffffff;stroke-linecap:square;stroke-width:0.8;"/>
     </g>
     <g id="line2d_53">
      <g>
       <use style="fill:#555555;stroke:#555555;stroke-width:0.8;" x="486.469565" xlink:href="#m2e2722625d" y="173.618001"/>
      </g>
     </g>
     <g id="text_29">
      <!-- 0.6 -->
      <defs>
       <path d="M 33.015625 40.375 
Q 26.375 40.375 22.484375 35.828125 
Q 18.609375 31.296875 18.609375 23.390625 
Q 18.609375 15.53125 22.484375 10.953125 
Q 26.375 6.390625 33.015625 6.390625 
Q 39.65625 6.390625 43.53125 10.953125 
Q 47.40625 15.53125 47.40625 23.390625 
Q 47.40625 31.296875 43.53125 35.828125 
Q 39.65625 40.375 33.015625 40.375 
z
M 52.59375 71.296875 
L 52.59375 62.3125 
Q 48.875 64.0625 45.09375 64.984375 
Q 41.3125 65.921875 37.59375 65.921875 
Q 27.828125 65.921875 22.671875 59.328125 
Q 17.53125 52.734375 16.796875 39.40625 
Q 19.671875 43.65625 24.015625 45.921875 
Q 28.375 48.1875 33.59375 48.1875 
Q 44.578125 48.1875 50.953125 41.515625 
Q 57.328125 34.859375 57.328125 23.390625 
Q 57.328125 12.15625 50.6875 5.359375 
Q 44.046875 -1.421875 33.015625 -1.421875 
Q 20.359375 -1.421875 13.671875 8.265625 
Q 6.984375 17.96875 6.984375 36.375 
Q 6.984375 53.65625 15.1875 63.9375 
Q 23.390625 74.21875 37.203125 74.21875 
Q 40.921875 74.21875 44.703125 73.484375 
Q 48.484375 72.75 52.59375 71.296875 
z
" id="DejaVuSans-36"/>
      </defs>
      <g style="fill:#555555;" transform="translate(463.56644 177.41722)scale(0.1 -0.1)">
       <use xlink:href="#DejaVuSans-30"/>
       <use x="63.623047" xlink:href="#DejaVuSans-2e"/>
       <use x="95.410156" xlink:href="#DejaVuSans-36"/>
      </g>
     </g>
    </g>
    <g id="ytick_14">
     <g id="line2d_54">
      <path clip-path="url(#pf09509912b)" d="M 486.469565 128.454455 
L 777.6 128.454455 
" style="fill:none;stroke:#ffffff;stroke-linecap:square;stroke-width:0.8;"/>
     </g>
     <g id="line2d_55">
      <g>
       <use style="fill:#555555;stroke:#555555;stroke-width:0.8;" x="486.469565" xlink:href="#m2e2722625d" y="128.454455"/>
      </g>
     </g>
     <g id="text_30">
      <!-- 0.8 -->
      <defs>
       <path d="M 31.78125 34.625 
Q 24.75 34.625 20.71875 30.859375 
Q 16.703125 27.09375 16.703125 20.515625 
Q 16.703125 13.921875 20.71875 10.15625 
Q 24.75 6.390625 31.78125 6.390625 
Q 38.8125 6.390625 42.859375 10.171875 
Q 46.921875 13.96875 46.921875 20.515625 
Q 46.921875 27.09375 42.890625 30.859375 
Q 38.875 34.625 31.78125 34.625 
z
M 21.921875 38.8125 
Q 15.578125 40.375 12.03125 44.71875 
Q 8.5 49.078125 8.5 55.328125 
Q 8.5 64.0625 14.71875 69.140625 
Q 20.953125 74.21875 31.78125 74.21875 
Q 42.671875 74.21875 48.875 69.140625 
Q 55.078125 64.0625 55.078125 55.328125 
Q 55.078125 49.078125 51.53125 44.71875 
Q 48 40.375 41.703125 38.8125 
Q 48.828125 37.15625 52.796875 32.3125 
Q 56.78125 27.484375 56.78125 20.515625 
Q 56.78125 9.90625 50.3125 4.234375 
Q 43.84375 -1.421875 31.78125 -1.421875 
Q 19.734375 -1.421875 13.25 4.234375 
Q 6.78125 9.90625 6.78125 20.515625 
Q 6.78125 27.484375 10.78125 32.3125 
Q 14.796875 37.15625 21.921875 38.8125 
z
M 18.3125 54.390625 
Q 18.3125 48.734375 21.84375 45.5625 
Q 25.390625 42.390625 31.78125 42.390625 
Q 38.140625 42.390625 41.71875 45.5625 
Q 45.3125 48.734375 45.3125 54.390625 
Q 45.3125 60.0625 41.71875 63.234375 
Q 38.140625 66.40625 31.78125 66.40625 
Q 25.390625 66.40625 21.84375 63.234375 
Q 18.3125 60.0625 18.3125 54.390625 
z
" id="DejaVuSans-38"/>
      </defs>
      <g style="fill:#555555;" transform="translate(463.56644 132.253674)scale(0.1 -0.1)">
       <use xlink:href="#DejaVuSans-30"/>
       <use x="63.623047" xlink:href="#DejaVuSans-2e"/>
       <use x="95.410156" xlink:href="#DejaVuSans-38"/>
      </g>
     </g>
    </g>
    <g id="ytick_15">
     <g id="line2d_56">
      <path clip-path="url(#pf09509912b)" d="M 486.469565 83.290909 
L 777.6 83.290909 
" style="fill:none;stroke:#ffffff;stroke-linecap:square;stroke-width:0.8;"/>
     </g>
     <g id="line2d_57">
      <g>
       <use style="fill:#555555;stroke:#555555;stroke-width:0.8;" x="486.469565" xlink:href="#m2e2722625d" y="83.290909"/>
      </g>
     </g>
     <g id="text_31">
      <!-- 1.0 -->
      <g style="fill:#555555;" transform="translate(463.56644 87.090128)scale(0.1 -0.1)">
       <use xlink:href="#DejaVuSans-31"/>
       <use x="63.623047" xlink:href="#DejaVuSans-2e"/>
       <use x="95.410156" xlink:href="#DejaVuSans-30"/>
      </g>
     </g>
    </g>
    <g id="text_32">
     <!-- probability -->
     <g style="fill:#555555;" transform="translate(457.486753 222.986719)rotate(-90)scale(0.1 -0.1)">
      <use xlink:href="#DejaVuSans-70"/>
      <use x="63.476562" xlink:href="#DejaVuSans-72"/>
      <use x="104.558594" xlink:href="#DejaVuSans-6f"/>
      <use x="165.740234" xlink:href="#DejaVuSans-62"/>
      <use x="229.216797" xlink:href="#DejaVuSans-61"/>
      <use x="290.496094" xlink:href="#DejaVuSans-62"/>
      <use x="353.972656" xlink:href="#DejaVuSans-69"/>
      <use x="381.755859" xlink:href="#DejaVuSans-6c"/>
      <use x="409.539062" xlink:href="#DejaVuSans-69"/>
      <use x="437.322266" xlink:href="#DejaVuSans-74"/>
      <use x="476.53125" xlink:href="#DejaVuSans-79"/>
     </g>
    </g>
   </g>
   <g id="line2d_58">
    <path clip-path="url(#pf09509912b)" d="M 499.702767 83.290909 
L 503.945878 99.919962 
L 508.188988 115.708057 
L 510.310544 122.900821 
L 512.432099 129.357977 
L 515.614432 138.059462 
L 518.796765 146.191283 
L 520.91832 150.984274 
L 522.509487 154.131849 
L 524.631042 157.764255 
L 526.752598 160.922089 
L 528.874153 163.632002 
L 530.995708 165.946058 
L 533.117264 167.911 
L 535.238819 169.542511 
L 537.360375 170.923435 
L 539.48193 172.0659 
L 542.133874 173.202984 
L 544.785818 174.051415 
L 551.680873 175.804678 
L 554.863206 176.343635 
L 566.531761 177.653405 
L 573.426816 178.452242 
L 576.609149 179.094872 
L 581.382648 180.335004 
L 583.504204 181.01652 
L 585.625759 181.920369 
L 588.277703 183.344929 
L 591.990425 185.633648 
L 594.11198 187.147526 
L 596.233536 188.963147 
L 598.355091 191.084651 
L 600.476647 193.529318 
L 602.598202 196.302302 
L 604.189368 198.642841 
L 605.780535 201.307993 
L 607.90209 205.371079 
L 610.554035 211.154811 
L 613.205979 217.557295 
L 615.327534 223.279922 
L 617.449089 229.818882 
L 619.570645 237.135624 
L 624.344144 254.508585 
L 628.587255 269.835761 
L 631.239199 278.781556 
L 633.360755 285.094256 
L 635.48231 290.617333 
L 637.073477 294.174247 
L 638.664643 297.211363 
L 640.25581 299.731137 
L 641.846976 301.835207 
L 643.438143 303.576944 
L 645.029309 304.956348 
L 646.620476 306.030099 
L 648.211642 306.896652 
L 649.802809 307.557771 
L 651.924364 308.157931 
L 654.576308 308.64023 
L 657.228253 308.868289 
L 661.471363 309.029706 
L 672.609529 309.099615 
L 736.25619 309.108639 
L 764.366798 309.108639 
L 764.366798 309.108639 
" style="fill:none;stroke:#e24a33;stroke-linecap:square;stroke-width:1.5;"/>
   </g>
   <g id="line2d_59">
    <path clip-path="url(#pf09509912b)" d="M 499.702767 83.290909 
L 503.945878 101.782538 
L 507.658599 117.030407 
L 510.310544 127.185644 
L 512.962488 136.49502 
L 515.084043 143.269073 
L 517.205599 149.376039 
L 519.327154 154.824575 
L 521.448709 159.663152 
L 523.570265 163.899327 
L 525.69182 167.598292 
L 527.813375 170.819709 
L 529.934931 173.571655 
L 532.056486 175.897622 
L 533.647653 177.366799 
L 535.769208 179.016536 
L 537.890763 180.431413 
L 540.012319 181.617908 
L 542.664263 182.829934 
L 545.316207 183.761428 
L 548.49854 184.630102 
L 552.211262 185.38686 
L 556.454373 186.036617 
L 564.940594 187.060075 
L 570.774871 187.868637 
L 574.487593 188.565712 
L 578.200315 189.491239 
L 581.382648 190.53992 
L 584.034593 191.628754 
L 586.686537 192.955682 
L 588.808092 194.212195 
L 590.929647 195.687199 
L 593.051203 197.384197 
L 595.172758 199.335831 
L 597.294314 201.551999 
L 599.415869 204.048108 
L 601.537424 206.851625 
L 604.189368 210.781947 
L 606.841313 215.139579 
L 609.493257 219.907651 
L 612.67559 226.098611 
L 617.979478 237.150041 
L 624.874533 251.528232 
L 628.056866 257.700068 
L 630.708811 262.466349 
L 633.360755 266.76594 
L 636.012699 270.583667 
L 638.664643 273.951392 
L 640.786198 276.326918 
L 642.907754 278.434982 
L 645.029309 280.27963 
L 647.150865 281.874372 
L 649.27242 283.239785 
L 651.393975 284.381118 
L 654.04592 285.562392 
L 656.697864 286.492037 
L 659.880197 287.358018 
L 663.06253 287.993099 
L 666.775252 288.523675 
L 671.548751 288.962515 
L 677.913417 289.273282 
L 689.051583 289.531793 
L 704.963248 289.88685 
L 711.858303 290.234027 
L 717.69258 290.720273 
L 722.996469 291.389246 
L 727.769968 292.19575 
L 732.013079 293.182814 
L 736.25619 294.393853 
L 742.090467 296.304622 
L 747.924744 298.462259 
L 755.880577 301.360319 
L 760.123688 302.67178 
L 764.366798 303.740151 
L 764.366798 303.740151 
" style="fill:none;stroke:#348abd;stroke-linecap:square;stroke-width:1.5;"/>
   </g>
   <g id="line2d_60">
    <path clip-path="url(#pf09509912b)" d="M 499.702767 83.290909 
L 597.294314 83.390618 
L 601.007035 83.621385 
L 603.65898 84.016306 
L 605.780535 84.596268 
L 607.371702 85.271013 
L 608.962868 86.233956 
L 610.023646 87.08105 
L 611.084423 88.128569 
L 612.145201 89.411052 
L 613.205979 90.965589 
L 614.266756 92.831154 
L 615.327534 95.047713 
L 616.388312 97.655115 
L 617.449089 100.691779 
L 619.040256 106.128108 
L 620.631423 112.708114 
L 622.222589 120.495495 
L 623.813756 129.507081 
L 625.404922 139.703688 
L 627.526477 154.960003 
L 630.178422 176.097597 
L 638.134254 241.414675 
L 640.25581 256.221484 
L 641.846976 266.031163 
L 643.438143 274.636117 
L 645.029309 282.016637 
L 646.620476 288.206343 
L 648.211642 293.282064 
L 649.802809 297.351835 
L 650.863586 299.568394 
L 651.924364 301.433959 
L 652.985142 302.988496 
L 654.04592 304.270979 
L 655.637086 305.765053 
L 657.228253 306.843798 
L 658.819419 307.60537 
L 660.410586 308.131081 
L 662.532141 308.575289 
L 665.184085 308.871218 
L 668.896807 309.039314 
L 676.85264 309.105281 
L 764.366798 309.108639 
L 764.366798 309.108639 
" style="fill:none;stroke:#988ed5;stroke-linecap:square;stroke-width:1.5;"/>
   </g>
   <g id="patch_8">
    <path d="M 486.469565 320.4 
L 486.469565 72 
" style="fill:none;stroke:#ffffff;stroke-linecap:square;stroke-linejoin:miter;"/>
   </g>
   <g id="patch_9">
    <path d="M 777.6 320.4 
L 777.6 72 
" style="fill:none;stroke:#ffffff;stroke-linecap:square;stroke-linejoin:miter;"/>
   </g>
   <g id="patch_10">
    <path d="M 486.469565 320.4 
L 777.6 320.4 
" style="fill:none;stroke:#ffffff;stroke-linecap:square;stroke-linejoin:miter;"/>
   </g>
   <g id="patch_11">
    <path d="M 486.469565 72 
L 777.6 72 
" style="fill:none;stroke:#ffffff;stroke-linecap:square;stroke-linejoin:miter;"/>
   </g>
   <g id="text_33">
    <!-- SF -->
    <defs>
     <path d="M 53.515625 70.515625 
L 53.515625 60.890625 
Q 47.90625 63.578125 42.921875 64.890625 
Q 37.9375 66.21875 33.296875 66.21875 
Q 25.25 66.21875 20.875 63.09375 
Q 16.5 59.96875 16.5 54.203125 
Q 16.5 49.359375 19.40625 46.890625 
Q 22.3125 44.4375 30.421875 42.921875 
L 36.375 41.703125 
Q 47.40625 39.59375 52.65625 34.296875 
Q 57.90625 29 57.90625 20.125 
Q 57.90625 9.515625 50.796875 4.046875 
Q 43.703125 -1.421875 29.984375 -1.421875 
Q 24.8125 -1.421875 18.96875 -0.25 
Q 13.140625 0.921875 6.890625 3.21875 
L 6.890625 13.375 
Q 12.890625 10.015625 18.65625 8.296875 
Q 24.421875 6.59375 29.984375 6.59375 
Q 38.421875 6.59375 43.015625 9.90625 
Q 47.609375 13.234375 47.609375 19.390625 
Q 47.609375 24.75 44.3125 27.78125 
Q 41.015625 30.8125 33.5 32.328125 
L 27.484375 33.5 
Q 16.453125 35.6875 11.515625 40.375 
Q 6.59375 45.0625 6.59375 53.421875 
Q 6.59375 63.09375 13.40625 68.65625 
Q 20.21875 74.21875 32.171875 74.21875 
Q 37.3125 74.21875 42.625 73.28125 
Q 47.953125 72.359375 53.515625 70.515625 
z
" id="DejaVuSans-53"/>
    </defs>
    <g transform="translate(625.984783 66)scale(0.1 -0.1)">
     <use xlink:href="#DejaVuSans-53"/>
     <use x="63.476562" xlink:href="#DejaVuSans-46"/>
    </g>
   </g>
  </g>
 </g>
 <defs>
  <clipPath id="p97073bb9d8">
   <rect height="248.4" width="291.130435" x="108" y="72"/>
  </clipPath>
  <clipPath id="pf09509912b">
   <rect height="248.4" width="291.130435" x="486.469565" y="72"/>
  </clipPath>
 </defs>
</svg>
