<?xml version="1.0" encoding="utf-8" standalone="no"?>
<!DOCTYPE svg PUBLIC "-//W3C//DTD SVG 1.1//EN"
  "http://www.w3.org/Graphics/SVG/1.1/DTD/svg11.dtd">
<!-- Created with matplotlib (http://matplotlib.org/) -->
<svg height="360pt" version="1.1" viewBox="0 0 864 360" width="864pt" xmlns="http://www.w3.org/2000/svg" xmlns:xlink="http://www.w3.org/1999/xlink">
 <defs>
  <style type="text/css">
*{stroke-linecap:butt;stroke-linejoin:round;}
  </style>
 </defs>
 <g id="figure_1">
  <g id="patch_1">
   <path d="M 0 360 
L 864 360 
L 864 0 
L 0 0 
z
" style="fill:#ffffff;"/>
  </g>
  <g id="axes_1">
   <g id="patch_2">
    <path d="M 108 320.4 
L 399.130435 320.4 
L 399.130435 72 
L 108 72 
z
" style="fill:#e5e5e5;"/>
   </g>
   <g id="matplotlib.axis_1">
    <g id="xtick_1">
     <g id="line2d_1">
      <path clip-path="url(#pe1196a7c45)" d="M 121.233202 320.4 
L 121.233202 72 
" style="fill:none;stroke:#ffffff;stroke-linecap:square;stroke-width:0.8;"/>
     </g>
     <g id="line2d_2">
      <defs>
       <path d="M 0 0 
L 0 3.5 
" id="m4df814b034" style="stroke:#555555;stroke-width:0.8;"/>
      </defs>
      <g>
       <use style="fill:#555555;stroke:#555555;stroke-width:0.8;" x="121.233202" xlink:href="#m4df814b034" y="320.4"/>
      </g>
     </g>
     <g id="text_1">
      <!-- 0 -->
      <defs>
       <path d="M 31.78125 66.40625 
Q 24.171875 66.40625 20.328125 58.90625 
Q 16.5 51.421875 16.5 36.375 
Q 16.5 21.390625 20.328125 13.890625 
Q 24.171875 6.390625 31.78125 6.390625 
Q 39.453125 6.390625 43.28125 13.890625 
Q 47.125 21.390625 47.125 36.375 
Q 47.125 51.421875 43.28125 58.90625 
Q 39.453125 66.40625 31.78125 66.40625 
z
M 31.78125 74.21875 
Q 44.046875 74.21875 50.515625 64.515625 
Q 56.984375 54.828125 56.984375 36.375 
Q 56.984375 17.96875 50.515625 8.265625 
Q 44.046875 -1.421875 31.78125 -1.421875 
Q 19.53125 -1.421875 13.0625 8.265625 
Q 6.59375 17.96875 6.59375 36.375 
Q 6.59375 54.828125 13.0625 64.515625 
Q 19.53125 74.21875 31.78125 74.21875 
z
" id="DejaVuSans-30"/>
      </defs>
      <g style="fill:#555555;" transform="translate(118.051952 334.998438)scale(0.1 -0.1)">
       <use xlink:href="#DejaVuSans-30"/>
      </g>
     </g>
    </g>
    <g id="xtick_2">
     <g id="line2d_3">
      <path clip-path="url(#pe1196a7c45)" d="M 174.166008 320.4 
L 174.166008 72 
" style="fill:none;stroke:#ffffff;stroke-linecap:square;stroke-width:0.8;"/>
     </g>
     <g id="line2d_4">
      <g>
       <use style="fill:#555555;stroke:#555555;stroke-width:0.8;" x="174.166008" xlink:href="#m4df814b034" y="320.4"/>
      </g>
     </g>
     <g id="text_2">
      <!-- 1 -->
      <defs>
       <path d="M 12.40625 8.296875 
L 28.515625 8.296875 
L 28.515625 63.921875 
L 10.984375 60.40625 
L 10.984375 69.390625 
L 28.421875 72.90625 
L 38.28125 72.90625 
L 38.28125 8.296875 
L 54.390625 8.296875 
L 54.390625 0 
L 12.40625 0 
z
" id="DejaVuSans-31"/>
      </defs>
      <g style="fill:#555555;" transform="translate(170.984758 334.998438)scale(0.1 -0.1)">
       <use xlink:href="#DejaVuSans-31"/>
      </g>
     </g>
    </g>
    <g id="xtick_3">
     <g id="line2d_5">
      <path clip-path="url(#pe1196a7c45)" d="M 227.098814 320.4 
L 227.098814 72 
" style="fill:none;stroke:#ffffff;stroke-linecap:square;stroke-width:0.8;"/>
     </g>
     <g id="line2d_6">
      <g>
       <use style="fill:#555555;stroke:#555555;stroke-width:0.8;" x="227.098814" xlink:href="#m4df814b034" y="320.4"/>
      </g>
     </g>
     <g id="text_3">
      <!-- 2 -->
      <defs>
       <path d="M 19.1875 8.296875 
L 53.609375 8.296875 
L 53.609375 0 
L 7.328125 0 
L 7.328125 8.296875 
Q 12.9375 14.109375 22.625 23.890625 
Q 32.328125 33.6875 34.8125 36.53125 
Q 39.546875 41.84375 41.421875 45.53125 
Q 43.3125 49.21875 43.3125 52.78125 
Q 43.3125 58.59375 39.234375 62.25 
Q 35.15625 65.921875 28.609375 65.921875 
Q 23.96875 65.921875 18.8125 64.3125 
Q 13.671875 62.703125 7.8125 59.421875 
L 7.8125 69.390625 
Q 13.765625 71.78125 18.9375 73 
Q 24.125 74.21875 28.421875 74.21875 
Q 39.75 74.21875 46.484375 68.546875 
Q 53.21875 62.890625 53.21875 53.421875 
Q 53.21875 48.921875 51.53125 44.890625 
Q 49.859375 40.875 45.40625 35.40625 
Q 44.1875 33.984375 37.640625 27.21875 
Q 31.109375 20.453125 19.1875 8.296875 
z
" id="DejaVuSans-32"/>
      </defs>
      <g style="fill:#555555;" transform="translate(223.917564 334.998438)scale(0.1 -0.1)">
       <use xlink:href="#DejaVuSans-32"/>
      </g>
     </g>
    </g>
    <g id="xtick_4">
     <g id="line2d_7">
      <path clip-path="url(#pe1196a7c45)" d="M 280.031621 320.4 
L 280.031621 72 
" style="fill:none;stroke:#ffffff;stroke-linecap:square;stroke-width:0.8;"/>
     </g>
     <g id="line2d_8">
      <g>
       <use style="fill:#555555;stroke:#555555;stroke-width:0.8;" x="280.031621" xlink:href="#m4df814b034" y="320.4"/>
      </g>
     </g>
     <g id="text_4">
      <!-- 3 -->
      <defs>
       <path d="M 40.578125 39.3125 
Q 47.65625 37.796875 51.625 33 
Q 55.609375 28.21875 55.609375 21.1875 
Q 55.609375 10.40625 48.1875 4.484375 
Q 40.765625 -1.421875 27.09375 -1.421875 
Q 22.515625 -1.421875 17.65625 -0.515625 
Q 12.796875 0.390625 7.625 2.203125 
L 7.625 11.71875 
Q 11.71875 9.328125 16.59375 8.109375 
Q 21.484375 6.890625 26.8125 6.890625 
Q 36.078125 6.890625 40.9375 10.546875 
Q 45.796875 14.203125 45.796875 21.1875 
Q 45.796875 27.640625 41.28125 31.265625 
Q 36.765625 34.90625 28.71875 34.90625 
L 20.21875 34.90625 
L 20.21875 43.015625 
L 29.109375 43.015625 
Q 36.375 43.015625 40.234375 45.921875 
Q 44.09375 48.828125 44.09375 54.296875 
Q 44.09375 59.90625 40.109375 62.90625 
Q 36.140625 65.921875 28.71875 65.921875 
Q 24.65625 65.921875 20.015625 65.03125 
Q 15.375 64.15625 9.8125 62.3125 
L 9.8125 71.09375 
Q 15.4375 72.65625 20.34375 73.4375 
Q 25.25 74.21875 29.59375 74.21875 
Q 40.828125 74.21875 47.359375 69.109375 
Q 53.90625 64.015625 53.90625 55.328125 
Q 53.90625 49.265625 50.4375 45.09375 
Q 46.96875 40.921875 40.578125 39.3125 
z
" id="DejaVuSans-33"/>
      </defs>
      <g style="fill:#555555;" transform="translate(276.850371 334.998438)scale(0.1 -0.1)">
       <use xlink:href="#DejaVuSans-33"/>
      </g>
     </g>
    </g>
    <g id="xtick_5">
     <g id="line2d_9">
      <path clip-path="url(#pe1196a7c45)" d="M 332.964427 320.4 
L 332.964427 72 
" style="fill:none;stroke:#ffffff;stroke-linecap:square;stroke-width:0.8;"/>
     </g>
     <g id="line2d_10">
      <g>
       <use style="fill:#555555;stroke:#555555;stroke-width:0.8;" x="332.964427" xlink:href="#m4df814b034" y="320.4"/>
      </g>
     </g>
     <g id="text_5">
      <!-- 4 -->
      <defs>
       <path d="M 37.796875 64.3125 
L 12.890625 25.390625 
L 37.796875 25.390625 
z
M 35.203125 72.90625 
L 47.609375 72.90625 
L 47.609375 25.390625 
L 58.015625 25.390625 
L 58.015625 17.1875 
L 47.609375 17.1875 
L 47.609375 0 
L 37.796875 0 
L 37.796875 17.1875 
L 4.890625 17.1875 
L 4.890625 26.703125 
z
" id="DejaVuSans-34"/>
      </defs>
      <g style="fill:#555555;" transform="translate(329.783177 334.998438)scale(0.1 -0.1)">
       <use xlink:href="#DejaVuSans-34"/>
      </g>
     </g>
    </g>
    <g id="xtick_6">
     <g id="line2d_11">
      <path clip-path="url(#pe1196a7c45)" d="M 385.897233 320.4 
L 385.897233 72 
" style="fill:none;stroke:#ffffff;stroke-linecap:square;stroke-width:0.8;"/>
     </g>
     <g id="line2d_12">
      <g>
       <use style="fill:#555555;stroke:#555555;stroke-width:0.8;" x="385.897233" xlink:href="#m4df814b034" y="320.4"/>
      </g>
     </g>
     <g id="text_6">
      <!-- 5 -->
      <defs>
       <path d="M 10.796875 72.90625 
L 49.515625 72.90625 
L 49.515625 64.59375 
L 19.828125 64.59375 
L 19.828125 46.734375 
Q 21.96875 47.46875 24.109375 47.828125 
Q 26.265625 48.1875 28.421875 48.1875 
Q 40.625 48.1875 47.75 41.5 
Q 54.890625 34.8125 54.890625 23.390625 
Q 54.890625 11.625 47.5625 5.09375 
Q 40.234375 -1.421875 26.90625 -1.421875 
Q 22.3125 -1.421875 17.546875 -0.640625 
Q 12.796875 0.140625 7.71875 1.703125 
L 7.71875 11.625 
Q 12.109375 9.234375 16.796875 8.0625 
Q 21.484375 6.890625 26.703125 6.890625 
Q 35.15625 6.890625 40.078125 11.328125 
Q 45.015625 15.765625 45.015625 23.390625 
Q 45.015625 31 40.078125 35.4375 
Q 35.15625 39.890625 26.703125 39.890625 
Q 22.75 39.890625 18.8125 39.015625 
Q 14.890625 38.140625 10.796875 36.28125 
z
" id="DejaVuSans-35"/>
      </defs>
      <g style="fill:#555555;" transform="translate(382.715983 334.998438)scale(0.1 -0.1)">
       <use xlink:href="#DejaVuSans-35"/>
      </g>
     </g>
    </g>
    <g id="text_7">
     <!-- time interval -->
     <defs>
      <path d="M 18.3125 70.21875 
L 18.3125 54.6875 
L 36.8125 54.6875 
L 36.8125 47.703125 
L 18.3125 47.703125 
L 18.3125 18.015625 
Q 18.3125 11.328125 20.140625 9.421875 
Q 21.96875 7.515625 27.59375 7.515625 
L 36.8125 7.515625 
L 36.8125 0 
L 27.59375 0 
Q 17.1875 0 13.234375 3.875 
Q 9.28125 7.765625 9.28125 18.015625 
L 9.28125 47.703125 
L 2.6875 47.703125 
L 2.6875 54.6875 
L 9.28125 54.6875 
L 9.28125 70.21875 
z
" id="DejaVuSans-74"/>
      <path d="M 9.421875 54.6875 
L 18.40625 54.6875 
L 18.40625 0 
L 9.421875 0 
z
M 9.421875 75.984375 
L 18.40625 75.984375 
L 18.40625 64.59375 
L 9.421875 64.59375 
z
" id="DejaVuSans-69"/>
      <path d="M 52 44.1875 
Q 55.375 50.25 60.0625 53.125 
Q 64.75 56 71.09375 56 
Q 79.640625 56 84.28125 50.015625 
Q 88.921875 44.046875 88.921875 33.015625 
L 88.921875 0 
L 79.890625 0 
L 79.890625 32.71875 
Q 79.890625 40.578125 77.09375 44.375 
Q 74.3125 48.1875 68.609375 48.1875 
Q 61.625 48.1875 57.5625 43.546875 
Q 53.515625 38.921875 53.515625 30.90625 
L 53.515625 0 
L 44.484375 0 
L 44.484375 32.71875 
Q 44.484375 40.625 41.703125 44.40625 
Q 38.921875 48.1875 33.109375 48.1875 
Q 26.21875 48.1875 22.15625 43.53125 
Q 18.109375 38.875 18.109375 30.90625 
L 18.109375 0 
L 9.078125 0 
L 9.078125 54.6875 
L 18.109375 54.6875 
L 18.109375 46.1875 
Q 21.1875 51.21875 25.484375 53.609375 
Q 29.78125 56 35.6875 56 
Q 41.65625 56 45.828125 52.96875 
Q 50 49.953125 52 44.1875 
z
" id="DejaVuSans-6d"/>
      <path d="M 56.203125 29.59375 
L 56.203125 25.203125 
L 14.890625 25.203125 
Q 15.484375 15.921875 20.484375 11.0625 
Q 25.484375 6.203125 34.421875 6.203125 
Q 39.59375 6.203125 44.453125 7.46875 
Q 49.3125 8.734375 54.109375 11.28125 
L 54.109375 2.78125 
Q 49.265625 0.734375 44.1875 -0.34375 
Q 39.109375 -1.421875 33.890625 -1.421875 
Q 20.796875 -1.421875 13.15625 6.1875 
Q 5.515625 13.8125 5.515625 26.8125 
Q 5.515625 40.234375 12.765625 48.109375 
Q 20.015625 56 32.328125 56 
Q 43.359375 56 49.78125 48.890625 
Q 56.203125 41.796875 56.203125 29.59375 
z
M 47.21875 32.234375 
Q 47.125 39.59375 43.09375 43.984375 
Q 39.0625 48.390625 32.421875 48.390625 
Q 24.90625 48.390625 20.390625 44.140625 
Q 15.875 39.890625 15.1875 32.171875 
z
" id="DejaVuSans-65"/>
      <path id="DejaVuSans-20"/>
      <path d="M 54.890625 33.015625 
L 54.890625 0 
L 45.90625 0 
L 45.90625 32.71875 
Q 45.90625 40.484375 42.875 44.328125 
Q 39.84375 48.1875 33.796875 48.1875 
Q 26.515625 48.1875 22.3125 43.546875 
Q 18.109375 38.921875 18.109375 30.90625 
L 18.109375 0 
L 9.078125 0 
L 9.078125 54.6875 
L 18.109375 54.6875 
L 18.109375 46.1875 
Q 21.34375 51.125 25.703125 53.5625 
Q 30.078125 56 35.796875 56 
Q 45.21875 56 50.046875 50.171875 
Q 54.890625 44.34375 54.890625 33.015625 
z
" id="DejaVuSans-6e"/>
      <path d="M 41.109375 46.296875 
Q 39.59375 47.171875 37.8125 47.578125 
Q 36.03125 48 33.890625 48 
Q 26.265625 48 22.1875 43.046875 
Q 18.109375 38.09375 18.109375 28.8125 
L 18.109375 0 
L 9.078125 0 
L 9.078125 54.6875 
L 18.109375 54.6875 
L 18.109375 46.1875 
Q 20.953125 51.171875 25.484375 53.578125 
Q 30.03125 56 36.53125 56 
Q 37.453125 56 38.578125 55.875 
Q 39.703125 55.765625 41.0625 55.515625 
z
" id="DejaVuSans-72"/>
      <path d="M 2.984375 54.6875 
L 12.5 54.6875 
L 29.59375 8.796875 
L 46.6875 54.6875 
L 56.203125 54.6875 
L 35.6875 0 
L 23.484375 0 
z
" id="DejaVuSans-76"/>
      <path d="M 34.28125 27.484375 
Q 23.390625 27.484375 19.1875 25 
Q 14.984375 22.515625 14.984375 16.5 
Q 14.984375 11.71875 18.140625 8.90625 
Q 21.296875 6.109375 26.703125 6.109375 
Q 34.1875 6.109375 38.703125 11.40625 
Q 43.21875 16.703125 43.21875 25.484375 
L 43.21875 27.484375 
z
M 52.203125 31.203125 
L 52.203125 0 
L 43.21875 0 
L 43.21875 8.296875 
Q 40.140625 3.328125 35.546875 0.953125 
Q 30.953125 -1.421875 24.3125 -1.421875 
Q 15.921875 -1.421875 10.953125 3.296875 
Q 6 8.015625 6 15.921875 
Q 6 25.140625 12.171875 29.828125 
Q 18.359375 34.515625 30.609375 34.515625 
L 43.21875 34.515625 
L 43.21875 35.40625 
Q 43.21875 41.609375 39.140625 45 
Q 35.0625 48.390625 27.6875 48.390625 
Q 23 48.390625 18.546875 47.265625 
Q 14.109375 46.140625 10.015625 43.890625 
L 10.015625 52.203125 
Q 14.9375 54.109375 19.578125 55.046875 
Q 24.21875 56 28.609375 56 
Q 40.484375 56 46.34375 49.84375 
Q 52.203125 43.703125 52.203125 31.203125 
z
" id="DejaVuSans-61"/>
      <path d="M 9.421875 75.984375 
L 18.40625 75.984375 
L 18.40625 0 
L 9.421875 0 
z
" id="DejaVuSans-6c"/>
     </defs>
     <g style="fill:#555555;" transform="translate(221.617561 348.676562)scale(0.1 -0.1)">
      <use xlink:href="#DejaVuSans-74"/>
      <use x="39.208984" xlink:href="#DejaVuSans-69"/>
      <use x="66.992188" xlink:href="#DejaVuSans-6d"/>
      <use x="164.404297" xlink:href="#DejaVuSans-65"/>
      <use x="225.927734" xlink:href="#DejaVuSans-20"/>
      <use x="257.714844" xlink:href="#DejaVuSans-69"/>
      <use x="285.498047" xlink:href="#DejaVuSans-6e"/>
      <use x="348.876953" xlink:href="#DejaVuSans-74"/>
      <use x="388.085938" xlink:href="#DejaVuSans-65"/>
      <use x="449.609375" xlink:href="#DejaVuSans-72"/>
      <use x="490.722656" xlink:href="#DejaVuSans-76"/>
      <use x="549.902344" xlink:href="#DejaVuSans-61"/>
      <use x="611.181641" xlink:href="#DejaVuSans-6c"/>
     </g>
    </g>
   </g>
   <g id="matplotlib.axis_2">
    <g id="ytick_1">
     <g id="line2d_13">
      <path clip-path="url(#pe1196a7c45)" d="M 108 306.427085 
L 399.130435 306.427085 
" style="fill:none;stroke:#ffffff;stroke-linecap:square;stroke-width:0.8;"/>
     </g>
     <g id="line2d_14">
      <defs>
       <path d="M 0 0 
L -3.5 0 
" id="m171e10e66a" style="stroke:#555555;stroke-width:0.8;"/>
      </defs>
      <g>
       <use style="fill:#555555;stroke:#555555;stroke-width:0.8;" x="108" xlink:href="#m171e10e66a" y="306.427085"/>
      </g>
     </g>
     <g id="text_8">
      <!-- 0.0 -->
      <defs>
       <path d="M 10.6875 12.40625 
L 21 12.40625 
L 21 0 
L 10.6875 0 
z
" id="DejaVuSans-2e"/>
      </defs>
      <g style="fill:#555555;" transform="translate(85.096875 310.226303)scale(0.1 -0.1)">
       <use xlink:href="#DejaVuSans-30"/>
       <use x="63.623047" xlink:href="#DejaVuSans-2e"/>
       <use x="95.410156" xlink:href="#DejaVuSans-30"/>
      </g>
     </g>
    </g>
    <g id="ytick_2">
     <g id="line2d_15">
      <path clip-path="url(#pe1196a7c45)" d="M 108 272.703643 
L 399.130435 272.703643 
" style="fill:none;stroke:#ffffff;stroke-linecap:square;stroke-width:0.8;"/>
     </g>
     <g id="line2d_16">
      <g>
       <use style="fill:#555555;stroke:#555555;stroke-width:0.8;" x="108" xlink:href="#m171e10e66a" y="272.703643"/>
      </g>
     </g>
     <g id="text_9">
      <!-- 0.1 -->
      <g style="fill:#555555;" transform="translate(85.096875 276.502862)scale(0.1 -0.1)">
       <use xlink:href="#DejaVuSans-30"/>
       <use x="63.623047" xlink:href="#DejaVuSans-2e"/>
       <use x="95.410156" xlink:href="#DejaVuSans-31"/>
      </g>
     </g>
    </g>
    <g id="ytick_3">
     <g id="line2d_17">
      <path clip-path="url(#pe1196a7c45)" d="M 108 238.980202 
L 399.130435 238.980202 
" style="fill:none;stroke:#ffffff;stroke-linecap:square;stroke-width:0.8;"/>
     </g>
     <g id="line2d_18">
      <g>
       <use style="fill:#555555;stroke:#555555;stroke-width:0.8;" x="108" xlink:href="#m171e10e66a" y="238.980202"/>
      </g>
     </g>
     <g id="text_10">
      <!-- 0.2 -->
      <g style="fill:#555555;" transform="translate(85.096875 242.779421)scale(0.1 -0.1)">
       <use xlink:href="#DejaVuSans-30"/>
       <use x="63.623047" xlink:href="#DejaVuSans-2e"/>
       <use x="95.410156" xlink:href="#DejaVuSans-32"/>
      </g>
     </g>
    </g>
    <g id="ytick_4">
     <g id="line2d_19">
      <path clip-path="url(#pe1196a7c45)" d="M 108 205.256761 
L 399.130435 205.256761 
" style="fill:none;stroke:#ffffff;stroke-linecap:square;stroke-width:0.8;"/>
     </g>
     <g id="line2d_20">
      <g>
       <use style="fill:#555555;stroke:#555555;stroke-width:0.8;" x="108" xlink:href="#m171e10e66a" y="205.256761"/>
      </g>
     </g>
     <g id="text_11">
      <!-- 0.3 -->
      <g style="fill:#555555;" transform="translate(85.096875 209.05598)scale(0.1 -0.1)">
       <use xlink:href="#DejaVuSans-30"/>
       <use x="63.623047" xlink:href="#DejaVuSans-2e"/>
       <use x="95.410156" xlink:href="#DejaVuSans-33"/>
      </g>
     </g>
    </g>
    <g id="ytick_5">
     <g id="line2d_21">
      <path clip-path="url(#pe1196a7c45)" d="M 108 171.533319 
L 399.130435 171.533319 
" style="fill:none;stroke:#ffffff;stroke-linecap:square;stroke-width:0.8;"/>
     </g>
     <g id="line2d_22">
      <g>
       <use style="fill:#555555;stroke:#555555;stroke-width:0.8;" x="108" xlink:href="#m171e10e66a" y="171.533319"/>
      </g>
     </g>
     <g id="text_12">
      <!-- 0.4 -->
      <g style="fill:#555555;" transform="translate(85.096875 175.332538)scale(0.1 -0.1)">
       <use xlink:href="#DejaVuSans-30"/>
       <use x="63.623047" xlink:href="#DejaVuSans-2e"/>
       <use x="95.410156" xlink:href="#DejaVuSans-34"/>
      </g>
     </g>
    </g>
    <g id="ytick_6">
     <g id="line2d_23">
      <path clip-path="url(#pe1196a7c45)" d="M 108 137.809878 
L 399.130435 137.809878 
" style="fill:none;stroke:#ffffff;stroke-linecap:square;stroke-width:0.8;"/>
     </g>
     <g id="line2d_24">
      <g>
       <use style="fill:#555555;stroke:#555555;stroke-width:0.8;" x="108" xlink:href="#m171e10e66a" y="137.809878"/>
      </g>
     </g>
     <g id="text_13">
      <!-- 0.5 -->
      <g style="fill:#555555;" transform="translate(85.096875 141.609097)scale(0.1 -0.1)">
       <use xlink:href="#DejaVuSans-30"/>
       <use x="63.623047" xlink:href="#DejaVuSans-2e"/>
       <use x="95.410156" xlink:href="#DejaVuSans-35"/>
      </g>
     </g>
    </g>
    <g id="ytick_7">
     <g id="line2d_25">
      <path clip-path="url(#pe1196a7c45)" d="M 108 104.086437 
L 399.130435 104.086437 
" style="fill:none;stroke:#ffffff;stroke-linecap:square;stroke-width:0.8;"/>
     </g>
     <g id="line2d_26">
      <g>
       <use style="fill:#555555;stroke:#555555;stroke-width:0.8;" x="108" xlink:href="#m171e10e66a" y="104.086437"/>
      </g>
     </g>
     <g id="text_14">
      <!-- 0.6 -->
      <defs>
       <path d="M 33.015625 40.375 
Q 26.375 40.375 22.484375 35.828125 
Q 18.609375 31.296875 18.609375 23.390625 
Q 18.609375 15.53125 22.484375 10.953125 
Q 26.375 6.390625 33.015625 6.390625 
Q 39.65625 6.390625 43.53125 10.953125 
Q 47.40625 15.53125 47.40625 23.390625 
Q 47.40625 31.296875 43.53125 35.828125 
Q 39.65625 40.375 33.015625 40.375 
z
M 52.59375 71.296875 
L 52.59375 62.3125 
Q 48.875 64.0625 45.09375 64.984375 
Q 41.3125 65.921875 37.59375 65.921875 
Q 27.828125 65.921875 22.671875 59.328125 
Q 17.53125 52.734375 16.796875 39.40625 
Q 19.671875 43.65625 24.015625 45.921875 
Q 28.375 48.1875 33.59375 48.1875 
Q 44.578125 48.1875 50.953125 41.515625 
Q 57.328125 34.859375 57.328125 23.390625 
Q 57.328125 12.15625 50.6875 5.359375 
Q 44.046875 -1.421875 33.015625 -1.421875 
Q 20.359375 -1.421875 13.671875 8.265625 
Q 6.984375 17.96875 6.984375 36.375 
Q 6.984375 53.65625 15.1875 63.9375 
Q 23.390625 74.21875 37.203125 74.21875 
Q 40.921875 74.21875 44.703125 73.484375 
Q 48.484375 72.75 52.59375 71.296875 
z
" id="DejaVuSans-36"/>
      </defs>
      <g style="fill:#555555;" transform="translate(85.096875 107.885656)scale(0.1 -0.1)">
       <use xlink:href="#DejaVuSans-30"/>
       <use x="63.623047" xlink:href="#DejaVuSans-2e"/>
       <use x="95.410156" xlink:href="#DejaVuSans-36"/>
      </g>
     </g>
    </g>
    <g id="text_15">
     <!-- probability -->
     <defs>
      <path d="M 18.109375 8.203125 
L 18.109375 -20.796875 
L 9.078125 -20.796875 
L 9.078125 54.6875 
L 18.109375 54.6875 
L 18.109375 46.390625 
Q 20.953125 51.265625 25.265625 53.625 
Q 29.59375 56 35.59375 56 
Q 45.5625 56 51.78125 48.09375 
Q 58.015625 40.1875 58.015625 27.296875 
Q 58.015625 14.40625 51.78125 6.484375 
Q 45.5625 -1.421875 35.59375 -1.421875 
Q 29.59375 -1.421875 25.265625 0.953125 
Q 20.953125 3.328125 18.109375 8.203125 
z
M 48.6875 27.296875 
Q 48.6875 37.203125 44.609375 42.84375 
Q 40.53125 48.484375 33.40625 48.484375 
Q 26.265625 48.484375 22.1875 42.84375 
Q 18.109375 37.203125 18.109375 27.296875 
Q 18.109375 17.390625 22.1875 11.75 
Q 26.265625 6.109375 33.40625 6.109375 
Q 40.53125 6.109375 44.609375 11.75 
Q 48.6875 17.390625 48.6875 27.296875 
z
" id="DejaVuSans-70"/>
      <path d="M 30.609375 48.390625 
Q 23.390625 48.390625 19.1875 42.75 
Q 14.984375 37.109375 14.984375 27.296875 
Q 14.984375 17.484375 19.15625 11.84375 
Q 23.34375 6.203125 30.609375 6.203125 
Q 37.796875 6.203125 41.984375 11.859375 
Q 46.1875 17.53125 46.1875 27.296875 
Q 46.1875 37.015625 41.984375 42.703125 
Q 37.796875 48.390625 30.609375 48.390625 
z
M 30.609375 56 
Q 42.328125 56 49.015625 48.375 
Q 55.71875 40.765625 55.71875 27.296875 
Q 55.71875 13.875 49.015625 6.21875 
Q 42.328125 -1.421875 30.609375 -1.421875 
Q 18.84375 -1.421875 12.171875 6.21875 
Q 5.515625 13.875 5.515625 27.296875 
Q 5.515625 40.765625 12.171875 48.375 
Q 18.84375 56 30.609375 56 
z
" id="DejaVuSans-6f"/>
      <path d="M 48.6875 27.296875 
Q 48.6875 37.203125 44.609375 42.84375 
Q 40.53125 48.484375 33.40625 48.484375 
Q 26.265625 48.484375 22.1875 42.84375 
Q 18.109375 37.203125 18.109375 27.296875 
Q 18.109375 17.390625 22.1875 11.75 
Q 26.265625 6.109375 33.40625 6.109375 
Q 40.53125 6.109375 44.609375 11.75 
Q 48.6875 17.390625 48.6875 27.296875 
z
M 18.109375 46.390625 
Q 20.953125 51.265625 25.265625 53.625 
Q 29.59375 56 35.59375 56 
Q 45.5625 56 51.78125 48.09375 
Q 58.015625 40.1875 58.015625 27.296875 
Q 58.015625 14.40625 51.78125 6.484375 
Q 45.5625 -1.421875 35.59375 -1.421875 
Q 29.59375 -1.421875 25.265625 0.953125 
Q 20.953125 3.328125 18.109375 8.203125 
L 18.109375 0 
L 9.078125 0 
L 9.078125 75.984375 
L 18.109375 75.984375 
z
" id="DejaVuSans-62"/>
      <path d="M 32.171875 -5.078125 
Q 28.375 -14.84375 24.75 -17.8125 
Q 21.140625 -20.796875 15.09375 -20.796875 
L 7.90625 -20.796875 
L 7.90625 -13.28125 
L 13.1875 -13.28125 
Q 16.890625 -13.28125 18.9375 -11.515625 
Q 21 -9.765625 23.484375 -3.21875 
L 25.09375 0.875 
L 2.984375 54.6875 
L 12.5 54.6875 
L 29.59375 11.921875 
L 46.6875 54.6875 
L 56.203125 54.6875 
z
" id="DejaVuSans-79"/>
     </defs>
     <g style="fill:#555555;" transform="translate(79.017187 222.986719)rotate(-90)scale(0.1 -0.1)">
      <use xlink:href="#DejaVuSans-70"/>
      <use x="63.476562" xlink:href="#DejaVuSans-72"/>
      <use x="104.558594" xlink:href="#DejaVuSans-6f"/>
      <use x="165.740234" xlink:href="#DejaVuSans-62"/>
      <use x="229.216797" xlink:href="#DejaVuSans-61"/>
      <use x="290.496094" xlink:href="#DejaVuSans-62"/>
      <use x="353.972656" xlink:href="#DejaVuSans-69"/>
      <use x="381.755859" xlink:href="#DejaVuSans-6c"/>
      <use x="409.539062" xlink:href="#DejaVuSans-69"/>
      <use x="437.322266" xlink:href="#DejaVuSans-74"/>
      <use x="476.53125" xlink:href="#DejaVuSans-79"/>
     </g>
    </g>
   </g>
   <g id="line2d_27">
    <path clip-path="url(#pe1196a7c45)" d="M 121.233202 160.5343 
L 124.415535 159.110818 
L 127.597868 157.930365 
L 129.189034 157.431351 
L 129.719423 157.369976 
L 130.249812 157.487966 
L 130.780201 157.785324 
L 131.31059 158.262048 
L 131.840978 158.918138 
L 132.901756 160.768419 
L 133.962534 163.336165 
L 135.023311 166.383586 
L 136.084089 168.617652 
L 136.614478 169.356681 
L 137.144867 169.843708 
L 137.675256 170.078732 
L 138.205644 170.061753 
L 138.736033 169.792772 
L 139.266422 169.271788 
L 140.3272 167.748514 
L 140.857589 167.224917 
L 141.387978 166.929186 
L 141.918366 166.861321 
L 142.448755 167.021322 
L 142.979144 167.40919 
L 143.509533 168.024924 
L 144.039922 168.868524 
L 145.100699 171.237784 
L 146.161477 173.691828 
L 147.222255 175.537667 
L 148.283032 176.775302 
L 148.813421 177.166043 
L 149.34381 177.404732 
L 149.874199 177.49137 
L 150.934977 177.299166 
L 154.647699 176.269085 
L 156.769254 175.71713 
L 157.830032 175.736785 
L 158.890809 175.990462 
L 159.951587 176.478162 
L 161.012365 177.201175 
L 161.542753 177.724331 
L 162.603531 179.29017 
L 163.664309 181.548712 
L 164.725087 184.499959 
L 165.785864 188.143908 
L 166.316253 190.200189 
L 166.846642 191.27473 
L 167.377031 190.760696 
L 167.90742 188.658086 
L 168.437808 184.966901 
L 168.968197 179.68714 
L 169.498586 172.818804 
L 170.559364 154.316406 
L 173.211308 98.147569 
L 173.741697 91.542962 
L 174.272086 86.865316 
L 174.802475 84.114632 
L 175.332863 83.290909 
L 175.863252 84.394148 
L 176.393641 87.424349 
L 177.984808 101.936856 
L 179.045585 109.198581 
L 179.575974 111.948547 
L 180.106363 114.111249 
L 180.636752 115.686686 
L 181.167141 116.674859 
L 181.697529 117.075767 
L 182.758307 116.810652 
L 183.288696 117.038916 
L 183.819085 117.598497 
L 184.349474 118.489397 
L 184.879862 119.711616 
L 185.94064 123.150009 
L 187.001418 127.913675 
L 188.592584 135.908705 
L 189.653362 139.786118 
L 190.71414 142.404537 
L 191.244529 143.241623 
L 191.774917 143.76396 
L 192.305306 143.971549 
L 193.366084 143.863151 
L 193.896473 144.049784 
L 194.426862 144.443301 
L 194.95725 145.043703 
L 195.487639 145.85099 
L 196.548417 148.086216 
L 197.609195 151.14898 
L 199.73075 158.120005 
L 201.321917 162.401545 
L 202.382694 164.777853 
L 206.625805 173.272491 
L 208.74736 178.508827 
L 210.338527 182.15598 
L 211.399305 184.118467 
L 212.460082 185.705794 
L 213.52086 186.917962 
L 214.581638 187.950169 
L 215.642415 189.418803 
L 216.703193 191.369116 
L 217.763971 193.801109 
L 218.824748 196.714781 
L 222.007081 206.802335 
L 225.719803 218.754777 
L 226.780581 221.351734 
L 227.841359 223.372828 
L 228.902136 224.81806 
L 229.962914 225.705136 
L 231.023692 226.592698 
L 232.084469 227.747027 
L 233.145247 229.168125 
L 234.736414 231.799962 
L 236.857969 235.620997 
L 238.449135 238.090079 
L 240.040302 240.208098 
L 242.692246 243.505284 
L 245.34419 247.200814 
L 246.404968 248.691604 
L 247.465746 249.885615 
L 248.526523 250.769677 
L 249.587301 251.34379 
L 250.648079 251.607955 
L 251.708856 251.800317 
L 252.239245 252.088122 
L 253.300023 253.07488 
L 254.360801 254.609835 
L 255.421578 256.692987 
L 258.073523 262.822283 
L 259.1343 264.661471 
L 260.195078 266.089807 
L 261.255856 267.107291 
L 262.847022 268.3355 
L 264.438189 269.95123 
L 266.029355 271.970782 
L 267.620522 274.219647 
L 268.681299 275.318685 
L 269.742077 276.016108 
L 270.802855 276.311917 
L 271.863632 276.206111 
L 272.394021 276.081877 
L 272.92441 276.300114 
L 273.454799 276.905937 
L 273.985188 277.899345 
L 274.515577 279.280339 
L 275.045965 281.04892 
L 276.106743 285.748837 
L 277.167521 291.999098 
L 278.228298 298.764943 
L 279.289076 303.875513 
L 279.819465 305.784268 
L 280.349854 307.262004 
L 280.880243 308.308719 
L 281.410632 308.924415 
L 281.94102 309.109091 
L 282.471409 308.862747 
L 284.062576 307.257554 
L 285.123353 306.531579 
L 286.184131 306.10141 
L 287.244909 305.967046 
L 288.836075 306.205038 
L 290.957631 306.453139 
L 293.079186 306.49823 
L 298.913463 306.417906 
L 321.720183 306.427083 
L 385.897233 306.427085 
L 385.897233 306.427085 
" style="fill:none;stroke:#e24a33;stroke-linecap:square;stroke-width:1.5;"/>
   </g>
   <g id="line2d_28">
    <path clip-path="url(#pe1196a7c45)" d="M 121.233202 158.057011 
L 123.354757 158.393289 
L 125.476312 158.986062 
L 127.597868 159.835332 
L 131.840978 161.8142 
L 133.432145 162.246727 
L 136.084089 162.822186 
L 137.144867 163.306158 
L 138.205644 163.963863 
L 139.796811 165.275938 
L 140.857589 166.164631 
L 141.918366 166.84697 
L 142.979144 167.322955 
L 144.039922 167.592586 
L 145.631088 167.655623 
L 147.222255 167.80404 
L 148.813421 168.177559 
L 150.404588 168.77595 
L 152.526143 169.602548 
L 154.647699 170.219427 
L 156.769254 170.795716 
L 157.830032 171.387374 
L 158.890809 172.224828 
L 159.951587 173.308078 
L 163.664309 177.610693 
L 165.255475 178.844018 
L 166.846642 179.704397 
L 168.968197 180.908015 
L 171.089753 182.327904 
L 174.272086 184.55611 
L 177.454419 186.465645 
L 182.758307 189.618524 
L 184.349474 190.922711 
L 185.94064 192.606727 
L 187.531807 194.668459 
L 189.653362 197.401897 
L 191.774917 199.727559 
L 193.896473 201.672615 
L 196.018028 203.36284 
L 198.669972 205.158139 
L 201.852305 207.374991 
L 203.973861 209.02501 
L 205.565027 210.539793 
L 207.156194 212.351494 
L 211.399305 217.638428 
L 212.990471 219.102284 
L 215.112026 220.641182 
L 221.476693 225.281225 
L 225.189414 228.266931 
L 228.371747 231.128435 
L 232.084469 234.561277 
L 233.675636 235.718644 
L 235.797191 236.952143 
L 240.570691 239.715448 
L 242.161857 240.811789 
L 244.283413 242.600587 
L 247.996135 246.033614 
L 249.587301 247.041373 
L 251.178468 247.728321 
L 253.300023 248.66269 
L 255.421578 249.876519 
L 259.664689 252.77466 
L 268.150911 258.499978 
L 271.333244 260.34496 
L 274.515577 262.104688 
L 277.167521 263.87999 
L 283.001798 268.037935 
L 285.123353 269.365718 
L 287.244909 270.475646 
L 292.018408 272.547631 
L 296.261519 274.45156 
L 302.095796 277.294662 
L 304.747741 278.095794 
L 306.869296 278.839412 
L 309.52124 280.04643 
L 311.642795 280.972678 
L 313.764351 281.700065 
L 316.946684 282.719112 
L 319.068239 283.673291 
L 321.189795 284.695824 
L 322.780961 285.187052 
L 324.372128 285.420331 
L 326.493683 285.559953 
L 328.08485 285.95878 
L 329.676016 286.638835 
L 332.858349 288.303633 
L 334.979904 289.12171 
L 337.631849 289.852391 
L 340.814182 290.485191 
L 342.405348 290.812362 
L 343.996515 291.316457 
L 346.11807 292.264404 
L 347.709237 292.993112 
L 349.300403 293.480563 
L 350.89157 293.726234 
L 354.604292 294.011947 
L 357.256236 294.522852 
L 360.438569 295.119501 
L 364.68168 295.82527 
L 366.803235 296.445477 
L 368.92479 297.090531 
L 370.515957 297.281457 
L 372.107123 297.20567 
L 373.167901 297.075729 
L 373.69829 297.152865 
L 374.228679 297.352737 
L 375.289456 298.120689 
L 376.350234 299.379584 
L 377.411012 301.129422 
L 377.941401 302.188445 
L 378.471789 302.963554 
L 379.002178 302.9974 
L 379.532567 302.289596 
L 380.062956 300.840141 
L 380.593345 298.649035 
L 381.123734 295.716278 
L 382.184511 287.625812 
L 383.245289 276.568744 
L 384.306067 262.545072 
L 385.366844 245.554796 
L 385.897233 235.947183 
L 385.897233 235.947183 
" style="fill:none;stroke:#348abd;stroke-linecap:square;stroke-width:1.5;"/>
   </g>
   <g id="line2d_29">
    <path clip-path="url(#pe1196a7c45)" d="M 121.233202 306.427085 
L 174.272086 306.427085 
L 174.802475 136.962556 
L 279.819465 136.962556 
L 280.349854 306.427085 
L 385.897233 306.427085 
L 385.897233 306.427085 
" style="fill:none;stroke:#988ed5;stroke-linecap:square;stroke-width:1.5;"/>
   </g>
   <g id="patch_3">
    <path d="M 108 320.4 
L 108 72 
" style="fill:none;stroke:#ffffff;stroke-linecap:square;stroke-linejoin:miter;"/>
   </g>
   <g id="patch_4">
    <path d="M 399.130435 320.4 
L 399.130435 72 
" style="fill:none;stroke:#ffffff;stroke-linecap:square;stroke-linejoin:miter;"/>
   </g>
   <g id="patch_5">
    <path d="M 108 320.4 
L 399.130435 320.4 
" style="fill:none;stroke:#ffffff;stroke-linecap:square;stroke-linejoin:miter;"/>
   </g>
   <g id="patch_6">
    <path d="M 108 72 
L 399.130435 72 
" style="fill:none;stroke:#ffffff;stroke-linecap:square;stroke-linejoin:miter;"/>
   </g>
   <g id="text_16">
    <!-- PDF -->
    <defs>
     <path d="M 19.671875 64.796875 
L 19.671875 37.40625 
L 32.078125 37.40625 
Q 38.96875 37.40625 42.71875 40.96875 
Q 46.484375 44.53125 46.484375 51.125 
Q 46.484375 57.671875 42.71875 61.234375 
Q 38.96875 64.796875 32.078125 64.796875 
z
M 9.8125 72.90625 
L 32.078125 72.90625 
Q 44.34375 72.90625 50.609375 67.359375 
Q 56.890625 61.8125 56.890625 51.125 
Q 56.890625 40.328125 50.609375 34.8125 
Q 44.34375 29.296875 32.078125 29.296875 
L 19.671875 29.296875 
L 19.671875 0 
L 9.8125 0 
z
" id="DejaVuSans-50"/>
     <path d="M 19.671875 64.796875 
L 19.671875 8.109375 
L 31.59375 8.109375 
Q 46.6875 8.109375 53.6875 14.9375 
Q 60.6875 21.78125 60.6875 36.53125 
Q 60.6875 51.171875 53.6875 57.984375 
Q 46.6875 64.796875 31.59375 64.796875 
z
M 9.8125 72.90625 
L 30.078125 72.90625 
Q 51.265625 72.90625 61.171875 64.09375 
Q 71.09375 55.28125 71.09375 36.53125 
Q 71.09375 17.671875 61.125 8.828125 
Q 51.171875 0 30.078125 0 
L 9.8125 0 
z
" id="DejaVuSans-44"/>
     <path d="M 9.8125 72.90625 
L 51.703125 72.90625 
L 51.703125 64.59375 
L 19.671875 64.59375 
L 19.671875 43.109375 
L 48.578125 43.109375 
L 48.578125 34.8125 
L 19.671875 34.8125 
L 19.671875 0 
L 9.8125 0 
z
" id="DejaVuSans-46"/>
    </defs>
    <g transform="translate(243.824592 66)scale(0.1 -0.1)">
     <use xlink:href="#DejaVuSans-50"/>
     <use x="60.302734" xlink:href="#DejaVuSans-44"/>
     <use x="137.304688" xlink:href="#DejaVuSans-46"/>
    </g>
   </g>
  </g>
  <g id="axes_2">
   <g id="patch_7">
    <path d="M 486.469565 320.4 
L 777.6 320.4 
L 777.6 72 
L 486.469565 72 
z
" style="fill:#e5e5e5;"/>
   </g>
   <g id="matplotlib.axis_3">
    <g id="xtick_7">
     <g id="line2d_30">
      <path clip-path="url(#p4d1113e905)" d="M 499.702767 320.4 
L 499.702767 72 
" style="fill:none;stroke:#ffffff;stroke-linecap:square;stroke-width:0.8;"/>
     </g>
     <g id="line2d_31">
      <g>
       <use style="fill:#555555;stroke:#555555;stroke-width:0.8;" x="499.702767" xlink:href="#m4df814b034" y="320.4"/>
      </g>
     </g>
     <g id="text_17">
      <!-- 0 -->
      <g style="fill:#555555;" transform="translate(496.521517 334.998438)scale(0.1 -0.1)">
       <use xlink:href="#DejaVuSans-30"/>
      </g>
     </g>
    </g>
    <g id="xtick_8">
     <g id="line2d_32">
      <path clip-path="url(#p4d1113e905)" d="M 552.635573 320.4 
L 552.635573 72 
" style="fill:none;stroke:#ffffff;stroke-linecap:square;stroke-width:0.8;"/>
     </g>
     <g id="line2d_33">
      <g>
       <use style="fill:#555555;stroke:#555555;stroke-width:0.8;" x="552.635573" xlink:href="#m4df814b034" y="320.4"/>
      </g>
     </g>
     <g id="text_18">
      <!-- 1 -->
      <g style="fill:#555555;" transform="translate(549.454323 334.998438)scale(0.1 -0.1)">
       <use xlink:href="#DejaVuSans-31"/>
      </g>
     </g>
    </g>
    <g id="xtick_9">
     <g id="line2d_34">
      <path clip-path="url(#p4d1113e905)" d="M 605.568379 320.4 
L 605.568379 72 
" style="fill:none;stroke:#ffffff;stroke-linecap:square;stroke-width:0.8;"/>
     </g>
     <g id="line2d_35">
      <g>
       <use style="fill:#555555;stroke:#555555;stroke-width:0.8;" x="605.568379" xlink:href="#m4df814b034" y="320.4"/>
      </g>
     </g>
     <g id="text_19">
      <!-- 2 -->
      <g style="fill:#555555;" transform="translate(602.387129 334.998438)scale(0.1 -0.1)">
       <use xlink:href="#DejaVuSans-32"/>
      </g>
     </g>
    </g>
    <g id="xtick_10">
     <g id="line2d_36">
      <path clip-path="url(#p4d1113e905)" d="M 658.501186 320.4 
L 658.501186 72 
" style="fill:none;stroke:#ffffff;stroke-linecap:square;stroke-width:0.8;"/>
     </g>
     <g id="line2d_37">
      <g>
       <use style="fill:#555555;stroke:#555555;stroke-width:0.8;" x="658.501186" xlink:href="#m4df814b034" y="320.4"/>
      </g>
     </g>
     <g id="text_20">
      <!-- 3 -->
      <g style="fill:#555555;" transform="translate(655.319936 334.998438)scale(0.1 -0.1)">
       <use xlink:href="#DejaVuSans-33"/>
      </g>
     </g>
    </g>
    <g id="xtick_11">
     <g id="line2d_38">
      <path clip-path="url(#p4d1113e905)" d="M 711.433992 320.4 
L 711.433992 72 
" style="fill:none;stroke:#ffffff;stroke-linecap:square;stroke-width:0.8;"/>
     </g>
     <g id="line2d_39">
      <g>
       <use style="fill:#555555;stroke:#555555;stroke-width:0.8;" x="711.433992" xlink:href="#m4df814b034" y="320.4"/>
      </g>
     </g>
     <g id="text_21">
      <!-- 4 -->
      <g style="fill:#555555;" transform="translate(708.252742 334.998438)scale(0.1 -0.1)">
       <use xlink:href="#DejaVuSans-34"/>
      </g>
     </g>
    </g>
    <g id="xtick_12">
     <g id="line2d_40">
      <path clip-path="url(#p4d1113e905)" d="M 764.366798 320.4 
L 764.366798 72 
" style="fill:none;stroke:#ffffff;stroke-linecap:square;stroke-width:0.8;"/>
     </g>
     <g id="line2d_41">
      <g>
       <use style="fill:#555555;stroke:#555555;stroke-width:0.8;" x="764.366798" xlink:href="#m4df814b034" y="320.4"/>
      </g>
     </g>
     <g id="text_22">
      <!-- 5 -->
      <g style="fill:#555555;" transform="translate(761.185548 334.998438)scale(0.1 -0.1)">
       <use xlink:href="#DejaVuSans-35"/>
      </g>
     </g>
    </g>
    <g id="text_23">
     <!-- time interval -->
     <g style="fill:#555555;" transform="translate(600.087126 348.676562)scale(0.1 -0.1)">
      <use xlink:href="#DejaVuSans-74"/>
      <use x="39.208984" xlink:href="#DejaVuSans-69"/>
      <use x="66.992188" xlink:href="#DejaVuSans-6d"/>
      <use x="164.404297" xlink:href="#DejaVuSans-65"/>
      <use x="225.927734" xlink:href="#DejaVuSans-20"/>
      <use x="257.714844" xlink:href="#DejaVuSans-69"/>
      <use x="285.498047" xlink:href="#DejaVuSans-6e"/>
      <use x="348.876953" xlink:href="#DejaVuSans-74"/>
      <use x="388.085938" xlink:href="#DejaVuSans-65"/>
      <use x="449.609375" xlink:href="#DejaVuSans-72"/>
      <use x="490.722656" xlink:href="#DejaVuSans-76"/>
      <use x="549.902344" xlink:href="#DejaVuSans-61"/>
      <use x="611.181641" xlink:href="#DejaVuSans-6c"/>
     </g>
    </g>
   </g>
   <g id="matplotlib.axis_4">
    <g id="ytick_8">
     <g id="line2d_42">
      <path clip-path="url(#p4d1113e905)" d="M 486.469565 308.959112 
L 777.6 308.959112 
" style="fill:none;stroke:#ffffff;stroke-linecap:square;stroke-width:0.8;"/>
     </g>
     <g id="line2d_43">
      <g>
       <use style="fill:#555555;stroke:#555555;stroke-width:0.8;" x="486.469565" xlink:href="#m171e10e66a" y="308.959112"/>
      </g>
     </g>
     <g id="text_24">
      <!-- 0.0 -->
      <g style="fill:#555555;" transform="translate(463.56644 312.75833)scale(0.1 -0.1)">
       <use xlink:href="#DejaVuSans-30"/>
       <use x="63.623047" xlink:href="#DejaVuSans-2e"/>
       <use x="95.410156" xlink:href="#DejaVuSans-30"/>
      </g>
     </g>
    </g>
    <g id="ytick_9">
     <g id="line2d_44">
      <path clip-path="url(#p4d1113e905)" d="M 486.469565 263.825471 
L 777.6 263.825471 
" style="fill:none;stroke:#ffffff;stroke-linecap:square;stroke-width:0.8;"/>
     </g>
     <g id="line2d_45">
      <g>
       <use style="fill:#555555;stroke:#555555;stroke-width:0.8;" x="486.469565" xlink:href="#m171e10e66a" y="263.825471"/>
      </g>
     </g>
     <g id="text_25">
      <!-- 0.2 -->
      <g style="fill:#555555;" transform="translate(463.56644 267.62469)scale(0.1 -0.1)">
       <use xlink:href="#DejaVuSans-30"/>
       <use x="63.623047" xlink:href="#DejaVuSans-2e"/>
       <use x="95.410156" xlink:href="#DejaVuSans-32"/>
      </g>
     </g>
    </g>
    <g id="ytick_10">
     <g id="line2d_46">
      <path clip-path="url(#p4d1113e905)" d="M 486.469565 218.691831 
L 777.6 218.691831 
" style="fill:none;stroke:#ffffff;stroke-linecap:square;stroke-width:0.8;"/>
     </g>
     <g id="line2d_47">
      <g>
       <use style="fill:#555555;stroke:#555555;stroke-width:0.8;" x="486.469565" xlink:href="#m171e10e66a" y="218.691831"/>
      </g>
     </g>
     <g id="text_26">
      <!-- 0.4 -->
      <g style="fill:#555555;" transform="translate(463.56644 222.491049)scale(0.1 -0.1)">
       <use xlink:href="#DejaVuSans-30"/>
       <use x="63.623047" xlink:href="#DejaVuSans-2e"/>
       <use x="95.410156" xlink:href="#DejaVuSans-34"/>
      </g>
     </g>
    </g>
    <g id="ytick_11">
     <g id="line2d_48">
      <path clip-path="url(#p4d1113e905)" d="M 486.469565 173.55819 
L 777.6 173.55819 
" style="fill:none;stroke:#ffffff;stroke-linecap:square;stroke-width:0.8;"/>
     </g>
     <g id="line2d_49">
      <g>
       <use style="fill:#555555;stroke:#555555;stroke-width:0.8;" x="486.469565" xlink:href="#m171e10e66a" y="173.55819"/>
      </g>
     </g>
     <g id="text_27">
      <!-- 0.6 -->
      <g style="fill:#555555;" transform="translate(463.56644 177.357409)scale(0.1 -0.1)">
       <use xlink:href="#DejaVuSans-30"/>
       <use x="63.623047" xlink:href="#DejaVuSans-2e"/>
       <use x="95.410156" xlink:href="#DejaVuSans-36"/>
      </g>
     </g>
    </g>
    <g id="ytick_12">
     <g id="line2d_50">
      <path clip-path="url(#p4d1113e905)" d="M 486.469565 128.42455 
L 777.6 128.42455 
" style="fill:none;stroke:#ffffff;stroke-linecap:square;stroke-width:0.8;"/>
     </g>
     <g id="line2d_51">
      <g>
       <use style="fill:#555555;stroke:#555555;stroke-width:0.8;" x="486.469565" xlink:href="#m171e10e66a" y="128.42455"/>
      </g>
     </g>
     <g id="text_28">
      <!-- 0.8 -->
      <defs>
       <path d="M 31.78125 34.625 
Q 24.75 34.625 20.71875 30.859375 
Q 16.703125 27.09375 16.703125 20.515625 
Q 16.703125 13.921875 20.71875 10.15625 
Q 24.75 6.390625 31.78125 6.390625 
Q 38.8125 6.390625 42.859375 10.171875 
Q 46.921875 13.96875 46.921875 20.515625 
Q 46.921875 27.09375 42.890625 30.859375 
Q 38.875 34.625 31.78125 34.625 
z
M 21.921875 38.8125 
Q 15.578125 40.375 12.03125 44.71875 
Q 8.5 49.078125 8.5 55.328125 
Q 8.5 64.0625 14.71875 69.140625 
Q 20.953125 74.21875 31.78125 74.21875 
Q 42.671875 74.21875 48.875 69.140625 
Q 55.078125 64.0625 55.078125 55.328125 
Q 55.078125 49.078125 51.53125 44.71875 
Q 48 40.375 41.703125 38.8125 
Q 48.828125 37.15625 52.796875 32.3125 
Q 56.78125 27.484375 56.78125 20.515625 
Q 56.78125 9.90625 50.3125 4.234375 
Q 43.84375 -1.421875 31.78125 -1.421875 
Q 19.734375 -1.421875 13.25 4.234375 
Q 6.78125 9.90625 6.78125 20.515625 
Q 6.78125 27.484375 10.78125 32.3125 
Q 14.796875 37.15625 21.921875 38.8125 
z
M 18.3125 54.390625 
Q 18.3125 48.734375 21.84375 45.5625 
Q 25.390625 42.390625 31.78125 42.390625 
Q 38.140625 42.390625 41.71875 45.5625 
Q 45.3125 48.734375 45.3125 54.390625 
Q 45.3125 60.0625 41.71875 63.234375 
Q 38.140625 66.40625 31.78125 66.40625 
Q 25.390625 66.40625 21.84375 63.234375 
Q 18.3125 60.0625 18.3125 54.390625 
z
" id="DejaVuSans-38"/>
      </defs>
      <g style="fill:#555555;" transform="translate(463.56644 132.223768)scale(0.1 -0.1)">
       <use xlink:href="#DejaVuSans-30"/>
       <use x="63.623047" xlink:href="#DejaVuSans-2e"/>
       <use x="95.410156" xlink:href="#DejaVuSans-38"/>
      </g>
     </g>
    </g>
    <g id="ytick_13">
     <g id="line2d_52">
      <path clip-path="url(#p4d1113e905)" d="M 486.469565 83.290909 
L 777.6 83.290909 
" style="fill:none;stroke:#ffffff;stroke-linecap:square;stroke-width:0.8;"/>
     </g>
     <g id="line2d_53">
      <g>
       <use style="fill:#555555;stroke:#555555;stroke-width:0.8;" x="486.469565" xlink:href="#m171e10e66a" y="83.290909"/>
      </g>
     </g>
     <g id="text_29">
      <!-- 1.0 -->
      <g style="fill:#555555;" transform="translate(463.56644 87.090128)scale(0.1 -0.1)">
       <use xlink:href="#DejaVuSans-31"/>
       <use x="63.623047" xlink:href="#DejaVuSans-2e"/>
       <use x="95.410156" xlink:href="#DejaVuSans-30"/>
      </g>
     </g>
    </g>
    <g id="text_30">
     <!-- probability -->
     <g style="fill:#555555;" transform="translate(457.486753 222.986719)rotate(-90)scale(0.1 -0.1)">
      <use xlink:href="#DejaVuSans-70"/>
      <use x="63.476562" xlink:href="#DejaVuSans-72"/>
      <use x="104.558594" xlink:href="#DejaVuSans-6f"/>
      <use x="165.740234" xlink:href="#DejaVuSans-62"/>
      <use x="229.216797" xlink:href="#DejaVuSans-61"/>
      <use x="290.496094" xlink:href="#DejaVuSans-62"/>
      <use x="353.972656" xlink:href="#DejaVuSans-69"/>
      <use x="381.755859" xlink:href="#DejaVuSans-6c"/>
      <use x="409.539062" xlink:href="#DejaVuSans-69"/>
      <use x="437.322266" xlink:href="#DejaVuSans-74"/>
      <use x="476.53125" xlink:href="#DejaVuSans-79"/>
     </g>
    </g>
   </g>
   <g id="line2d_54">
    <path clip-path="url(#p4d1113e905)" d="M 499.702767 83.290909 
L 508.719377 99.66282 
L 516.67521 114.111951 
L 529.404542 135.558414 
L 541.603485 155.175943 
L 546.376985 162.668787 
L 549.028929 166.447161 
L 551.150484 169.466701 
L 552.211262 171.431437 
L 553.27204 173.756312 
L 554.863206 177.918882 
L 557.51515 185.538402 
L 559.636706 191.013747 
L 563.879817 200.972994 
L 568.653316 211.983421 
L 571.30526 217.505394 
L 580.321871 235.356072 
L 584.034593 241.988106 
L 588.277703 249.166854 
L 591.990425 255.012257 
L 597.824702 263.624826 
L 601.007035 268.011552 
L 604.189368 272.005101 
L 606.841313 275.015297 
L 610.554035 278.828719 
L 615.857923 283.993242 
L 619.570645 287.261956 
L 623.813756 290.706064 
L 627.526477 293.48159 
L 632.830366 297.113832 
L 637.073477 299.896167 
L 639.725421 301.374276 
L 645.029309 303.955238 
L 648.742031 305.558596 
L 656.167475 308.351593 
L 657.758641 308.816426 
L 659.349808 309.064334 
L 660.940974 309.095315 
L 665.184085 308.935075 
L 692.233916 308.959115 
L 764.366798 308.959112 
L 764.366798 308.959112 
" style="fill:none;stroke:#e24a33;stroke-linecap:square;stroke-width:1.5;"/>
   </g>
   <g id="line2d_55">
    <path clip-path="url(#p4d1113e905)" d="M 499.702767 83.290909 
L 511.90171 105.282751 
L 522.509487 123.850854 
L 535.769208 146.240342 
L 543.725041 159.283772 
L 551.150484 170.819156 
L 558.045539 181.143428 
L 565.470983 191.868781 
L 570.244483 198.457065 
L 575.548371 205.378197 
L 581.913037 213.31533 
L 587.747314 220.280047 
L 591.990425 225.052373 
L 597.824702 231.240396 
L 603.65898 237.129936 
L 608.962868 242.19978 
L 613.736368 246.489531 
L 620.631423 252.334962 
L 626.4657 257.000144 
L 631.769588 260.917591 
L 638.664643 265.747571 
L 644.49892 269.536613 
L 650.333198 273.042544 
L 656.697864 276.58567 
L 662.001752 279.2951 
L 667.305641 281.762282 
L 674.200695 284.705485 
L 680.565362 287.192903 
L 687.990805 289.8107 
L 694.355471 291.846133 
L 701.780915 293.992433 
L 711.327914 296.42931 
L 717.69258 297.825172 
L 726.709191 299.571407 
L 734.134634 300.759005 
L 744.212022 302.210151 
L 752.698244 303.237344 
L 764.366798 304.396321 
L 764.366798 304.396321 
" style="fill:none;stroke:#348abd;stroke-linecap:square;stroke-width:1.5;"/>
   </g>
   <g id="line2d_56">
    <path clip-path="url(#p4d1113e905)" d="M 499.702767 83.290909 
L 553.27204 83.290909 
L 658.819419 308.959112 
L 764.366798 308.959112 
L 764.366798 308.959112 
" style="fill:none;stroke:#988ed5;stroke-linecap:square;stroke-width:1.5;"/>
   </g>
   <g id="patch_8">
    <path d="M 486.469565 320.4 
L 486.469565 72 
" style="fill:none;stroke:#ffffff;stroke-linecap:square;stroke-linejoin:miter;"/>
   </g>
   <g id="patch_9">
    <path d="M 777.6 320.4 
L 777.6 72 
" style="fill:none;stroke:#ffffff;stroke-linecap:square;stroke-linejoin:miter;"/>
   </g>
   <g id="patch_10">
    <path d="M 486.469565 320.4 
L 777.6 320.4 
" style="fill:none;stroke:#ffffff;stroke-linecap:square;stroke-linejoin:miter;"/>
   </g>
   <g id="patch_11">
    <path d="M 486.469565 72 
L 777.6 72 
" style="fill:none;stroke:#ffffff;stroke-linecap:square;stroke-linejoin:miter;"/>
   </g>
   <g id="text_31">
    <!-- SF -->
    <defs>
     <path d="M 53.515625 70.515625 
L 53.515625 60.890625 
Q 47.90625 63.578125 42.921875 64.890625 
Q 37.9375 66.21875 33.296875 66.21875 
Q 25.25 66.21875 20.875 63.09375 
Q 16.5 59.96875 16.5 54.203125 
Q 16.5 49.359375 19.40625 46.890625 
Q 22.3125 44.4375 30.421875 42.921875 
L 36.375 41.703125 
Q 47.40625 39.59375 52.65625 34.296875 
Q 57.90625 29 57.90625 20.125 
Q 57.90625 9.515625 50.796875 4.046875 
Q 43.703125 -1.421875 29.984375 -1.421875 
Q 24.8125 -1.421875 18.96875 -0.25 
Q 13.140625 0.921875 6.890625 3.21875 
L 6.890625 13.375 
Q 12.890625 10.015625 18.65625 8.296875 
Q 24.421875 6.59375 29.984375 6.59375 
Q 38.421875 6.59375 43.015625 9.90625 
Q 47.609375 13.234375 47.609375 19.390625 
Q 47.609375 24.75 44.3125 27.78125 
Q 41.015625 30.8125 33.5 32.328125 
L 27.484375 33.5 
Q 16.453125 35.6875 11.515625 40.375 
Q 6.59375 45.0625 6.59375 53.421875 
Q 6.59375 63.09375 13.40625 68.65625 
Q 20.21875 74.21875 32.171875 74.21875 
Q 37.3125 74.21875 42.625 73.28125 
Q 47.953125 72.359375 53.515625 70.515625 
z
" id="DejaVuSans-53"/>
    </defs>
    <g transform="translate(625.984783 66)scale(0.1 -0.1)">
     <use xlink:href="#DejaVuSans-53"/>
     <use x="63.476562" xlink:href="#DejaVuSans-46"/>
    </g>
   </g>
  </g>
 </g>
 <defs>
  <clipPath id="pe1196a7c45">
   <rect height="248.4" width="291.130435" x="108" y="72"/>
  </clipPath>
  <clipPath id="p4d1113e905">
   <rect height="248.4" width="291.130435" x="486.469565" y="72"/>
  </clipPath>
 </defs>
</svg>
