<?xml version="1.0" encoding="utf-8" standalone="no"?>
<!DOCTYPE svg PUBLIC "-//W3C//DTD SVG 1.1//EN"
  "http://www.w3.org/Graphics/SVG/1.1/DTD/svg11.dtd">
<!-- Created with matplotlib (http://matplotlib.org/) -->
<svg height="288pt" version="1.1" viewBox="0 0 1008 288" width="1008pt" xmlns="http://www.w3.org/2000/svg" xmlns:xlink="http://www.w3.org/1999/xlink">
 <defs>
  <style type="text/css">
*{stroke-linecap:butt;stroke-linejoin:round;}
  </style>
 </defs>
 <g id="figure_1">
  <g id="patch_1">
   <path d="M 0 288 
L 1008 288 
L 1008 0 
L 0 0 
z
" style="fill:#ffffff;"/>
  </g>
  <g id="axes_1">
   <g id="patch_2">
    <path d="M 50.4 244.8 
L 324.249711 244.8 
L 324.249711 5.76 
L 50.4 5.76 
z
" style="fill:#ffffff;"/>
   </g>
   <g id="matplotlib.axis_1">
    <g id="xtick_1">
     <g id="line2d_1">
      <defs>
       <path d="M 0 0 
L 0 3.5 
" id="mc6b3204d1f" style="stroke:#000000;stroke-width:0.8;"/>
      </defs>
      <g>
       <use style="stroke:#000000;stroke-width:0.8;" x="62.847714" xlink:href="#mc6b3204d1f" y="244.8"/>
      </g>
     </g>
     <g id="text_1">
      <!-- 0 -->
      <defs>
       <path d="M 31.78125 66.40625 
Q 24.171875 66.40625 20.328125 58.90625 
Q 16.5 51.421875 16.5 36.375 
Q 16.5 21.390625 20.328125 13.890625 
Q 24.171875 6.390625 31.78125 6.390625 
Q 39.453125 6.390625 43.28125 13.890625 
Q 47.125 21.390625 47.125 36.375 
Q 47.125 51.421875 43.28125 58.90625 
Q 39.453125 66.40625 31.78125 66.40625 
z
M 31.78125 74.21875 
Q 44.046875 74.21875 50.515625 64.515625 
Q 56.984375 54.828125 56.984375 36.375 
Q 56.984375 17.96875 50.515625 8.265625 
Q 44.046875 -1.421875 31.78125 -1.421875 
Q 19.53125 -1.421875 13.0625 8.265625 
Q 6.59375 17.96875 6.59375 36.375 
Q 6.59375 54.828125 13.0625 64.515625 
Q 19.53125 74.21875 31.78125 74.21875 
z
" id="DejaVuSans-30"/>
      </defs>
      <g transform="translate(58.712089 261.677969)scale(0.13 -0.13)">
       <use xlink:href="#DejaVuSans-30"/>
      </g>
     </g>
    </g>
    <g id="xtick_2">
     <g id="line2d_2">
      <g>
       <use style="stroke:#000000;stroke-width:0.8;" x="112.638571" xlink:href="#mc6b3204d1f" y="244.8"/>
      </g>
     </g>
     <g id="text_2">
      <!-- 1 -->
      <defs>
       <path d="M 12.40625 8.296875 
L 28.515625 8.296875 
L 28.515625 63.921875 
L 10.984375 60.40625 
L 10.984375 69.390625 
L 28.421875 72.90625 
L 38.28125 72.90625 
L 38.28125 8.296875 
L 54.390625 8.296875 
L 54.390625 0 
L 12.40625 0 
z
" id="DejaVuSans-31"/>
      </defs>
      <g transform="translate(108.502946 261.677969)scale(0.13 -0.13)">
       <use xlink:href="#DejaVuSans-31"/>
      </g>
     </g>
    </g>
    <g id="xtick_3">
     <g id="line2d_3">
      <g>
       <use style="stroke:#000000;stroke-width:0.8;" x="162.429427" xlink:href="#mc6b3204d1f" y="244.8"/>
      </g>
     </g>
     <g id="text_3">
      <!-- 2 -->
      <defs>
       <path d="M 19.1875 8.296875 
L 53.609375 8.296875 
L 53.609375 0 
L 7.328125 0 
L 7.328125 8.296875 
Q 12.9375 14.109375 22.625 23.890625 
Q 32.328125 33.6875 34.8125 36.53125 
Q 39.546875 41.84375 41.421875 45.53125 
Q 43.3125 49.21875 43.3125 52.78125 
Q 43.3125 58.59375 39.234375 62.25 
Q 35.15625 65.921875 28.609375 65.921875 
Q 23.96875 65.921875 18.8125 64.3125 
Q 13.671875 62.703125 7.8125 59.421875 
L 7.8125 69.390625 
Q 13.765625 71.78125 18.9375 73 
Q 24.125 74.21875 28.421875 74.21875 
Q 39.75 74.21875 46.484375 68.546875 
Q 53.21875 62.890625 53.21875 53.421875 
Q 53.21875 48.921875 51.53125 44.890625 
Q 49.859375 40.875 45.40625 35.40625 
Q 44.1875 33.984375 37.640625 27.21875 
Q 31.109375 20.453125 19.1875 8.296875 
z
" id="DejaVuSans-32"/>
      </defs>
      <g transform="translate(158.293802 261.677969)scale(0.13 -0.13)">
       <use xlink:href="#DejaVuSans-32"/>
      </g>
     </g>
    </g>
    <g id="xtick_4">
     <g id="line2d_4">
      <g>
       <use style="stroke:#000000;stroke-width:0.8;" x="212.220284" xlink:href="#mc6b3204d1f" y="244.8"/>
      </g>
     </g>
     <g id="text_4">
      <!-- 3 -->
      <defs>
       <path d="M 40.578125 39.3125 
Q 47.65625 37.796875 51.625 33 
Q 55.609375 28.21875 55.609375 21.1875 
Q 55.609375 10.40625 48.1875 4.484375 
Q 40.765625 -1.421875 27.09375 -1.421875 
Q 22.515625 -1.421875 17.65625 -0.515625 
Q 12.796875 0.390625 7.625 2.203125 
L 7.625 11.71875 
Q 11.71875 9.328125 16.59375 8.109375 
Q 21.484375 6.890625 26.8125 6.890625 
Q 36.078125 6.890625 40.9375 10.546875 
Q 45.796875 14.203125 45.796875 21.1875 
Q 45.796875 27.640625 41.28125 31.265625 
Q 36.765625 34.90625 28.71875 34.90625 
L 20.21875 34.90625 
L 20.21875 43.015625 
L 29.109375 43.015625 
Q 36.375 43.015625 40.234375 45.921875 
Q 44.09375 48.828125 44.09375 54.296875 
Q 44.09375 59.90625 40.109375 62.90625 
Q 36.140625 65.921875 28.71875 65.921875 
Q 24.65625 65.921875 20.015625 65.03125 
Q 15.375 64.15625 9.8125 62.3125 
L 9.8125 71.09375 
Q 15.4375 72.65625 20.34375 73.4375 
Q 25.25 74.21875 29.59375 74.21875 
Q 40.828125 74.21875 47.359375 69.109375 
Q 53.90625 64.015625 53.90625 55.328125 
Q 53.90625 49.265625 50.4375 45.09375 
Q 46.96875 40.921875 40.578125 39.3125 
z
" id="DejaVuSans-33"/>
      </defs>
      <g transform="translate(208.084659 261.677969)scale(0.13 -0.13)">
       <use xlink:href="#DejaVuSans-33"/>
      </g>
     </g>
    </g>
    <g id="xtick_5">
     <g id="line2d_5">
      <g>
       <use style="stroke:#000000;stroke-width:0.8;" x="262.01114" xlink:href="#mc6b3204d1f" y="244.8"/>
      </g>
     </g>
     <g id="text_5">
      <!-- 4 -->
      <defs>
       <path d="M 37.796875 64.3125 
L 12.890625 25.390625 
L 37.796875 25.390625 
z
M 35.203125 72.90625 
L 47.609375 72.90625 
L 47.609375 25.390625 
L 58.015625 25.390625 
L 58.015625 17.1875 
L 47.609375 17.1875 
L 47.609375 0 
L 37.796875 0 
L 37.796875 17.1875 
L 4.890625 17.1875 
L 4.890625 26.703125 
z
" id="DejaVuSans-34"/>
      </defs>
      <g transform="translate(257.875515 261.677969)scale(0.13 -0.13)">
       <use xlink:href="#DejaVuSans-34"/>
      </g>
     </g>
    </g>
    <g id="xtick_6">
     <g id="line2d_6">
      <g>
       <use style="stroke:#000000;stroke-width:0.8;" x="311.801997" xlink:href="#mc6b3204d1f" y="244.8"/>
      </g>
     </g>
     <g id="text_6">
      <!-- 5 -->
      <defs>
       <path d="M 10.796875 72.90625 
L 49.515625 72.90625 
L 49.515625 64.59375 
L 19.828125 64.59375 
L 19.828125 46.734375 
Q 21.96875 47.46875 24.109375 47.828125 
Q 26.265625 48.1875 28.421875 48.1875 
Q 40.625 48.1875 47.75 41.5 
Q 54.890625 34.8125 54.890625 23.390625 
Q 54.890625 11.625 47.5625 5.09375 
Q 40.234375 -1.421875 26.90625 -1.421875 
Q 22.3125 -1.421875 17.546875 -0.640625 
Q 12.796875 0.140625 7.71875 1.703125 
L 7.71875 11.625 
Q 12.109375 9.234375 16.796875 8.0625 
Q 21.484375 6.890625 26.703125 6.890625 
Q 35.15625 6.890625 40.078125 11.328125 
Q 45.015625 15.765625 45.015625 23.390625 
Q 45.015625 31 40.078125 35.4375 
Q 35.15625 39.890625 26.703125 39.890625 
Q 22.75 39.890625 18.8125 39.015625 
Q 14.890625 38.140625 10.796875 36.28125 
z
" id="DejaVuSans-35"/>
      </defs>
      <g transform="translate(307.666372 261.677969)scale(0.13 -0.13)">
       <use xlink:href="#DejaVuSans-35"/>
      </g>
     </g>
    </g>
    <g id="text_7">
     <!-- $\tau$ -->
     <defs>
      <path d="M 32.859375 9.96875 
Q 34.1875 7.625 39.453125 7.625 
L 43.75 7.625 
L 42.28125 0 
L 36.921875 0 
Q 28.125 0 25 4.6875 
Q 21.921875 9.46875 23.96875 19.828125 
L 29 45.703125 
L 8.453125 45.703125 
L 10.203125 54.6875 
L 60.640625 54.6875 
L 58.890625 45.703125 
L 38.1875 45.703125 
L 33.015625 19.28125 
Q 31.640625 12.203125 32.859375 9.96875 
z
" id="DejaVuSans-Oblique-3c4"/>
     </defs>
     <g transform="translate(182.444855 280.539062)scale(0.16 -0.16)">
      <use transform="translate(0 0.3125)" xlink:href="#DejaVuSans-Oblique-3c4"/>
     </g>
    </g>
   </g>
   <g id="matplotlib.axis_2">
    <g id="ytick_1">
     <g id="line2d_7">
      <defs>
       <path d="M 0 0 
L -3.5 0 
" id="mdd228c3ed0" style="stroke:#000000;stroke-width:0.8;"/>
      </defs>
      <g>
       <use style="stroke:#000000;stroke-width:0.8;" x="50.4" xlink:href="#mdd228c3ed0" y="233.934545"/>
      </g>
     </g>
     <g id="text_8">
      <!-- 0.0 -->
      <defs>
       <path d="M 10.6875 12.40625 
L 21 12.40625 
L 21 0 
L 10.6875 0 
z
" id="DejaVuSans-2e"/>
      </defs>
      <g transform="translate(22.725938 238.87353)scale(0.13 -0.13)">
       <use xlink:href="#DejaVuSans-30"/>
       <use x="63.623047" xlink:href="#DejaVuSans-2e"/>
       <use x="95.410156" xlink:href="#DejaVuSans-30"/>
      </g>
     </g>
    </g>
    <g id="ytick_2">
     <g id="line2d_8">
      <g>
       <use style="stroke:#000000;stroke-width:0.8;" x="50.4" xlink:href="#mdd228c3ed0" y="190.472727"/>
      </g>
     </g>
     <g id="text_9">
      <!-- 0.2 -->
      <g transform="translate(22.725938 195.411712)scale(0.13 -0.13)">
       <use xlink:href="#DejaVuSans-30"/>
       <use x="63.623047" xlink:href="#DejaVuSans-2e"/>
       <use x="95.410156" xlink:href="#DejaVuSans-32"/>
      </g>
     </g>
    </g>
    <g id="ytick_3">
     <g id="line2d_9">
      <g>
       <use style="stroke:#000000;stroke-width:0.8;" x="50.4" xlink:href="#mdd228c3ed0" y="147.010909"/>
      </g>
     </g>
     <g id="text_10">
      <!-- 0.4 -->
      <g transform="translate(22.725938 151.949893)scale(0.13 -0.13)">
       <use xlink:href="#DejaVuSans-30"/>
       <use x="63.623047" xlink:href="#DejaVuSans-2e"/>
       <use x="95.410156" xlink:href="#DejaVuSans-34"/>
      </g>
     </g>
    </g>
    <g id="ytick_4">
     <g id="line2d_10">
      <g>
       <use style="stroke:#000000;stroke-width:0.8;" x="50.4" xlink:href="#mdd228c3ed0" y="103.549091"/>
      </g>
     </g>
     <g id="text_11">
      <!-- 0.6 -->
      <defs>
       <path d="M 33.015625 40.375 
Q 26.375 40.375 22.484375 35.828125 
Q 18.609375 31.296875 18.609375 23.390625 
Q 18.609375 15.53125 22.484375 10.953125 
Q 26.375 6.390625 33.015625 6.390625 
Q 39.65625 6.390625 43.53125 10.953125 
Q 47.40625 15.53125 47.40625 23.390625 
Q 47.40625 31.296875 43.53125 35.828125 
Q 39.65625 40.375 33.015625 40.375 
z
M 52.59375 71.296875 
L 52.59375 62.3125 
Q 48.875 64.0625 45.09375 64.984375 
Q 41.3125 65.921875 37.59375 65.921875 
Q 27.828125 65.921875 22.671875 59.328125 
Q 17.53125 52.734375 16.796875 39.40625 
Q 19.671875 43.65625 24.015625 45.921875 
Q 28.375 48.1875 33.59375 48.1875 
Q 44.578125 48.1875 50.953125 41.515625 
Q 57.328125 34.859375 57.328125 23.390625 
Q 57.328125 12.15625 50.6875 5.359375 
Q 44.046875 -1.421875 33.015625 -1.421875 
Q 20.359375 -1.421875 13.671875 8.265625 
Q 6.984375 17.96875 6.984375 36.375 
Q 6.984375 53.65625 15.1875 63.9375 
Q 23.390625 74.21875 37.203125 74.21875 
Q 40.921875 74.21875 44.703125 73.484375 
Q 48.484375 72.75 52.59375 71.296875 
z
" id="DejaVuSans-36"/>
      </defs>
      <g transform="translate(22.725938 108.488075)scale(0.13 -0.13)">
       <use xlink:href="#DejaVuSans-30"/>
       <use x="63.623047" xlink:href="#DejaVuSans-2e"/>
       <use x="95.410156" xlink:href="#DejaVuSans-36"/>
      </g>
     </g>
    </g>
    <g id="ytick_5">
     <g id="line2d_11">
      <g>
       <use style="stroke:#000000;stroke-width:0.8;" x="50.4" xlink:href="#mdd228c3ed0" y="60.087273"/>
      </g>
     </g>
     <g id="text_12">
      <!-- 0.8 -->
      <defs>
       <path d="M 31.78125 34.625 
Q 24.75 34.625 20.71875 30.859375 
Q 16.703125 27.09375 16.703125 20.515625 
Q 16.703125 13.921875 20.71875 10.15625 
Q 24.75 6.390625 31.78125 6.390625 
Q 38.8125 6.390625 42.859375 10.171875 
Q 46.921875 13.96875 46.921875 20.515625 
Q 46.921875 27.09375 42.890625 30.859375 
Q 38.875 34.625 31.78125 34.625 
z
M 21.921875 38.8125 
Q 15.578125 40.375 12.03125 44.71875 
Q 8.5 49.078125 8.5 55.328125 
Q 8.5 64.0625 14.71875 69.140625 
Q 20.953125 74.21875 31.78125 74.21875 
Q 42.671875 74.21875 48.875 69.140625 
Q 55.078125 64.0625 55.078125 55.328125 
Q 55.078125 49.078125 51.53125 44.71875 
Q 48 40.375 41.703125 38.8125 
Q 48.828125 37.15625 52.796875 32.3125 
Q 56.78125 27.484375 56.78125 20.515625 
Q 56.78125 9.90625 50.3125 4.234375 
Q 43.84375 -1.421875 31.78125 -1.421875 
Q 19.734375 -1.421875 13.25 4.234375 
Q 6.78125 9.90625 6.78125 20.515625 
Q 6.78125 27.484375 10.78125 32.3125 
Q 14.796875 37.15625 21.921875 38.8125 
z
M 18.3125 54.390625 
Q 18.3125 48.734375 21.84375 45.5625 
Q 25.390625 42.390625 31.78125 42.390625 
Q 38.140625 42.390625 41.71875 45.5625 
Q 45.3125 48.734375 45.3125 54.390625 
Q 45.3125 60.0625 41.71875 63.234375 
Q 38.140625 66.40625 31.78125 66.40625 
Q 25.390625 66.40625 21.84375 63.234375 
Q 18.3125 60.0625 18.3125 54.390625 
z
" id="DejaVuSans-38"/>
      </defs>
      <g transform="translate(22.725938 65.026257)scale(0.13 -0.13)">
       <use xlink:href="#DejaVuSans-30"/>
       <use x="63.623047" xlink:href="#DejaVuSans-2e"/>
       <use x="95.410156" xlink:href="#DejaVuSans-38"/>
      </g>
     </g>
    </g>
    <g id="ytick_6">
     <g id="line2d_12">
      <g>
       <use style="stroke:#000000;stroke-width:0.8;" x="50.4" xlink:href="#mdd228c3ed0" y="16.625455"/>
      </g>
     </g>
     <g id="text_13">
      <!-- 1.0 -->
      <g transform="translate(22.725938 21.564439)scale(0.13 -0.13)">
       <use xlink:href="#DejaVuSans-31"/>
       <use x="63.623047" xlink:href="#DejaVuSans-2e"/>
       <use x="95.410156" xlink:href="#DejaVuSans-30"/>
      </g>
     </g>
    </g>
    <g id="text_14">
     <!-- Probability -->
     <defs>
      <path d="M 19.671875 64.796875 
L 19.671875 37.40625 
L 32.078125 37.40625 
Q 38.96875 37.40625 42.71875 40.96875 
Q 46.484375 44.53125 46.484375 51.125 
Q 46.484375 57.671875 42.71875 61.234375 
Q 38.96875 64.796875 32.078125 64.796875 
z
M 9.8125 72.90625 
L 32.078125 72.90625 
Q 44.34375 72.90625 50.609375 67.359375 
Q 56.890625 61.8125 56.890625 51.125 
Q 56.890625 40.328125 50.609375 34.8125 
Q 44.34375 29.296875 32.078125 29.296875 
L 19.671875 29.296875 
L 19.671875 0 
L 9.8125 0 
z
" id="DejaVuSans-50"/>
      <path d="M 41.109375 46.296875 
Q 39.59375 47.171875 37.8125 47.578125 
Q 36.03125 48 33.890625 48 
Q 26.265625 48 22.1875 43.046875 
Q 18.109375 38.09375 18.109375 28.8125 
L 18.109375 0 
L 9.078125 0 
L 9.078125 54.6875 
L 18.109375 54.6875 
L 18.109375 46.1875 
Q 20.953125 51.171875 25.484375 53.578125 
Q 30.03125 56 36.53125 56 
Q 37.453125 56 38.578125 55.875 
Q 39.703125 55.765625 41.0625 55.515625 
z
" id="DejaVuSans-72"/>
      <path d="M 30.609375 48.390625 
Q 23.390625 48.390625 19.1875 42.75 
Q 14.984375 37.109375 14.984375 27.296875 
Q 14.984375 17.484375 19.15625 11.84375 
Q 23.34375 6.203125 30.609375 6.203125 
Q 37.796875 6.203125 41.984375 11.859375 
Q 46.1875 17.53125 46.1875 27.296875 
Q 46.1875 37.015625 41.984375 42.703125 
Q 37.796875 48.390625 30.609375 48.390625 
z
M 30.609375 56 
Q 42.328125 56 49.015625 48.375 
Q 55.71875 40.765625 55.71875 27.296875 
Q 55.71875 13.875 49.015625 6.21875 
Q 42.328125 -1.421875 30.609375 -1.421875 
Q 18.84375 -1.421875 12.171875 6.21875 
Q 5.515625 13.875 5.515625 27.296875 
Q 5.515625 40.765625 12.171875 48.375 
Q 18.84375 56 30.609375 56 
z
" id="DejaVuSans-6f"/>
      <path d="M 48.6875 27.296875 
Q 48.6875 37.203125 44.609375 42.84375 
Q 40.53125 48.484375 33.40625 48.484375 
Q 26.265625 48.484375 22.1875 42.84375 
Q 18.109375 37.203125 18.109375 27.296875 
Q 18.109375 17.390625 22.1875 11.75 
Q 26.265625 6.109375 33.40625 6.109375 
Q 40.53125 6.109375 44.609375 11.75 
Q 48.6875 17.390625 48.6875 27.296875 
z
M 18.109375 46.390625 
Q 20.953125 51.265625 25.265625 53.625 
Q 29.59375 56 35.59375 56 
Q 45.5625 56 51.78125 48.09375 
Q 58.015625 40.1875 58.015625 27.296875 
Q 58.015625 14.40625 51.78125 6.484375 
Q 45.5625 -1.421875 35.59375 -1.421875 
Q 29.59375 -1.421875 25.265625 0.953125 
Q 20.953125 3.328125 18.109375 8.203125 
L 18.109375 0 
L 9.078125 0 
L 9.078125 75.984375 
L 18.109375 75.984375 
z
" id="DejaVuSans-62"/>
      <path d="M 34.28125 27.484375 
Q 23.390625 27.484375 19.1875 25 
Q 14.984375 22.515625 14.984375 16.5 
Q 14.984375 11.71875 18.140625 8.90625 
Q 21.296875 6.109375 26.703125 6.109375 
Q 34.1875 6.109375 38.703125 11.40625 
Q 43.21875 16.703125 43.21875 25.484375 
L 43.21875 27.484375 
z
M 52.203125 31.203125 
L 52.203125 0 
L 43.21875 0 
L 43.21875 8.296875 
Q 40.140625 3.328125 35.546875 0.953125 
Q 30.953125 -1.421875 24.3125 -1.421875 
Q 15.921875 -1.421875 10.953125 3.296875 
Q 6 8.015625 6 15.921875 
Q 6 25.140625 12.171875 29.828125 
Q 18.359375 34.515625 30.609375 34.515625 
L 43.21875 34.515625 
L 43.21875 35.40625 
Q 43.21875 41.609375 39.140625 45 
Q 35.0625 48.390625 27.6875 48.390625 
Q 23 48.390625 18.546875 47.265625 
Q 14.109375 46.140625 10.015625 43.890625 
L 10.015625 52.203125 
Q 14.9375 54.109375 19.578125 55.046875 
Q 24.21875 56 28.609375 56 
Q 40.484375 56 46.34375 49.84375 
Q 52.203125 43.703125 52.203125 31.203125 
z
" id="DejaVuSans-61"/>
      <path d="M 9.421875 54.6875 
L 18.40625 54.6875 
L 18.40625 0 
L 9.421875 0 
z
M 9.421875 75.984375 
L 18.40625 75.984375 
L 18.40625 64.59375 
L 9.421875 64.59375 
z
" id="DejaVuSans-69"/>
      <path d="M 9.421875 75.984375 
L 18.40625 75.984375 
L 18.40625 0 
L 9.421875 0 
z
" id="DejaVuSans-6c"/>
      <path d="M 18.3125 70.21875 
L 18.3125 54.6875 
L 36.8125 54.6875 
L 36.8125 47.703125 
L 18.3125 47.703125 
L 18.3125 18.015625 
Q 18.3125 11.328125 20.140625 9.421875 
Q 21.96875 7.515625 27.59375 7.515625 
L 36.8125 7.515625 
L 36.8125 0 
L 27.59375 0 
Q 17.1875 0 13.234375 3.875 
Q 9.28125 7.765625 9.28125 18.015625 
L 9.28125 47.703125 
L 2.6875 47.703125 
L 2.6875 54.6875 
L 9.28125 54.6875 
L 9.28125 70.21875 
z
" id="DejaVuSans-74"/>
      <path d="M 32.171875 -5.078125 
Q 28.375 -14.84375 24.75 -17.8125 
Q 21.140625 -20.796875 15.09375 -20.796875 
L 7.90625 -20.796875 
L 7.90625 -13.28125 
L 13.1875 -13.28125 
Q 16.890625 -13.28125 18.9375 -11.515625 
Q 21 -9.765625 23.484375 -3.21875 
L 25.09375 0.875 
L 2.984375 54.6875 
L 12.5 54.6875 
L 29.59375 11.921875 
L 46.6875 54.6875 
L 56.203125 54.6875 
z
" id="DejaVuSans-79"/>
     </defs>
     <g transform="translate(15.398438 167.8825)rotate(-90)scale(0.16 -0.16)">
      <use xlink:href="#DejaVuSans-50"/>
      <use x="60.287109" xlink:href="#DejaVuSans-72"/>
      <use x="101.369141" xlink:href="#DejaVuSans-6f"/>
      <use x="162.550781" xlink:href="#DejaVuSans-62"/>
      <use x="226.027344" xlink:href="#DejaVuSans-61"/>
      <use x="287.306641" xlink:href="#DejaVuSans-62"/>
      <use x="350.783203" xlink:href="#DejaVuSans-69"/>
      <use x="378.566406" xlink:href="#DejaVuSans-6c"/>
      <use x="406.349609" xlink:href="#DejaVuSans-69"/>
      <use x="434.132812" xlink:href="#DejaVuSans-74"/>
      <use x="473.341797" xlink:href="#DejaVuSans-79"/>
     </g>
    </g>
   </g>
   <g id="line2d_13">
    <path clip-path="url(#p3b046580f4)" d="M 62.847714 16.625455 
L 62.847714 36.291927 
L 67.8268 36.291927 
L 67.8268 54.871855 
L 72.805885 54.871855 
L 72.805885 70.518109 
L 77.784971 70.518109 
L 77.784971 83.122036 
L 82.764057 83.122036 
L 82.764057 94.313455 
L 87.743142 94.313455 
L 87.743142 101.701964 
L 92.722228 101.701964 
L 92.722228 107.677964 
L 97.701314 107.677964 
L 97.701314 112.784727 
L 102.680399 112.784727 
L 102.680399 114.740509 
L 107.659485 114.740509 
L 107.659485 116.478982 
L 112.638571 116.478982 
L 112.638571 118.217455 
L 117.617656 118.217455 
L 117.617656 118.760727 
L 122.596742 118.760727 
L 122.596742 119.629964 
L 127.575828 119.629964 
L 127.575828 121.042473 
L 132.554913 121.042473 
L 132.554913 122.672291 
L 137.533999 122.672291 
L 137.533999 124.954036 
L 142.513085 124.954036 
L 142.513085 128.213673 
L 147.49217 128.213673 
L 147.49217 132.559855 
L 152.471256 132.559855 
L 152.471256 137.014691 
L 157.450342 137.014691 
L 157.450342 143.425309 
L 162.429427 143.425309 
L 162.429427 152.117673 
L 167.408513 152.117673 
L 167.408513 165.373527 
L 172.387599 165.373527 
L 172.387599 181.997673 
L 177.366684 181.997673 
L 177.366684 196.014109 
L 182.34577 196.014109 
L 182.34577 209.921891 
L 187.324855 209.921891 
L 187.324855 222.0912 
L 192.303941 222.0912 
L 192.303941 228.827782 
L 197.283027 228.827782 
L 197.283027 232.196073 
L 202.262112 232.196073 
L 202.262112 232.956655 
L 207.241198 232.956655 
L 207.241198 233.825891 
L 212.220284 233.825891 
L 212.220284 233.934545 
L 217.199369 233.934545 
L 217.199369 233.934545 
L 222.178455 233.934545 
L 222.178455 233.934545 
L 227.157541 233.934545 
L 227.157541 233.934545 
L 232.136626 233.934545 
L 232.136626 233.934545 
L 237.115712 233.934545 
L 237.115712 233.934545 
L 242.094798 233.934545 
L 242.094798 233.934545 
L 247.073883 233.934545 
L 247.073883 233.934545 
L 252.052969 233.934545 
L 252.052969 233.934545 
L 257.032055 233.934545 
L 257.032055 233.934545 
L 262.01114 233.934545 
L 262.01114 233.934545 
L 266.990226 233.934545 
L 266.990226 233.934545 
L 271.969312 233.934545 
L 271.969312 233.934545 
L 276.948397 233.934545 
L 276.948397 233.934545 
L 281.927483 233.934545 
L 281.927483 233.934545 
L 286.906569 233.934545 
L 286.906569 233.934545 
L 291.885654 233.934545 
L 291.885654 233.934545 
L 296.86474 233.934545 
L 296.86474 233.934545 
L 301.843826 233.934545 
L 301.843826 233.934545 
L 306.822911 233.934545 
L 306.822911 233.934545 
L 311.801997 233.934545 
" style="fill:none;opacity:0.5;stroke:#0000ff;stroke-linecap:square;"/>
   </g>
   <g id="line2d_14">
    <path clip-path="url(#p3b046580f4)" d="M 62.847714 16.625455 
L 62.847714 36.183273 
L 67.8268 36.183273 
L 67.8268 53.568 
L 72.805885 53.568 
L 72.805885 69.540218 
L 77.784971 69.540218 
L 77.784971 82.904727 
L 82.764057 82.904727 
L 82.764057 92.466327 
L 87.743142 92.466327 
L 87.743142 100.289455 
L 92.722228 100.289455 
L 92.722228 106.265455 
L 97.701314 106.265455 
L 97.701314 110.177018 
L 102.680399 110.177018 
L 102.680399 112.893382 
L 107.659485 112.893382 
L 107.659485 114.631855 
L 112.638571 114.631855 
L 112.638571 116.370327 
L 117.617656 116.370327 
L 117.617656 117.239564 
L 122.596742 117.239564 
L 122.596742 117.891491 
L 127.575828 117.891491 
L 127.575828 119.195345 
L 132.554913 119.195345 
L 132.554913 120.825164 
L 137.533999 120.825164 
L 137.533999 122.8896 
L 142.513085 122.8896 
L 142.513085 126.149236 
L 147.49217 126.149236 
L 147.49217 130.169455 
L 152.471256 130.169455 
L 152.471256 135.710836 
L 157.450342 135.710836 
L 157.450342 141.686836 
L 162.429427 141.686836 
L 162.429427 150.161891 
L 167.408513 150.161891 
L 167.408513 160.375418 
L 172.387599 160.375418 
L 172.387599 169.719709 
L 177.366684 169.719709 
L 177.366684 179.498618 
L 182.34577 179.498618 
L 182.34577 188.082327 
L 187.324855 188.082327 
L 187.324855 195.144873 
L 192.303941 195.144873 
L 192.303941 200.468945 
L 197.283027 200.468945 
L 197.283027 205.3584 
L 202.262112 205.3584 
L 202.262112 208.835345 
L 207.241198 208.835345 
L 207.241198 211.117091 
L 212.220284 211.117091 
L 212.220284 212.746909 
L 217.199369 212.746909 
L 217.199369 213.7248 
L 222.178455 213.7248 
L 222.178455 214.376727 
L 227.157541 214.376727 
L 227.157541 214.811345 
L 232.136626 214.811345 
L 232.136626 214.811345 
L 237.115712 214.811345 
L 237.115712 214.92 
L 242.094798 214.92 
L 242.094798 215.245964 
L 247.073883 215.245964 
L 247.073883 215.245964 
L 252.052969 215.245964 
L 252.052969 215.354618 
L 257.032055 215.354618 
L 257.032055 215.463273 
L 262.01114 215.463273 
L 262.01114 215.680582 
L 266.990226 215.680582 
L 266.990226 216.006545 
L 271.969312 216.006545 
L 271.969312 217.093091 
L 276.948397 217.093091 
L 276.948397 218.831564 
L 281.927483 218.831564 
L 281.927483 221.113309 
L 286.906569 221.113309 
L 286.906569 222.199855 
L 291.885654 222.199855 
L 291.885654 224.264291 
L 296.86474 224.264291 
L 296.86474 225.350836 
L 301.843826 225.350836 
L 301.843826 226.220073 
L 306.822911 226.220073 
L 306.822911 227.089309 
L 311.801997 227.089309 
" style="fill:none;opacity:0.5;stroke:#ff0000;stroke-linecap:square;"/>
   </g>
   <g id="line2d_15">
    <path clip-path="url(#p3b046580f4)" d="M 62.847714 16.625455 
L 69.832403 43.776026 
L 73.324748 56.502326 
L 78.313812 71.856803 
L 83.801782 85.454516 
L 87.793033 94.387488 
L 93.281003 102.372617 
L 98.270067 108.261301 
L 102.760224 112.816082 
L 110.24382 115.642843 
L 117.727416 118.22943 
L 124.213199 119.042924 
L 128.20445 119.808296 
L 135.189139 121.904741 
L 138.182577 122.969512 
L 142.672735 125.058554 
L 147.661798 128.361739 
L 157.14102 136.737938 
L 158.138832 137.901129 
L 162.62899 143.7737 
L 167.618054 152.675534 
L 172.607117 166.106456 
L 178.095087 184.048173 
L 187.574309 210.531576 
L 192.563372 222.442204 
L 197.552436 229.010034 
L 202.042594 232.047571 
L 203.040406 232.314961 
L 213.51744 233.854198 
L 221.998849 233.934545 
L 311.801997 233.934545 
L 311.801997 233.934545 
" style="fill:none;stroke:#0000ff;stroke-dasharray:7.4,3.2;stroke-dashoffset:0;stroke-width:2;"/>
   </g>
   <g id="line2d_16">
    <path clip-path="url(#p3b046580f4)" d="M 62.847714 16.625455 
L 68.834591 39.702025 
L 73.823654 56.832862 
L 78.313812 70.959695 
L 82.803969 82.981373 
L 88.291939 93.328596 
L 92.782097 100.36131 
L 97.771161 106.320326 
L 103.259131 110.492748 
L 108.248195 113.098933 
L 118.226322 116.476587 
L 124.712105 117.516535 
L 128.20445 118.056106 
L 134.191326 119.730997 
L 138.681484 121.300936 
L 142.672735 122.994117 
L 148.160705 126.689025 
L 152.650862 130.369344 
L 159.136645 137.734772 
L 162.62899 142.026518 
L 167.618054 150.591719 
L 173.60493 162.659994 
L 179.591807 174.089843 
L 183.084151 180.771553 
L 187.574309 188.436162 
L 192.563372 195.422279 
L 199.049155 202.203281 
L 202.5415 205.553499 
L 207.530564 208.967952 
L 213.018534 211.378384 
L 218.007598 212.905645 
L 223.495568 213.897254 
L 229.482444 214.579665 
L 232.974789 214.811345 
L 241.955104 214.916952 
L 249.937606 215.245964 
L 256.922295 215.352223 
L 266.900423 215.676662 
L 272.388393 216.097998 
L 277.377457 217.242899 
L 282.865427 219.261391 
L 287.355584 221.211294 
L 292.344648 222.390163 
L 297.333712 224.366631 
L 304.318401 225.782842 
L 311.801997 227.089309 
L 311.801997 227.089309 
" style="fill:none;stroke:#ff0000;stroke-dasharray:7.4,3.2;stroke-dashoffset:0;stroke-width:2;"/>
   </g>
   <g id="line2d_17">
    <path clip-path="url(#p3b046580f4)" d="M 62.847714 16.625455 
L 154.646488 16.721406 
L 158.138832 16.943478 
L 160.633364 17.323519 
L 162.62899 17.881628 
L 164.125709 18.53095 
L 165.622428 19.457609 
L 167.119147 20.750688 
L 168.11696 21.867472 
L 169.114773 23.227941 
L 170.112585 24.868788 
L 171.110398 26.828116 
L 172.108211 29.144476 
L 173.106024 31.855696 
L 174.602743 36.740167 
L 176.099462 42.69665 
L 177.596181 49.799078 
L 179.0929 58.079804 
L 180.589619 67.519862 
L 182.585245 81.768762 
L 185.079777 101.733933 
L 193.561185 172.517479 
L 195.556811 186.312133 
L 197.05353 195.371333 
L 198.550249 203.258696 
L 200.046968 209.97327 
L 201.543687 215.56247 
L 203.040406 220.111571 
L 204.537126 223.731884 
L 206.033845 226.549041 
L 207.530564 228.692528 
L 209.027283 230.287214 
L 210.524002 231.447256 
L 212.020721 232.272377 
L 213.51744 232.846236 
L 215.513066 233.335287 
L 218.007598 233.664676 
L 221.499942 233.854444 
L 227.985725 233.928366 
L 276.87855 233.934545 
L 311.801997 233.934545 
L 311.801997 233.934545 
" style="fill:none;stroke:#008000;stroke-linecap:square;stroke-width:2;"/>
   </g>
   <g id="patch_3">
    <path d="M 50.4 244.8 
L 50.4 5.76 
" style="fill:none;stroke:#000000;stroke-linecap:square;stroke-linejoin:miter;stroke-width:0.8;"/>
   </g>
   <g id="patch_4">
    <path d="M 324.249711 244.8 
L 324.249711 5.76 
" style="fill:none;stroke:#000000;stroke-linecap:square;stroke-linejoin:miter;stroke-width:0.8;"/>
   </g>
   <g id="patch_5">
    <path d="M 50.4 244.8 
L 324.249711 244.8 
" style="fill:none;stroke:#000000;stroke-linecap:square;stroke-linejoin:miter;stroke-width:0.8;"/>
   </g>
   <g id="patch_6">
    <path d="M 50.4 5.76 
L 324.249711 5.76 
" style="fill:none;stroke:#000000;stroke-linecap:square;stroke-linejoin:miter;stroke-width:0.8;"/>
   </g>
   <g id="legend_1">
    <g id="patch_7">
     <path d="M 205.169711 84.41 
L 315.149711 84.41 
Q 317.749711 84.41 317.749711 81.81 
L 317.749711 14.86 
Q 317.749711 12.26 315.149711 12.26 
L 205.169711 12.26 
Q 202.569711 12.26 202.569711 14.86 
L 202.569711 81.81 
Q 202.569711 84.41 205.169711 84.41 
z
" style="fill:#ffffff;opacity:0.8;stroke:#cccccc;stroke-linejoin:miter;"/>
    </g>
    <g id="line2d_18">
     <path d="M 207.769711 27.21 
L 233.769711 27.21 
" style="fill:none;stroke:#0000ff;stroke-dasharray:7.4,3.2;stroke-dashoffset:0;stroke-width:2;"/>
    </g>
    <g id="line2d_19"/>
    <g id="text_15">
     <!-- $\hat{\Phi}_{(u,v)\in\mathcal{G}}(\tau)$ -->
     <defs>
      <path d="M -28.609375 79.984375 
L -21.390625 79.984375 
L -9.421875 61.625 
L -16.21875 61.625 
L -25 73.578125 
L -33.796875 61.625 
L -40.578125 61.625 
z
M -25 56 
z
" id="DejaVuSans-302"/>
      <path d="M 34.46875 56.9375 
Q 27.15625 55.90625 22.359375 51.65625 
Q 16.015625 46.046875 16.015625 36.375 
Q 16.015625 26.765625 22.359375 21.140625 
Q 27.15625 16.890625 34.46875 15.875 
z
M 44.34375 15.875 
Q 51.65625 16.890625 56.453125 21.140625 
Q 62.703125 26.765625 62.703125 36.375 
Q 62.703125 46.046875 56.453125 51.65625 
Q 51.65625 55.90625 44.34375 56.9375 
z
M 34.46875 7.71875 
Q 22.5625 8.796875 14.84375 15.328125 
Q 5.609375 23.140625 5.609375 36.375 
Q 5.609375 49.609375 14.84375 57.46875 
Q 22.515625 64.0625 34.46875 65.140625 
L 34.46875 72.90625 
L 44.34375 72.90625 
L 44.34375 65.140625 
Q 56.25 64.015625 63.921875 57.46875 
Q 73.09375 49.609375 73.09375 36.375 
Q 73.09375 23.1875 63.921875 15.328125 
Q 56.25 8.796875 44.34375 7.671875 
L 44.34375 0 
L 34.46875 0 
z
" id="DejaVuSans-3a6"/>
      <path d="M 31 75.875 
Q 24.46875 64.65625 21.28125 53.65625 
Q 18.109375 42.671875 18.109375 31.390625 
Q 18.109375 20.125 21.3125 9.0625 
Q 24.515625 -2 31 -13.1875 
L 23.1875 -13.1875 
Q 15.875 -1.703125 12.234375 9.375 
Q 8.59375 20.453125 8.59375 31.390625 
Q 8.59375 42.28125 12.203125 53.3125 
Q 15.828125 64.359375 23.1875 75.875 
z
" id="DejaVuSans-28"/>
      <path d="M 6.6875 21.6875 
L 13.09375 54.6875 
L 22.125 54.6875 
L 15.71875 22.015625 
Q 15.234375 19.625 15.015625 17.921875 
Q 14.796875 16.21875 14.796875 15.09375 
Q 14.796875 10.9375 17.328125 8.65625 
Q 19.875 6.390625 24.515625 6.390625 
Q 31.734375 6.390625 37 11.265625 
Q 42.28125 16.15625 43.890625 24.421875 
L 49.90625 54.6875 
L 58.890625 54.6875 
L 48.296875 0 
L 39.3125 0 
L 41.109375 8.59375 
Q 37.3125 3.8125 32.0625 1.1875 
Q 26.8125 -1.421875 20.90625 -1.421875 
Q 13.71875 -1.421875 9.71875 2.515625 
Q 5.71875 6.453125 5.71875 13.484375 
Q 5.71875 14.9375 5.953125 17.140625 
Q 6.203125 19.34375 6.6875 21.6875 
z
" id="DejaVuSans-Oblique-75"/>
      <path d="M 11.71875 12.40625 
L 22.015625 12.40625 
L 22.015625 4 
L 14.015625 -11.625 
L 7.71875 -11.625 
L 11.71875 4 
z
" id="DejaVuSans-2c"/>
      <path d="M 7.171875 54.6875 
L 16.703125 54.6875 
L 24.703125 8.203125 
L 50.875 54.6875 
L 60.40625 54.6875 
L 29.296875 0 
L 17.1875 0 
z
" id="DejaVuSans-Oblique-76"/>
      <path d="M 8.015625 75.875 
L 15.828125 75.875 
Q 23.140625 64.359375 26.78125 53.3125 
Q 30.421875 42.28125 30.421875 31.390625 
Q 30.421875 20.453125 26.78125 9.375 
Q 23.140625 -1.703125 15.828125 -13.1875 
L 8.015625 -13.1875 
Q 14.5 -2 17.703125 9.0625 
Q 20.90625 20.125 20.90625 31.390625 
Q 20.90625 42.671875 17.703125 53.65625 
Q 14.5 64.65625 8.015625 75.875 
z
" id="DejaVuSans-29"/>
      <path d="M 16.75 30.609375 
Q 17.09375 27 20.171875 21.140625 
Q 23.78125 14.359375 30.609375 10.546875 
Q 37.3125 6.84375 44.53125 6.78125 
L 78.5625 6.78125 
L 78.5625 -0.984375 
L 44.53125 -0.984375 
Q 35.15625 -0.984375 26.484375 3.84375 
Q 17.828125 8.6875 13.1875 17.28125 
Q 8.546875 25.875 8.546875 35.015625 
Q 8.546875 44.046875 13.1875 52.640625 
Q 17.828125 61.234375 26.484375 66.109375 
Q 35.15625 71 44.53125 71 
L 78.5625 71 
L 78.5625 63.234375 
L 44.53125 63.234375 
Q 37.3125 63.1875 30.609375 59.421875 
Q 23.828125 55.5625 20.171875 48.828125 
Q 17.046875 42.96875 16.609375 38.421875 
L 78.5625 38.421875 
L 78.5625 30.609375 
z
" id="DejaVuSans-2208"/>
      <path d="M 42.5 9.09375 
L 42 9.296875 
Q 35.09375 3.796875 25.40625 3.796875 
Q 16.5 3.796875 10.25 9.046875 
Q 4 14.296875 4 24.203125 
Q 4 35.5 10.390625 45.546875 
Q 16.796875 55.59375 26.546875 61.34375 
Q 36.296875 67.09375 46.09375 67.09375 
Q 51.5 67.09375 54.75 64.59375 
Q 58 62.09375 58 57.703125 
Q 58 55 55.640625 52.203125 
Q 53.296875 49.40625 50.203125 49.40625 
Q 48 49.40625 46.453125 50.90625 
Q 44.90625 52.40625 44.90625 54.40625 
Q 44.90625 56.09375 45.703125 57.1875 
Q 46.5 58.296875 47.390625 58.75 
Q 48.296875 59.203125 49.09375 59.75 
Q 49.90625 60.296875 49.90625 61 
Q 49.90625 62.203125 48.453125 62.890625 
Q 47 63.59375 45.09375 63.59375 
Q 37.203125 63.59375 29.890625 57.84375 
Q 22.59375 52.09375 18.296875 42.296875 
Q 14.703125 34.09375 14.703125 23.703125 
Q 14.703125 15.796875 18.296875 11.9375 
Q 21.90625 8.09375 27.703125 8.09375 
Q 36.703125 8.09375 44.203125 14.5 
Q 51.703125 20.90625 53.5 31.296875 
L 55.796875 31.703125 
Q 56 30.703125 56 28.296875 
Q 56 19 51.640625 8.546875 
Q 47.296875 -1.90625 39.703125 -7.40625 
Q 31.796875 -13.09375 21.09375 -13.09375 
Q 10.59375 -13.09375 5.703125 -7.703125 
L 7.203125 -5.796875 
Q 8.796875 -7.59375 12.75 -8.59375 
Q 16.703125 -9.59375 20.296875 -9.59375 
Q 27.09375 -9.59375 33.34375 -4 
Q 39.59375 1.59375 42.5 9.09375 
z
" id="STIXNonUnicode-Italic-e233"/>
     </defs>
     <g transform="translate(244.169711 31.76)scale(0.13 -0.13)">
      <use transform="translate(74.255859 30.015625)" xlink:href="#DejaVuSans-302"/>
      <use transform="translate(0 0.609375)" xlink:href="#DejaVuSans-3a6"/>
      <use transform="translate(79.667969 -15.796875)scale(0.7)" xlink:href="#DejaVuSans-28"/>
      <use transform="translate(106.977539 -15.796875)scale(0.7)" xlink:href="#DejaVuSans-Oblique-75"/>
      <use transform="translate(151.342773 -15.796875)scale(0.7)" xlink:href="#DejaVuSans-2c"/>
      <use transform="translate(187.231445 -15.796875)scale(0.7)" xlink:href="#DejaVuSans-Oblique-76"/>
      <use transform="translate(228.657227 -15.796875)scale(0.7)" xlink:href="#DejaVuSans-29"/>
      <use transform="translate(269.604492 -15.796875)scale(0.7)" xlink:href="#DejaVuSans-2208"/>
      <use transform="translate(344.21875 -15.796875)scale(0.7)" xlink:href="#STIXNonUnicode-Italic-e233"/>
      <use transform="translate(387.553114 0.609375)" xlink:href="#DejaVuSans-28"/>
      <use transform="translate(426.566786 0.609375)" xlink:href="#DejaVuSans-Oblique-3c4"/>
      <use transform="translate(486.771864 0.609375)" xlink:href="#DejaVuSans-29"/>
     </g>
    </g>
    <g id="line2d_20">
     <path d="M 207.769711 51.39 
L 233.769711 51.39 
" style="fill:none;stroke:#ff0000;stroke-dasharray:7.4,3.2;stroke-dashoffset:0;stroke-width:2;"/>
    </g>
    <g id="line2d_21"/>
    <g id="text_16">
     <!-- $\hat{\Phi}_{(u,v)\notin\mathcal{G}}(\tau)$ -->
     <defs>
      <path d="M 60.546875 83.546875 
L 67.875 80.859375 
L 64.3125 71 
L 78.5625 71 
L 78.5625 63.234375 
L 61.46875 63.234375 
L 52.4375 38.421875 
L 78.5625 38.421875 
L 78.5625 30.609375 
L 49.609375 30.609375 
L 41.015625 7.03125 
Q 42.78125 6.78125 44.53125 6.78125 
L 78.5625 6.78125 
L 78.5625 -0.984375 
L 44.53125 -0.984375 
Q 41.359375 -0.984375 38.28125 -0.4375 
L 33.40625 -13.8125 
L 26.078125 -11.140625 
L 30.765625 1.765625 
Q 28.609375 2.6875 26.46875 3.859375 
Q 17.828125 8.6875 13.1875 17.28125 
Q 8.546875 25.875 8.546875 35.015625 
Q 8.546875 44.046875 13.1875 52.640625 
Q 17.828125 61.234375 26.484375 66.109375 
Q 35.15625 71 44.53125 71 
L 55.953125 71 
z
M 16.75 30.609375 
Q 16.75 27 20.171875 21.140625 
Q 24.3125 14.0625 30.609375 10.546875 
Q 32.03125 9.765625 33.453125 9.125 
L 41.265625 30.609375 
z
M 44.140625 38.421875 
L 53.125 63.234375 
L 44.53125 63.234375 
Q 37.359375 63.234375 30.609375 59.421875 
Q 24.515625 55.953125 20.171875 48.828125 
Q 16.609375 42.96875 16.609375 38.421875 
z
" id="DejaVuSans-2209"/>
     </defs>
     <g transform="translate(244.169711 55.94)scale(0.13 -0.13)">
      <use transform="translate(74.255859 30.015625)" xlink:href="#DejaVuSans-302"/>
      <use transform="translate(0 0.609375)" xlink:href="#DejaVuSans-3a6"/>
      <use transform="translate(79.667969 -15.796875)scale(0.7)" xlink:href="#DejaVuSans-28"/>
      <use transform="translate(106.977539 -15.796875)scale(0.7)" xlink:href="#DejaVuSans-Oblique-75"/>
      <use transform="translate(151.342773 -15.796875)scale(0.7)" xlink:href="#DejaVuSans-2c"/>
      <use transform="translate(187.231445 -15.796875)scale(0.7)" xlink:href="#DejaVuSans-Oblique-76"/>
      <use transform="translate(228.657227 -15.796875)scale(0.7)" xlink:href="#DejaVuSans-29"/>
      <use transform="translate(255.966797 -15.796875)scale(0.7)" xlink:href="#DejaVuSans-2209"/>
      <use transform="translate(316.943359 -15.796875)scale(0.7)" xlink:href="#STIXNonUnicode-Italic-e233"/>
      <use transform="translate(360.277724 0.609375)" xlink:href="#DejaVuSans-28"/>
      <use transform="translate(399.291396 0.609375)" xlink:href="#DejaVuSans-Oblique-3c4"/>
      <use transform="translate(459.496474 0.609375)" xlink:href="#DejaVuSans-29"/>
     </g>
    </g>
    <g id="line2d_22">
     <path d="M 207.769711 71.28 
L 233.769711 71.28 
" style="fill:none;stroke:#008000;stroke-linecap:square;stroke-width:2;"/>
    </g>
    <g id="line2d_23"/>
    <g id="text_17">
     <!-- $\Phi_{(u,v)\in\mathcal{G}}(\tau)$ -->
     <g transform="translate(244.169711 75.83)scale(0.13 -0.13)">
      <use transform="translate(0 0.125)" xlink:href="#DejaVuSans-3a6"/>
      <use transform="translate(79.667969 -16.28125)scale(0.7)" xlink:href="#DejaVuSans-28"/>
      <use transform="translate(106.977539 -16.28125)scale(0.7)" xlink:href="#DejaVuSans-Oblique-75"/>
      <use transform="translate(151.342773 -16.28125)scale(0.7)" xlink:href="#DejaVuSans-2c"/>
      <use transform="translate(187.231445 -16.28125)scale(0.7)" xlink:href="#DejaVuSans-Oblique-76"/>
      <use transform="translate(228.657227 -16.28125)scale(0.7)" xlink:href="#DejaVuSans-29"/>
      <use transform="translate(269.604492 -16.28125)scale(0.7)" xlink:href="#DejaVuSans-2208"/>
      <use transform="translate(344.21875 -16.28125)scale(0.7)" xlink:href="#STIXNonUnicode-Italic-e233"/>
      <use transform="translate(387.553114 0.125)" xlink:href="#DejaVuSans-28"/>
      <use transform="translate(426.566786 0.125)" xlink:href="#DejaVuSans-Oblique-3c4"/>
      <use transform="translate(486.771864 0.125)" xlink:href="#DejaVuSans-29"/>
     </g>
    </g>
   </g>
  </g>
  <g id="axes_2">
   <g id="patch_8">
    <path d="M 387.235145 244.8 
L 661.084855 244.8 
L 661.084855 5.76 
L 387.235145 5.76 
z
" style="fill:#ffffff;"/>
   </g>
   <g id="matplotlib.axis_3">
    <g id="xtick_7">
     <g id="line2d_24">
      <g>
       <use style="stroke:#000000;stroke-width:0.8;" x="399.682859" xlink:href="#mc6b3204d1f" y="244.8"/>
      </g>
     </g>
     <g id="text_18">
      <!-- 0 -->
      <g transform="translate(395.547234 261.677969)scale(0.13 -0.13)">
       <use xlink:href="#DejaVuSans-30"/>
      </g>
     </g>
    </g>
    <g id="xtick_8">
     <g id="line2d_25">
      <g>
       <use style="stroke:#000000;stroke-width:0.8;" x="449.473715" xlink:href="#mc6b3204d1f" y="244.8"/>
      </g>
     </g>
     <g id="text_19">
      <!-- 1 -->
      <g transform="translate(445.33809 261.677969)scale(0.13 -0.13)">
       <use xlink:href="#DejaVuSans-31"/>
      </g>
     </g>
    </g>
    <g id="xtick_9">
     <g id="line2d_26">
      <g>
       <use style="stroke:#000000;stroke-width:0.8;" x="499.264572" xlink:href="#mc6b3204d1f" y="244.8"/>
      </g>
     </g>
     <g id="text_20">
      <!-- 2 -->
      <g transform="translate(495.128947 261.677969)scale(0.13 -0.13)">
       <use xlink:href="#DejaVuSans-32"/>
      </g>
     </g>
    </g>
    <g id="xtick_10">
     <g id="line2d_27">
      <g>
       <use style="stroke:#000000;stroke-width:0.8;" x="549.055428" xlink:href="#mc6b3204d1f" y="244.8"/>
      </g>
     </g>
     <g id="text_21">
      <!-- 3 -->
      <g transform="translate(544.919803 261.677969)scale(0.13 -0.13)">
       <use xlink:href="#DejaVuSans-33"/>
      </g>
     </g>
    </g>
    <g id="xtick_11">
     <g id="line2d_28">
      <g>
       <use style="stroke:#000000;stroke-width:0.8;" x="598.846285" xlink:href="#mc6b3204d1f" y="244.8"/>
      </g>
     </g>
     <g id="text_22">
      <!-- 4 -->
      <g transform="translate(594.71066 261.677969)scale(0.13 -0.13)">
       <use xlink:href="#DejaVuSans-34"/>
      </g>
     </g>
    </g>
    <g id="xtick_12">
     <g id="line2d_29">
      <g>
       <use style="stroke:#000000;stroke-width:0.8;" x="648.637141" xlink:href="#mc6b3204d1f" y="244.8"/>
      </g>
     </g>
     <g id="text_23">
      <!-- 5 -->
      <g transform="translate(644.501516 261.677969)scale(0.13 -0.13)">
       <use xlink:href="#DejaVuSans-35"/>
      </g>
     </g>
    </g>
    <g id="text_24">
     <!-- $\tau$ -->
     <g transform="translate(519.28 280.539062)scale(0.16 -0.16)">
      <use transform="translate(0 0.3125)" xlink:href="#DejaVuSans-Oblique-3c4"/>
     </g>
    </g>
   </g>
   <g id="matplotlib.axis_4">
    <g id="ytick_7">
     <g id="line2d_30">
      <g>
       <use style="stroke:#000000;stroke-width:0.8;" x="387.235145" xlink:href="#mdd228c3ed0" y="233.934545"/>
      </g>
     </g>
     <g id="text_25">
      <!-- 0.0 -->
      <g transform="translate(359.561082 238.87353)scale(0.13 -0.13)">
       <use xlink:href="#DejaVuSans-30"/>
       <use x="63.623047" xlink:href="#DejaVuSans-2e"/>
       <use x="95.410156" xlink:href="#DejaVuSans-30"/>
      </g>
     </g>
    </g>
    <g id="ytick_8">
     <g id="line2d_31">
      <g>
       <use style="stroke:#000000;stroke-width:0.8;" x="387.235145" xlink:href="#mdd228c3ed0" y="190.472727"/>
      </g>
     </g>
     <g id="text_26">
      <!-- 0.2 -->
      <g transform="translate(359.561082 195.411712)scale(0.13 -0.13)">
       <use xlink:href="#DejaVuSans-30"/>
       <use x="63.623047" xlink:href="#DejaVuSans-2e"/>
       <use x="95.410156" xlink:href="#DejaVuSans-32"/>
      </g>
     </g>
    </g>
    <g id="ytick_9">
     <g id="line2d_32">
      <g>
       <use style="stroke:#000000;stroke-width:0.8;" x="387.235145" xlink:href="#mdd228c3ed0" y="147.010909"/>
      </g>
     </g>
     <g id="text_27">
      <!-- 0.4 -->
      <g transform="translate(359.561082 151.949893)scale(0.13 -0.13)">
       <use xlink:href="#DejaVuSans-30"/>
       <use x="63.623047" xlink:href="#DejaVuSans-2e"/>
       <use x="95.410156" xlink:href="#DejaVuSans-34"/>
      </g>
     </g>
    </g>
    <g id="ytick_10">
     <g id="line2d_33">
      <g>
       <use style="stroke:#000000;stroke-width:0.8;" x="387.235145" xlink:href="#mdd228c3ed0" y="103.549091"/>
      </g>
     </g>
     <g id="text_28">
      <!-- 0.6 -->
      <g transform="translate(359.561082 108.488075)scale(0.13 -0.13)">
       <use xlink:href="#DejaVuSans-30"/>
       <use x="63.623047" xlink:href="#DejaVuSans-2e"/>
       <use x="95.410156" xlink:href="#DejaVuSans-36"/>
      </g>
     </g>
    </g>
    <g id="ytick_11">
     <g id="line2d_34">
      <g>
       <use style="stroke:#000000;stroke-width:0.8;" x="387.235145" xlink:href="#mdd228c3ed0" y="60.087273"/>
      </g>
     </g>
     <g id="text_29">
      <!-- 0.8 -->
      <g transform="translate(359.561082 65.026257)scale(0.13 -0.13)">
       <use xlink:href="#DejaVuSans-30"/>
       <use x="63.623047" xlink:href="#DejaVuSans-2e"/>
       <use x="95.410156" xlink:href="#DejaVuSans-38"/>
      </g>
     </g>
    </g>
    <g id="ytick_12">
     <g id="line2d_35">
      <g>
       <use style="stroke:#000000;stroke-width:0.8;" x="387.235145" xlink:href="#mdd228c3ed0" y="16.625455"/>
      </g>
     </g>
     <g id="text_30">
      <!-- 1.0 -->
      <g transform="translate(359.561082 21.564439)scale(0.13 -0.13)">
       <use xlink:href="#DejaVuSans-31"/>
       <use x="63.623047" xlink:href="#DejaVuSans-2e"/>
       <use x="95.410156" xlink:href="#DejaVuSans-30"/>
      </g>
     </g>
    </g>
    <g id="text_31">
     <!-- Probability -->
     <g transform="translate(352.233582 167.8825)rotate(-90)scale(0.16 -0.16)">
      <use xlink:href="#DejaVuSans-50"/>
      <use x="60.287109" xlink:href="#DejaVuSans-72"/>
      <use x="101.369141" xlink:href="#DejaVuSans-6f"/>
      <use x="162.550781" xlink:href="#DejaVuSans-62"/>
      <use x="226.027344" xlink:href="#DejaVuSans-61"/>
      <use x="287.306641" xlink:href="#DejaVuSans-62"/>
      <use x="350.783203" xlink:href="#DejaVuSans-69"/>
      <use x="378.566406" xlink:href="#DejaVuSans-6c"/>
      <use x="406.349609" xlink:href="#DejaVuSans-69"/>
      <use x="434.132812" xlink:href="#DejaVuSans-74"/>
      <use x="473.341797" xlink:href="#DejaVuSans-79"/>
     </g>
    </g>
   </g>
   <g id="line2d_36">
    <path clip-path="url(#p3af765a760)" d="M 399.682859 16.625455 
L 399.682859 29.772655 
L 404.661944 29.772655 
L 404.661944 39.877527 
L 409.64103 39.877527 
L 409.64103 53.568 
L 414.620116 53.568 
L 414.620116 65.302691 
L 419.599201 65.302691 
L 419.599201 75.407564 
L 424.578287 75.407564 
L 424.578287 85.947055 
L 429.557373 85.947055 
L 429.557373 96.486545 
L 434.536458 96.486545 
L 434.536458 104.9616 
L 439.515544 104.9616 
L 439.515544 114.5232 
L 444.49463 114.5232 
L 444.49463 126.040582 
L 449.473715 126.040582 
L 449.473715 138.753164 
L 454.452801 138.753164 
L 454.452801 150.922473 
L 459.431886 150.922473 
L 459.431886 162.548509 
L 464.410972 162.548509 
L 464.410972 173.739927 
L 469.390058 173.739927 
L 469.390058 182.540945 
L 474.369143 182.540945 
L 474.369143 189.8208 
L 479.348229 189.8208 
L 479.348229 197.969891 
L 484.327315 197.969891 
L 484.327315 202.207418 
L 489.3064 202.207418 
L 489.3064 207.422836 
L 494.285486 207.422836 
L 494.285486 211.660364 
L 499.264572 211.660364 
L 499.264572 217.3104 
L 504.243657 217.3104 
L 504.243657 219.918109 
L 509.222743 219.918109 
L 509.222743 222.743127 
L 514.201829 222.743127 
L 514.201829 224.4816 
L 519.180914 224.4816 
L 519.180914 226.437382 
L 524.16 226.437382 
L 524.16 228.284509 
L 529.139086 228.284509 
L 529.139086 230.566255 
L 534.118171 230.566255 
L 534.118171 232.087418 
L 539.097257 232.087418 
L 539.097257 233.173964 
L 544.076343 233.173964 
L 544.076343 233.934545 
L 549.055428 233.934545 
L 549.055428 233.934545 
L 554.034514 233.934545 
L 554.034514 233.934545 
L 559.0136 233.934545 
L 559.0136 233.934545 
L 563.992685 233.934545 
L 563.992685 233.934545 
L 568.971771 233.934545 
L 568.971771 233.934545 
L 573.950857 233.934545 
L 573.950857 233.934545 
L 578.929942 233.934545 
L 578.929942 233.934545 
L 583.909028 233.934545 
L 583.909028 233.934545 
L 588.888114 233.934545 
L 588.888114 233.934545 
L 593.867199 233.934545 
L 593.867199 233.934545 
L 598.846285 233.934545 
L 598.846285 233.934545 
L 603.82537 233.934545 
L 603.82537 233.934545 
L 608.804456 233.934545 
L 608.804456 233.934545 
L 613.783542 233.934545 
L 613.783542 233.934545 
L 618.762627 233.934545 
L 618.762627 233.934545 
L 623.741713 233.934545 
L 623.741713 233.934545 
L 628.720799 233.934545 
L 628.720799 233.934545 
L 633.699884 233.934545 
L 633.699884 233.934545 
L 638.67897 233.934545 
L 638.67897 233.934545 
L 643.658056 233.934545 
L 643.658056 233.934545 
L 648.637141 233.934545 
" style="fill:none;opacity:0.5;stroke:#0000ff;stroke-linecap:square;"/>
   </g>
   <g id="line2d_37">
    <path clip-path="url(#p3af765a760)" d="M 399.682859 16.625455 
L 399.682859 23.796655 
L 404.661944 23.796655 
L 404.661944 30.424582 
L 409.64103 30.424582 
L 409.64103 37.813091 
L 414.620116 37.813091 
L 414.620116 45.418909 
L 419.599201 45.418909 
L 419.599201 53.133382 
L 424.578287 53.133382 
L 424.578287 60.413236 
L 429.557373 60.413236 
L 429.557373 71.061382 
L 434.536458 71.061382 
L 434.536458 81.166255 
L 439.515544 81.166255 
L 439.515544 89.206691 
L 444.49463 89.206691 
L 444.49463 97.464436 
L 449.473715 97.464436 
L 449.473715 105.830836 
L 454.452801 105.830836 
L 454.452801 113.219345 
L 459.431886 113.219345 
L 459.431886 120.716509 
L 464.410972 120.716509 
L 464.410972 128.322327 
L 469.390058 128.322327 
L 469.390058 135.058909 
L 474.369143 135.058909 
L 474.369143 141.795491 
L 479.348229 141.795491 
L 479.348229 147.445527 
L 484.327315 147.445527 
L 484.327315 153.9648 
L 489.3064 153.9648 
L 489.3064 160.049455 
L 494.285486 160.049455 
L 494.285486 165.699491 
L 499.264572 165.699491 
L 499.264572 170.806255 
L 504.243657 170.806255 
L 504.243657 176.6736 
L 509.222743 176.6736 
L 509.222743 181.345745 
L 514.201829 181.345745 
L 514.201829 186.343855 
L 519.180914 186.343855 
L 519.180914 191.341964 
L 524.16 191.341964 
L 524.16 194.710255 
L 529.139086 194.710255 
L 529.139086 198.839127 
L 534.118171 198.839127 
L 534.118171 201.664145 
L 539.097257 201.664145 
L 539.097257 204.597818 
L 544.076343 204.597818 
L 544.076343 207.966109 
L 549.055428 207.966109 
L 549.055428 210.899782 
L 554.034514 210.899782 
L 554.034514 213.507491 
L 559.0136 213.507491 
L 559.0136 215.354618 
L 563.992685 215.354618 
L 563.992685 217.201745 
L 568.971771 217.201745 
L 568.971771 218.614255 
L 573.950857 218.614255 
L 573.950857 220.026764 
L 578.929942 220.026764 
L 578.929942 221.330618 
L 583.909028 221.330618 
L 583.909028 223.503709 
L 588.888114 223.503709 
L 588.888114 224.372945 
L 593.867199 224.372945 
L 593.867199 225.350836 
L 598.846285 225.350836 
L 598.846285 225.894109 
L 603.82537 225.894109 
L 603.82537 226.328727 
L 608.804456 226.328727 
L 608.804456 227.197964 
L 613.783542 227.197964 
L 613.783542 227.741236 
L 618.762627 227.741236 
L 618.762627 228.719127 
L 623.741713 228.719127 
L 623.741713 229.153745 
L 628.720799 229.153745 
L 628.720799 229.697018 
L 633.699884 229.697018 
L 633.699884 230.240291 
L 638.67897 230.240291 
L 638.67897 230.674909 
L 643.658056 230.674909 
L 643.658056 231.218182 
L 648.637141 231.218182 
" style="fill:none;opacity:0.5;stroke:#ff0000;stroke-linecap:square;"/>
   </g>
   <g id="line2d_38">
    <path clip-path="url(#p3af765a760)" d="M 399.682859 16.625455 
L 405.170829 30.805417 
L 409.660986 39.932399 
L 415.148956 54.81437 
L 420.13802 66.396204 
L 427.122709 80.793476 
L 435.105211 97.454638 
L 440.094275 106.072968 
L 445.083339 115.884975 
L 450.571309 128.842955 
L 457.057092 145.118273 
L 462.046156 157.026724 
L 467.534126 169.568377 
L 469.529752 173.98685 
L 475.017722 183.489223 
L 480.006786 190.898636 
L 484.496943 198.114256 
L 489.984913 202.918136 
L 494.973977 208.008787 
L 499.464134 211.886818 
L 504.453198 217.420143 
L 511.936794 221.457999 
L 514.431326 222.823257 
L 521.416015 225.359546 
L 532.391955 229.775188 
L 534.886487 230.800983 
L 540.374457 232.366131 
L 545.363521 233.370587 
L 549.354772 233.934545 
L 648.637141 233.934545 
L 648.637141 233.934545 
" style="fill:none;stroke:#0000ff;stroke-dasharray:7.4,3.2;stroke-dashoffset:0;stroke-width:2;"/>
   </g>
   <g id="line2d_39">
    <path clip-path="url(#p3af765a760)" d="M 399.682859 16.625455 
L 406.168642 25.8023 
L 410.658799 31.934858 
L 419.140207 44.717772 
L 428.619429 59.041881 
L 429.617241 60.54127 
L 436.601931 75.253183 
L 440.094275 82.100814 
L 449.07459 96.802493 
L 456.059279 108.214704 
L 466.037407 123.200975 
L 470.527564 129.861346 
L 480.006786 142.54279 
L 484.995849 148.32086 
L 490.982726 156.013341 
L 495.97179 161.962994 
L 500.461947 166.92757 
L 504.952104 171.641087 
L 509.442262 176.879586 
L 516.426951 183.579369 
L 524.409453 191.510716 
L 529.897423 195.339101 
L 534.387581 198.991984 
L 543.866802 204.474357 
L 547.858053 207.156099 
L 550.352585 208.730393 
L 555.840555 211.845664 
L 559.831806 213.811027 
L 570.30884 217.581057 
L 585.276031 221.927238 
L 589.267282 223.569903 
L 601.739942 225.666566 
L 611.718069 226.837379 
L 615.210414 227.353651 
L 619.700571 227.925448 
L 624.689635 228.80187 
L 633.66995 229.693752 
L 648.637141 231.218182 
L 648.637141 231.218182 
" style="fill:none;stroke:#ff0000;stroke-dasharray:7.4,3.2;stroke-dashoffset:0;stroke-width:2;"/>
   </g>
   <g id="line2d_40">
    <path clip-path="url(#p3af765a760)" d="M 399.682859 16.625455 
L 450.072403 16.625455 
L 549.354772 233.934545 
L 648.637141 233.934545 
L 648.637141 233.934545 
" style="fill:none;stroke:#008000;stroke-linecap:square;stroke-width:2;"/>
   </g>
   <g id="patch_9">
    <path d="M 387.235145 244.8 
L 387.235145 5.76 
" style="fill:none;stroke:#000000;stroke-linecap:square;stroke-linejoin:miter;stroke-width:0.8;"/>
   </g>
   <g id="patch_10">
    <path d="M 661.084855 244.8 
L 661.084855 5.76 
" style="fill:none;stroke:#000000;stroke-linecap:square;stroke-linejoin:miter;stroke-width:0.8;"/>
   </g>
   <g id="patch_11">
    <path d="M 387.235145 244.8 
L 661.084855 244.8 
" style="fill:none;stroke:#000000;stroke-linecap:square;stroke-linejoin:miter;stroke-width:0.8;"/>
   </g>
   <g id="patch_12">
    <path d="M 387.235145 5.76 
L 661.084855 5.76 
" style="fill:none;stroke:#000000;stroke-linecap:square;stroke-linejoin:miter;stroke-width:0.8;"/>
   </g>
   <g id="legend_2">
    <g id="patch_13">
     <path d="M 542.004855 84.41 
L 651.984855 84.41 
Q 654.584855 84.41 654.584855 81.81 
L 654.584855 14.86 
Q 654.584855 12.26 651.984855 12.26 
L 542.004855 12.26 
Q 539.404855 12.26 539.404855 14.86 
L 539.404855 81.81 
Q 539.404855 84.41 542.004855 84.41 
z
" style="fill:#ffffff;opacity:0.8;stroke:#cccccc;stroke-linejoin:miter;"/>
    </g>
    <g id="line2d_41">
     <path d="M 544.604855 27.21 
L 570.604855 27.21 
" style="fill:none;stroke:#0000ff;stroke-dasharray:7.4,3.2;stroke-dashoffset:0;stroke-width:2;"/>
    </g>
    <g id="line2d_42"/>
    <g id="text_32">
     <!-- $\hat{\Phi}_{(u,v)\in\mathcal{G}}(\tau)$ -->
     <g transform="translate(581.004855 31.76)scale(0.13 -0.13)">
      <use transform="translate(74.255859 30.015625)" xlink:href="#DejaVuSans-302"/>
      <use transform="translate(0 0.609375)" xlink:href="#DejaVuSans-3a6"/>
      <use transform="translate(79.667969 -15.796875)scale(0.7)" xlink:href="#DejaVuSans-28"/>
      <use transform="translate(106.977539 -15.796875)scale(0.7)" xlink:href="#DejaVuSans-Oblique-75"/>
      <use transform="translate(151.342773 -15.796875)scale(0.7)" xlink:href="#DejaVuSans-2c"/>
      <use transform="translate(187.231445 -15.796875)scale(0.7)" xlink:href="#DejaVuSans-Oblique-76"/>
      <use transform="translate(228.657227 -15.796875)scale(0.7)" xlink:href="#DejaVuSans-29"/>
      <use transform="translate(269.604492 -15.796875)scale(0.7)" xlink:href="#DejaVuSans-2208"/>
      <use transform="translate(344.21875 -15.796875)scale(0.7)" xlink:href="#STIXNonUnicode-Italic-e233"/>
      <use transform="translate(387.553114 0.609375)" xlink:href="#DejaVuSans-28"/>
      <use transform="translate(426.566786 0.609375)" xlink:href="#DejaVuSans-Oblique-3c4"/>
      <use transform="translate(486.771864 0.609375)" xlink:href="#DejaVuSans-29"/>
     </g>
    </g>
    <g id="line2d_43">
     <path d="M 544.604855 51.39 
L 570.604855 51.39 
" style="fill:none;stroke:#ff0000;stroke-dasharray:7.4,3.2;stroke-dashoffset:0;stroke-width:2;"/>
    </g>
    <g id="line2d_44"/>
    <g id="text_33">
     <!-- $\hat{\Phi}_{(u,v)\notin\mathcal{G}}(\tau)$ -->
     <g transform="translate(581.004855 55.94)scale(0.13 -0.13)">
      <use transform="translate(74.255859 30.015625)" xlink:href="#DejaVuSans-302"/>
      <use transform="translate(0 0.609375)" xlink:href="#DejaVuSans-3a6"/>
      <use transform="translate(79.667969 -15.796875)scale(0.7)" xlink:href="#DejaVuSans-28"/>
      <use transform="translate(106.977539 -15.796875)scale(0.7)" xlink:href="#DejaVuSans-Oblique-75"/>
      <use transform="translate(151.342773 -15.796875)scale(0.7)" xlink:href="#DejaVuSans-2c"/>
      <use transform="translate(187.231445 -15.796875)scale(0.7)" xlink:href="#DejaVuSans-Oblique-76"/>
      <use transform="translate(228.657227 -15.796875)scale(0.7)" xlink:href="#DejaVuSans-29"/>
      <use transform="translate(255.966797 -15.796875)scale(0.7)" xlink:href="#DejaVuSans-2209"/>
      <use transform="translate(316.943359 -15.796875)scale(0.7)" xlink:href="#STIXNonUnicode-Italic-e233"/>
      <use transform="translate(360.277724 0.609375)" xlink:href="#DejaVuSans-28"/>
      <use transform="translate(399.291396 0.609375)" xlink:href="#DejaVuSans-Oblique-3c4"/>
      <use transform="translate(459.496474 0.609375)" xlink:href="#DejaVuSans-29"/>
     </g>
    </g>
    <g id="line2d_45">
     <path d="M 544.604855 71.28 
L 570.604855 71.28 
" style="fill:none;stroke:#008000;stroke-linecap:square;stroke-width:2;"/>
    </g>
    <g id="line2d_46"/>
    <g id="text_34">
     <!-- $\Phi_{(u,v)\in\mathcal{G}}(\tau)$ -->
     <g transform="translate(581.004855 75.83)scale(0.13 -0.13)">
      <use transform="translate(0 0.125)" xlink:href="#DejaVuSans-3a6"/>
      <use transform="translate(79.667969 -16.28125)scale(0.7)" xlink:href="#DejaVuSans-28"/>
      <use transform="translate(106.977539 -16.28125)scale(0.7)" xlink:href="#DejaVuSans-Oblique-75"/>
      <use transform="translate(151.342773 -16.28125)scale(0.7)" xlink:href="#DejaVuSans-2c"/>
      <use transform="translate(187.231445 -16.28125)scale(0.7)" xlink:href="#DejaVuSans-Oblique-76"/>
      <use transform="translate(228.657227 -16.28125)scale(0.7)" xlink:href="#DejaVuSans-29"/>
      <use transform="translate(269.604492 -16.28125)scale(0.7)" xlink:href="#DejaVuSans-2208"/>
      <use transform="translate(344.21875 -16.28125)scale(0.7)" xlink:href="#STIXNonUnicode-Italic-e233"/>
      <use transform="translate(387.553114 0.125)" xlink:href="#DejaVuSans-28"/>
      <use transform="translate(426.566786 0.125)" xlink:href="#DejaVuSans-Oblique-3c4"/>
      <use transform="translate(486.771864 0.125)" xlink:href="#DejaVuSans-29"/>
     </g>
    </g>
   </g>
  </g>
  <g id="axes_3">
   <g id="patch_14">
    <path d="M 724.070289 244.8 
L 997.92 244.8 
L 997.92 5.76 
L 724.070289 5.76 
z
" style="fill:#ffffff;"/>
   </g>
   <g id="matplotlib.axis_5">
    <g id="xtick_13">
     <g id="line2d_47">
      <g>
       <use style="stroke:#000000;stroke-width:0.8;" x="736.518003" xlink:href="#mc6b3204d1f" y="244.8"/>
      </g>
     </g>
     <g id="text_35">
      <!-- 0 -->
      <g transform="translate(732.382378 261.677969)scale(0.13 -0.13)">
       <use xlink:href="#DejaVuSans-30"/>
      </g>
     </g>
    </g>
    <g id="xtick_14">
     <g id="line2d_48">
      <g>
       <use style="stroke:#000000;stroke-width:0.8;" x="786.30886" xlink:href="#mc6b3204d1f" y="244.8"/>
      </g>
     </g>
     <g id="text_36">
      <!-- 1 -->
      <g transform="translate(782.173235 261.677969)scale(0.13 -0.13)">
       <use xlink:href="#DejaVuSans-31"/>
      </g>
     </g>
    </g>
    <g id="xtick_15">
     <g id="line2d_49">
      <g>
       <use style="stroke:#000000;stroke-width:0.8;" x="836.099716" xlink:href="#mc6b3204d1f" y="244.8"/>
      </g>
     </g>
     <g id="text_37">
      <!-- 2 -->
      <g transform="translate(831.964091 261.677969)scale(0.13 -0.13)">
       <use xlink:href="#DejaVuSans-32"/>
      </g>
     </g>
    </g>
    <g id="xtick_16">
     <g id="line2d_50">
      <g>
       <use style="stroke:#000000;stroke-width:0.8;" x="885.890573" xlink:href="#mc6b3204d1f" y="244.8"/>
      </g>
     </g>
     <g id="text_38">
      <!-- 3 -->
      <g transform="translate(881.754948 261.677969)scale(0.13 -0.13)">
       <use xlink:href="#DejaVuSans-33"/>
      </g>
     </g>
    </g>
    <g id="xtick_17">
     <g id="line2d_51">
      <g>
       <use style="stroke:#000000;stroke-width:0.8;" x="935.681429" xlink:href="#mc6b3204d1f" y="244.8"/>
      </g>
     </g>
     <g id="text_39">
      <!-- 4 -->
      <g transform="translate(931.545804 261.677969)scale(0.13 -0.13)">
       <use xlink:href="#DejaVuSans-34"/>
      </g>
     </g>
    </g>
    <g id="xtick_18">
     <g id="line2d_52">
      <g>
       <use style="stroke:#000000;stroke-width:0.8;" x="985.472286" xlink:href="#mc6b3204d1f" y="244.8"/>
      </g>
     </g>
     <g id="text_40">
      <!-- 5 -->
      <g transform="translate(981.336661 261.677969)scale(0.13 -0.13)">
       <use xlink:href="#DejaVuSans-35"/>
      </g>
     </g>
    </g>
    <g id="text_41">
     <!-- $\tau$ -->
     <g transform="translate(856.115145 280.539062)scale(0.16 -0.16)">
      <use transform="translate(0 0.3125)" xlink:href="#DejaVuSans-Oblique-3c4"/>
     </g>
    </g>
   </g>
   <g id="matplotlib.axis_6">
    <g id="ytick_13">
     <g id="line2d_53">
      <g>
       <use style="stroke:#000000;stroke-width:0.8;" x="724.070289" xlink:href="#mdd228c3ed0" y="233.934545"/>
      </g>
     </g>
     <g id="text_42">
      <!-- 0.0 -->
      <g transform="translate(696.396227 238.87353)scale(0.13 -0.13)">
       <use xlink:href="#DejaVuSans-30"/>
       <use x="63.623047" xlink:href="#DejaVuSans-2e"/>
       <use x="95.410156" xlink:href="#DejaVuSans-30"/>
      </g>
     </g>
    </g>
    <g id="ytick_14">
     <g id="line2d_54">
      <g>
       <use style="stroke:#000000;stroke-width:0.8;" x="724.070289" xlink:href="#mdd228c3ed0" y="190.472727"/>
      </g>
     </g>
     <g id="text_43">
      <!-- 0.2 -->
      <g transform="translate(696.396227 195.411712)scale(0.13 -0.13)">
       <use xlink:href="#DejaVuSans-30"/>
       <use x="63.623047" xlink:href="#DejaVuSans-2e"/>
       <use x="95.410156" xlink:href="#DejaVuSans-32"/>
      </g>
     </g>
    </g>
    <g id="ytick_15">
     <g id="line2d_55">
      <g>
       <use style="stroke:#000000;stroke-width:0.8;" x="724.070289" xlink:href="#mdd228c3ed0" y="147.010909"/>
      </g>
     </g>
     <g id="text_44">
      <!-- 0.4 -->
      <g transform="translate(696.396227 151.949893)scale(0.13 -0.13)">
       <use xlink:href="#DejaVuSans-30"/>
       <use x="63.623047" xlink:href="#DejaVuSans-2e"/>
       <use x="95.410156" xlink:href="#DejaVuSans-34"/>
      </g>
     </g>
    </g>
    <g id="ytick_16">
     <g id="line2d_56">
      <g>
       <use style="stroke:#000000;stroke-width:0.8;" x="724.070289" xlink:href="#mdd228c3ed0" y="103.549091"/>
      </g>
     </g>
     <g id="text_45">
      <!-- 0.6 -->
      <g transform="translate(696.396227 108.488075)scale(0.13 -0.13)">
       <use xlink:href="#DejaVuSans-30"/>
       <use x="63.623047" xlink:href="#DejaVuSans-2e"/>
       <use x="95.410156" xlink:href="#DejaVuSans-36"/>
      </g>
     </g>
    </g>
    <g id="ytick_17">
     <g id="line2d_57">
      <g>
       <use style="stroke:#000000;stroke-width:0.8;" x="724.070289" xlink:href="#mdd228c3ed0" y="60.087273"/>
      </g>
     </g>
     <g id="text_46">
      <!-- 0.8 -->
      <g transform="translate(696.396227 65.026257)scale(0.13 -0.13)">
       <use xlink:href="#DejaVuSans-30"/>
       <use x="63.623047" xlink:href="#DejaVuSans-2e"/>
       <use x="95.410156" xlink:href="#DejaVuSans-38"/>
      </g>
     </g>
    </g>
    <g id="ytick_18">
     <g id="line2d_58">
      <g>
       <use style="stroke:#000000;stroke-width:0.8;" x="724.070289" xlink:href="#mdd228c3ed0" y="16.625455"/>
      </g>
     </g>
     <g id="text_47">
      <!-- 1.0 -->
      <g transform="translate(696.396227 21.564439)scale(0.13 -0.13)">
       <use xlink:href="#DejaVuSans-31"/>
       <use x="63.623047" xlink:href="#DejaVuSans-2e"/>
       <use x="95.410156" xlink:href="#DejaVuSans-30"/>
      </g>
     </g>
    </g>
    <g id="text_48">
     <!-- Probability -->
     <g transform="translate(689.068727 167.8825)rotate(-90)scale(0.16 -0.16)">
      <use xlink:href="#DejaVuSans-50"/>
      <use x="60.287109" xlink:href="#DejaVuSans-72"/>
      <use x="101.369141" xlink:href="#DejaVuSans-6f"/>
      <use x="162.550781" xlink:href="#DejaVuSans-62"/>
      <use x="226.027344" xlink:href="#DejaVuSans-61"/>
      <use x="287.306641" xlink:href="#DejaVuSans-62"/>
      <use x="350.783203" xlink:href="#DejaVuSans-69"/>
      <use x="378.566406" xlink:href="#DejaVuSans-6c"/>
      <use x="406.349609" xlink:href="#DejaVuSans-69"/>
      <use x="434.132812" xlink:href="#DejaVuSans-74"/>
      <use x="473.341797" xlink:href="#DejaVuSans-79"/>
     </g>
    </g>
   </g>
   <g id="line2d_59">
    <path clip-path="url(#pe47349416a)" d="M 736.518003 16.625455 
L 736.518003 31.728436 
L 741.497089 31.728436 
L 741.497089 46.722764 
L 746.476174 46.722764 
L 746.476174 59.435345 
L 751.45526 59.435345 
L 751.45526 72.473891 
L 756.434346 72.473891 
L 756.434346 84.969164 
L 761.413431 84.969164 
L 761.413431 98.116364 
L 766.392517 98.116364 
L 766.392517 108.5472 
L 771.371603 108.5472 
L 771.371603 118.434764 
L 776.350688 118.434764 
L 776.350688 130.278109 
L 781.329774 130.278109 
L 781.329774 139.405091 
L 786.30886 139.405091 
L 786.30886 150.053236 
L 791.287945 150.053236 
L 791.287945 161.353309 
L 796.267031 161.353309 
L 796.267031 175.152436 
L 801.246117 175.152436 
L 801.246117 188.408291 
L 806.225202 188.408291 
L 806.225202 200.468945 
L 811.204288 200.468945 
L 811.204288 209.921891 
L 816.183374 209.921891 
L 816.183374 216.875782 
L 821.162459 216.875782 
L 821.162459 223.069091 
L 826.141545 223.069091 
L 826.141545 227.197964 
L 831.120631 227.197964 
L 831.120631 230.348945 
L 836.099716 230.348945 
L 836.099716 231.544145 
L 841.078802 231.544145 
L 841.078802 232.522036 
L 846.057888 232.522036 
L 846.057888 233.173964 
L 851.036973 233.173964 
L 851.036973 233.282618 
L 856.016059 233.282618 
L 856.016059 233.391273 
L 860.995145 233.391273 
L 860.995145 233.608582 
L 865.97423 233.608582 
L 865.97423 233.717236 
L 870.953316 233.717236 
L 870.953316 233.934545 
L 875.932401 233.934545 
L 875.932401 233.934545 
L 880.911487 233.934545 
L 880.911487 233.934545 
L 885.890573 233.934545 
L 885.890573 233.934545 
L 890.869658 233.934545 
L 890.869658 233.934545 
L 895.848744 233.934545 
L 895.848744 233.934545 
L 900.82783 233.934545 
L 900.82783 233.934545 
L 905.806915 233.934545 
L 905.806915 233.934545 
L 910.786001 233.934545 
L 910.786001 233.934545 
L 915.765087 233.934545 
L 915.765087 233.934545 
L 920.744172 233.934545 
L 920.744172 233.934545 
L 925.723258 233.934545 
L 925.723258 233.934545 
L 930.702344 233.934545 
L 930.702344 233.934545 
L 935.681429 233.934545 
L 935.681429 233.934545 
L 940.660515 233.934545 
L 940.660515 233.934545 
L 945.639601 233.934545 
L 945.639601 233.934545 
L 950.618686 233.934545 
L 950.618686 233.934545 
L 955.597772 233.934545 
L 955.597772 233.934545 
L 960.576858 233.934545 
L 960.576858 233.934545 
L 965.555943 233.934545 
L 965.555943 233.934545 
L 970.535029 233.934545 
L 970.535029 233.934545 
L 975.514115 233.934545 
L 975.514115 233.934545 
L 980.4932 233.934545 
L 980.4932 233.934545 
L 985.472286 233.934545 
" style="fill:none;opacity:0.5;stroke:#0000ff;stroke-linecap:square;"/>
   </g>
   <g id="line2d_60">
    <path clip-path="url(#pe47349416a)" d="M 736.518003 16.625455 
L 736.518003 29.555345 
L 741.497089 29.555345 
L 741.497089 41.398691 
L 746.476174 41.398691 
L 746.476174 55.197818 
L 751.45526 55.197818 
L 751.45526 67.367127 
L 756.434346 67.367127 
L 756.434346 80.622982 
L 761.413431 80.622982 
L 761.413431 93.552873 
L 766.392517 93.552873 
L 766.392517 102.462545 
L 771.371603 102.462545 
L 771.371603 113.545309 
L 776.350688 113.545309 
L 776.350688 123.324218 
L 781.329774 123.324218 
L 781.329774 133.103127 
L 786.30886 133.103127 
L 786.30886 141.904145 
L 791.287945 141.904145 
L 791.287945 149.292655 
L 796.267031 149.292655 
L 796.267031 158.419636 
L 801.246117 158.419636 
L 801.246117 163.091782 
L 806.225202 163.091782 
L 806.225202 170.045673 
L 811.204288 170.045673 
L 811.204288 177.108218 
L 816.183374 177.108218 
L 816.183374 182.214982 
L 821.162459 182.214982 
L 821.162459 188.190982 
L 826.141545 188.190982 
L 826.141545 195.362182 
L 831.120631 195.362182 
L 831.120631 199.599709 
L 836.099716 199.599709 
L 836.099716 202.750691 
L 841.078802 202.750691 
L 841.078802 205.3584 
L 846.057888 205.3584 
L 846.057888 208.183418 
L 851.036973 208.183418 
L 851.036973 210.791127 
L 856.016059 210.791127 
L 856.016059 213.616145 
L 860.995145 213.616145 
L 860.995145 215.245964 
L 865.97423 215.245964 
L 865.97423 217.201745 
L 870.953316 217.201745 
L 870.953316 219.157527 
L 875.932401 219.157527 
L 875.932401 220.787345 
L 880.911487 220.787345 
L 880.911487 222.199855 
L 885.890573 222.199855 
L 885.890573 223.503709 
L 890.869658 223.503709 
L 890.869658 224.590255 
L 895.848744 224.590255 
L 895.848744 225.459491 
L 900.82783 225.459491 
L 900.82783 226.763345 
L 905.806915 226.763345 
L 905.806915 227.632582 
L 910.786001 227.632582 
L 910.786001 228.501818 
L 915.765087 228.501818 
L 915.765087 228.827782 
L 920.744172 228.827782 
L 920.744172 229.697018 
L 925.723258 229.697018 
L 925.723258 230.131636 
L 930.702344 230.131636 
L 930.702344 230.566255 
L 935.681429 230.566255 
L 935.681429 231.326836 
L 940.660515 231.326836 
L 940.660515 231.761455 
L 945.639601 231.761455 
L 945.639601 231.978764 
L 950.618686 231.978764 
L 950.618686 232.196073 
L 955.597772 232.196073 
L 955.597772 232.630691 
L 960.576858 232.630691 
L 960.576858 232.848 
L 965.555943 232.848 
L 965.555943 233.065309 
L 970.535029 233.065309 
L 970.535029 233.282618 
L 975.514115 233.282618 
L 975.514115 233.391273 
L 980.4932 233.391273 
L 980.4932 233.717236 
L 985.472286 233.717236 
" style="fill:none;opacity:0.5;stroke:#ff0000;stroke-linecap:square;"/>
   </g>
   <g id="line2d_61">
    <path clip-path="url(#pe47349416a)" d="M 736.518003 16.625455 
L 746.496131 46.773716 
L 755.975352 71.271941 
L 759.467697 80.086241 
L 763.458948 90.370318 
L 766.951292 99.286958 
L 773.437075 112.648855 
L 776.92942 119.811345 
L 781.419577 130.442724 
L 786.907547 140.685429 
L 792.894424 153.699152 
L 796.386769 161.685152 
L 803.870364 182.138989 
L 807.362709 191.163631 
L 811.35396 200.753102 
L 816.343024 210.144861 
L 822.3299 218.32792 
L 826.321151 223.218028 
L 831.809121 227.633671 
L 836.299279 230.396849 
L 843.283968 231.977239 
L 847.774125 232.746749 
L 851.765377 233.189859 
L 870.723819 233.712228 
L 880.20304 233.934545 
L 985.472286 233.934545 
L 985.472286 233.934545 
" style="fill:none;stroke:#0000ff;stroke-dasharray:7.4,3.2;stroke-dashoffset:0;stroke-width:2;"/>
   </g>
   <g id="line2d_62">
    <path clip-path="url(#pe47349416a)" d="M 736.518003 16.625455 
L 742.50488 31.952496 
L 746.995037 42.836676 
L 751.984101 56.49035 
L 757.472071 70.129871 
L 765.953479 92.412762 
L 766.452386 93.660003 
L 771.44145 102.618015 
L 776.92942 114.681936 
L 787.406454 135.043231 
L 791.896611 142.80735 
L 796.386769 149.512141 
L 801.375832 158.541356 
L 806.364896 163.286881 
L 816.84193 177.783662 
L 821.830994 183.017371 
L 826.820058 189.168219 
L 831.310215 195.523531 
L 836.299279 199.726001 
L 841.787249 203.121728 
L 848.771938 206.89829 
L 853.761002 209.610081 
L 858.750066 212.34234 
L 861.244598 213.6978 
L 867.730381 215.935778 
L 877.708508 219.738905 
L 883.196478 221.435571 
L 890.680074 223.454063 
L 896.168044 224.645997 
L 901.656014 225.676365 
L 906.645078 226.90967 
L 916.623206 228.557996 
L 921.612269 228.979332 
L 926.601333 229.773664 
L 937.078367 230.779644 
L 942.067431 231.449644 
L 948.054308 231.866843 
L 958.032435 232.408591 
L 963.021499 232.737386 
L 985.472286 233.717236 
L 985.472286 233.717236 
" style="fill:none;stroke:#ff0000;stroke-dasharray:7.4,3.2;stroke-dashoffset:0;stroke-width:2;"/>
   </g>
   <g id="line2d_63">
    <path clip-path="url(#pe47349416a)" d="M 736.518003 16.625455 
L 780.920671 16.717175 
L 783.415203 16.92793 
L 785.410828 17.31306 
L 786.907547 17.814719 
L 788.404266 18.577835 
L 789.900986 19.682872 
L 790.898798 20.650773 
L 791.896611 21.83188 
L 793.39333 24.051861 
L 794.890049 26.866296 
L 796.386769 30.321916 
L 797.883488 34.443569 
L 799.380207 39.232305 
L 800.876926 44.665498 
L 802.872551 52.832796 
L 804.868177 61.910461 
L 807.362709 74.239231 
L 811.35396 95.237294 
L 816.84193 124.035207 
L 819.835368 138.670589 
L 822.828807 152.125832 
L 825.323338 162.316885 
L 827.81787 171.540114 
L 830.312402 179.802227 
L 832.308028 185.74347 
L 834.303653 191.120304 
L 836.299279 195.966041 
L 838.294904 200.317182 
L 840.29053 204.211712 
L 842.286155 207.687788 
L 844.281781 210.782766 
L 846.277406 213.532515 
L 848.273032 215.970955 
L 850.767564 218.629279 
L 853.262096 220.907184 
L 855.756628 222.85545 
L 858.251159 224.519135 
L 860.745691 225.937897 
L 863.73913 227.365619 
L 866.732568 228.541787 
L 870.224913 229.653324 
L 873.717257 230.537674 
L 877.708508 231.328433 
L 882.198666 232.001361 
L 887.686636 232.593512 
L 894.172419 233.064812 
L 902.653827 233.441436 
L 914.128674 233.706341 
L 932.089303 233.86711 
L 970.505095 233.931115 
L 985.472286 233.934481 
L 985.472286 233.934481 
" style="fill:none;stroke:#008000;stroke-linecap:square;stroke-width:2;"/>
   </g>
   <g id="patch_15">
    <path d="M 724.070289 244.8 
L 724.070289 5.76 
" style="fill:none;stroke:#000000;stroke-linecap:square;stroke-linejoin:miter;stroke-width:0.8;"/>
   </g>
   <g id="patch_16">
    <path d="M 997.92 244.8 
L 997.92 5.76 
" style="fill:none;stroke:#000000;stroke-linecap:square;stroke-linejoin:miter;stroke-width:0.8;"/>
   </g>
   <g id="patch_17">
    <path d="M 724.070289 244.8 
L 997.92 244.8 
" style="fill:none;stroke:#000000;stroke-linecap:square;stroke-linejoin:miter;stroke-width:0.8;"/>
   </g>
   <g id="patch_18">
    <path d="M 724.070289 5.76 
L 997.92 5.76 
" style="fill:none;stroke:#000000;stroke-linecap:square;stroke-linejoin:miter;stroke-width:0.8;"/>
   </g>
   <g id="legend_3">
    <g id="patch_19">
     <path d="M 878.84 84.41 
L 988.82 84.41 
Q 991.42 84.41 991.42 81.81 
L 991.42 14.86 
Q 991.42 12.26 988.82 12.26 
L 878.84 12.26 
Q 876.24 12.26 876.24 14.86 
L 876.24 81.81 
Q 876.24 84.41 878.84 84.41 
z
" style="fill:#ffffff;opacity:0.8;stroke:#cccccc;stroke-linejoin:miter;"/>
    </g>
    <g id="line2d_64">
     <path d="M 881.44 27.21 
L 907.44 27.21 
" style="fill:none;stroke:#0000ff;stroke-dasharray:7.4,3.2;stroke-dashoffset:0;stroke-width:2;"/>
    </g>
    <g id="line2d_65"/>
    <g id="text_49">
     <!-- $\hat{\Phi}_{(u,v)\in\mathcal{G}}(\tau)$ -->
     <g transform="translate(917.84 31.76)scale(0.13 -0.13)">
      <use transform="translate(74.255859 30.015625)" xlink:href="#DejaVuSans-302"/>
      <use transform="translate(0 0.609375)" xlink:href="#DejaVuSans-3a6"/>
      <use transform="translate(79.667969 -15.796875)scale(0.7)" xlink:href="#DejaVuSans-28"/>
      <use transform="translate(106.977539 -15.796875)scale(0.7)" xlink:href="#DejaVuSans-Oblique-75"/>
      <use transform="translate(151.342773 -15.796875)scale(0.7)" xlink:href="#DejaVuSans-2c"/>
      <use transform="translate(187.231445 -15.796875)scale(0.7)" xlink:href="#DejaVuSans-Oblique-76"/>
      <use transform="translate(228.657227 -15.796875)scale(0.7)" xlink:href="#DejaVuSans-29"/>
      <use transform="translate(269.604492 -15.796875)scale(0.7)" xlink:href="#DejaVuSans-2208"/>
      <use transform="translate(344.21875 -15.796875)scale(0.7)" xlink:href="#STIXNonUnicode-Italic-e233"/>
      <use transform="translate(387.553114 0.609375)" xlink:href="#DejaVuSans-28"/>
      <use transform="translate(426.566786 0.609375)" xlink:href="#DejaVuSans-Oblique-3c4"/>
      <use transform="translate(486.771864 0.609375)" xlink:href="#DejaVuSans-29"/>
     </g>
    </g>
    <g id="line2d_66">
     <path d="M 881.44 51.39 
L 907.44 51.39 
" style="fill:none;stroke:#ff0000;stroke-dasharray:7.4,3.2;stroke-dashoffset:0;stroke-width:2;"/>
    </g>
    <g id="line2d_67"/>
    <g id="text_50">
     <!-- $\hat{\Phi}_{(u,v)\notin\mathcal{G}}(\tau)$ -->
     <g transform="translate(917.84 55.94)scale(0.13 -0.13)">
      <use transform="translate(74.255859 30.015625)" xlink:href="#DejaVuSans-302"/>
      <use transform="translate(0 0.609375)" xlink:href="#DejaVuSans-3a6"/>
      <use transform="translate(79.667969 -15.796875)scale(0.7)" xlink:href="#DejaVuSans-28"/>
      <use transform="translate(106.977539 -15.796875)scale(0.7)" xlink:href="#DejaVuSans-Oblique-75"/>
      <use transform="translate(151.342773 -15.796875)scale(0.7)" xlink:href="#DejaVuSans-2c"/>
      <use transform="translate(187.231445 -15.796875)scale(0.7)" xlink:href="#DejaVuSans-Oblique-76"/>
      <use transform="translate(228.657227 -15.796875)scale(0.7)" xlink:href="#DejaVuSans-29"/>
      <use transform="translate(255.966797 -15.796875)scale(0.7)" xlink:href="#DejaVuSans-2209"/>
      <use transform="translate(316.943359 -15.796875)scale(0.7)" xlink:href="#STIXNonUnicode-Italic-e233"/>
      <use transform="translate(360.277724 0.609375)" xlink:href="#DejaVuSans-28"/>
      <use transform="translate(399.291396 0.609375)" xlink:href="#DejaVuSans-Oblique-3c4"/>
      <use transform="translate(459.496474 0.609375)" xlink:href="#DejaVuSans-29"/>
     </g>
    </g>
    <g id="line2d_68">
     <path d="M 881.44 71.28 
L 907.44 71.28 
" style="fill:none;stroke:#008000;stroke-linecap:square;stroke-width:2;"/>
    </g>
    <g id="line2d_69"/>
    <g id="text_51">
     <!-- $\Phi_{(u,v)\in\mathcal{G}}(\tau)$ -->
     <g transform="translate(917.84 75.83)scale(0.13 -0.13)">
      <use transform="translate(0 0.125)" xlink:href="#DejaVuSans-3a6"/>
      <use transform="translate(79.667969 -16.28125)scale(0.7)" xlink:href="#DejaVuSans-28"/>
      <use transform="translate(106.977539 -16.28125)scale(0.7)" xlink:href="#DejaVuSans-Oblique-75"/>
      <use transform="translate(151.342773 -16.28125)scale(0.7)" xlink:href="#DejaVuSans-2c"/>
      <use transform="translate(187.231445 -16.28125)scale(0.7)" xlink:href="#DejaVuSans-Oblique-76"/>
      <use transform="translate(228.657227 -16.28125)scale(0.7)" xlink:href="#DejaVuSans-29"/>
      <use transform="translate(269.604492 -16.28125)scale(0.7)" xlink:href="#DejaVuSans-2208"/>
      <use transform="translate(344.21875 -16.28125)scale(0.7)" xlink:href="#STIXNonUnicode-Italic-e233"/>
      <use transform="translate(387.553114 0.125)" xlink:href="#DejaVuSans-28"/>
      <use transform="translate(426.566786 0.125)" xlink:href="#DejaVuSans-Oblique-3c4"/>
      <use transform="translate(486.771864 0.125)" xlink:href="#DejaVuSans-29"/>
     </g>
    </g>
   </g>
  </g>
 </g>
 <defs>
  <clipPath id="p3b046580f4">
   <rect height="239.04" width="273.849711" x="50.4" y="5.76"/>
  </clipPath>
  <clipPath id="p3af765a760">
   <rect height="239.04" width="273.849711" x="387.235145" y="5.76"/>
  </clipPath>
  <clipPath id="pe47349416a">
   <rect height="239.04" width="273.849711" x="724.070289" y="5.76"/>
  </clipPath>
 </defs>
</svg>
