<?xml version="1.0" encoding="utf-8" standalone="no"?>
<!DOCTYPE svg PUBLIC "-//W3C//DTD SVG 1.1//EN"
  "http://www.w3.org/Graphics/SVG/1.1/DTD/svg11.dtd">
<!-- Created with matplotlib (http://matplotlib.org/) -->
<svg height="360pt" version="1.1" viewBox="0 0 432 360" width="432pt" xmlns="http://www.w3.org/2000/svg" xmlns:xlink="http://www.w3.org/1999/xlink">
 <defs>
  <style type="text/css">
*{stroke-linecap:butt;stroke-linejoin:round;}
  </style>
 </defs>
 <g id="figure_1">
  <g id="patch_1">
   <path d="M 0 360 
L 432 360 
L 432 0 
L 0 0 
z
" style="fill:#ffffff;"/>
  </g>
  <g id="axes_1">
   <g id="patch_2">
    <path d="M 54 320.4 
L 388.8 320.4 
L 388.8 43.2 
L 54 43.2 
z
" style="fill:#ffffff;"/>
   </g>
   <g id="matplotlib.axis_1">
    <g id="xtick_1">
     <g id="line2d_1">
      <defs>
       <path d="M 0 0 
L 0 3.5 
" id="ma6a485e1c6" style="stroke:#000000;stroke-width:0.8;"/>
      </defs>
      <g>
       <use style="stroke:#000000;stroke-width:0.8;" x="69.218182" xlink:href="#ma6a485e1c6" y="320.4"/>
      </g>
     </g>
     <g id="text_1">
      <!-- 0 -->
      <defs>
       <path d="M 31.78125 66.40625 
Q 24.171875 66.40625 20.328125 58.90625 
Q 16.5 51.421875 16.5 36.375 
Q 16.5 21.390625 20.328125 13.890625 
Q 24.171875 6.390625 31.78125 6.390625 
Q 39.453125 6.390625 43.28125 13.890625 
Q 47.125 21.390625 47.125 36.375 
Q 47.125 51.421875 43.28125 58.90625 
Q 39.453125 66.40625 31.78125 66.40625 
z
M 31.78125 74.21875 
Q 44.046875 74.21875 50.515625 64.515625 
Q 56.984375 54.828125 56.984375 36.375 
Q 56.984375 17.96875 50.515625 8.265625 
Q 44.046875 -1.421875 31.78125 -1.421875 
Q 19.53125 -1.421875 13.0625 8.265625 
Q 6.59375 17.96875 6.59375 36.375 
Q 6.59375 54.828125 13.0625 64.515625 
Q 19.53125 74.21875 31.78125 74.21875 
z
" id="DejaVuSans-30"/>
      </defs>
      <g transform="translate(65.082557 337.277969)scale(0.13 -0.13)">
       <use xlink:href="#DejaVuSans-30"/>
      </g>
     </g>
    </g>
    <g id="xtick_2">
     <g id="line2d_2">
      <g>
       <use style="stroke:#000000;stroke-width:0.8;" x="130.090909" xlink:href="#ma6a485e1c6" y="320.4"/>
      </g>
     </g>
     <g id="text_2">
      <!-- 1 -->
      <defs>
       <path d="M 12.40625 8.296875 
L 28.515625 8.296875 
L 28.515625 63.921875 
L 10.984375 60.40625 
L 10.984375 69.390625 
L 28.421875 72.90625 
L 38.28125 72.90625 
L 38.28125 8.296875 
L 54.390625 8.296875 
L 54.390625 0 
L 12.40625 0 
z
" id="DejaVuSans-31"/>
      </defs>
      <g transform="translate(125.955284 337.277969)scale(0.13 -0.13)">
       <use xlink:href="#DejaVuSans-31"/>
      </g>
     </g>
    </g>
    <g id="xtick_3">
     <g id="line2d_3">
      <g>
       <use style="stroke:#000000;stroke-width:0.8;" x="190.963636" xlink:href="#ma6a485e1c6" y="320.4"/>
      </g>
     </g>
     <g id="text_3">
      <!-- 2 -->
      <defs>
       <path d="M 19.1875 8.296875 
L 53.609375 8.296875 
L 53.609375 0 
L 7.328125 0 
L 7.328125 8.296875 
Q 12.9375 14.109375 22.625 23.890625 
Q 32.328125 33.6875 34.8125 36.53125 
Q 39.546875 41.84375 41.421875 45.53125 
Q 43.3125 49.21875 43.3125 52.78125 
Q 43.3125 58.59375 39.234375 62.25 
Q 35.15625 65.921875 28.609375 65.921875 
Q 23.96875 65.921875 18.8125 64.3125 
Q 13.671875 62.703125 7.8125 59.421875 
L 7.8125 69.390625 
Q 13.765625 71.78125 18.9375 73 
Q 24.125 74.21875 28.421875 74.21875 
Q 39.75 74.21875 46.484375 68.546875 
Q 53.21875 62.890625 53.21875 53.421875 
Q 53.21875 48.921875 51.53125 44.890625 
Q 49.859375 40.875 45.40625 35.40625 
Q 44.1875 33.984375 37.640625 27.21875 
Q 31.109375 20.453125 19.1875 8.296875 
z
" id="DejaVuSans-32"/>
      </defs>
      <g transform="translate(186.828011 337.277969)scale(0.13 -0.13)">
       <use xlink:href="#DejaVuSans-32"/>
      </g>
     </g>
    </g>
    <g id="xtick_4">
     <g id="line2d_4">
      <g>
       <use style="stroke:#000000;stroke-width:0.8;" x="251.836364" xlink:href="#ma6a485e1c6" y="320.4"/>
      </g>
     </g>
     <g id="text_4">
      <!-- 3 -->
      <defs>
       <path d="M 40.578125 39.3125 
Q 47.65625 37.796875 51.625 33 
Q 55.609375 28.21875 55.609375 21.1875 
Q 55.609375 10.40625 48.1875 4.484375 
Q 40.765625 -1.421875 27.09375 -1.421875 
Q 22.515625 -1.421875 17.65625 -0.515625 
Q 12.796875 0.390625 7.625 2.203125 
L 7.625 11.71875 
Q 11.71875 9.328125 16.59375 8.109375 
Q 21.484375 6.890625 26.8125 6.890625 
Q 36.078125 6.890625 40.9375 10.546875 
Q 45.796875 14.203125 45.796875 21.1875 
Q 45.796875 27.640625 41.28125 31.265625 
Q 36.765625 34.90625 28.71875 34.90625 
L 20.21875 34.90625 
L 20.21875 43.015625 
L 29.109375 43.015625 
Q 36.375 43.015625 40.234375 45.921875 
Q 44.09375 48.828125 44.09375 54.296875 
Q 44.09375 59.90625 40.109375 62.90625 
Q 36.140625 65.921875 28.71875 65.921875 
Q 24.65625 65.921875 20.015625 65.03125 
Q 15.375 64.15625 9.8125 62.3125 
L 9.8125 71.09375 
Q 15.4375 72.65625 20.34375 73.4375 
Q 25.25 74.21875 29.59375 74.21875 
Q 40.828125 74.21875 47.359375 69.109375 
Q 53.90625 64.015625 53.90625 55.328125 
Q 53.90625 49.265625 50.4375 45.09375 
Q 46.96875 40.921875 40.578125 39.3125 
z
" id="DejaVuSans-33"/>
      </defs>
      <g transform="translate(247.700739 337.277969)scale(0.13 -0.13)">
       <use xlink:href="#DejaVuSans-33"/>
      </g>
     </g>
    </g>
    <g id="xtick_5">
     <g id="line2d_5">
      <g>
       <use style="stroke:#000000;stroke-width:0.8;" x="312.709091" xlink:href="#ma6a485e1c6" y="320.4"/>
      </g>
     </g>
     <g id="text_5">
      <!-- 4 -->
      <defs>
       <path d="M 37.796875 64.3125 
L 12.890625 25.390625 
L 37.796875 25.390625 
z
M 35.203125 72.90625 
L 47.609375 72.90625 
L 47.609375 25.390625 
L 58.015625 25.390625 
L 58.015625 17.1875 
L 47.609375 17.1875 
L 47.609375 0 
L 37.796875 0 
L 37.796875 17.1875 
L 4.890625 17.1875 
L 4.890625 26.703125 
z
" id="DejaVuSans-34"/>
      </defs>
      <g transform="translate(308.573466 337.277969)scale(0.13 -0.13)">
       <use xlink:href="#DejaVuSans-34"/>
      </g>
     </g>
    </g>
    <g id="xtick_6">
     <g id="line2d_6">
      <g>
       <use style="stroke:#000000;stroke-width:0.8;" x="373.581818" xlink:href="#ma6a485e1c6" y="320.4"/>
      </g>
     </g>
     <g id="text_6">
      <!-- 5 -->
      <defs>
       <path d="M 10.796875 72.90625 
L 49.515625 72.90625 
L 49.515625 64.59375 
L 19.828125 64.59375 
L 19.828125 46.734375 
Q 21.96875 47.46875 24.109375 47.828125 
Q 26.265625 48.1875 28.421875 48.1875 
Q 40.625 48.1875 47.75 41.5 
Q 54.890625 34.8125 54.890625 23.390625 
Q 54.890625 11.625 47.5625 5.09375 
Q 40.234375 -1.421875 26.90625 -1.421875 
Q 22.3125 -1.421875 17.546875 -0.640625 
Q 12.796875 0.140625 7.71875 1.703125 
L 7.71875 11.625 
Q 12.109375 9.234375 16.796875 8.0625 
Q 21.484375 6.890625 26.703125 6.890625 
Q 35.15625 6.890625 40.078125 11.328125 
Q 45.015625 15.765625 45.015625 23.390625 
Q 45.015625 31 40.078125 35.4375 
Q 35.15625 39.890625 26.703125 39.890625 
Q 22.75 39.890625 18.8125 39.015625 
Q 14.890625 38.140625 10.796875 36.28125 
z
" id="DejaVuSans-35"/>
      </defs>
      <g transform="translate(369.446193 337.277969)scale(0.13 -0.13)">
       <use xlink:href="#DejaVuSans-35"/>
      </g>
     </g>
    </g>
    <g id="text_7">
     <!-- $\tau$ -->
     <defs>
      <path d="M 32.859375 9.96875 
Q 34.1875 7.625 39.453125 7.625 
L 43.75 7.625 
L 42.28125 0 
L 36.921875 0 
Q 28.125 0 25 4.6875 
Q 21.921875 9.46875 23.96875 19.828125 
L 29 45.703125 
L 8.453125 45.703125 
L 10.203125 54.6875 
L 60.640625 54.6875 
L 58.890625 45.703125 
L 38.1875 45.703125 
L 33.015625 19.28125 
Q 31.640625 12.203125 32.859375 9.96875 
z
" id="DejaVuSans-Oblique-3c4"/>
     </defs>
     <g transform="translate(216.52 356.139063)scale(0.16 -0.16)">
      <use transform="translate(0 0.3125)" xlink:href="#DejaVuSans-Oblique-3c4"/>
     </g>
    </g>
   </g>
   <g id="matplotlib.axis_2">
    <g id="ytick_1">
     <g id="line2d_7">
      <defs>
       <path d="M 0 0 
L -3.5 0 
" id="m47c2681632" style="stroke:#000000;stroke-width:0.8;"/>
      </defs>
      <g>
       <use style="stroke:#000000;stroke-width:0.8;" x="54" xlink:href="#m47c2681632" y="307.8"/>
      </g>
     </g>
     <g id="text_8">
      <!-- 0.0 -->
      <defs>
       <path d="M 10.6875 12.40625 
L 21 12.40625 
L 21 0 
L 10.6875 0 
z
" id="DejaVuSans-2e"/>
      </defs>
      <g transform="translate(26.325937 312.738984)scale(0.13 -0.13)">
       <use xlink:href="#DejaVuSans-30"/>
       <use x="63.623047" xlink:href="#DejaVuSans-2e"/>
       <use x="95.410156" xlink:href="#DejaVuSans-30"/>
      </g>
     </g>
    </g>
    <g id="ytick_2">
     <g id="line2d_8">
      <g>
       <use style="stroke:#000000;stroke-width:0.8;" x="54" xlink:href="#m47c2681632" y="257.4"/>
      </g>
     </g>
     <g id="text_9">
      <!-- 0.2 -->
      <g transform="translate(26.325937 262.338984)scale(0.13 -0.13)">
       <use xlink:href="#DejaVuSans-30"/>
       <use x="63.623047" xlink:href="#DejaVuSans-2e"/>
       <use x="95.410156" xlink:href="#DejaVuSans-32"/>
      </g>
     </g>
    </g>
    <g id="ytick_3">
     <g id="line2d_9">
      <g>
       <use style="stroke:#000000;stroke-width:0.8;" x="54" xlink:href="#m47c2681632" y="207"/>
      </g>
     </g>
     <g id="text_10">
      <!-- 0.4 -->
      <g transform="translate(26.325937 211.938984)scale(0.13 -0.13)">
       <use xlink:href="#DejaVuSans-30"/>
       <use x="63.623047" xlink:href="#DejaVuSans-2e"/>
       <use x="95.410156" xlink:href="#DejaVuSans-34"/>
      </g>
     </g>
    </g>
    <g id="ytick_4">
     <g id="line2d_10">
      <g>
       <use style="stroke:#000000;stroke-width:0.8;" x="54" xlink:href="#m47c2681632" y="156.6"/>
      </g>
     </g>
     <g id="text_11">
      <!-- 0.6 -->
      <defs>
       <path d="M 33.015625 40.375 
Q 26.375 40.375 22.484375 35.828125 
Q 18.609375 31.296875 18.609375 23.390625 
Q 18.609375 15.53125 22.484375 10.953125 
Q 26.375 6.390625 33.015625 6.390625 
Q 39.65625 6.390625 43.53125 10.953125 
Q 47.40625 15.53125 47.40625 23.390625 
Q 47.40625 31.296875 43.53125 35.828125 
Q 39.65625 40.375 33.015625 40.375 
z
M 52.59375 71.296875 
L 52.59375 62.3125 
Q 48.875 64.0625 45.09375 64.984375 
Q 41.3125 65.921875 37.59375 65.921875 
Q 27.828125 65.921875 22.671875 59.328125 
Q 17.53125 52.734375 16.796875 39.40625 
Q 19.671875 43.65625 24.015625 45.921875 
Q 28.375 48.1875 33.59375 48.1875 
Q 44.578125 48.1875 50.953125 41.515625 
Q 57.328125 34.859375 57.328125 23.390625 
Q 57.328125 12.15625 50.6875 5.359375 
Q 44.046875 -1.421875 33.015625 -1.421875 
Q 20.359375 -1.421875 13.671875 8.265625 
Q 6.984375 17.96875 6.984375 36.375 
Q 6.984375 53.65625 15.1875 63.9375 
Q 23.390625 74.21875 37.203125 74.21875 
Q 40.921875 74.21875 44.703125 73.484375 
Q 48.484375 72.75 52.59375 71.296875 
z
" id="DejaVuSans-36"/>
      </defs>
      <g transform="translate(26.325937 161.538984)scale(0.13 -0.13)">
       <use xlink:href="#DejaVuSans-30"/>
       <use x="63.623047" xlink:href="#DejaVuSans-2e"/>
       <use x="95.410156" xlink:href="#DejaVuSans-36"/>
      </g>
     </g>
    </g>
    <g id="ytick_5">
     <g id="line2d_11">
      <g>
       <use style="stroke:#000000;stroke-width:0.8;" x="54" xlink:href="#m47c2681632" y="106.2"/>
      </g>
     </g>
     <g id="text_12">
      <!-- 0.8 -->
      <defs>
       <path d="M 31.78125 34.625 
Q 24.75 34.625 20.71875 30.859375 
Q 16.703125 27.09375 16.703125 20.515625 
Q 16.703125 13.921875 20.71875 10.15625 
Q 24.75 6.390625 31.78125 6.390625 
Q 38.8125 6.390625 42.859375 10.171875 
Q 46.921875 13.96875 46.921875 20.515625 
Q 46.921875 27.09375 42.890625 30.859375 
Q 38.875 34.625 31.78125 34.625 
z
M 21.921875 38.8125 
Q 15.578125 40.375 12.03125 44.71875 
Q 8.5 49.078125 8.5 55.328125 
Q 8.5 64.0625 14.71875 69.140625 
Q 20.953125 74.21875 31.78125 74.21875 
Q 42.671875 74.21875 48.875 69.140625 
Q 55.078125 64.0625 55.078125 55.328125 
Q 55.078125 49.078125 51.53125 44.71875 
Q 48 40.375 41.703125 38.8125 
Q 48.828125 37.15625 52.796875 32.3125 
Q 56.78125 27.484375 56.78125 20.515625 
Q 56.78125 9.90625 50.3125 4.234375 
Q 43.84375 -1.421875 31.78125 -1.421875 
Q 19.734375 -1.421875 13.25 4.234375 
Q 6.78125 9.90625 6.78125 20.515625 
Q 6.78125 27.484375 10.78125 32.3125 
Q 14.796875 37.15625 21.921875 38.8125 
z
M 18.3125 54.390625 
Q 18.3125 48.734375 21.84375 45.5625 
Q 25.390625 42.390625 31.78125 42.390625 
Q 38.140625 42.390625 41.71875 45.5625 
Q 45.3125 48.734375 45.3125 54.390625 
Q 45.3125 60.0625 41.71875 63.234375 
Q 38.140625 66.40625 31.78125 66.40625 
Q 25.390625 66.40625 21.84375 63.234375 
Q 18.3125 60.0625 18.3125 54.390625 
z
" id="DejaVuSans-38"/>
      </defs>
      <g transform="translate(26.325937 111.138984)scale(0.13 -0.13)">
       <use xlink:href="#DejaVuSans-30"/>
       <use x="63.623047" xlink:href="#DejaVuSans-2e"/>
       <use x="95.410156" xlink:href="#DejaVuSans-38"/>
      </g>
     </g>
    </g>
    <g id="ytick_6">
     <g id="line2d_12">
      <g>
       <use style="stroke:#000000;stroke-width:0.8;" x="54" xlink:href="#m47c2681632" y="55.8"/>
      </g>
     </g>
     <g id="text_13">
      <!-- 1.0 -->
      <g transform="translate(26.325937 60.738984)scale(0.13 -0.13)">
       <use xlink:href="#DejaVuSans-31"/>
       <use x="63.623047" xlink:href="#DejaVuSans-2e"/>
       <use x="95.410156" xlink:href="#DejaVuSans-30"/>
      </g>
     </g>
    </g>
    <g id="text_14">
     <!-- Probability -->
     <defs>
      <path d="M 19.671875 64.796875 
L 19.671875 37.40625 
L 32.078125 37.40625 
Q 38.96875 37.40625 42.71875 40.96875 
Q 46.484375 44.53125 46.484375 51.125 
Q 46.484375 57.671875 42.71875 61.234375 
Q 38.96875 64.796875 32.078125 64.796875 
z
M 9.8125 72.90625 
L 32.078125 72.90625 
Q 44.34375 72.90625 50.609375 67.359375 
Q 56.890625 61.8125 56.890625 51.125 
Q 56.890625 40.328125 50.609375 34.8125 
Q 44.34375 29.296875 32.078125 29.296875 
L 19.671875 29.296875 
L 19.671875 0 
L 9.8125 0 
z
" id="DejaVuSans-50"/>
      <path d="M 41.109375 46.296875 
Q 39.59375 47.171875 37.8125 47.578125 
Q 36.03125 48 33.890625 48 
Q 26.265625 48 22.1875 43.046875 
Q 18.109375 38.09375 18.109375 28.8125 
L 18.109375 0 
L 9.078125 0 
L 9.078125 54.6875 
L 18.109375 54.6875 
L 18.109375 46.1875 
Q 20.953125 51.171875 25.484375 53.578125 
Q 30.03125 56 36.53125 56 
Q 37.453125 56 38.578125 55.875 
Q 39.703125 55.765625 41.0625 55.515625 
z
" id="DejaVuSans-72"/>
      <path d="M 30.609375 48.390625 
Q 23.390625 48.390625 19.1875 42.75 
Q 14.984375 37.109375 14.984375 27.296875 
Q 14.984375 17.484375 19.15625 11.84375 
Q 23.34375 6.203125 30.609375 6.203125 
Q 37.796875 6.203125 41.984375 11.859375 
Q 46.1875 17.53125 46.1875 27.296875 
Q 46.1875 37.015625 41.984375 42.703125 
Q 37.796875 48.390625 30.609375 48.390625 
z
M 30.609375 56 
Q 42.328125 56 49.015625 48.375 
Q 55.71875 40.765625 55.71875 27.296875 
Q 55.71875 13.875 49.015625 6.21875 
Q 42.328125 -1.421875 30.609375 -1.421875 
Q 18.84375 -1.421875 12.171875 6.21875 
Q 5.515625 13.875 5.515625 27.296875 
Q 5.515625 40.765625 12.171875 48.375 
Q 18.84375 56 30.609375 56 
z
" id="DejaVuSans-6f"/>
      <path d="M 48.6875 27.296875 
Q 48.6875 37.203125 44.609375 42.84375 
Q 40.53125 48.484375 33.40625 48.484375 
Q 26.265625 48.484375 22.1875 42.84375 
Q 18.109375 37.203125 18.109375 27.296875 
Q 18.109375 17.390625 22.1875 11.75 
Q 26.265625 6.109375 33.40625 6.109375 
Q 40.53125 6.109375 44.609375 11.75 
Q 48.6875 17.390625 48.6875 27.296875 
z
M 18.109375 46.390625 
Q 20.953125 51.265625 25.265625 53.625 
Q 29.59375 56 35.59375 56 
Q 45.5625 56 51.78125 48.09375 
Q 58.015625 40.1875 58.015625 27.296875 
Q 58.015625 14.40625 51.78125 6.484375 
Q 45.5625 -1.421875 35.59375 -1.421875 
Q 29.59375 -1.421875 25.265625 0.953125 
Q 20.953125 3.328125 18.109375 8.203125 
L 18.109375 0 
L 9.078125 0 
L 9.078125 75.984375 
L 18.109375 75.984375 
z
" id="DejaVuSans-62"/>
      <path d="M 34.28125 27.484375 
Q 23.390625 27.484375 19.1875 25 
Q 14.984375 22.515625 14.984375 16.5 
Q 14.984375 11.71875 18.140625 8.90625 
Q 21.296875 6.109375 26.703125 6.109375 
Q 34.1875 6.109375 38.703125 11.40625 
Q 43.21875 16.703125 43.21875 25.484375 
L 43.21875 27.484375 
z
M 52.203125 31.203125 
L 52.203125 0 
L 43.21875 0 
L 43.21875 8.296875 
Q 40.140625 3.328125 35.546875 0.953125 
Q 30.953125 -1.421875 24.3125 -1.421875 
Q 15.921875 -1.421875 10.953125 3.296875 
Q 6 8.015625 6 15.921875 
Q 6 25.140625 12.171875 29.828125 
Q 18.359375 34.515625 30.609375 34.515625 
L 43.21875 34.515625 
L 43.21875 35.40625 
Q 43.21875 41.609375 39.140625 45 
Q 35.0625 48.390625 27.6875 48.390625 
Q 23 48.390625 18.546875 47.265625 
Q 14.109375 46.140625 10.015625 43.890625 
L 10.015625 52.203125 
Q 14.9375 54.109375 19.578125 55.046875 
Q 24.21875 56 28.609375 56 
Q 40.484375 56 46.34375 49.84375 
Q 52.203125 43.703125 52.203125 31.203125 
z
" id="DejaVuSans-61"/>
      <path d="M 9.421875 54.6875 
L 18.40625 54.6875 
L 18.40625 0 
L 9.421875 0 
z
M 9.421875 75.984375 
L 18.40625 75.984375 
L 18.40625 64.59375 
L 9.421875 64.59375 
z
" id="DejaVuSans-69"/>
      <path d="M 9.421875 75.984375 
L 18.40625 75.984375 
L 18.40625 0 
L 9.421875 0 
z
" id="DejaVuSans-6c"/>
      <path d="M 18.3125 70.21875 
L 18.3125 54.6875 
L 36.8125 54.6875 
L 36.8125 47.703125 
L 18.3125 47.703125 
L 18.3125 18.015625 
Q 18.3125 11.328125 20.140625 9.421875 
Q 21.96875 7.515625 27.59375 7.515625 
L 36.8125 7.515625 
L 36.8125 0 
L 27.59375 0 
Q 17.1875 0 13.234375 3.875 
Q 9.28125 7.765625 9.28125 18.015625 
L 9.28125 47.703125 
L 2.6875 47.703125 
L 2.6875 54.6875 
L 9.28125 54.6875 
L 9.28125 70.21875 
z
" id="DejaVuSans-74"/>
      <path d="M 32.171875 -5.078125 
Q 28.375 -14.84375 24.75 -17.8125 
Q 21.140625 -20.796875 15.09375 -20.796875 
L 7.90625 -20.796875 
L 7.90625 -13.28125 
L 13.1875 -13.28125 
Q 16.890625 -13.28125 18.9375 -11.515625 
Q 21 -9.765625 23.484375 -3.21875 
L 25.09375 0.875 
L 2.984375 54.6875 
L 12.5 54.6875 
L 29.59375 11.921875 
L 46.6875 54.6875 
L 56.203125 54.6875 
z
" id="DejaVuSans-79"/>
     </defs>
     <g transform="translate(18.998437 224.4025)rotate(-90)scale(0.16 -0.16)">
      <use xlink:href="#DejaVuSans-50"/>
      <use x="60.287109" xlink:href="#DejaVuSans-72"/>
      <use x="101.369141" xlink:href="#DejaVuSans-6f"/>
      <use x="162.550781" xlink:href="#DejaVuSans-62"/>
      <use x="226.027344" xlink:href="#DejaVuSans-61"/>
      <use x="287.306641" xlink:href="#DejaVuSans-62"/>
      <use x="350.783203" xlink:href="#DejaVuSans-69"/>
      <use x="378.566406" xlink:href="#DejaVuSans-6c"/>
      <use x="406.349609" xlink:href="#DejaVuSans-69"/>
      <use x="434.132812" xlink:href="#DejaVuSans-74"/>
      <use x="473.341797" xlink:href="#DejaVuSans-79"/>
     </g>
    </g>
   </g>
   <g id="line2d_13">
    <path clip-path="url(#p89b2bd2fb0)" d="M 69.218182 55.8 
L 69.218182 76.212 
L 75.305455 76.212 
L 75.305455 96.12 
L 81.392727 96.12 
L 81.392727 110.862 
L 87.48 110.862 
L 87.48 122.832 
L 93.567273 122.832 
L 93.567273 133.542 
L 99.654545 133.542 
L 99.654545 139.59 
L 105.741818 139.59 
L 105.741818 144.882 
L 111.829091 144.882 
L 111.829091 148.536 
L 117.916364 148.536 
L 117.916364 150.3 
L 124.003636 150.3 
L 124.003636 151.56 
L 130.090909 151.56 
L 130.090909 152.694 
L 136.178182 152.694 
L 136.178182 153.954 
L 142.265455 153.954 
L 142.265455 154.71 
L 148.352727 154.71 
L 148.352727 156.096 
L 154.44 156.096 
L 154.44 157.986 
L 160.527273 157.986 
L 160.527273 160.758 
L 166.614545 160.758 
L 166.614545 165.42 
L 172.701818 165.42 
L 172.701818 172.224 
L 178.789091 172.224 
L 178.789091 179.406 
L 184.876364 179.406 
L 184.876364 188.352 
L 190.963636 188.352 
L 190.963636 199.944 
L 197.050909 199.944 
L 197.050909 217.332 
L 203.138182 217.332 
L 203.138182 238.626 
L 209.225455 238.626 
L 209.225455 258.786 
L 215.312727 258.786 
L 215.312727 276.552 
L 221.4 276.552 
L 221.4 291.546 
L 227.487273 291.546 
L 227.487273 301.374 
L 233.574545 301.374 
L 233.574545 305.658 
L 239.661818 305.658 
L 239.661818 307.17 
L 245.749091 307.17 
L 245.749091 307.8 
L 251.836364 307.8 
L 251.836364 307.8 
L 257.923636 307.8 
L 257.923636 307.8 
L 264.010909 307.8 
L 264.010909 307.8 
L 270.098182 307.8 
L 270.098182 307.8 
L 276.185455 307.8 
L 276.185455 307.8 
L 282.272727 307.8 
L 282.272727 307.8 
L 288.36 307.8 
L 288.36 307.8 
L 294.447273 307.8 
L 294.447273 307.8 
L 300.534545 307.8 
L 300.534545 307.8 
L 306.621818 307.8 
L 306.621818 307.8 
L 312.709091 307.8 
L 312.709091 307.8 
L 318.796364 307.8 
L 318.796364 307.8 
L 324.883636 307.8 
L 324.883636 307.8 
L 330.970909 307.8 
L 330.970909 307.8 
L 337.058182 307.8 
L 337.058182 307.8 
L 343.145455 307.8 
L 343.145455 307.8 
L 349.232727 307.8 
L 349.232727 307.8 
L 355.32 307.8 
L 355.32 307.8 
L 361.407273 307.8 
L 361.407273 307.8 
L 367.494545 307.8 
L 367.494545 307.8 
L 373.581818 307.8 
" style="fill:none;opacity:0.5;stroke:#0000ff;stroke-linecap:square;stroke-width:2;"/>
   </g>
   <g id="line2d_14">
    <path clip-path="url(#p89b2bd2fb0)" d="M 69.218182 55.8 
L 69.218182 72.936 
L 75.305455 72.936 
L 75.305455 89.82 
L 81.392727 89.82 
L 81.392727 104.562 
L 87.48 104.562 
L 87.48 118.548 
L 93.567273 118.548 
L 93.567273 126.864 
L 99.654545 126.864 
L 99.654545 133.92 
L 105.741818 133.92 
L 105.741818 138.96 
L 111.829091 138.96 
L 111.829091 142.488 
L 117.916364 142.488 
L 117.916364 145.512 
L 124.003636 145.512 
L 124.003636 147.024 
L 130.090909 147.024 
L 130.090909 148.41 
L 136.178182 148.41 
L 136.178182 148.662 
L 142.265455 148.662 
L 142.265455 149.166 
L 148.352727 149.166 
L 148.352727 150.552 
L 154.44 150.552 
L 154.44 152.82 
L 160.527273 152.82 
L 160.527273 155.34 
L 166.614545 155.34 
L 166.614545 159.75 
L 172.701818 159.75 
L 172.701818 165.42 
L 178.789091 165.42 
L 178.789091 172.35 
L 184.876364 172.35 
L 184.876364 181.674 
L 190.963636 181.674 
L 190.963636 192.258 
L 197.050909 192.258 
L 197.050909 204.606 
L 203.138182 204.606 
L 203.138182 218.718 
L 209.225455 218.718 
L 209.225455 230.436 
L 215.312727 230.436 
L 215.312727 242.028 
L 221.4 242.028 
L 221.4 252.36 
L 227.487273 252.36 
L 227.487273 261.432 
L 233.574545 261.432 
L 233.574545 268.614 
L 239.661818 268.614 
L 239.661818 273.78 
L 245.749091 273.78 
L 245.749091 276.93 
L 251.836364 276.93 
L 251.836364 279.954 
L 257.923636 279.954 
L 257.923636 280.962 
L 264.010909 280.962 
L 264.010909 282.096 
L 270.098182 282.096 
L 270.098182 282.6 
L 276.185455 282.6 
L 276.185455 283.356 
L 282.272727 283.356 
L 282.272727 283.356 
L 288.36 283.356 
L 288.36 283.608 
L 294.447273 283.608 
L 294.447273 283.986 
L 300.534545 283.986 
L 300.534545 284.742 
L 306.621818 284.742 
L 306.621818 285.12 
L 312.709091 285.12 
L 312.709091 286.002 
L 318.796364 286.002 
L 318.796364 287.01 
L 324.883636 287.01 
L 324.883636 288.018 
L 330.970909 288.018 
L 330.970909 289.278 
L 337.058182 289.278 
L 337.058182 292.05 
L 343.145455 292.05 
L 343.145455 294.066 
L 349.232727 294.066 
L 349.232727 296.586 
L 355.32 296.586 
L 355.32 299.358 
L 361.407273 299.358 
L 361.407273 301.626 
L 367.494545 301.626 
L 367.494545 304.272 
L 373.581818 304.272 
" style="fill:none;opacity:0.5;stroke:#ff0000;stroke-linecap:square;stroke-width:2;"/>
   </g>
   <g id="line2d_15">
    <path clip-path="url(#p89b2bd2fb0)" d="M 69.218182 55.8 
L 79.587284 90.215423 
L 81.417125 96.179086 
L 87.516597 110.933964 
L 94.226016 123.990998 
L 99.71554 133.602601 
L 106.424959 140.183892 
L 111.914484 144.933259 
L 118.013955 148.564281 
L 125.333321 150.57523 
L 135.092476 152.491743 
L 141.191948 153.731796 
L 143.631736 154.123683 
L 149.121261 154.884986 
L 155.220732 156.338405 
L 161.320204 158.347082 
L 166.809729 160.907483 
L 172.9092 165.6518 
L 181.448461 175.361627 
L 185.108144 179.746629 
L 191.207615 188.816609 
L 196.69714 199.270317 
L 197.307087 200.67576 
L 203.406559 218.270814 
L 211.335872 245.615339 
L 216.215449 261.420637 
L 221.704974 277.303202 
L 227.804445 292.05808 
L 233.29397 300.921006 
L 233.903917 301.6058 
L 239.393441 305.469126 
L 240.003389 305.742842 
L 246.10286 307.206613 
L 252.812279 307.8 
L 373.581818 307.8 
L 373.581818 307.8 
" style="fill:none;stroke:#0000ff;stroke-dasharray:7.4,3.2;stroke-dashoffset:0;stroke-width:2;"/>
   </g>
   <g id="line2d_16">
    <path clip-path="url(#p89b2bd2fb0)" d="M 69.218182 55.8 
L 81.417125 89.879086 
L 89.346438 108.850293 
L 93.616069 118.614661 
L 100.325487 127.641715 
L 105.815012 133.980601 
L 111.914484 139.009491 
L 119.23385 143.142493 
L 124.113427 145.539271 
L 135.092476 148.162798 
L 136.31237 148.415555 
L 144.851631 148.876124 
L 149.121261 149.340986 
L 155.220732 150.842886 
L 163.150046 153.905772 
L 166.809729 155.481403 
L 172.9092 159.943166 
L 179.008672 165.66998 
L 185.108144 172.705022 
L 191.817562 183.158729 
L 197.307087 192.777655 
L 203.406559 205.228172 
L 209.50603 219.258108 
L 221.704974 242.545635 
L 228.414392 253.741707 
L 233.903917 261.820605 
L 240.003389 268.903876 
L 246.10286 273.963066 
L 257.691856 279.838858 
L 258.911751 280.117623 
L 269.280853 281.943739 
L 271.110694 282.179832 
L 278.43006 282.878766 
L 282.69969 283.356 
L 290.629003 283.449932 
L 299.778211 283.939034 
L 302.218 284.195074 
L 308.317471 284.847295 
L 313.806996 285.279078 
L 324.176098 286.892838 
L 333.325305 288.505335 
L 336.984988 289.26285 
L 341.254618 291.188958 
L 343.694407 292.231804 
L 350.403826 294.55081 
L 357.723192 297.680357 
L 362.602769 299.803419 
L 369.312188 302.416088 
L 373.581818 304.272 
L 373.581818 304.272 
" style="fill:none;stroke:#ff0000;stroke-dasharray:7.4,3.2;stroke-dashoffset:0;stroke-width:2;"/>
   </g>
   <g id="line2d_17">
    <path clip-path="url(#p89b2bd2fb0)" d="M 69.218182 55.8 
L 180.838513 55.892889 
L 185.108144 56.112952 
L 188.157879 56.494924 
L 190.597668 57.062046 
L 192.42751 57.727515 
L 194.257351 58.684356 
L 195.477245 59.531256 
L 196.69714 60.58378 
L 197.917034 61.878845 
L 199.136928 63.456498 
L 200.356823 65.359287 
L 201.576717 67.6314 
L 202.796611 70.31754 
L 204.016506 73.461575 
L 205.2364 77.104967 
L 206.456294 81.285041 
L 207.676189 86.033164 
L 209.50603 94.269413 
L 211.335872 103.872062 
L 213.165713 114.819117 
L 214.995555 127.021598 
L 217.435343 144.961558 
L 220.485079 169.264668 
L 226.584551 218.638442 
L 229.02434 236.578402 
L 230.854181 248.780883 
L 232.684023 259.727938 
L 234.513864 269.330587 
L 236.343706 277.566836 
L 238.173547 284.474203 
L 239.393441 288.381599 
L 240.613336 291.770346 
L 241.83323 294.680062 
L 243.053124 297.153619 
L 244.273019 299.235485 
L 245.492913 300.970262 
L 246.712807 302.401441 
L 247.932702 303.570414 
L 249.152596 304.515724 
L 250.982438 305.590314 
L 252.812279 306.343292 
L 254.642121 306.859194 
L 257.081909 307.291408 
L 260.131645 307.576213 
L 265.011222 307.746715 
L 275.380324 307.798473 
L 373.581818 307.8 
L 373.581818 307.8 
" style="fill:none;stroke:#008000;stroke-linecap:square;stroke-width:2;"/>
   </g>
   <g id="patch_3">
    <path d="M 54 320.4 
L 54 43.2 
" style="fill:none;stroke:#000000;stroke-linecap:square;stroke-linejoin:miter;stroke-width:0.8;"/>
   </g>
   <g id="patch_4">
    <path d="M 388.8 320.4 
L 388.8 43.2 
" style="fill:none;stroke:#000000;stroke-linecap:square;stroke-linejoin:miter;stroke-width:0.8;"/>
   </g>
   <g id="patch_5">
    <path d="M 54 320.4 
L 388.8 320.4 
" style="fill:none;stroke:#000000;stroke-linecap:square;stroke-linejoin:miter;stroke-width:0.8;"/>
   </g>
   <g id="patch_6">
    <path d="M 54 43.2 
L 388.8 43.2 
" style="fill:none;stroke:#000000;stroke-linecap:square;stroke-linejoin:miter;stroke-width:0.8;"/>
   </g>
   <g id="legend_1">
    <g id="patch_7">
     <path d="M 251.4 133.95 
L 378.3 133.95 
Q 381.3 133.95 381.3 130.95 
L 381.3 53.7 
Q 381.3 50.7 378.3 50.7 
L 251.4 50.7 
Q 248.4 50.7 248.4 53.7 
L 248.4 130.95 
Q 248.4 133.95 251.4 133.95 
z
" style="fill:#ffffff;opacity:0.8;stroke:#cccccc;stroke-linejoin:miter;"/>
    </g>
    <g id="line2d_18">
     <path d="M 254.4 67.95 
L 284.4 67.95 
" style="fill:none;stroke:#0000ff;stroke-dasharray:7.4,3.2;stroke-dashoffset:0;stroke-width:2;"/>
    </g>
    <g id="line2d_19"/>
    <g id="text_15">
     <!-- $\hat{\Phi}_{(u,v)\in\mathcal{G}}(\tau)$ -->
     <defs>
      <path d="M -28.609375 79.984375 
L -21.390625 79.984375 
L -9.421875 61.625 
L -16.21875 61.625 
L -25 73.578125 
L -33.796875 61.625 
L -40.578125 61.625 
z
M -25 56 
z
" id="DejaVuSans-302"/>
      <path d="M 34.46875 56.9375 
Q 27.15625 55.90625 22.359375 51.65625 
Q 16.015625 46.046875 16.015625 36.375 
Q 16.015625 26.765625 22.359375 21.140625 
Q 27.15625 16.890625 34.46875 15.875 
z
M 44.34375 15.875 
Q 51.65625 16.890625 56.453125 21.140625 
Q 62.703125 26.765625 62.703125 36.375 
Q 62.703125 46.046875 56.453125 51.65625 
Q 51.65625 55.90625 44.34375 56.9375 
z
M 34.46875 7.71875 
Q 22.5625 8.796875 14.84375 15.328125 
Q 5.609375 23.140625 5.609375 36.375 
Q 5.609375 49.609375 14.84375 57.46875 
Q 22.515625 64.0625 34.46875 65.140625 
L 34.46875 72.90625 
L 44.34375 72.90625 
L 44.34375 65.140625 
Q 56.25 64.015625 63.921875 57.46875 
Q 73.09375 49.609375 73.09375 36.375 
Q 73.09375 23.1875 63.921875 15.328125 
Q 56.25 8.796875 44.34375 7.671875 
L 44.34375 0 
L 34.46875 0 
z
" id="DejaVuSans-3a6"/>
      <path d="M 31 75.875 
Q 24.46875 64.65625 21.28125 53.65625 
Q 18.109375 42.671875 18.109375 31.390625 
Q 18.109375 20.125 21.3125 9.0625 
Q 24.515625 -2 31 -13.1875 
L 23.1875 -13.1875 
Q 15.875 -1.703125 12.234375 9.375 
Q 8.59375 20.453125 8.59375 31.390625 
Q 8.59375 42.28125 12.203125 53.3125 
Q 15.828125 64.359375 23.1875 75.875 
z
" id="DejaVuSans-28"/>
      <path d="M 6.6875 21.6875 
L 13.09375 54.6875 
L 22.125 54.6875 
L 15.71875 22.015625 
Q 15.234375 19.625 15.015625 17.921875 
Q 14.796875 16.21875 14.796875 15.09375 
Q 14.796875 10.9375 17.328125 8.65625 
Q 19.875 6.390625 24.515625 6.390625 
Q 31.734375 6.390625 37 11.265625 
Q 42.28125 16.15625 43.890625 24.421875 
L 49.90625 54.6875 
L 58.890625 54.6875 
L 48.296875 0 
L 39.3125 0 
L 41.109375 8.59375 
Q 37.3125 3.8125 32.0625 1.1875 
Q 26.8125 -1.421875 20.90625 -1.421875 
Q 13.71875 -1.421875 9.71875 2.515625 
Q 5.71875 6.453125 5.71875 13.484375 
Q 5.71875 14.9375 5.953125 17.140625 
Q 6.203125 19.34375 6.6875 21.6875 
z
" id="DejaVuSans-Oblique-75"/>
      <path d="M 11.71875 12.40625 
L 22.015625 12.40625 
L 22.015625 4 
L 14.015625 -11.625 
L 7.71875 -11.625 
L 11.71875 4 
z
" id="DejaVuSans-2c"/>
      <path d="M 7.171875 54.6875 
L 16.703125 54.6875 
L 24.703125 8.203125 
L 50.875 54.6875 
L 60.40625 54.6875 
L 29.296875 0 
L 17.1875 0 
z
" id="DejaVuSans-Oblique-76"/>
      <path d="M 8.015625 75.875 
L 15.828125 75.875 
Q 23.140625 64.359375 26.78125 53.3125 
Q 30.421875 42.28125 30.421875 31.390625 
Q 30.421875 20.453125 26.78125 9.375 
Q 23.140625 -1.703125 15.828125 -13.1875 
L 8.015625 -13.1875 
Q 14.5 -2 17.703125 9.0625 
Q 20.90625 20.125 20.90625 31.390625 
Q 20.90625 42.671875 17.703125 53.65625 
Q 14.5 64.65625 8.015625 75.875 
z
" id="DejaVuSans-29"/>
      <path d="M 16.75 30.609375 
Q 17.09375 27 20.171875 21.140625 
Q 23.78125 14.359375 30.609375 10.546875 
Q 37.3125 6.84375 44.53125 6.78125 
L 78.5625 6.78125 
L 78.5625 -0.984375 
L 44.53125 -0.984375 
Q 35.15625 -0.984375 26.484375 3.84375 
Q 17.828125 8.6875 13.1875 17.28125 
Q 8.546875 25.875 8.546875 35.015625 
Q 8.546875 44.046875 13.1875 52.640625 
Q 17.828125 61.234375 26.484375 66.109375 
Q 35.15625 71 44.53125 71 
L 78.5625 71 
L 78.5625 63.234375 
L 44.53125 63.234375 
Q 37.3125 63.1875 30.609375 59.421875 
Q 23.828125 55.5625 20.171875 48.828125 
Q 17.046875 42.96875 16.609375 38.421875 
L 78.5625 38.421875 
L 78.5625 30.609375 
z
" id="DejaVuSans-2208"/>
      <path d="M 42.5 9.09375 
L 42 9.296875 
Q 35.09375 3.796875 25.40625 3.796875 
Q 16.5 3.796875 10.25 9.046875 
Q 4 14.296875 4 24.203125 
Q 4 35.5 10.390625 45.546875 
Q 16.796875 55.59375 26.546875 61.34375 
Q 36.296875 67.09375 46.09375 67.09375 
Q 51.5 67.09375 54.75 64.59375 
Q 58 62.09375 58 57.703125 
Q 58 55 55.640625 52.203125 
Q 53.296875 49.40625 50.203125 49.40625 
Q 48 49.40625 46.453125 50.90625 
Q 44.90625 52.40625 44.90625 54.40625 
Q 44.90625 56.09375 45.703125 57.1875 
Q 46.5 58.296875 47.390625 58.75 
Q 48.296875 59.203125 49.09375 59.75 
Q 49.90625 60.296875 49.90625 61 
Q 49.90625 62.203125 48.453125 62.890625 
Q 47 63.59375 45.09375 63.59375 
Q 37.203125 63.59375 29.890625 57.84375 
Q 22.59375 52.09375 18.296875 42.296875 
Q 14.703125 34.09375 14.703125 23.703125 
Q 14.703125 15.796875 18.296875 11.9375 
Q 21.90625 8.09375 27.703125 8.09375 
Q 36.703125 8.09375 44.203125 14.5 
Q 51.703125 20.90625 53.5 31.296875 
L 55.796875 31.703125 
Q 56 30.703125 56 28.296875 
Q 56 19 51.640625 8.546875 
Q 47.296875 -1.90625 39.703125 -7.40625 
Q 31.796875 -13.09375 21.09375 -13.09375 
Q 10.59375 -13.09375 5.703125 -7.703125 
L 7.203125 -5.796875 
Q 8.796875 -7.59375 12.75 -8.59375 
Q 16.703125 -9.59375 20.296875 -9.59375 
Q 27.09375 -9.59375 33.34375 -4 
Q 39.59375 1.59375 42.5 9.09375 
z
" id="STIXNonUnicode-Italic-e233"/>
     </defs>
     <g transform="translate(296.4 73.2)scale(0.15 -0.15)">
      <use transform="translate(74.255859 30.015625)" xlink:href="#DejaVuSans-302"/>
      <use transform="translate(0 0.609375)" xlink:href="#DejaVuSans-3a6"/>
      <use transform="translate(79.667969 -15.796875)scale(0.7)" xlink:href="#DejaVuSans-28"/>
      <use transform="translate(106.977539 -15.796875)scale(0.7)" xlink:href="#DejaVuSans-Oblique-75"/>
      <use transform="translate(151.342773 -15.796875)scale(0.7)" xlink:href="#DejaVuSans-2c"/>
      <use transform="translate(187.231445 -15.796875)scale(0.7)" xlink:href="#DejaVuSans-Oblique-76"/>
      <use transform="translate(228.657227 -15.796875)scale(0.7)" xlink:href="#DejaVuSans-29"/>
      <use transform="translate(269.604492 -15.796875)scale(0.7)" xlink:href="#DejaVuSans-2208"/>
      <use transform="translate(344.21875 -15.796875)scale(0.7)" xlink:href="#STIXNonUnicode-Italic-e233"/>
      <use transform="translate(387.553114 0.609375)" xlink:href="#DejaVuSans-28"/>
      <use transform="translate(426.566786 0.609375)" xlink:href="#DejaVuSans-Oblique-3c4"/>
      <use transform="translate(486.771864 0.609375)" xlink:href="#DejaVuSans-29"/>
     </g>
    </g>
    <g id="line2d_20">
     <path d="M 254.4 95.85 
L 284.4 95.85 
" style="fill:none;stroke:#ff0000;stroke-dasharray:7.4,3.2;stroke-dashoffset:0;stroke-width:2;"/>
    </g>
    <g id="line2d_21"/>
    <g id="text_16">
     <!-- $\hat{\Phi}_{(u,v)\notin\mathcal{G}}(\tau)$ -->
     <defs>
      <path d="M 60.546875 83.546875 
L 67.875 80.859375 
L 64.3125 71 
L 78.5625 71 
L 78.5625 63.234375 
L 61.46875 63.234375 
L 52.4375 38.421875 
L 78.5625 38.421875 
L 78.5625 30.609375 
L 49.609375 30.609375 
L 41.015625 7.03125 
Q 42.78125 6.78125 44.53125 6.78125 
L 78.5625 6.78125 
L 78.5625 -0.984375 
L 44.53125 -0.984375 
Q 41.359375 -0.984375 38.28125 -0.4375 
L 33.40625 -13.8125 
L 26.078125 -11.140625 
L 30.765625 1.765625 
Q 28.609375 2.6875 26.46875 3.859375 
Q 17.828125 8.6875 13.1875 17.28125 
Q 8.546875 25.875 8.546875 35.015625 
Q 8.546875 44.046875 13.1875 52.640625 
Q 17.828125 61.234375 26.484375 66.109375 
Q 35.15625 71 44.53125 71 
L 55.953125 71 
z
M 16.75 30.609375 
Q 16.75 27 20.171875 21.140625 
Q 24.3125 14.0625 30.609375 10.546875 
Q 32.03125 9.765625 33.453125 9.125 
L 41.265625 30.609375 
z
M 44.140625 38.421875 
L 53.125 63.234375 
L 44.53125 63.234375 
Q 37.359375 63.234375 30.609375 59.421875 
Q 24.515625 55.953125 20.171875 48.828125 
Q 16.609375 42.96875 16.609375 38.421875 
z
" id="DejaVuSans-2209"/>
     </defs>
     <g transform="translate(296.4 101.1)scale(0.15 -0.15)">
      <use transform="translate(74.255859 30.015625)" xlink:href="#DejaVuSans-302"/>
      <use transform="translate(0 0.609375)" xlink:href="#DejaVuSans-3a6"/>
      <use transform="translate(79.667969 -15.796875)scale(0.7)" xlink:href="#DejaVuSans-28"/>
      <use transform="translate(106.977539 -15.796875)scale(0.7)" xlink:href="#DejaVuSans-Oblique-75"/>
      <use transform="translate(151.342773 -15.796875)scale(0.7)" xlink:href="#DejaVuSans-2c"/>
      <use transform="translate(187.231445 -15.796875)scale(0.7)" xlink:href="#DejaVuSans-Oblique-76"/>
      <use transform="translate(228.657227 -15.796875)scale(0.7)" xlink:href="#DejaVuSans-29"/>
      <use transform="translate(255.966797 -15.796875)scale(0.7)" xlink:href="#DejaVuSans-2209"/>
      <use transform="translate(316.943359 -15.796875)scale(0.7)" xlink:href="#STIXNonUnicode-Italic-e233"/>
      <use transform="translate(360.277724 0.609375)" xlink:href="#DejaVuSans-28"/>
      <use transform="translate(399.291396 0.609375)" xlink:href="#DejaVuSans-Oblique-3c4"/>
      <use transform="translate(459.496474 0.609375)" xlink:href="#DejaVuSans-29"/>
     </g>
    </g>
    <g id="line2d_22">
     <path d="M 254.4 118.8 
L 284.4 118.8 
" style="fill:none;stroke:#008000;stroke-linecap:square;stroke-width:2;"/>
    </g>
    <g id="line2d_23"/>
    <g id="text_17">
     <!-- $\Phi_{(u,v)\in\mathcal{G}}(\tau)$ -->
     <g transform="translate(296.4 124.05)scale(0.15 -0.15)">
      <use transform="translate(0 0.125)" xlink:href="#DejaVuSans-3a6"/>
      <use transform="translate(79.667969 -16.28125)scale(0.7)" xlink:href="#DejaVuSans-28"/>
      <use transform="translate(106.977539 -16.28125)scale(0.7)" xlink:href="#DejaVuSans-Oblique-75"/>
      <use transform="translate(151.342773 -16.28125)scale(0.7)" xlink:href="#DejaVuSans-2c"/>
      <use transform="translate(187.231445 -16.28125)scale(0.7)" xlink:href="#DejaVuSans-Oblique-76"/>
      <use transform="translate(228.657227 -16.28125)scale(0.7)" xlink:href="#DejaVuSans-29"/>
      <use transform="translate(269.604492 -16.28125)scale(0.7)" xlink:href="#DejaVuSans-2208"/>
      <use transform="translate(344.21875 -16.28125)scale(0.7)" xlink:href="#STIXNonUnicode-Italic-e233"/>
      <use transform="translate(387.553114 0.125)" xlink:href="#DejaVuSans-28"/>
      <use transform="translate(426.566786 0.125)" xlink:href="#DejaVuSans-Oblique-3c4"/>
      <use transform="translate(486.771864 0.125)" xlink:href="#DejaVuSans-29"/>
     </g>
    </g>
   </g>
  </g>
 </g>
 <defs>
  <clipPath id="p89b2bd2fb0">
   <rect height="277.2" width="334.8" x="54" y="43.2"/>
  </clipPath>
 </defs>
</svg>
