<?xml version="1.0" encoding="utf-8" standalone="no"?>
<!DOCTYPE svg PUBLIC "-//W3C//DTD SVG 1.1//EN"
  "http://www.w3.org/Graphics/SVG/1.1/DTD/svg11.dtd">
<!-- Created with matplotlib (http://matplotlib.org/) -->
<svg height="360pt" version="1.1" viewBox="0 0 432 360" width="432pt" xmlns="http://www.w3.org/2000/svg" xmlns:xlink="http://www.w3.org/1999/xlink">
 <defs>
  <style type="text/css">
*{stroke-linecap:butt;stroke-linejoin:round;}
  </style>
 </defs>
 <g id="figure_1">
  <g id="patch_1">
   <path d="M 0 360 
L 432 360 
L 432 0 
L 0 0 
z
" style="fill:#ffffff;"/>
  </g>
  <g id="axes_1">
   <g id="patch_2">
    <path d="M 54 320.4 
L 388.8 320.4 
L 388.8 43.2 
L 54 43.2 
z
" style="fill:#ffffff;"/>
   </g>
   <g id="matplotlib.axis_1">
    <g id="xtick_1">
     <g id="line2d_1">
      <defs>
       <path d="M 0 0 
L 0 3.5 
" id="m8beb9d570b" style="stroke:#000000;stroke-width:0.8;"/>
      </defs>
      <g>
       <use style="stroke:#000000;stroke-width:0.8;" x="69.218182" xlink:href="#m8beb9d570b" y="320.4"/>
      </g>
     </g>
     <g id="text_1">
      <!-- 0 -->
      <defs>
       <path d="M 31.78125 66.40625 
Q 24.171875 66.40625 20.328125 58.90625 
Q 16.5 51.421875 16.5 36.375 
Q 16.5 21.390625 20.328125 13.890625 
Q 24.171875 6.390625 31.78125 6.390625 
Q 39.453125 6.390625 43.28125 13.890625 
Q 47.125 21.390625 47.125 36.375 
Q 47.125 51.421875 43.28125 58.90625 
Q 39.453125 66.40625 31.78125 66.40625 
z
M 31.78125 74.21875 
Q 44.046875 74.21875 50.515625 64.515625 
Q 56.984375 54.828125 56.984375 36.375 
Q 56.984375 17.96875 50.515625 8.265625 
Q 44.046875 -1.421875 31.78125 -1.421875 
Q 19.53125 -1.421875 13.0625 8.265625 
Q 6.59375 17.96875 6.59375 36.375 
Q 6.59375 54.828125 13.0625 64.515625 
Q 19.53125 74.21875 31.78125 74.21875 
z
" id="DejaVuSans-30"/>
      </defs>
      <g transform="translate(65.082557 337.277969)scale(0.13 -0.13)">
       <use xlink:href="#DejaVuSans-30"/>
      </g>
     </g>
    </g>
    <g id="xtick_2">
     <g id="line2d_2">
      <g>
       <use style="stroke:#000000;stroke-width:0.8;" x="130.090909" xlink:href="#m8beb9d570b" y="320.4"/>
      </g>
     </g>
     <g id="text_2">
      <!-- 1 -->
      <defs>
       <path d="M 12.40625 8.296875 
L 28.515625 8.296875 
L 28.515625 63.921875 
L 10.984375 60.40625 
L 10.984375 69.390625 
L 28.421875 72.90625 
L 38.28125 72.90625 
L 38.28125 8.296875 
L 54.390625 8.296875 
L 54.390625 0 
L 12.40625 0 
z
" id="DejaVuSans-31"/>
      </defs>
      <g transform="translate(125.955284 337.277969)scale(0.13 -0.13)">
       <use xlink:href="#DejaVuSans-31"/>
      </g>
     </g>
    </g>
    <g id="xtick_3">
     <g id="line2d_3">
      <g>
       <use style="stroke:#000000;stroke-width:0.8;" x="190.963636" xlink:href="#m8beb9d570b" y="320.4"/>
      </g>
     </g>
     <g id="text_3">
      <!-- 2 -->
      <defs>
       <path d="M 19.1875 8.296875 
L 53.609375 8.296875 
L 53.609375 0 
L 7.328125 0 
L 7.328125 8.296875 
Q 12.9375 14.109375 22.625 23.890625 
Q 32.328125 33.6875 34.8125 36.53125 
Q 39.546875 41.84375 41.421875 45.53125 
Q 43.3125 49.21875 43.3125 52.78125 
Q 43.3125 58.59375 39.234375 62.25 
Q 35.15625 65.921875 28.609375 65.921875 
Q 23.96875 65.921875 18.8125 64.3125 
Q 13.671875 62.703125 7.8125 59.421875 
L 7.8125 69.390625 
Q 13.765625 71.78125 18.9375 73 
Q 24.125 74.21875 28.421875 74.21875 
Q 39.75 74.21875 46.484375 68.546875 
Q 53.21875 62.890625 53.21875 53.421875 
Q 53.21875 48.921875 51.53125 44.890625 
Q 49.859375 40.875 45.40625 35.40625 
Q 44.1875 33.984375 37.640625 27.21875 
Q 31.109375 20.453125 19.1875 8.296875 
z
" id="DejaVuSans-32"/>
      </defs>
      <g transform="translate(186.828011 337.277969)scale(0.13 -0.13)">
       <use xlink:href="#DejaVuSans-32"/>
      </g>
     </g>
    </g>
    <g id="xtick_4">
     <g id="line2d_4">
      <g>
       <use style="stroke:#000000;stroke-width:0.8;" x="251.836364" xlink:href="#m8beb9d570b" y="320.4"/>
      </g>
     </g>
     <g id="text_4">
      <!-- 3 -->
      <defs>
       <path d="M 40.578125 39.3125 
Q 47.65625 37.796875 51.625 33 
Q 55.609375 28.21875 55.609375 21.1875 
Q 55.609375 10.40625 48.1875 4.484375 
Q 40.765625 -1.421875 27.09375 -1.421875 
Q 22.515625 -1.421875 17.65625 -0.515625 
Q 12.796875 0.390625 7.625 2.203125 
L 7.625 11.71875 
Q 11.71875 9.328125 16.59375 8.109375 
Q 21.484375 6.890625 26.8125 6.890625 
Q 36.078125 6.890625 40.9375 10.546875 
Q 45.796875 14.203125 45.796875 21.1875 
Q 45.796875 27.640625 41.28125 31.265625 
Q 36.765625 34.90625 28.71875 34.90625 
L 20.21875 34.90625 
L 20.21875 43.015625 
L 29.109375 43.015625 
Q 36.375 43.015625 40.234375 45.921875 
Q 44.09375 48.828125 44.09375 54.296875 
Q 44.09375 59.90625 40.109375 62.90625 
Q 36.140625 65.921875 28.71875 65.921875 
Q 24.65625 65.921875 20.015625 65.03125 
Q 15.375 64.15625 9.8125 62.3125 
L 9.8125 71.09375 
Q 15.4375 72.65625 20.34375 73.4375 
Q 25.25 74.21875 29.59375 74.21875 
Q 40.828125 74.21875 47.359375 69.109375 
Q 53.90625 64.015625 53.90625 55.328125 
Q 53.90625 49.265625 50.4375 45.09375 
Q 46.96875 40.921875 40.578125 39.3125 
z
" id="DejaVuSans-33"/>
      </defs>
      <g transform="translate(247.700739 337.277969)scale(0.13 -0.13)">
       <use xlink:href="#DejaVuSans-33"/>
      </g>
     </g>
    </g>
    <g id="xtick_5">
     <g id="line2d_5">
      <g>
       <use style="stroke:#000000;stroke-width:0.8;" x="312.709091" xlink:href="#m8beb9d570b" y="320.4"/>
      </g>
     </g>
     <g id="text_5">
      <!-- 4 -->
      <defs>
       <path d="M 37.796875 64.3125 
L 12.890625 25.390625 
L 37.796875 25.390625 
z
M 35.203125 72.90625 
L 47.609375 72.90625 
L 47.609375 25.390625 
L 58.015625 25.390625 
L 58.015625 17.1875 
L 47.609375 17.1875 
L 47.609375 0 
L 37.796875 0 
L 37.796875 17.1875 
L 4.890625 17.1875 
L 4.890625 26.703125 
z
" id="DejaVuSans-34"/>
      </defs>
      <g transform="translate(308.573466 337.277969)scale(0.13 -0.13)">
       <use xlink:href="#DejaVuSans-34"/>
      </g>
     </g>
    </g>
    <g id="xtick_6">
     <g id="line2d_6">
      <g>
       <use style="stroke:#000000;stroke-width:0.8;" x="373.581818" xlink:href="#m8beb9d570b" y="320.4"/>
      </g>
     </g>
     <g id="text_6">
      <!-- 5 -->
      <defs>
       <path d="M 10.796875 72.90625 
L 49.515625 72.90625 
L 49.515625 64.59375 
L 19.828125 64.59375 
L 19.828125 46.734375 
Q 21.96875 47.46875 24.109375 47.828125 
Q 26.265625 48.1875 28.421875 48.1875 
Q 40.625 48.1875 47.75 41.5 
Q 54.890625 34.8125 54.890625 23.390625 
Q 54.890625 11.625 47.5625 5.09375 
Q 40.234375 -1.421875 26.90625 -1.421875 
Q 22.3125 -1.421875 17.546875 -0.640625 
Q 12.796875 0.140625 7.71875 1.703125 
L 7.71875 11.625 
Q 12.109375 9.234375 16.796875 8.0625 
Q 21.484375 6.890625 26.703125 6.890625 
Q 35.15625 6.890625 40.078125 11.328125 
Q 45.015625 15.765625 45.015625 23.390625 
Q 45.015625 31 40.078125 35.4375 
Q 35.15625 39.890625 26.703125 39.890625 
Q 22.75 39.890625 18.8125 39.015625 
Q 14.890625 38.140625 10.796875 36.28125 
z
" id="DejaVuSans-35"/>
      </defs>
      <g transform="translate(369.446193 337.277969)scale(0.13 -0.13)">
       <use xlink:href="#DejaVuSans-35"/>
      </g>
     </g>
    </g>
    <g id="text_7">
     <!-- $\tau$ -->
     <defs>
      <path d="M 32.859375 9.96875 
Q 34.1875 7.625 39.453125 7.625 
L 43.75 7.625 
L 42.28125 0 
L 36.921875 0 
Q 28.125 0 25 4.6875 
Q 21.921875 9.46875 23.96875 19.828125 
L 29 45.703125 
L 8.453125 45.703125 
L 10.203125 54.6875 
L 60.640625 54.6875 
L 58.890625 45.703125 
L 38.1875 45.703125 
L 33.015625 19.28125 
Q 31.640625 12.203125 32.859375 9.96875 
z
" id="DejaVuSans-Oblique-3c4"/>
     </defs>
     <g transform="translate(216.52 356.139063)scale(0.16 -0.16)">
      <use transform="translate(0 0.3125)" xlink:href="#DejaVuSans-Oblique-3c4"/>
     </g>
    </g>
   </g>
   <g id="matplotlib.axis_2">
    <g id="ytick_1">
     <g id="line2d_7">
      <defs>
       <path d="M 0 0 
L -3.5 0 
" id="me7d8523225" style="stroke:#000000;stroke-width:0.8;"/>
      </defs>
      <g>
       <use style="stroke:#000000;stroke-width:0.8;" x="54" xlink:href="#me7d8523225" y="307.8"/>
      </g>
     </g>
     <g id="text_8">
      <!-- 0.0 -->
      <defs>
       <path d="M 10.6875 12.40625 
L 21 12.40625 
L 21 0 
L 10.6875 0 
z
" id="DejaVuSans-2e"/>
      </defs>
      <g transform="translate(26.325937 312.738984)scale(0.13 -0.13)">
       <use xlink:href="#DejaVuSans-30"/>
       <use x="63.623047" xlink:href="#DejaVuSans-2e"/>
       <use x="95.410156" xlink:href="#DejaVuSans-30"/>
      </g>
     </g>
    </g>
    <g id="ytick_2">
     <g id="line2d_8">
      <g>
       <use style="stroke:#000000;stroke-width:0.8;" x="54" xlink:href="#me7d8523225" y="257.4"/>
      </g>
     </g>
     <g id="text_9">
      <!-- 0.2 -->
      <g transform="translate(26.325937 262.338984)scale(0.13 -0.13)">
       <use xlink:href="#DejaVuSans-30"/>
       <use x="63.623047" xlink:href="#DejaVuSans-2e"/>
       <use x="95.410156" xlink:href="#DejaVuSans-32"/>
      </g>
     </g>
    </g>
    <g id="ytick_3">
     <g id="line2d_9">
      <g>
       <use style="stroke:#000000;stroke-width:0.8;" x="54" xlink:href="#me7d8523225" y="207"/>
      </g>
     </g>
     <g id="text_10">
      <!-- 0.4 -->
      <g transform="translate(26.325937 211.938984)scale(0.13 -0.13)">
       <use xlink:href="#DejaVuSans-30"/>
       <use x="63.623047" xlink:href="#DejaVuSans-2e"/>
       <use x="95.410156" xlink:href="#DejaVuSans-34"/>
      </g>
     </g>
    </g>
    <g id="ytick_4">
     <g id="line2d_10">
      <g>
       <use style="stroke:#000000;stroke-width:0.8;" x="54" xlink:href="#me7d8523225" y="156.6"/>
      </g>
     </g>
     <g id="text_11">
      <!-- 0.6 -->
      <defs>
       <path d="M 33.015625 40.375 
Q 26.375 40.375 22.484375 35.828125 
Q 18.609375 31.296875 18.609375 23.390625 
Q 18.609375 15.53125 22.484375 10.953125 
Q 26.375 6.390625 33.015625 6.390625 
Q 39.65625 6.390625 43.53125 10.953125 
Q 47.40625 15.53125 47.40625 23.390625 
Q 47.40625 31.296875 43.53125 35.828125 
Q 39.65625 40.375 33.015625 40.375 
z
M 52.59375 71.296875 
L 52.59375 62.3125 
Q 48.875 64.0625 45.09375 64.984375 
Q 41.3125 65.921875 37.59375 65.921875 
Q 27.828125 65.921875 22.671875 59.328125 
Q 17.53125 52.734375 16.796875 39.40625 
Q 19.671875 43.65625 24.015625 45.921875 
Q 28.375 48.1875 33.59375 48.1875 
Q 44.578125 48.1875 50.953125 41.515625 
Q 57.328125 34.859375 57.328125 23.390625 
Q 57.328125 12.15625 50.6875 5.359375 
Q 44.046875 -1.421875 33.015625 -1.421875 
Q 20.359375 -1.421875 13.671875 8.265625 
Q 6.984375 17.96875 6.984375 36.375 
Q 6.984375 53.65625 15.1875 63.9375 
Q 23.390625 74.21875 37.203125 74.21875 
Q 40.921875 74.21875 44.703125 73.484375 
Q 48.484375 72.75 52.59375 71.296875 
z
" id="DejaVuSans-36"/>
      </defs>
      <g transform="translate(26.325937 161.538984)scale(0.13 -0.13)">
       <use xlink:href="#DejaVuSans-30"/>
       <use x="63.623047" xlink:href="#DejaVuSans-2e"/>
       <use x="95.410156" xlink:href="#DejaVuSans-36"/>
      </g>
     </g>
    </g>
    <g id="ytick_5">
     <g id="line2d_11">
      <g>
       <use style="stroke:#000000;stroke-width:0.8;" x="54" xlink:href="#me7d8523225" y="106.2"/>
      </g>
     </g>
     <g id="text_12">
      <!-- 0.8 -->
      <defs>
       <path d="M 31.78125 34.625 
Q 24.75 34.625 20.71875 30.859375 
Q 16.703125 27.09375 16.703125 20.515625 
Q 16.703125 13.921875 20.71875 10.15625 
Q 24.75 6.390625 31.78125 6.390625 
Q 38.8125 6.390625 42.859375 10.171875 
Q 46.921875 13.96875 46.921875 20.515625 
Q 46.921875 27.09375 42.890625 30.859375 
Q 38.875 34.625 31.78125 34.625 
z
M 21.921875 38.8125 
Q 15.578125 40.375 12.03125 44.71875 
Q 8.5 49.078125 8.5 55.328125 
Q 8.5 64.0625 14.71875 69.140625 
Q 20.953125 74.21875 31.78125 74.21875 
Q 42.671875 74.21875 48.875 69.140625 
Q 55.078125 64.0625 55.078125 55.328125 
Q 55.078125 49.078125 51.53125 44.71875 
Q 48 40.375 41.703125 38.8125 
Q 48.828125 37.15625 52.796875 32.3125 
Q 56.78125 27.484375 56.78125 20.515625 
Q 56.78125 9.90625 50.3125 4.234375 
Q 43.84375 -1.421875 31.78125 -1.421875 
Q 19.734375 -1.421875 13.25 4.234375 
Q 6.78125 9.90625 6.78125 20.515625 
Q 6.78125 27.484375 10.78125 32.3125 
Q 14.796875 37.15625 21.921875 38.8125 
z
M 18.3125 54.390625 
Q 18.3125 48.734375 21.84375 45.5625 
Q 25.390625 42.390625 31.78125 42.390625 
Q 38.140625 42.390625 41.71875 45.5625 
Q 45.3125 48.734375 45.3125 54.390625 
Q 45.3125 60.0625 41.71875 63.234375 
Q 38.140625 66.40625 31.78125 66.40625 
Q 25.390625 66.40625 21.84375 63.234375 
Q 18.3125 60.0625 18.3125 54.390625 
z
" id="DejaVuSans-38"/>
      </defs>
      <g transform="translate(26.325937 111.138984)scale(0.13 -0.13)">
       <use xlink:href="#DejaVuSans-30"/>
       <use x="63.623047" xlink:href="#DejaVuSans-2e"/>
       <use x="95.410156" xlink:href="#DejaVuSans-38"/>
      </g>
     </g>
    </g>
    <g id="ytick_6">
     <g id="line2d_12">
      <g>
       <use style="stroke:#000000;stroke-width:0.8;" x="54" xlink:href="#me7d8523225" y="55.8"/>
      </g>
     </g>
     <g id="text_13">
      <!-- 1.0 -->
      <g transform="translate(26.325937 60.738984)scale(0.13 -0.13)">
       <use xlink:href="#DejaVuSans-31"/>
       <use x="63.623047" xlink:href="#DejaVuSans-2e"/>
       <use x="95.410156" xlink:href="#DejaVuSans-30"/>
      </g>
     </g>
    </g>
    <g id="text_14">
     <!-- Probability -->
     <defs>
      <path d="M 19.671875 64.796875 
L 19.671875 37.40625 
L 32.078125 37.40625 
Q 38.96875 37.40625 42.71875 40.96875 
Q 46.484375 44.53125 46.484375 51.125 
Q 46.484375 57.671875 42.71875 61.234375 
Q 38.96875 64.796875 32.078125 64.796875 
z
M 9.8125 72.90625 
L 32.078125 72.90625 
Q 44.34375 72.90625 50.609375 67.359375 
Q 56.890625 61.8125 56.890625 51.125 
Q 56.890625 40.328125 50.609375 34.8125 
Q 44.34375 29.296875 32.078125 29.296875 
L 19.671875 29.296875 
L 19.671875 0 
L 9.8125 0 
z
" id="DejaVuSans-50"/>
      <path d="M 41.109375 46.296875 
Q 39.59375 47.171875 37.8125 47.578125 
Q 36.03125 48 33.890625 48 
Q 26.265625 48 22.1875 43.046875 
Q 18.109375 38.09375 18.109375 28.8125 
L 18.109375 0 
L 9.078125 0 
L 9.078125 54.6875 
L 18.109375 54.6875 
L 18.109375 46.1875 
Q 20.953125 51.171875 25.484375 53.578125 
Q 30.03125 56 36.53125 56 
Q 37.453125 56 38.578125 55.875 
Q 39.703125 55.765625 41.0625 55.515625 
z
" id="DejaVuSans-72"/>
      <path d="M 30.609375 48.390625 
Q 23.390625 48.390625 19.1875 42.75 
Q 14.984375 37.109375 14.984375 27.296875 
Q 14.984375 17.484375 19.15625 11.84375 
Q 23.34375 6.203125 30.609375 6.203125 
Q 37.796875 6.203125 41.984375 11.859375 
Q 46.1875 17.53125 46.1875 27.296875 
Q 46.1875 37.015625 41.984375 42.703125 
Q 37.796875 48.390625 30.609375 48.390625 
z
M 30.609375 56 
Q 42.328125 56 49.015625 48.375 
Q 55.71875 40.765625 55.71875 27.296875 
Q 55.71875 13.875 49.015625 6.21875 
Q 42.328125 -1.421875 30.609375 -1.421875 
Q 18.84375 -1.421875 12.171875 6.21875 
Q 5.515625 13.875 5.515625 27.296875 
Q 5.515625 40.765625 12.171875 48.375 
Q 18.84375 56 30.609375 56 
z
" id="DejaVuSans-6f"/>
      <path d="M 48.6875 27.296875 
Q 48.6875 37.203125 44.609375 42.84375 
Q 40.53125 48.484375 33.40625 48.484375 
Q 26.265625 48.484375 22.1875 42.84375 
Q 18.109375 37.203125 18.109375 27.296875 
Q 18.109375 17.390625 22.1875 11.75 
Q 26.265625 6.109375 33.40625 6.109375 
Q 40.53125 6.109375 44.609375 11.75 
Q 48.6875 17.390625 48.6875 27.296875 
z
M 18.109375 46.390625 
Q 20.953125 51.265625 25.265625 53.625 
Q 29.59375 56 35.59375 56 
Q 45.5625 56 51.78125 48.09375 
Q 58.015625 40.1875 58.015625 27.296875 
Q 58.015625 14.40625 51.78125 6.484375 
Q 45.5625 -1.421875 35.59375 -1.421875 
Q 29.59375 -1.421875 25.265625 0.953125 
Q 20.953125 3.328125 18.109375 8.203125 
L 18.109375 0 
L 9.078125 0 
L 9.078125 75.984375 
L 18.109375 75.984375 
z
" id="DejaVuSans-62"/>
      <path d="M 34.28125 27.484375 
Q 23.390625 27.484375 19.1875 25 
Q 14.984375 22.515625 14.984375 16.5 
Q 14.984375 11.71875 18.140625 8.90625 
Q 21.296875 6.109375 26.703125 6.109375 
Q 34.1875 6.109375 38.703125 11.40625 
Q 43.21875 16.703125 43.21875 25.484375 
L 43.21875 27.484375 
z
M 52.203125 31.203125 
L 52.203125 0 
L 43.21875 0 
L 43.21875 8.296875 
Q 40.140625 3.328125 35.546875 0.953125 
Q 30.953125 -1.421875 24.3125 -1.421875 
Q 15.921875 -1.421875 10.953125 3.296875 
Q 6 8.015625 6 15.921875 
Q 6 25.140625 12.171875 29.828125 
Q 18.359375 34.515625 30.609375 34.515625 
L 43.21875 34.515625 
L 43.21875 35.40625 
Q 43.21875 41.609375 39.140625 45 
Q 35.0625 48.390625 27.6875 48.390625 
Q 23 48.390625 18.546875 47.265625 
Q 14.109375 46.140625 10.015625 43.890625 
L 10.015625 52.203125 
Q 14.9375 54.109375 19.578125 55.046875 
Q 24.21875 56 28.609375 56 
Q 40.484375 56 46.34375 49.84375 
Q 52.203125 43.703125 52.203125 31.203125 
z
" id="DejaVuSans-61"/>
      <path d="M 9.421875 54.6875 
L 18.40625 54.6875 
L 18.40625 0 
L 9.421875 0 
z
M 9.421875 75.984375 
L 18.40625 75.984375 
L 18.40625 64.59375 
L 9.421875 64.59375 
z
" id="DejaVuSans-69"/>
      <path d="M 9.421875 75.984375 
L 18.40625 75.984375 
L 18.40625 0 
L 9.421875 0 
z
" id="DejaVuSans-6c"/>
      <path d="M 18.3125 70.21875 
L 18.3125 54.6875 
L 36.8125 54.6875 
L 36.8125 47.703125 
L 18.3125 47.703125 
L 18.3125 18.015625 
Q 18.3125 11.328125 20.140625 9.421875 
Q 21.96875 7.515625 27.59375 7.515625 
L 36.8125 7.515625 
L 36.8125 0 
L 27.59375 0 
Q 17.1875 0 13.234375 3.875 
Q 9.28125 7.765625 9.28125 18.015625 
L 9.28125 47.703125 
L 2.6875 47.703125 
L 2.6875 54.6875 
L 9.28125 54.6875 
L 9.28125 70.21875 
z
" id="DejaVuSans-74"/>
      <path d="M 32.171875 -5.078125 
Q 28.375 -14.84375 24.75 -17.8125 
Q 21.140625 -20.796875 15.09375 -20.796875 
L 7.90625 -20.796875 
L 7.90625 -13.28125 
L 13.1875 -13.28125 
Q 16.890625 -13.28125 18.9375 -11.515625 
Q 21 -9.765625 23.484375 -3.21875 
L 25.09375 0.875 
L 2.984375 54.6875 
L 12.5 54.6875 
L 29.59375 11.921875 
L 46.6875 54.6875 
L 56.203125 54.6875 
z
" id="DejaVuSans-79"/>
     </defs>
     <g transform="translate(18.998437 224.4025)rotate(-90)scale(0.16 -0.16)">
      <use xlink:href="#DejaVuSans-50"/>
      <use x="60.287109" xlink:href="#DejaVuSans-72"/>
      <use x="101.369141" xlink:href="#DejaVuSans-6f"/>
      <use x="162.550781" xlink:href="#DejaVuSans-62"/>
      <use x="226.027344" xlink:href="#DejaVuSans-61"/>
      <use x="287.306641" xlink:href="#DejaVuSans-62"/>
      <use x="350.783203" xlink:href="#DejaVuSans-69"/>
      <use x="378.566406" xlink:href="#DejaVuSans-6c"/>
      <use x="406.349609" xlink:href="#DejaVuSans-69"/>
      <use x="434.132812" xlink:href="#DejaVuSans-74"/>
      <use x="473.341797" xlink:href="#DejaVuSans-79"/>
     </g>
    </g>
   </g>
   <g id="line2d_13">
    <path clip-path="url(#p17cb237a1d)" d="M 69.218182 55.8 
L 69.218182 68.274 
L 75.305455 68.274 
L 75.305455 82.638 
L 81.392727 82.638 
L 81.392727 97.128 
L 87.48 97.128 
L 87.48 107.712 
L 93.567273 107.712 
L 93.567273 121.194 
L 99.654545 121.194 
L 99.654545 133.164 
L 105.741818 133.164 
L 105.741818 145.134 
L 111.829091 145.134 
L 111.829091 155.844 
L 117.916364 155.844 
L 117.916364 167.058 
L 124.003636 167.058 
L 124.003636 178.02 
L 130.090909 178.02 
L 130.090909 195.03 
L 136.178182 195.03 
L 136.178182 211.284 
L 142.265455 211.284 
L 142.265455 226.782 
L 148.352727 226.782 
L 148.352727 236.61 
L 154.44 236.61 
L 154.44 245.808 
L 160.527273 245.808 
L 160.527273 255.888 
L 166.614545 255.888 
L 166.614545 263.448 
L 172.701818 263.448 
L 172.701818 269.874 
L 178.789091 269.874 
L 178.789091 275.67 
L 184.876364 275.67 
L 184.876364 280.458 
L 190.963636 280.458 
L 190.963636 285.372 
L 197.050909 285.372 
L 197.050909 289.404 
L 203.138182 289.404 
L 203.138182 292.554 
L 209.225455 292.554 
L 209.225455 295.452 
L 215.312727 295.452 
L 215.312727 298.35 
L 221.4 298.35 
L 221.4 301.5 
L 227.487273 301.5 
L 227.487273 303.642 
L 233.574545 303.642 
L 233.574545 305.406 
L 239.661818 305.406 
L 239.661818 306.288 
L 245.749091 306.288 
L 245.749091 307.8 
L 251.836364 307.8 
L 251.836364 307.8 
L 257.923636 307.8 
L 257.923636 307.8 
L 264.010909 307.8 
L 264.010909 307.8 
L 270.098182 307.8 
L 270.098182 307.8 
L 276.185455 307.8 
L 276.185455 307.8 
L 282.272727 307.8 
L 282.272727 307.8 
L 288.36 307.8 
L 288.36 307.8 
L 294.447273 307.8 
L 294.447273 307.8 
L 300.534545 307.8 
L 300.534545 307.8 
L 306.621818 307.8 
L 306.621818 307.8 
L 312.709091 307.8 
L 312.709091 307.8 
L 318.796364 307.8 
L 318.796364 307.8 
L 324.883636 307.8 
L 324.883636 307.8 
L 330.970909 307.8 
L 330.970909 307.8 
L 337.058182 307.8 
L 337.058182 307.8 
L 343.145455 307.8 
L 343.145455 307.8 
L 349.232727 307.8 
L 349.232727 307.8 
L 355.32 307.8 
L 355.32 307.8 
L 361.407273 307.8 
L 361.407273 307.8 
L 367.494545 307.8 
L 367.494545 307.8 
L 373.581818 307.8 
" style="fill:none;opacity:0.5;stroke:#0000ff;stroke-linecap:square;stroke-width:2;"/>
   </g>
   <g id="line2d_14">
    <path clip-path="url(#p17cb237a1d)" d="M 69.218182 55.8 
L 69.218182 68.274 
L 75.305455 68.274 
L 75.305455 80.748 
L 81.392727 80.748 
L 81.392727 92.718 
L 87.48 92.718 
L 87.48 104.814 
L 93.567273 104.814 
L 93.567273 116.532 
L 99.654545 116.532 
L 99.654545 128.376 
L 105.741818 128.376 
L 105.741818 140.346 
L 111.829091 140.346 
L 111.829091 149.292 
L 117.916364 149.292 
L 117.916364 161.136 
L 124.003636 161.136 
L 124.003636 173.862 
L 130.090909 173.862 
L 130.090909 183.186 
L 136.178182 183.186 
L 136.178182 191.124 
L 142.265455 191.124 
L 142.265455 200.574 
L 148.352727 200.574 
L 148.352727 209.142 
L 154.44 209.142 
L 154.44 216.072 
L 160.527273 216.072 
L 160.527273 222.372 
L 166.614545 222.372 
L 166.614545 229.176 
L 172.701818 229.176 
L 172.701818 235.224 
L 178.789091 235.224 
L 178.789091 240.768 
L 184.876364 240.768 
L 184.876364 246.312 
L 190.963636 246.312 
L 190.963636 252.234 
L 197.050909 252.234 
L 197.050909 256.77 
L 203.138182 256.77 
L 203.138182 260.424 
L 209.225455 260.424 
L 209.225455 263.952 
L 215.312727 263.952 
L 215.312727 266.598 
L 221.4 266.598 
L 221.4 268.614 
L 227.487273 268.614 
L 227.487273 273.15 
L 233.574545 273.15 
L 233.574545 276.426 
L 239.661818 276.426 
L 239.661818 279.198 
L 245.749091 279.198 
L 245.749091 281.214 
L 251.836364 281.214 
L 251.836364 282.852 
L 257.923636 282.852 
L 257.923636 285.12 
L 264.010909 285.12 
L 264.010909 286.506 
L 270.098182 286.506 
L 270.098182 287.64 
L 276.185455 287.64 
L 276.185455 289.656 
L 282.272727 289.656 
L 282.272727 292.05 
L 288.36 292.05 
L 288.36 293.436 
L 294.447273 293.436 
L 294.447273 294.948 
L 300.534545 294.948 
L 300.534545 296.838 
L 306.621818 296.838 
L 306.621818 298.098 
L 312.709091 298.098 
L 312.709091 298.602 
L 318.796364 298.602 
L 318.796364 299.484 
L 324.883636 299.484 
L 324.883636 300.366 
L 330.970909 300.366 
L 330.970909 300.996 
L 337.058182 300.996 
L 337.058182 301.626 
L 343.145455 301.626 
L 343.145455 302.382 
L 349.232727 302.382 
L 349.232727 302.634 
L 355.32 302.634 
L 355.32 302.76 
L 361.407273 302.76 
L 361.407273 303.39 
L 367.494545 303.39 
L 367.494545 303.894 
L 373.581818 303.894 
" style="fill:none;opacity:0.5;stroke:#ff0000;stroke-linecap:square;stroke-width:2;"/>
   </g>
   <g id="line2d_15">
    <path clip-path="url(#p17cb237a1d)" d="M 69.218182 55.8 
L 75.927601 69.742064 
L 88.126544 98.252152 
L 93.616069 107.820072 
L 100.325487 122.513339 
L 112.524431 146.357387 
L 120.453744 160.518373 
L 130.212899 178.360882 
L 138.752159 201.902934 
L 144.241683 216.315415 
L 148.511314 227.03804 
L 156.440627 239.63299 
L 161.320204 247.121026 
L 166.809729 256.130405 
L 173.519147 264.31081 
L 180.228566 271.244597 
L 185.718091 276.332068 
L 199.136928 286.753707 
L 204.016506 289.858509 
L 211.945819 293.849098 
L 224.144762 299.770341 
L 227.804445 301.611607 
L 235.123811 304.090954 
L 240.003389 305.455491 
L 246.712807 306.527375 
L 252.202332 307.8 
L 373.581818 307.8 
L 373.581818 307.8 
" style="fill:none;stroke:#0000ff;stroke-dasharray:7.4,3.2;stroke-dashoffset:0;stroke-width:2;"/>
   </g>
   <g id="line2d_16">
    <path clip-path="url(#p17cb237a1d)" d="M 69.218182 55.8 
L 83.856914 85.593571 
L 105.205065 127.331639 
L 112.524431 141.367888 
L 118.013955 149.481884 
L 125.333321 163.915828 
L 130.212899 174.048854 
L 136.922317 184.156377 
L 142.411842 191.351255 
L 149.731208 202.514248 
L 154.610785 209.336429 
L 161.930151 217.523904 
L 168.029623 223.953691 
L 173.519147 229.988056 
L 180.228566 236.535006 
L 193.037457 248.329515 
L 197.307087 252.424894 
L 204.016506 257.29723 
L 214.995555 263.768176 
L 216.825396 264.609523 
L 222.314921 266.901006 
L 227.194498 268.517038 
L 228.414392 269.304854 
L 233.903917 273.327259 
L 240.613336 276.859299 
L 246.712807 279.517166 
L 253.422226 281.640733 
L 258.911751 283.220152 
L 264.401275 285.208882 
L 272.330588 286.921876 
L 276.600219 287.777363 
L 283.919585 290.303675 
L 288.799162 292.149992 
L 299.778211 294.760136 
L 302.218 295.470685 
L 307.707524 297.062729 
L 313.197049 298.138401 
L 320.516415 298.851222 
L 333.325305 300.609667 
L 347.964037 302.224437 
L 350.403826 302.430481 
L 360.162981 302.734244 
L 362.602769 302.883727 
L 372.361924 303.792998 
L 373.581818 303.894 
L 373.581818 303.894 
" style="fill:none;stroke:#ff0000;stroke-dasharray:7.4,3.2;stroke-dashoffset:0;stroke-width:2;"/>
   </g>
   <g id="line2d_17">
    <path clip-path="url(#p17cb237a1d)" d="M 69.218182 55.8 
L 130.822846 55.8 
L 252.202332 307.8 
L 373.581818 307.8 
L 373.581818 307.8 
" style="fill:none;stroke:#008000;stroke-linecap:square;stroke-width:2;"/>
   </g>
   <g id="patch_3">
    <path d="M 54 320.4 
L 54 43.2 
" style="fill:none;stroke:#000000;stroke-linecap:square;stroke-linejoin:miter;stroke-width:0.8;"/>
   </g>
   <g id="patch_4">
    <path d="M 388.8 320.4 
L 388.8 43.2 
" style="fill:none;stroke:#000000;stroke-linecap:square;stroke-linejoin:miter;stroke-width:0.8;"/>
   </g>
   <g id="patch_5">
    <path d="M 54 320.4 
L 388.8 320.4 
" style="fill:none;stroke:#000000;stroke-linecap:square;stroke-linejoin:miter;stroke-width:0.8;"/>
   </g>
   <g id="patch_6">
    <path d="M 54 43.2 
L 388.8 43.2 
" style="fill:none;stroke:#000000;stroke-linecap:square;stroke-linejoin:miter;stroke-width:0.8;"/>
   </g>
   <g id="legend_1">
    <g id="patch_7">
     <path d="M 251.4 133.95 
L 378.3 133.95 
Q 381.3 133.95 381.3 130.95 
L 381.3 53.7 
Q 381.3 50.7 378.3 50.7 
L 251.4 50.7 
Q 248.4 50.7 248.4 53.7 
L 248.4 130.95 
Q 248.4 133.95 251.4 133.95 
z
" style="fill:#ffffff;opacity:0.8;stroke:#cccccc;stroke-linejoin:miter;"/>
    </g>
    <g id="line2d_18">
     <path d="M 254.4 67.95 
L 284.4 67.95 
" style="fill:none;stroke:#0000ff;stroke-dasharray:7.4,3.2;stroke-dashoffset:0;stroke-width:2;"/>
    </g>
    <g id="line2d_19"/>
    <g id="text_15">
     <!-- $\hat{\Phi}_{(u,v)\in\mathcal{G}}(\tau)$ -->
     <defs>
      <path d="M -28.609375 79.984375 
L -21.390625 79.984375 
L -9.421875 61.625 
L -16.21875 61.625 
L -25 73.578125 
L -33.796875 61.625 
L -40.578125 61.625 
z
M -25 56 
z
" id="DejaVuSans-302"/>
      <path d="M 34.46875 56.9375 
Q 27.15625 55.90625 22.359375 51.65625 
Q 16.015625 46.046875 16.015625 36.375 
Q 16.015625 26.765625 22.359375 21.140625 
Q 27.15625 16.890625 34.46875 15.875 
z
M 44.34375 15.875 
Q 51.65625 16.890625 56.453125 21.140625 
Q 62.703125 26.765625 62.703125 36.375 
Q 62.703125 46.046875 56.453125 51.65625 
Q 51.65625 55.90625 44.34375 56.9375 
z
M 34.46875 7.71875 
Q 22.5625 8.796875 14.84375 15.328125 
Q 5.609375 23.140625 5.609375 36.375 
Q 5.609375 49.609375 14.84375 57.46875 
Q 22.515625 64.0625 34.46875 65.140625 
L 34.46875 72.90625 
L 44.34375 72.90625 
L 44.34375 65.140625 
Q 56.25 64.015625 63.921875 57.46875 
Q 73.09375 49.609375 73.09375 36.375 
Q 73.09375 23.1875 63.921875 15.328125 
Q 56.25 8.796875 44.34375 7.671875 
L 44.34375 0 
L 34.46875 0 
z
" id="DejaVuSans-3a6"/>
      <path d="M 31 75.875 
Q 24.46875 64.65625 21.28125 53.65625 
Q 18.109375 42.671875 18.109375 31.390625 
Q 18.109375 20.125 21.3125 9.0625 
Q 24.515625 -2 31 -13.1875 
L 23.1875 -13.1875 
Q 15.875 -1.703125 12.234375 9.375 
Q 8.59375 20.453125 8.59375 31.390625 
Q 8.59375 42.28125 12.203125 53.3125 
Q 15.828125 64.359375 23.1875 75.875 
z
" id="DejaVuSans-28"/>
      <path d="M 6.6875 21.6875 
L 13.09375 54.6875 
L 22.125 54.6875 
L 15.71875 22.015625 
Q 15.234375 19.625 15.015625 17.921875 
Q 14.796875 16.21875 14.796875 15.09375 
Q 14.796875 10.9375 17.328125 8.65625 
Q 19.875 6.390625 24.515625 6.390625 
Q 31.734375 6.390625 37 11.265625 
Q 42.28125 16.15625 43.890625 24.421875 
L 49.90625 54.6875 
L 58.890625 54.6875 
L 48.296875 0 
L 39.3125 0 
L 41.109375 8.59375 
Q 37.3125 3.8125 32.0625 1.1875 
Q 26.8125 -1.421875 20.90625 -1.421875 
Q 13.71875 -1.421875 9.71875 2.515625 
Q 5.71875 6.453125 5.71875 13.484375 
Q 5.71875 14.9375 5.953125 17.140625 
Q 6.203125 19.34375 6.6875 21.6875 
z
" id="DejaVuSans-Oblique-75"/>
      <path d="M 11.71875 12.40625 
L 22.015625 12.40625 
L 22.015625 4 
L 14.015625 -11.625 
L 7.71875 -11.625 
L 11.71875 4 
z
" id="DejaVuSans-2c"/>
      <path d="M 7.171875 54.6875 
L 16.703125 54.6875 
L 24.703125 8.203125 
L 50.875 54.6875 
L 60.40625 54.6875 
L 29.296875 0 
L 17.1875 0 
z
" id="DejaVuSans-Oblique-76"/>
      <path d="M 8.015625 75.875 
L 15.828125 75.875 
Q 23.140625 64.359375 26.78125 53.3125 
Q 30.421875 42.28125 30.421875 31.390625 
Q 30.421875 20.453125 26.78125 9.375 
Q 23.140625 -1.703125 15.828125 -13.1875 
L 8.015625 -13.1875 
Q 14.5 -2 17.703125 9.0625 
Q 20.90625 20.125 20.90625 31.390625 
Q 20.90625 42.671875 17.703125 53.65625 
Q 14.5 64.65625 8.015625 75.875 
z
" id="DejaVuSans-29"/>
      <path d="M 16.75 30.609375 
Q 17.09375 27 20.171875 21.140625 
Q 23.78125 14.359375 30.609375 10.546875 
Q 37.3125 6.84375 44.53125 6.78125 
L 78.5625 6.78125 
L 78.5625 -0.984375 
L 44.53125 -0.984375 
Q 35.15625 -0.984375 26.484375 3.84375 
Q 17.828125 8.6875 13.1875 17.28125 
Q 8.546875 25.875 8.546875 35.015625 
Q 8.546875 44.046875 13.1875 52.640625 
Q 17.828125 61.234375 26.484375 66.109375 
Q 35.15625 71 44.53125 71 
L 78.5625 71 
L 78.5625 63.234375 
L 44.53125 63.234375 
Q 37.3125 63.1875 30.609375 59.421875 
Q 23.828125 55.5625 20.171875 48.828125 
Q 17.046875 42.96875 16.609375 38.421875 
L 78.5625 38.421875 
L 78.5625 30.609375 
z
" id="DejaVuSans-2208"/>
      <path d="M 42.5 9.09375 
L 42 9.296875 
Q 35.09375 3.796875 25.40625 3.796875 
Q 16.5 3.796875 10.25 9.046875 
Q 4 14.296875 4 24.203125 
Q 4 35.5 10.390625 45.546875 
Q 16.796875 55.59375 26.546875 61.34375 
Q 36.296875 67.09375 46.09375 67.09375 
Q 51.5 67.09375 54.75 64.59375 
Q 58 62.09375 58 57.703125 
Q 58 55 55.640625 52.203125 
Q 53.296875 49.40625 50.203125 49.40625 
Q 48 49.40625 46.453125 50.90625 
Q 44.90625 52.40625 44.90625 54.40625 
Q 44.90625 56.09375 45.703125 57.1875 
Q 46.5 58.296875 47.390625 58.75 
Q 48.296875 59.203125 49.09375 59.75 
Q 49.90625 60.296875 49.90625 61 
Q 49.90625 62.203125 48.453125 62.890625 
Q 47 63.59375 45.09375 63.59375 
Q 37.203125 63.59375 29.890625 57.84375 
Q 22.59375 52.09375 18.296875 42.296875 
Q 14.703125 34.09375 14.703125 23.703125 
Q 14.703125 15.796875 18.296875 11.9375 
Q 21.90625 8.09375 27.703125 8.09375 
Q 36.703125 8.09375 44.203125 14.5 
Q 51.703125 20.90625 53.5 31.296875 
L 55.796875 31.703125 
Q 56 30.703125 56 28.296875 
Q 56 19 51.640625 8.546875 
Q 47.296875 -1.90625 39.703125 -7.40625 
Q 31.796875 -13.09375 21.09375 -13.09375 
Q 10.59375 -13.09375 5.703125 -7.703125 
L 7.203125 -5.796875 
Q 8.796875 -7.59375 12.75 -8.59375 
Q 16.703125 -9.59375 20.296875 -9.59375 
Q 27.09375 -9.59375 33.34375 -4 
Q 39.59375 1.59375 42.5 9.09375 
z
" id="STIXNonUnicode-Italic-e233"/>
     </defs>
     <g transform="translate(296.4 73.2)scale(0.15 -0.15)">
      <use transform="translate(74.255859 30.015625)" xlink:href="#DejaVuSans-302"/>
      <use transform="translate(0 0.609375)" xlink:href="#DejaVuSans-3a6"/>
      <use transform="translate(79.667969 -15.796875)scale(0.7)" xlink:href="#DejaVuSans-28"/>
      <use transform="translate(106.977539 -15.796875)scale(0.7)" xlink:href="#DejaVuSans-Oblique-75"/>
      <use transform="translate(151.342773 -15.796875)scale(0.7)" xlink:href="#DejaVuSans-2c"/>
      <use transform="translate(187.231445 -15.796875)scale(0.7)" xlink:href="#DejaVuSans-Oblique-76"/>
      <use transform="translate(228.657227 -15.796875)scale(0.7)" xlink:href="#DejaVuSans-29"/>
      <use transform="translate(269.604492 -15.796875)scale(0.7)" xlink:href="#DejaVuSans-2208"/>
      <use transform="translate(344.21875 -15.796875)scale(0.7)" xlink:href="#STIXNonUnicode-Italic-e233"/>
      <use transform="translate(387.553114 0.609375)" xlink:href="#DejaVuSans-28"/>
      <use transform="translate(426.566786 0.609375)" xlink:href="#DejaVuSans-Oblique-3c4"/>
      <use transform="translate(486.771864 0.609375)" xlink:href="#DejaVuSans-29"/>
     </g>
    </g>
    <g id="line2d_20">
     <path d="M 254.4 95.85 
L 284.4 95.85 
" style="fill:none;stroke:#ff0000;stroke-dasharray:7.4,3.2;stroke-dashoffset:0;stroke-width:2;"/>
    </g>
    <g id="line2d_21"/>
    <g id="text_16">
     <!-- $\hat{\Phi}_{(u,v)\notin\mathcal{G}}(\tau)$ -->
     <defs>
      <path d="M 60.546875 83.546875 
L 67.875 80.859375 
L 64.3125 71 
L 78.5625 71 
L 78.5625 63.234375 
L 61.46875 63.234375 
L 52.4375 38.421875 
L 78.5625 38.421875 
L 78.5625 30.609375 
L 49.609375 30.609375 
L 41.015625 7.03125 
Q 42.78125 6.78125 44.53125 6.78125 
L 78.5625 6.78125 
L 78.5625 -0.984375 
L 44.53125 -0.984375 
Q 41.359375 -0.984375 38.28125 -0.4375 
L 33.40625 -13.8125 
L 26.078125 -11.140625 
L 30.765625 1.765625 
Q 28.609375 2.6875 26.46875 3.859375 
Q 17.828125 8.6875 13.1875 17.28125 
Q 8.546875 25.875 8.546875 35.015625 
Q 8.546875 44.046875 13.1875 52.640625 
Q 17.828125 61.234375 26.484375 66.109375 
Q 35.15625 71 44.53125 71 
L 55.953125 71 
z
M 16.75 30.609375 
Q 16.75 27 20.171875 21.140625 
Q 24.3125 14.0625 30.609375 10.546875 
Q 32.03125 9.765625 33.453125 9.125 
L 41.265625 30.609375 
z
M 44.140625 38.421875 
L 53.125 63.234375 
L 44.53125 63.234375 
Q 37.359375 63.234375 30.609375 59.421875 
Q 24.515625 55.953125 20.171875 48.828125 
Q 16.609375 42.96875 16.609375 38.421875 
z
" id="DejaVuSans-2209"/>
     </defs>
     <g transform="translate(296.4 101.1)scale(0.15 -0.15)">
      <use transform="translate(74.255859 30.015625)" xlink:href="#DejaVuSans-302"/>
      <use transform="translate(0 0.609375)" xlink:href="#DejaVuSans-3a6"/>
      <use transform="translate(79.667969 -15.796875)scale(0.7)" xlink:href="#DejaVuSans-28"/>
      <use transform="translate(106.977539 -15.796875)scale(0.7)" xlink:href="#DejaVuSans-Oblique-75"/>
      <use transform="translate(151.342773 -15.796875)scale(0.7)" xlink:href="#DejaVuSans-2c"/>
      <use transform="translate(187.231445 -15.796875)scale(0.7)" xlink:href="#DejaVuSans-Oblique-76"/>
      <use transform="translate(228.657227 -15.796875)scale(0.7)" xlink:href="#DejaVuSans-29"/>
      <use transform="translate(255.966797 -15.796875)scale(0.7)" xlink:href="#DejaVuSans-2209"/>
      <use transform="translate(316.943359 -15.796875)scale(0.7)" xlink:href="#STIXNonUnicode-Italic-e233"/>
      <use transform="translate(360.277724 0.609375)" xlink:href="#DejaVuSans-28"/>
      <use transform="translate(399.291396 0.609375)" xlink:href="#DejaVuSans-Oblique-3c4"/>
      <use transform="translate(459.496474 0.609375)" xlink:href="#DejaVuSans-29"/>
     </g>
    </g>
    <g id="line2d_22">
     <path d="M 254.4 118.8 
L 284.4 118.8 
" style="fill:none;stroke:#008000;stroke-linecap:square;stroke-width:2;"/>
    </g>
    <g id="line2d_23"/>
    <g id="text_17">
     <!-- $\Phi_{(u,v)\in\mathcal{G}}(\tau)$ -->
     <g transform="translate(296.4 124.05)scale(0.15 -0.15)">
      <use transform="translate(0 0.125)" xlink:href="#DejaVuSans-3a6"/>
      <use transform="translate(79.667969 -16.28125)scale(0.7)" xlink:href="#DejaVuSans-28"/>
      <use transform="translate(106.977539 -16.28125)scale(0.7)" xlink:href="#DejaVuSans-Oblique-75"/>
      <use transform="translate(151.342773 -16.28125)scale(0.7)" xlink:href="#DejaVuSans-2c"/>
      <use transform="translate(187.231445 -16.28125)scale(0.7)" xlink:href="#DejaVuSans-Oblique-76"/>
      <use transform="translate(228.657227 -16.28125)scale(0.7)" xlink:href="#DejaVuSans-29"/>
      <use transform="translate(269.604492 -16.28125)scale(0.7)" xlink:href="#DejaVuSans-2208"/>
      <use transform="translate(344.21875 -16.28125)scale(0.7)" xlink:href="#STIXNonUnicode-Italic-e233"/>
      <use transform="translate(387.553114 0.125)" xlink:href="#DejaVuSans-28"/>
      <use transform="translate(426.566786 0.125)" xlink:href="#DejaVuSans-Oblique-3c4"/>
      <use transform="translate(486.771864 0.125)" xlink:href="#DejaVuSans-29"/>
     </g>
    </g>
   </g>
  </g>
 </g>
 <defs>
  <clipPath id="p17cb237a1d">
   <rect height="277.2" width="334.8" x="54" y="43.2"/>
  </clipPath>
 </defs>
</svg>
